<?xml version="1.0" encoding="utf-8"?>
<!-- Generator: Adobe Illustrator 14.0.0, SVG Export Plug-In . SVG Version: 6.00 Build 43363)  -->
<!DOCTYPE svg PUBLIC "-//W3C//DTD SVG 1.1//EN" "http://www.w3.org/Graphics/SVG/1.1/DTD/svg11.dtd">
<svg version="1.1" id="レイヤー_1" xmlns="http://www.w3.org/2000/svg" xmlns:xlink="http://www.w3.org/1999/xlink" x="0px"
	 y="0px" width="595.28px" height="841.89px" viewBox="0 0 595.28 841.89" enable-background="new 0 0 595.28 841.89"
	 xml:space="preserve">
<path fill="#221714" d="M332.088,376.339c-0.783-0.68-1.785-0.816-2.84-0.834c-1.824-0.152-2.779,1.771-4.123,2.793
	c-0.527,0.383-0.727,0.654-1.227,1.064c-0.29,0.26-0.493,0.365-0.784,0.57c-0.582,0.285-1.043,0.734-1.72,0.869
	c-2.368,0.732-4.424-0.732-6.811-0.563c-0.152-0.018-0.289-0.119-0.289-0.291c0.479-1.531,1.649-2.809,2.401-4.24
	c0.12-0.287,0.274-0.645,0.12-0.969c-0.12-0.324-0.461-0.51-0.732-0.613c-0.529-0.17-1.177-0.084-1.584,0.271
	c-0.548,0.955-0.768,2.027-1.107,3.066c-0.426,1.141-0.782,2.4-1.858,3.236c-1.274,0.799-2.567,1.564-3.967,2.094
	c-1.242-0.631-2.535-1.141-3.882-1.549l-0.323-0.818c-0.255-0.988,0.308-1.805,0.75-2.588c0.36-0.682,1.073-1.227,1.226-1.994
	c-0.049-0.307-0.222-0.561-0.478-0.781c-0.44-0.529-1.104-0.631-1.753-0.529c-0.325,0.068-0.458,0.426-0.614,0.664
	c-0.729,1.688-1.53,3.475-1.26,5.434c-4.529-1.158-9.398-0.223-13.164,1.939c-0.134,0.086-0.357,0.188-0.492,0.086
	c0.153-1.158,0.647-2.23,0.51-3.457c-0.219-0.375-0.611-0.596-1.002-0.715c-0.699-0.205-1.484-0.068-2.01,0.426
	c-0.853,0.545-0.511,1.652-0.461,2.469c-0.05,1.039,0.412,2.469-0.578,3.082c-1.226,0.238-2.453-0.084-3.558-0.426
	c-0.735-0.289-1.635-0.494-2.045-1.295c-0.356-1.379,0.136-2.707,0.357-3.982c-0.016-0.529-0.357-1.057-0.851-1.295
	c-0.614-0.271-1.379-0.119-1.942,0.119c-0.578,0.256-0.728,0.852-0.715,1.396c0.34,1.227,0.989,2.57,0.512,3.934
	c-0.291,0.629-0.955,0.715-1.5,0.902c-1.939,0.492-3.777-0.273-4.936-1.924c-1.771-1.771-2.025-5.518-5.261-5.381
	c-0.938,0.271-1.721,1.293-1.926,2.195c0,0.357,0.273,0.613,0.512,0.867c1.957,1.244,3.9,2.521,5.601,4.379
	c1.688,2.129,4.547,1.939,6.998,1.617c2.352-0.375,4.852-0.119,6.881,0.818c0.117,0.084,0.34,0.135,0.356,0.34
	c-3.493,3.252-4.563,7.779-3.83,12.498c0.236,2.367,1.462,4.342,1.431,6.811c-1.094,2.98-0.445,6.523,1.856,8.736l-0.088,0.596
	c-0.576,1.141-1.123,2.281-1.496,3.508c-0.118,0.273-0.51,0.102-0.649,0.408c0.053,0.426-0.426,0.41-0.51,0.783
	c-0.05,0.223-0.033,0.477,0.155,0.631c-0.854,1.465-1.399,3.066-1.346,4.92c0.035,1.822,1.225,3.594,2.928,4.258
	c0.785,0.291,1.584-0.137,2.234-0.41v0.139c-0.14,0.443,0.627,1.225-0.224,1.277c-0.325,0.748-0.409,1.684-0.375,2.486
	c-0.254,0.918-0.375,1.975-0.254,2.961c0.136,0.018,0.22-0.033,0.338-0.051l0.632,1.295c0.034,0.697,0,1.48,0.1,2.18
	c-0.17,0.117-0.406,0.137-0.49,0.357l0.203,1.412c0.152,1.449,0.031,3.016,0.543,4.309c0.172,0.051,0.308-0.068,0.443-0.068
	c0.254,1.43,0.528,2.846,0.887,4.223c0.355,1.262,0.594,2.557,1.123,3.73c0.562,0.611,1.414,0.238,2.025,0.016
	c0.461,1.857,1.024,3.662,1.772,5.398c-0.154,0.086-0.358,0.154-0.408,0.357c-0.069,0.238,0.015,0.479,0.22,0.615
	c-0.22,0.135-0.304,0.355-0.289,0.611c0.41,0.307-0.256,0.459-0.375,0.734c-1.328,0.322-2.568,1.139-3.353,2.414
	c-0.274,0.104-0.563,0.24-0.768,0.479c-0.644,0.068-0.986,0.852-1.599,0.973c-0.088,0.236-0.034,0.51,0.05,0.729
	c0.084,0.275,0.356,0.326,0.596,0.359c0.256,0.322,0.647,0.477,1.074,0.477c0.34,0.359,0.799,0.545,1.276,0.393l0.377,0.441
	c0.357,0.188,0.816,0.154,1.173,0.035c0.186,0.256,0.495,0.357,0.801,0.391c0.748,0.152,1.43-0.168,1.94-0.734
	c0.203,0.02,0.377-0.1,0.529-0.203c1.141,0.121,2.211-0.406,2.758-1.395l1.142-0.256c0.528,0.92,1.651,0.818,2.555,1.039
	c0.561,1.414,2.143,1.242,3.372,1.258c0.286,0.225,0.577,0.377,0.9,0.494c0.595,0.205,1.398,0.172,1.857-0.305
	c0.576,0.17,1.311,0.119,1.719-0.375c0.478,0.068,0.97-0.121,1.226-0.543c0.255-0.037,0.478-0.104,0.662-0.291
	c-0.032-0.477,0.565-0.322,0.58-0.785c0.051-0.236,0.034-0.492-0.151-0.662c-0.529-0.035-0.836-0.563-1.347-0.631
	c-0.39-0.426-0.851-0.697-1.394-0.799c-0.818-1.107-1.994-1.449-2.983-2.215c-0.084-0.203-0.492-0.527-0.084-0.697
	c0.135-0.238,0.067-0.613-0.138-0.785c0.121-0.17,0.172-0.391,0.121-0.594c-0.051-0.256-0.34-0.357-0.563-0.408
	c0.373-1.637,0.702-3.305,0.938-5.025c-0.104-0.545,0.613-0.238,0.867-0.355c0.461-0.189,1.396,0.271,1.362-0.514
	c0.121-1.873,0.034-3.813,0.256-5.652c0-0.152,0.151-0.357,0.322-0.238c0.206,0.035,0.31-0.154,0.288-0.307
	c-0.135-1.822,0.311-3.49,0.718-5.125l0.289-0.289c0.036-0.666,0.597-1.125,1.039-1.635c0.135-0.426,0.222-0.869,0.392-1.295
	c0.086-1.295,0.307-2.553,0.174-3.83l0.047-0.018c0.188-0.104,0.308-0.322,0.272-0.545c-0.319-0.289,0.136-0.223,0.203-0.494
	c0.088-0.17,0.036-0.408-0.048-0.578c1.72-1.379,3.13-3.152,4.563-4.785c0.646-0.938,1.582-1.738,1.446-3.016
	c-0.373-1.992-1.19-3.797-2.075-5.566c0.186-0.17,0.34-0.426,0.271-0.682c-0.118-0.324-0.58-0.256-0.342-0.682
	c-0.084-0.203-0.219-0.459-0.459-0.527c-0.069-0.426-0.274-0.801-0.478-1.174c-0.272-0.479-0.577-1.039-1.088-1.295
	c-0.237-0.494-0.666-0.936-1.073-1.328c0.17-0.086,0.375-0.086,0.527-0.17c1.738-0.801,0.716-2.879,0.886-4.359
	c0.033-1.77-0.155-3.629,0.427-5.178c1.276-3.643,3.03-7.186,2.535-11.459c-0.561-3.441-1.755-6.658-4.395-9.195
	c1.535-0.697,3.084-1.363,4.734-1.805c3.084-0.666,5.737,1.754,8.756,0.426l6.297-3.049l2.197-1.174
	c0.41-0.291,0.973-0.512,1.123-1.004C332.377,376.954,332.327,376.612,332.088,376.339"/>
<path fill="#221714" d="M314.28,374.149c-0.026,0.023-0.051,0.053-0.065,0.084c-0.424,0.736-0.66,1.535-0.887,2.309
	c0,0-0.252,0.816-0.252,0.818l-0.138,0.379c-0.356,0.988-0.728,2.01-1.597,2.689c-1.106,0.693-2.396,1.465-3.764,2.002
	c-1.143-0.57-2.365-1.057-3.642-1.453c-0.072-0.188-0.235-0.602-0.253-0.645c-0.036-0.139-0.051-0.275-0.051-0.408
	c0-0.588,0.306-1.125,0.635-1.688l0.132-0.236c0.129-0.246,0.308-0.469,0.495-0.707c0.324-0.41,0.662-0.836,0.768-1.383
	c0.006-0.023,0.008-0.043,0.008-0.066c0-0.018-0.002-0.035-0.006-0.053c-0.06-0.365-0.256-0.695-0.584-0.98
	c0.012,0.012,0.023,0.025,0.034,0.039c-0.469-0.561-1.179-0.783-2.06-0.645c-0.418,0.09-0.616,0.426-0.756,0.672l-0.084,0.141
	c-0.006,0.011-0.019,0.035-0.026,0.047l-0.044,0.105c-0.641,1.473-1.299,2.986-1.299,4.654c0,0.127,0.019,0.258,0.029,0.387
	c-4.191-0.941-8.965-0.197-12.888,2.029c0.047-0.232,0.1-0.465,0.157-0.707c0.146-0.605,0.298-1.229,0.298-1.9
	c0-0.154-0.006-0.311-0.025-0.471c-0.004-0.047-0.022-0.09-0.045-0.131c-0.234-0.398-0.646-0.697-1.193-0.863
	c-0.842-0.248-1.737-0.057-2.328,0.5c0.011-0.015,0.027-0.027,0.043-0.037c-0.583,0.373-0.719,0.953-0.719,1.52
	c0,0.275,0.031,0.547,0.06,0.789c0,0,0.045,0.434,0.047,0.451c-0.002,0.055-0.004,0.107-0.004,0.162
	c0,0.232,0.018,0.475,0.033,0.711c0.02,0.254,0.034,0.488,0.034,0.697c0,0.551-0.1,0.942-0.448,1.186
	c-1.127,0.197-2.255-0.1-3.316-0.426c-0.031-0.012-0.352-0.131-0.352-0.131c-0.613-0.223-1.193-0.438-1.482-0.969
	c-0.076-0.303-0.107-0.607-0.107-0.91c0-0.668,0.146-1.332,0.289-1.982l0.187-0.916c0.006-0.018,0.006-0.031,0.006-0.049v-0.018
	c-0.021-0.656-0.439-1.293-1.039-1.582c-0.861-0.383-1.834-0.049-2.215,0.113c-0.594,0.262-0.918,0.834-0.918,1.619v0.092
	c0.002,0.029,0.004,0.051,0.014,0.078l0.224,0.732c0.219,0.686,0.444,1.387,0.444,2.086c0,0.301-0.045,0.602-0.145,0.898
	c-0.179,0.375-0.558,0.492-0.996,0.623c0,0-0.242,0.076-0.279,0.088c-1.77,0.447-3.483-0.223-4.584-1.795
	c-0.01-0.016-0.022-0.029-0.035-0.043c-0.563-0.561-0.961-1.336-1.389-2.158c-0.826-1.604-1.766-3.418-4.123-3.32
	c-0.027,0.002-0.053,0.006-0.078,0.014c-1.115,0.324-1.942,1.5-2.154,2.441c-0.008,0.023-0.01,0.049-0.01,0.072
	c0,0.459,0.301,0.777,0.543,1.033l0.06,0.063c0.018,0.02,0.039,0.037,0.061,0.053c2.062,1.309,3.902,2.537,5.537,4.32
	c-0.006-0.006-0.01-0.012-0.016-0.018c1.94,2.447,5.428,1.986,7.303,1.738c2.359-0.373,4.795-0.086,6.693,0.791
	c0.026,0.014,0.032,0.018,0.049,0.029c-2.566,2.516-3.925,5.914-3.925,9.791c0,0.9,0.07,1.824,0.218,2.77
	c0.106,1.057,0.408,2.053,0.705,3.016c0.371,1.209,0.723,2.352,0.723,3.645v0.049c-0.35,0.971-0.52,1.984-0.52,2.984
	c0,2.215,0.829,4.371,2.356,5.912c-0.024,0.15-0.047,0.324-0.057,0.385c-0.511,1.012-1.08,2.188-1.474,3.453
	c-0.024,0.006-0.08,0.021-0.08,0.021c-0.155,0.035-0.436,0.1-0.575,0.408c-0.019,0.041-0.027,0.088-0.027,0.135v0.039
	c0.002,0.008,0.004,0.014,0.004,0.02c0,0.027-0.016,0.043-0.117,0.119c-0.127,0.098-0.326,0.248-0.389,0.533
	c-0.021,0.096-0.033,0.191-0.033,0.281c0,0.168,0.041,0.32,0.115,0.451c-0.861,1.545-1.287,3.074-1.287,4.656
	c0,0.082,0,0.162,0.002,0.244c0.039,1.975,1.33,3.85,3.141,4.557c0.734,0.271,1.439,0.031,2.037-0.223
	c0.023,0.109,0.054,0.217,0.091,0.317c0.026,0.079,0.061,0.19,0.071,0.259c-0.02,0.004-0.047,0.01-0.09,0.012
	c-0.123,0.008-0.234,0.086-0.283,0.199c-0.34,0.785-0.406,1.686-0.406,2.299c0,0.105,0.001,0.197,0.005,0.283
	c-0.197,0.729-0.302,1.488-0.302,2.207c0,0.285,0.017,0.563,0.048,0.83c0.02,0.152,0.139,0.271,0.288,0.289
	c0.076,0.01,0.138,0.006,0.197-0.003c0.142,0.292,0.439,0.903,0.486,0.999c0.002,0.107,0.016,0.645,0.016,0.645
	c0.008,0.42,0.023,0.848,0.066,1.262c-0.15,0.068-0.355,0.172-0.455,0.432c-0.014,0.037-0.019,0.078-0.019,0.119
	c0,0.016,0,0.031,0.002,0.049l0.205,1.41c0.043,0.418,0.064,0.869,0.084,1.305c0.05,1.045,0.101,2.125,0.482,3.078
	c0.035,0.096,0.113,0.168,0.213,0.197c0.101,0.029,0.191,0.025,0.275,0.014c0.231,1.268,0.487,2.6,0.825,3.906
	c0.003,0.008,0.285,1.074,0.285,1.074c0.228,0.904,0.466,1.84,0.857,2.709c0.016,0.031,0.033,0.061,0.059,0.088
	c0.601,0.656,1.425,0.445,2.043,0.227c0.459,1.797,0.978,3.379,1.582,4.818c-0.129,0.088-0.262,0.213-0.313,0.424
	c-0.027,0.082-0.037,0.164-0.037,0.244c0,0.154,0.047,0.305,0.125,0.438c-0.105,0.158-0.17,0.346-0.17,0.563v0.084
	c0.006,0.053,0.033,0.107,0.065,0.154c-0.014,0.01-0.028,0.021-0.039,0.031c-0.09,0.064-0.18,0.145-0.258,0.234
	c-1.416,0.372-2.606,1.234-3.379,2.438c-0.235,0.094-0.496,0.23-0.717,0.447c-0.371,0.084-0.652,0.326-0.902,0.549
	c-0.201,0.184-0.393,0.357-0.596,0.396c-0.113,0.021-0.207,0.102-0.248,0.213c-0.047,0.127-0.065,0.254-0.065,0.379
	c0,0.215,0.057,0.414,0.116,0.57c0.133,0.414,0.506,0.521,0.754,0.564c0.275,0.285,0.652,0.451,1.088,0.482
	c0.378,0.35,0.832,0.494,1.279,0.428c0.113,0.129,0.26,0.303,0.26,0.303c0.027,0.031,0.06,0.059,0.097,0.078
	c0.442,0.23,0.922,0.184,1.225,0.113c0.211,0.188,0.494,0.305,0.849,0.348c0.766,0.15,1.518-0.117,2.135-0.738
	c0.194-0.023,0.352-0.105,0.481-0.189c1.189,0.082,2.263-0.461,2.871-1.439c0.162-0.037,0.553-0.123,0.797-0.178
	c0.496,0.646,1.269,0.77,1.961,0.873c0,0,0.347,0.063,0.519,0.092c0.635,1.285,2.045,1.295,3.192,1.293h0.296
	c0.272,0.195,0.556,0.354,0.886,0.475c0.633,0.217,1.479,0.201,2.055-0.26c0.557,0.119,1.26,0.066,1.754-0.393
	c0.513,0.023,0.984-0.195,1.285-0.58c0.228-0.043,0.492-0.129,0.723-0.361c0.061-0.061,0.093-0.17,0.093-0.256l0.002-0.031
	c0.009-0.004,0.067-0.037,0.106-0.057c0.16-0.084,0.453-0.244,0.472-0.654c0.015-0.08,0.026-0.16,0.026-0.236
	c0-0.279-0.096-0.518-0.285-0.691c-0.055-0.049-0.127-0.08-0.202-0.086c-0.183-0.01-0.345-0.125-0.533-0.258s-0.403-0.275-0.67-0.34
	c-0.399-0.406-0.86-0.672-1.375-0.793c-0.556-0.705-1.239-1.113-1.901-1.503c-0.359-0.208-0.701-0.409-1.023-0.655
	c-0.039-0.064-0.079-0.127-0.079-0.127c-0.013-0.021-0.031-0.049-0.05-0.074c0.037-0.029,0.07-0.061,0.091-0.096
	c0.079-0.135,0.116-0.295,0.116-0.455c0-0.189-0.057-0.377-0.155-0.535c0.052-0.129,0.084-0.26,0.084-0.393
	c0-0.082-0.007-0.165-0.028-0.242c-0.048-0.24-0.216-0.426-0.496-0.548c0.379-1.687,0.67-3.25,0.877-4.759
	c0-0.008,0.002-0.02,0.002-0.031c0-0.006-0.002-0.012-0.002-0.02c0.055,0,0.115,0.002,0.162,0.004
	c0.178,0.01,0.358,0.02,0.521-0.055c0.072-0.029,0.257-0.018,0.421-0.01c0.319,0.018,0.681,0.037,0.926-0.205
	c0.138-0.135,0.207-0.322,0.207-0.559c0-0.012-0.002-0.023-0.002-0.035c0.05-0.748,0.065-1.52,0.076-2.264
	c0.024-1.096,0.045-2.227,0.172-3.299c0.16,0.012,0.313-0.037,0.429-0.146c0.123-0.115,0.19-0.285,0.19-0.459
	c0-0.023,0-0.047-0.001-0.068c-0.018-0.215-0.023-0.43-0.023-0.643c0-1.443,0.344-2.824,0.68-4.162c0,0,0.015-0.061,0.031-0.117
	l0.223-0.223c0.056-0.059,0.091-0.135,0.097-0.217c0.021-0.422,0.347-0.771,0.694-1.145l0.261-0.289
	c0.038-0.039,0.054-0.068,0.069-0.119l0.142-0.502c0.073-0.268,0.142-0.521,0.239-0.77c0.013-0.029,0.021-0.068,0.025-0.102
	l0.092-1.068c0.06-0.631,0.123-1.275,0.123-1.926c0-0.225-0.019-0.453-0.035-0.682c0.199-0.162,0.322-0.402,0.322-0.658
	c0-0.045-0.004-0.088-0.015-0.131c-0.002-0.016-0.008-0.029-0.015-0.041c0.084-0.066,0.166-0.16,0.207-0.302
	c0.045-0.099,0.062-0.204,0.062-0.304s-0.017-0.191-0.038-0.273c1.364-1.133,2.547-2.488,3.68-3.811l0.746-0.857
	c0.006-0.006,0.018-0.025,0.021-0.031l0.435-0.576c0.537-0.686,1.09-1.391,1.09-2.373c0-0.094-0.006-0.189-0.019-0.289
	c0-0.008-0.002-0.016-0.002-0.025c-0.351-1.852-1.06-3.531-2.009-5.449c0.146-0.191,0.222-0.404,0.222-0.613
	c0-0.07-0.008-0.141-0.024-0.211c-0.004-0.01-0.006-0.018-0.01-0.027c-0.082-0.229-0.256-0.346-0.359-0.414v-0.002
	c0.019-0.049,0.035-0.107,0.035-0.164c0-0.041-0.008-0.082-0.022-0.115c-0.052-0.121-0.192-0.438-0.476-0.617
	c-0.096-0.408-0.287-0.77-0.475-1.115c-0.003-0.006-0.035-0.061-0.035-0.061c-0.256-0.451-0.58-0.996-1.097-1.303
	c-0.179-0.344-0.431-0.66-0.707-0.953c0.024-0.008,0.043-0.016,0.065-0.025c0.984-0.463,1.209-1.293,1.209-2.143
	c0-0.373-0.043-0.75-0.084-1.1c-0.041-0.363-0.078-0.711-0.078-1.029c0-0.119,0.004-0.234,0.015-0.344
	c0.003-0.012,0.003-0.018,0.003-0.031v-1.205c-0.003-0.234-0.005-0.467-0.005-0.695c0-1.139,0.054-2.213,0.408-3.166
	c0.004-0.006,0.681-1.85,0.681-1.85c0.965-2.584,1.963-5.246,1.963-8.24c0-0.5-0.025-1.006-0.086-1.525
	c-0.64-3.912-1.972-6.791-4.16-9.045c1.28-0.576,2.729-1.188,4.258-1.596c1.306-0.281,2.539,0.031,3.84,0.363
	c1.578,0.4,3.211,0.816,4.959,0.043c0.011-0.004,6.314-3.051,6.314-3.051c0.008-0.006,2.205-1.182,2.205-1.182
	c0.008-0.004,0.028-0.016,0.036-0.021l0.291-0.186c0.375-0.232,0.804-0.496,0.955-0.992c0.013-0.031,0.017-0.064,0.017-0.096
	c0-0.389-0.043-0.836-0.371-1.207c-0.01-0.012-0.021-0.023-0.031-0.033c-0.895-0.777-2.049-0.898-3.057-0.914h0.022
	c-1.423-0.119-2.343,0.852-3.231,1.791c-0.357,0.381-0.729,0.771-1.117,1.068c-0.315,0.229-0.521,0.42-0.731,0.62l-0.506,0.452
	c-0.199,0.178-0.347,0.275-0.521,0.391c0,0-0.199,0.135-0.228,0.154c-0.205,0.104-0.397,0.223-0.576,0.338
	c-0.334,0.211-0.647,0.41-1.032,0.486c-0.011,0.002-0.021,0.006-0.033,0.008c-1.264,0.393-2.442,0.111-3.69-0.184
	c-0.937-0.223-1.903-0.449-2.942-0.396c0.293-0.849,0.799-1.62,1.336-2.433c0.344-0.518,0.698-1.053,0.989-1.609
	c0.005-0.008,0.009-0.018,0.015-0.025l0.006-0.02c0.086-0.207,0.201-0.486,0.201-0.783c0-0.139-0.025-0.281-0.092-0.422
	c-0.132-0.344-0.447-0.619-0.918-0.795C315.522,373.597,314.756,373.733,314.28,374.149 M315.983,374.442
	c0.151,0.057,0.442,0.193,0.522,0.412c0.004,0.01,0.006,0.018,0.012,0.027c0.02,0.047,0.029,0.1,0.029,0.156
	c0,0.162-0.078,0.352-0.151,0.525c-0.272,0.523-0.617,1.041-0.949,1.543c-0.565,0.857-1.157,1.748-1.468,2.744
	c-0.01,0.031-0.016,0.066-0.016,0.098c0,0.326,0.24,0.58,0.584,0.619c0.019,0.004,0.041,0.004,0.062,0.004
	c0.974-0.07,1.927,0.154,2.847,0.373c1.274,0.303,2.594,0.615,4.023,0.178c0.494-0.104,0.871-0.343,1.238-0.574
	c0.185-0.117,0.356-0.227,0.543-0.318c0.015-0.006,0.033-0.018,0.047-0.025l0.226-0.154c0.187-0.123,0.363-0.24,0.587-0.441
	l0.526-0.471c0.208-0.195,0.385-0.363,0.672-0.572c0.438-0.332,0.83-0.744,1.205-1.145c0.815-0.863,1.588-1.678,2.696-1.584h0.021
	c0.927,0.014,1.884,0.115,2.61,0.736c0.129,0.156,0.186,0.363,0.193,0.689c-0.092,0.24-0.363,0.41-0.654,0.59
	c0,0-0.254,0.162-0.299,0.191c-0.017,0.01-2.188,1.172-2.188,1.172c0.013-0.006-6.289,3.041-6.289,3.041
	c-1.528,0.674-2.979,0.305-4.519-0.086c-1.319-0.336-2.682-0.684-4.158-0.365c-1.76,0.471-3.402,1.189-4.801,1.826
	c-0.1,0.045-0.172,0.137-0.192,0.246c-0.015,0.107,0.019,0.219,0.101,0.295c2.285,2.197,3.649,5.061,4.295,9.01
	c0.397,3.455-0.74,6.5-1.842,9.443l-0.683,1.854c-0.468,1.254-0.455,2.699-0.442,4.094v1.188c0-0.014,0-0.021,0.002-0.031
	c-0.017,0.135-0.021,0.273-0.021,0.414c0,0.363,0.043,0.738,0.084,1.105c0.044,0.395,0.078,0.744,0.078,1.053
	c0,0.725-0.184,1.223-0.836,1.523c-0.008,0.004-0.016,0.006-0.026,0.01c-0.034,0.021-0.104,0.037-0.173,0.055l-0.338,0.109
	c-0.112,0.037-0.172,0.117-0.198,0.232c-0.007,0.018-0.007,0.035-0.007,0.055c0,0.094,0.054,0.182,0.123,0.248
	c0.396,0.379,0.791,0.791,1.003,1.232c0.032,0.066,0.086,0.121,0.151,0.154c0.401,0.199,0.678,0.682,0.92,1.105l0.029,0.057
	c0.194,0.355,0.381,0.693,0.438,1.061c0.021,0.129,0.171,0.08,0.296,0.113c0.045,0.014,0.165,0.092,0.241,0.244
	c-0.02,0.068,0.105,0.172,0.105,0.23c0,0.283,0.057,0.35,0.15,0.41c0.054,0.037,0.102,0.113,0.115,0.137
	c0,0.006,0.092,0.299,0.092,0.305c0,0.102-0.157,0.156-0.25,0.242c-0.071,0.064-0.225,0.066-0.225,0.158
	c0,0.051,0.01,0.102,0.035,0.148c0.977,1.951,1.696,3.629,2.045,5.467c0.006,0.066,0.012,0.131,0.012,0.193
	c0,0.768-0.461,1.355-0.947,1.977c0,0-0.409,0.543-0.439,0.586c-0.013,0.014-0.74,0.855-0.74,0.855
	c-1.168,1.357-2.379,2.762-3.774,3.881c-0.082,0.066-0.123,0.162-0.123,0.26c0,0.051,0.011,0.102,0.034,0.148
	c0.043,0.086,0.061,0.172,0.061,0.227c0,0.025-0.004,0.045-0.011,0.054c-0.004,0.013-0.007,0.024-0.013,0.038
	c-0.01,0.006-0.055,0.037-0.055,0.037c-0.092,0.05-0.263,0.146-0.281,0.363c-0.004,0.014-0.004,0.027-0.004,0.041
	c0,0.119,0.051,0.213,0.106,0.285c-0.013,0.051-0.038,0.096-0.086,0.125c-0.002,0-0.006,0.002-0.006,0.002
	c-0.134,0.045-0.224,0.172-0.224,0.314c0,0.01,0,0.023,0.002,0.035c0.027,0.275,0.041,0.551,0.041,0.826
	c0,0.609-0.06,1.223-0.119,1.859c0,0-0.082,0.957-0.088,1.041c-0.103,0.266-0.178,0.531-0.248,0.789c0,0-0.088,0.311-0.116,0.408
	c-0.063,0.068-0.203,0.223-0.203,0.223c-0.362,0.393-0.767,0.832-0.853,1.424l-0.211,0.211c-0.041,0.041-0.07,0.096-0.086,0.152
	l-0.049,0.203c-0.349,1.377-0.701,2.797-0.701,4.322c0,0.209,0.008,0.418,0.022,0.629c-0.097-0.012-0.194-0.002-0.289,0.049
	c-0.187,0.098-0.321,0.322-0.321,0.547c0-0.014,0-0.027,0.002-0.039c-0.136,1.121-0.156,2.289-0.181,3.42
	c-0.011,0.74-0.028,1.51-0.075,2.25c-0.003,0.012-0.003,0.023-0.003,0.037c0.005,0.07-0.006,0.105-0.011,0.113
	c-0.049,0.033-0.29,0.02-0.417,0.012c-0.248-0.014-0.5-0.027-0.726,0.064c-0.039,0.01-0.149,0.006-0.219,0
	c-0.24-0.012-0.541-0.029-0.736,0.193c-0.065,0.074-0.131,0.195-0.131,0.375c0,0.024,0.004,0.053,0.008,0.08
	c-0.219,1.572-0.521,3.194-0.926,4.965c-0.009,0.025-0.011,0.051-0.011,0.076c0,0.148,0.106,0.287,0.259,0.322
	c0.291,0.064,0.311,0.145,0.311,0.148c0.009,0.033,0.013,0.066,0.013,0.1c0,0.088-0.028,0.172-0.077,0.242
	c-0.039,0.059-0.063,0.123-0.063,0.189c0,0.096,0.043,0.191,0.121,0.256c0.056,0.045,0.088,0.146,0.088,0.24
	c0,0.023-0.008,0.043-0.012,0.063c-0.133,0.092-0.195,0.205-0.217,0.291c-0.015,0.049-0.02,0.094-0.02,0.137
	c0,0.209,0.127,0.389,0.216,0.516l0.073,0.109c0.02,0.031,0.072,0.111,0.101,0.135c0.367,0.283,0.757,0.51,1.132,0.729
	c0.67,0.391,1.299,0.758,1.787,1.42c0.049,0.066,0.122,0.113,0.204,0.129c0.466,0.086,0.862,0.314,1.214,0.697
	c0.053,0.056,0.122,0.094,0.2,0.104c0.164,0.023,0.319,0.131,0.494,0.256c0.2,0.139,0.424,0.287,0.708,0.348
	c0.02,0.043,0.033,0.092,0.033,0.145c0,0.051-0.008,0.104-0.018,0.148c-0.002,0.008-0.007,0.049-0.007,0.056l-0.004,0.028
	c-0.011,0.016-0.08,0.051-0.121,0.074c-0.129,0.068-0.364,0.211-0.427,0.506c-0.1,0.076-0.217,0.125-0.405,0.15
	c-0.097,0.012-0.188,0.07-0.239,0.158c-0.174,0.289-0.523,0.441-0.896,0.387c-0.112-0.016-0.228,0.027-0.302,0.117
	c-0.33,0.398-0.944,0.395-1.369,0.268c-0.12-0.035-0.248-0.002-0.332,0.088c-0.37,0.383-1.043,0.385-1.514,0.223
	c-0.297-0.109-0.558-0.25-0.806-0.441c-0.058-0.047-0.127-0.07-0.196-0.07l-0.402-0.002c-1.105,0.004-2.246,0.006-2.666-1.049
	c-0.043-0.105-0.118-0.178-0.231-0.199l-0.715-0.129c-0.703-0.105-1.31-0.195-1.631-0.754c-0.072-0.125-0.216-0.188-0.357-0.158
	l-1.143,0.256c-0.091,0.021-0.173,0.08-0.218,0.162c-0.477,0.865-1.409,1.336-2.434,1.229c-0.076-0.01-0.168,0.02-0.23,0.063
	c-0.108,0.072-0.221,0.148-0.305,0.143c-0.104-0.01-0.201,0.029-0.274,0.105c-0.275,0.305-0.851,0.789-1.626,0.631
	c-0.012-0.002-0.022-0.004-0.032-0.004c-0.273-0.031-0.465-0.119-0.568-0.258c-0.086-0.119-0.236-0.164-0.373-0.119
	c-0.248,0.082-0.602,0.119-0.871,0c-0.078-0.09-0.321-0.379-0.321-0.379c-0.087-0.1-0.228-0.141-0.355-0.1
	c-0.43,0.141-0.772-0.129-0.936-0.305c-0.06-0.066-0.148-0.102-0.238-0.102c-0.346,0-0.637-0.127-0.814-0.352
	c-0.055-0.066-0.129-0.111-0.213-0.121c-0.252-0.037-0.307-0.074-0.326-0.131c-0.002-0.008-0.004-0.016-0.008-0.021
	c-0.047-0.125-0.072-0.242-0.072-0.344c0-0.004,0.002-0.01,0.002-0.016c0.273-0.111,0.492-0.305,0.689-0.482
	c0.228-0.207,0.426-0.387,0.656-0.41c0.084-0.012,0.162-0.049,0.217-0.113c0.162-0.188,0.412-0.299,0.633-0.383
	c0.068-0.027,0.127-0.076,0.166-0.137c0.697-1.139,1.816-1.945,3.15-2.27c0.092-0.023,0.18-0.104,0.225-0.189l-0.004,0.008
	c0.018-0.029,0.105-0.094,0.158-0.131c0.16-0.117,0.379-0.277,0.379-0.549v-0.003c0-0.11-0.053-0.212-0.129-0.308
	c0.016-0.121,0.074-0.18,0.129-0.213c0.094-0.059,0.156-0.164,0.156-0.277v-0.004c0-0.109-0.052-0.215-0.144-0.277
	c-0.065-0.041-0.1-0.104-0.1-0.174c0-0.023,0.004-0.047,0.012-0.07c0.008-0.037,0.111-0.086,0.158-0.113l0.094-0.049
	c0.111-0.059,0.172-0.168,0.172-0.285c0-0.045-0.012-0.09-0.032-0.135c-0.677-1.572-1.25-3.322-1.752-5.346
	c-0.023-0.092-0.082-0.17-0.166-0.213c-0.084-0.045-0.179-0.053-0.267-0.02l-0.133,0.049c-0.641,0.236-1.16,0.383-1.506,0.043
	c-0.349-0.795-0.566-1.639-0.795-2.531l-0.285-1.086c-0.361-1.395-0.637-2.838-0.877-4.189c-0.017-0.09-0.035-0.17-0.107-0.221
	c-0.076-0.051-0.133-0.07-0.221-0.053c0,0-0.131,0.027-0.205,0.043c-0.262-0.797-0.316-1.688-0.363-2.633
	c-0.02-0.447-0.043-0.908-0.09-1.355c0-0.01-0.137-0.941-0.186-1.289c0.026-0.014,0.057-0.029,0.1-0.049l0.234-0.123
	c0.102-0.057,0.145-0.145,0.145-0.252c0-0.023-0.002-0.045-0.004-0.068c-0.066-0.445-0.074-0.939-0.082-1.418l-0.018-0.73
	c0-0.049-0.011-0.088-0.033-0.131l-0.629-1.293c-0.066-0.131-0.187-0.209-0.33-0.184c-0.01-0.139-0.025-0.273-0.025-0.416
	c0-0.674,0.099-1.391,0.291-2.078c0.008-0.029,0.011-0.059,0.011-0.088c0-0.006,0-0.01-0.001-0.016
	c-0.002-0.09-0.004-0.193-0.004-0.311c0-0.508,0.06-1.225,0.296-1.865c0.137-0.035,0.29-0.102,0.395-0.256
	c0.07-0.107,0.096-0.223,0.096-0.338c0-0.179-0.061-0.359-0.116-0.518c-0.031-0.094-0.085-0.26-0.085-0.34
	c0-0.008,0-0.016,0.002-0.023c0.009-0.031,0.015-0.064,0.015-0.098v-0.139c0-0.111-0.055-0.215-0.148-0.277
	c-0.094-0.061-0.209-0.072-0.313-0.027l-0.222,0.096c-0.559,0.244-1.192,0.521-1.766,0.309c-1.563-0.611-2.678-2.236-2.713-3.953
	c-0.002-0.074-0.004-0.15-0.004-0.225c0-1.533,0.43-3.016,1.305-4.523c0.031-0.053,0.045-0.109,0.045-0.166
	c0-0.098-0.043-0.191-0.121-0.256c-0.041-0.035-0.057-0.098-0.057-0.166c0-0.045,0.006-0.092,0.016-0.135
	c0.011-0.047,0.048-0.08,0.148-0.154c0.133-0.102,0.336-0.27,0.367-0.578c0.02-0.006,0.057-0.014,0.088-0.021
	c0.143-0.031,0.41-0.094,0.535-0.379c0.006-0.012,0.01-0.023,0.016-0.035c0.381-1.256,0.961-2.444,1.475-3.455
	c0.017-0.033,0.027-0.068,0.035-0.104l0.084-0.596c0.002-0.016,0.004-0.031,0.004-0.047c0-0.09-0.038-0.176-0.102-0.238
	c-1.475-1.422-2.273-3.463-2.273-5.561c0-0.947,0.16-1.904,0.498-2.824c0.011-0.033,0.019-0.072,0.021-0.109v-0.102
	c0-1.395-0.381-2.637-0.752-3.84c-0.287-0.934-0.58-1.898-0.681-2.904c-0.131-0.844-0.217-1.771-0.217-2.744
	c0-3.068,0.861-6.609,3.943-9.48c0.068-0.065,0.106-0.15,0.106-0.242v-0.029c-0.028-0.334-0.301-0.477-0.43-0.545l-0.067-0.037
	c-0.009-0.004-0.046-0.027-0.052-0.031c-2.016-0.931-4.594-1.238-7.073-0.842c-2.406,0.314-5.113,0.488-6.685-1.498
	c-0.004-0.006-0.01-0.014-0.016-0.018c-1.677-1.834-3.545-3.084-5.633-4.41c-0.013-0.018-0.033-0.033-0.033-0.033
	c-0.185-0.195-0.34-0.365-0.355-0.551c0.189-0.748,0.844-1.641,1.65-1.893c1.899-0.055,2.656,1.41,3.459,2.963
	c0.424,0.816,0.861,1.66,1.481,2.291c1.265,1.797,3.238,2.56,5.281,2.041c0.006,0,0.019-0.006,0.025-0.008l0.28-0.088
	c0.494-0.148,1.109-0.332,1.414-0.988c0.004-0.01,0.007-0.02,0.009-0.029c0.135-0.383,0.188-0.762,0.188-1.135
	c0-0.805-0.246-1.58-0.475-2.289c0,0-0.185-0.605-0.207-0.672v-0.027c0-0.373,0.098-0.826,0.52-1.014
	c0.621-0.264,1.246-0.309,1.674-0.119c0.359,0.174,0.625,0.576,0.65,0.979c-0.018,0.078-0.174,0.842-0.174,0.842
	c-0.15,0.689-0.306,1.393-0.306,2.121c0,0.365,0.039,0.738,0.136,1.117c0.006,0.023,0.016,0.047,0.026,0.068
	c0.402,0.789,1.179,1.07,1.867,1.32l0.349,0.131c0.008,0.002,0.018,0.008,0.026,0.008c1.115,0.344,2.414,0.688,3.719,0.436
	c0.039-0.009,0.076-0.023,0.111-0.045c0.904-0.559,0.824-1.65,0.764-2.525c-0.022-0.297-0.041-0.574-0.03-0.822v-0.035l-0.05-0.498
	c-0.096-0.811-0.124-1.363,0.359-1.672c0.016-0.012,0.033-0.023,0.047-0.037c0.426-0.396,1.072-0.531,1.691-0.35
	c0.248,0.076,0.574,0.23,0.772,0.516c0.009,0.105,0.017,0.213,0.017,0.318c0,0.588-0.135,1.15-0.279,1.742
	c-0.096,0.396-0.195,0.809-0.254,1.234c0,0.014-0.002,0.029-0.002,0.043c0,0.104,0.049,0.201,0.133,0.264
	c0.129,0.098,0.412,0.219,0.869-0.07c3.918-2.25,8.744-2.961,12.904-1.898c0.106,0.027,0.222,0,0.304-0.074
	c0.069-0.063,0.108-0.152,0.108-0.246c0-0.016,0-0.031-0.003-0.047c-0.034-0.252-0.049-0.502-0.049-0.75
	c0-1.541,0.629-2.992,1.242-4.4c0,0,0.024-0.061,0.037-0.086c0.024-0.041,0.084-0.139,0.084-0.139
	c0.092-0.16,0.187-0.328,0.301-0.35c0.631-0.1,1.117,0.039,1.431,0.416c0.013,0.014,0.026,0.025,0.038,0.037
	c0.193,0.168,0.302,0.344,0.348,0.535c-0.095,0.363-0.348,0.691-0.617,1.035c-0.197,0.25-0.402,0.51-0.558,0.801
	c0.006-0.01-0.127,0.22-0.127,0.22c-0.427,0.741-0.914,1.583-0.647,2.604c0.002,0.016,0.008,0.027,0.012,0.039l0.322,0.818
	c0.039,0.094,0.115,0.166,0.215,0.195c1.345,0.408,2.635,0.922,3.83,1.527c0.082,0.043,0.178,0.047,0.265,0.016
	c1.483-0.563,2.856-1.391,4.026-2.125c0.01-0.006,0.017-0.012,0.026-0.02c1.028-0.799,1.449-1.967,1.822-2.994l0.14-0.389
	c0.006-0.01,0.264-0.848,0.264-0.848c0.221-0.75,0.431-1.457,0.795-2.109C315.065,374.38,315.557,374.306,315.983,374.442
	 M281.971,386.657c0,0,0.025,0.014,0.035,0.02C281.992,386.671,281.978,386.661,281.971,386.657 M280.071,419.245
	c0.002,0.018,0.004,0.033,0.004,0.049v0.002C280.073,419.278,280.073,419.263,280.071,419.245 M282.887,429.507
	c-0.004,0.004-0.004,0.008-0.004,0.012C282.882,429.515,282.882,429.511,282.887,429.507 M282.274,433.368L282.274,433.368v0.014
	V433.368z M291.137,467.529c0.013,0.003,0.029,0.003,0.045,0.003C291.166,467.532,291.149,467.532,291.137,467.529 M284.283,381.384
	v-0.02v0.021V381.384z M300.899,380.632L300.899,380.632c0.004,0.016,0.004,0.029,0.006,0.045
	C300.903,380.661,300.899,380.647,300.899,380.632 M314.604,379.907L314.604,379.907c-0.014,0.002-0.03,0-0.045,0.002
	C314.588,379.907,314.594,379.904,314.604,379.907 M317.119,374.612c0.002,0.004,0.006,0.008,0.008,0.012
	c-0.004-0.008-0.008-0.018-0.013-0.027C317.117,374.603,317.117,374.606,317.119,374.612 M321.479,381.122
	c-0.006,0-0.012,0.002-0.02,0.004c0.012-0.002,0.022-0.004,0.035-0.008C321.489,381.118,321.483,381.12,321.479,381.122
	 M309.969,414.419c-0.004,0.002-0.01,0.004-0.014,0.008c0.01-0.004,0.016-0.008,0.023-0.012
	C309.977,414.417,309.975,414.417,309.969,414.419 M308.887,434.029c-0.006,0.017-0.006,0.032-0.016,0.048
	c0.01-0.023,0.02-0.045,0.024-0.066C308.893,434.019,308.889,434.022,308.887,434.029 M308.272,466.062
	c-0.002,0.018,0,0.033-0.003,0.049c0.003-0.018,0.005-0.035,0.005-0.057C308.274,466.058,308.274,466.06,308.272,466.062
	 M283.098,466.163c0-0.004-0.002-0.012-0.004-0.014c-0.002-0.004-0.004-0.006-0.004-0.008
	C283.091,466.149,283.096,466.154,283.098,466.163 M288.666,468.468c-0.008-0.002-0.012-0.002-0.02-0.002
	c-0.003-0.004-0.005-0.004-0.011-0.004C288.646,468.466,288.655,468.466,288.666,468.468"/>
<path fill="#221714" d="M316.816,374.739c0.153,0.324,0,0.682-0.119,0.969c-0.752,1.432-1.924,2.709-2.402,4.24
	c0,0.172,0.136,0.273,0.289,0.291c2.386-0.17,4.443,1.295,6.811,0.563c0.678-0.136,1.139-0.585,1.721-0.87
	c0.291-0.205,0.494-0.313,0.783-0.57c0.5-0.41,0.698-0.682,1.227-1.064c1.343-1.021,2.298-2.945,4.123-2.793
	c1.054,0.018,2.056,0.154,2.839,0.834c0.241,0.273,0.29,0.615,0.29,0.99c-0.15,0.492-0.713,0.713-1.123,1.004l-2.198,1.174
	l-6.297,3.049c-3.017,1.328-5.672-1.092-8.756-0.426c-1.649,0.441-3.199,1.107-4.733,1.805c2.641,2.537,3.834,5.754,4.395,9.195
	c0.496,4.273-1.258,7.816-2.536,11.459c-0.582,1.549-0.392,3.408-0.425,5.178c-0.17,1.48,0.851,3.559-0.887,4.359
	c-0.152,0.084-0.357,0.084-0.527,0.17c0.408,0.393,0.836,0.834,1.074,1.328c0.51,0.256,0.813,0.816,1.088,1.295
	c0.203,0.373,0.408,0.748,0.476,1.174c0.241,0.068,0.375,0.324,0.459,0.527c-0.237,0.426,0.226,0.357,0.343,0.683
	c0.067,0.255-0.086,0.511-0.271,0.681c0.884,1.77,1.703,3.574,2.076,5.566c0.135,1.277-0.801,2.078-1.447,3.016
	c-1.432,1.633-2.842,3.406-4.563,4.785c0.084,0.17,0.137,0.408,0.049,0.578c-0.069,0.271-0.524,0.205-0.203,0.494
	c0.035,0.223-0.086,0.441-0.274,0.545l-0.047,0.018c0.133,1.277-0.087,2.535-0.173,3.83c-0.17,0.426-0.256,0.869-0.391,1.295
	c-0.443,0.51-1.004,0.969-1.039,1.635l-0.289,0.289c-0.408,1.635-0.854,3.303-0.719,5.125c0.021,0.152-0.082,0.342-0.287,0.307
	c-0.172-0.119-0.322,0.087-0.322,0.238c-0.223,1.84-0.135,3.779-0.256,5.654c0.033,0.783-0.902,0.322-1.363,0.512
	c-0.254,0.117-0.971-0.189-0.868,0.355c-0.235,1.721-0.563,3.389-0.937,5.025c0.223,0.052,0.512,0.152,0.562,0.408
	c0.052,0.203,0,0.424-0.121,0.594c0.205,0.172,0.274,0.547,0.14,0.785c-0.408,0.17,0,0.494,0.084,0.697
	c0.987,0.766,2.164,1.107,2.981,2.215c0.543,0.103,1.004,0.373,1.396,0.799c0.51,0.068,0.815,0.596,1.346,0.631
	c0.186,0.17,0.203,0.426,0.152,0.664c-0.017,0.461-0.613,0.307-0.58,0.783c-0.187,0.188-0.408,0.254-0.662,0.291
	c-0.256,0.422-0.748,0.611-1.227,0.543c-0.408,0.494-1.143,0.545-1.72,0.375c-0.459,0.477-1.261,0.51-1.856,0.305
	c-0.322-0.117-0.613-0.27-0.9-0.494c-1.229-0.016-2.811,0.156-3.373-1.258c-0.903-0.221-2.026-0.119-2.553-1.039l-1.143,0.256
	c-0.547,0.988-1.617,1.516-2.758,1.395c-0.154,0.104-0.324,0.223-0.529,0.203c-0.51,0.566-1.191,0.887-1.939,0.734
	c-0.307-0.033-0.616-0.135-0.801-0.391c-0.357,0.119-0.816,0.152-1.176-0.035l-0.375-0.441c-0.476,0.152-0.935-0.033-1.275-0.393
	c-0.428,0-0.819-0.154-1.074-0.477c-0.241-0.033-0.512-0.084-0.596-0.357c-0.084-0.221-0.139-0.494-0.051-0.73
	c0.613-0.121,0.955-0.904,1.6-0.973c0.205-0.238,0.494-0.375,0.767-0.479c0.785-1.275,2.026-2.092,3.354-2.414
	c0.119-0.275,0.785-0.428,0.375-0.734c-0.016-0.256,0.068-0.477,0.289-0.613c-0.205-0.135-0.289-0.375-0.221-0.613
	c0.051-0.203,0.254-0.271,0.408-0.357c-0.748-1.736-1.31-3.541-1.771-5.398c-0.611,0.223-1.463,0.596-2.026-0.016
	c-0.529-1.174-0.767-2.469-1.123-3.73c-0.359-1.377-0.632-2.793-0.886-4.223c-0.135,0-0.272,0.119-0.444,0.068
	c-0.509-1.293-0.39-2.859-0.543-4.309l-0.203-1.412c0.084-0.221,0.321-0.24,0.49-0.357c-0.099-0.699-0.066-1.482-0.099-2.18
	l-0.633-1.295c-0.117,0.018-0.201,0.068-0.338,0.051c-0.121-0.986,0-2.043,0.254-2.961c-0.033-0.803,0.051-1.738,0.375-2.486
	c0.852-0.053,0.084-0.834,0.225-1.277v-0.139c-0.651,0.273-1.45,0.701-2.235,0.41c-1.703-0.664-2.892-2.436-2.927-4.258
	c-0.053-1.854,0.492-3.455,1.345-4.92c-0.187-0.154-0.205-0.408-0.154-0.631c0.084-0.373,0.562-0.357,0.51-0.783
	c0.136-0.307,0.531-0.135,0.648-0.408c0.373-1.227,0.92-2.367,1.496-3.508l0.088-0.596c-2.301-2.213-2.949-5.756-1.855-8.736
	c0.031-2.469-1.196-4.443-1.432-6.811c-0.732-4.719,0.338-9.246,3.83-12.498c-0.016-0.205-0.238-0.256-0.355-0.34
	c-2.03-0.938-4.53-1.193-6.881-0.818c-2.451,0.324-5.311,0.512-6.998-1.617c-1.701-1.857-3.643-3.135-5.602-4.379
	c-0.238-0.254-0.512-0.51-0.512-0.867c0.206-0.902,0.989-1.924,1.924-2.195c3.239-0.137,3.492,3.609,5.264,5.381
	c1.158,1.65,2.996,2.416,4.936,1.924c0.544-0.188,1.208-0.273,1.5-0.902c0.476-1.363-0.172-2.709-0.512-3.934
	c-0.014-0.545,0.137-1.141,0.715-1.396c0.562-0.238,1.328-0.391,1.941-0.119c0.494,0.238,0.836,0.766,0.852,1.295
	c-0.221,1.275-0.713,2.604-0.358,3.982c0.41,0.801,1.311,1.006,2.045,1.295c1.106,0.342,2.334,0.664,3.559,0.426
	c0.99-0.613,0.527-2.043,0.578-3.082c-0.051-0.816-0.393-1.924,0.461-2.469c0.525-0.494,1.308-0.631,2.01-0.426
	c0.39,0.119,0.783,0.34,1.001,0.715c0.137,1.228-0.357,2.299-0.509,3.457c0.134,0.102,0.357,0,0.492-0.086
	c3.766-2.162,8.635-3.098,13.165-1.939c-0.272-1.959,0.528-3.746,1.26-5.434c0.156-0.238,0.289-0.596,0.613-0.664
	c0.647-0.102,1.313,0,1.754,0.529c0.256,0.221,0.428,0.475,0.476,0.781c-0.151,0.768-0.865,1.313-1.224,1.994
	c-0.443,0.783-1.006,1.6-0.75,2.589l0.322,0.817c1.348,0.408,2.641,0.918,3.883,1.549c1.397-0.529,2.69-1.295,3.967-2.094
	c1.076-0.836,1.431-2.096,1.857-3.236c0.34-1.039,0.561-2.111,1.107-3.066c0.408-0.355,1.054-0.441,1.584-0.271
	C316.355,374.229,316.697,374.415,316.816,374.739"/>
<path fill="#F0BF8D" d="M310.482,405.649c-0.297,2.121-0.261,4.348-0.187,6.826c-0.082,0.539-0.615,0.988-1.099,1.145
	c-0.601,0.09-1.086-0.215-1.625-0.699c-0.127-0.078-0.168-0.225-0.209-0.383c-0.062-0.227-0.135-0.51-0.51-0.436l-0.033,0.01
	l-0.022,0.029c-1.099,1.816-2.994,2.859-4.882,3.713c-2.247,0.983-4.76,1.623-7.467,1.9c-2.418,0.533-4.77,0.432-6.33-0.258
	c0.033-0.129,0.258-1.01,0.258-1.01s0.201-0.82,0.236-0.963c1.275,0.473,2.973,0.248,4.156-0.131l0.022-0.006l0.043-0.029
	l0.025-0.021c0.037-0.034,0.09-0.065,0.047-0.177l-0.067-0.047l-0.101-0.01l-0.033,0.008c-0.942,0.252-2.721,0.73-3.897-0.006
	c0.084-0.209,0.252-0.482,0.383-0.686c0.236-0.367,0.477-0.746,0.477-1.164c0-0.152-0.032-0.313-0.108-0.479
	c-0.182-0.268-0.443-0.336-0.676-0.371c-0.441,0.018-0.8,0.207-1.048,0.545c-0.004,0.006-0.104,0.191-0.18,0.346
	c-0.156-0.609-0.24-1.287-0.24-1.982c0-0.428,0.031-0.859,0.091-1.281v-0.012l-0.011-0.098c-0.065-0.459-0.145-1.031-0.69-1.225
	l-0.013-0.004h-0.014c-0.244,0-0.547,0-0.758,0.209l-0.01,0.01l-0.203,0.387v0.016c-0.07,1.078-0.228,2.111-0.379,3.002
	c-0.203,0.004-0.373,0.096-0.539,0.186c0,0-0.23,0.111-0.254,0.124c-0.396-0.073-0.668,0.169-0.908,0.386
	c-0.156,0.143-0.307,0.277-0.484,0.334c-0.453,0.03-0.91,0.375-1.1,0.799c-1.351-1.484-2.06-3.441-2.06-5.707
	c0-0.207,0.005-0.416,0.017-0.627c0.039-0.285,0.111-0.582,0.186-0.867c0.109-0.441,0.22-0.895,0.22-1.359
	c0-0.258-0.033-0.52-0.121-0.785c-0.547-2.066-1.381-5.213-1.381-8.342c0-2.039,0.354-4.07,1.373-5.79
	c2.436-4.229,6.85-7.791,11.518-9.296c2.992-0.934,6.611-1.02,9.454-0.229c0.45,0.875,0.918,1.779,1.234,2.746
	c-0.211,0.158-0.344,0.373-0.359,0.598c0.088,0.783,0.665,1.551,1.411,1.887c1.076,0.475,2.759,0.451,3.752-0.527
	c0.255-0.234,0.397-0.47,0.449-0.74v-0.006c0-0.143-0.062-0.271-0.158-0.385c0.16-0.068,0.99-0.426,1.08-0.463
	c2.541,2.336,3.539,5.391,4.179,8.076c0.149,0.787,0.227,1.602,0.227,2.455c0,1.588-0.262,3.318-0.799,5.273l0.07-0.566
	c0.12-1.598-0.168-3.035-1.164-3.729c-0.584-0.406-1.242-0.514-1.902-0.311c-0.991,0.307-1.901,1.281-2.377,2.545
	c-0.453,1.203-0.155,3.559,0.842,4.594c0.484,0.502,1.085,0.652,1.742,0.438c0.078-0.025,0.123-0.11,0.095-0.188
	c-0.024-0.078-0.187-0.033-0.263-0.008c-0.549,0.18-1.004,0.031-1.41-0.391c-0.909-0.94-1.143-3.238-0.727-4.342
	c0.439-1.16,1.227-1.92,2.116-2.195c0.576-0.178,1.149-0.109,1.662,0.248c1.215,0.849,1.196,3.34,0.567,5.836
	C311.091,403.71,310.673,404.599,310.482,405.649"/>
<path fill="#C06221" d="M316.439,374.995c0.119,0.322-0.119,0.596-0.224,0.869c-0.321,0.543-0.629,1.09-0.983,1.617
	c-0.17-0.086-0.342-0.375-0.545-0.205c0.03,0.221,0.289,0.256,0.41,0.426c-0.464,0.766-1.057,1.463-1.298,2.314
	c-0.067,0.24,0.119,0.41,0.289,0.496c0.155,0.051,0.327,0.084,0.515,0.066c-0.02,0.205-0.293,0.426-0.086,0.613
	c0.256-0.102,0.219-0.461,0.391-0.629c1.345,0,2.537,0.373,3.779,0.629c-0.052,0.221-0.019,0.494,0.137,0.664
	c0.373-0.068-0.084-0.426,0.136-0.631c2.674,0.631,4.599-1.105,6.437-2.758c0.223,0.223,0.494,0.545,0.836,0.613l0.102-0.102
	c-0.188-0.255-0.563-0.357-0.715-0.682c1.328-1.379,2.861-2.928,4.939-2.23c0.457,0.203,1.071,0.443,1.241,1.006
	c-0.289,0.662-1.006,1.004-1.567,1.395c-0.357-0.086-0.631-0.375-0.984-0.459c-0.053,0.051-0.121,0.137-0.053,0.203l0.75,0.41
	c-1.891,1.105-3.851,2.145-5.842,3.031c-0.154-0.223-0.154-0.58-0.424-0.666c-0.173,0.258,0.133,0.494,0.17,0.75
	c-1.229,0.512-2.486,1.074-3.97,0.818c-1.056-0.137-2.024-0.461-3.063-0.664c0.016-0.172,0.084-0.461-0.068-0.58
	c-0.239,0.051-0.102,0.375-0.172,0.545c-1.686-0.477-3.303,0.119-4.766,0.648c-0.156-0.205-0.104-0.58-0.395-0.648
	c-0.168,0.205,0.087,0.459,0.152,0.699c-1.342,0.561-2.756,1.123-4.084,1.77c-0.088-0.119-0.121-0.408-0.34-0.373
	c-0.226,0.203,0.391,0.527-0.086,0.578c-0.173,0.137-0.548,0.17-0.479,0.444c0.104,0.255,0.306-0.104,0.359,0.101
	c0.016,0.205-0.256,0.289-0.324,0.426c0.185,0.035,0.357-0.17,0.511-0.324c0.051-0.118,0.103-0.221,0.086-0.373
	c0.151,0.102,0.103,0.322,0.049,0.441c-0.595,0.92-1.72,1.209-2.788,1.055c-0.718-0.066-1.449-0.561-1.707-1.26
	c-0.033-0.221-0.203-0.424-0.084-0.662c0.051-0.053,0.139-0.086,0.221-0.068c0.103,0.186,0.053,0.426,0.139,0.629
	c0.154,0.563,0.766,0.92,1.309,0.988c0.034-0.035,0.084-0.018,0.123-0.051c-0.156-0.223-0.496-0.205-0.718-0.357
	c-0.205-0.172-0.459-0.375-0.392-0.648c0.066-0.17,0.135,0.053,0.238,0c-0.104-0.426-0.527-0.766-0.681-1.191
	c0.084-0.137,0.681-0.051,0.442-0.393l-0.543,0.139c-0.31-0.479-0.496-1.041-0.715-1.568c0.149-0.137,0.475-0.068,0.506-0.34
	c-0.187-0.137-0.404,0.051-0.611,0.119c-0.204-0.818-0.799-1.584-0.51-2.521l0.136-0.561c0.239-0.102,0.581,0.033,0.782-0.137
	c0.035-0.119-0.067-0.188-0.153-0.188l-0.543,0.051c0.272-1.037,0.679-2.025,1.209-2.945c0.136-0.307,0.442-0.357,0.748-0.357
	c0.495,0.104,1.006,0.443,1.228,0.936c-0.121,0.613-0.648,1.057-0.92,1.584l-0.613-0.459c-0.051,0.018-0.103,0.051-0.119,0.103
	c0.102,0.239,0.392,0.375,0.58,0.562c-0.408,0.732-0.838,1.447-0.852,2.314c-0.152,0.035-0.393-0.152-0.443,0.068
	c0.033,0.24,0.324,0.121,0.476,0.189l0.614,1.787c-0.069,0.033-0.256-0.018-0.256,0.135c0.033,0.172,0.256,0.104,0.392,0.154
	c0.187,0.545,0.782,0.971,1.278,1.225c1.293,0.104,2.468-0.408,3.59-0.902c0.154,0.205,0.171,0.58,0.443,0.631
	c0.139-0.238-0.152-0.477-0.219-0.715c1.12-0.545,2.262-1.09,3.301-1.889c0.531-0.443,0.682-1.057,0.92-1.637
	c0.137-0.084,0.51,0.188,0.478-0.152c-0.087-0.103-0.237-0.103-0.375-0.086c0.392-1.361,0.903-2.725,1.497-4
	c0.105-0.207,0.326-0.359,0.546-0.393C315.693,374.45,316.216,374.517,316.439,374.995"/>
<path fill="#C06221" d="M268.181,380.7c-0.084,0.152-0.459,0.084-0.338,0.357c0.152,0.084,0.307-0.087,0.459-0.121
	c0.733,1.057,1.688,2.488,2.963,2.93c-0.086,0.154-0.393,0.205-0.273,0.408c0.205,0.119,0.343-0.203,0.511-0.307
	c1.11,0.34,2.555,0.527,3.643,0.035c0.137,0.117,0.103,0.545,0.392,0.441c0.071-0.221-0.099-0.391-0.169-0.578
	c0.613-0.51,0.884-1.209,0.849-2.01c0.172-0.152,0.512-0.084,0.563-0.357c-0.153-0.188-0.356,0.051-0.545,0.068
	c-0.051-1.056-0.614-1.994-0.475-3.082c0.34-0.51,0.936-0.732,1.549-0.715c0.357,0.018,0.699,0.17,0.885,0.51
	c0.238,0.307,0.134,0.75,0.119,1.125c-0.17,1.037-0.426,2.078-0.289,3.184c-0.155,0.035-0.426-0.084-0.477,0.119
	c0.035,0.238,0.34,0.086,0.529,0.137c0.084,0.715,0.883,0.902,1.428,1.107c-0.035,0.168-0.271,0.391-0.066,0.51
	c0.236-0.018,0.187-0.322,0.322-0.441l2.59,0.766c0.033,0.119-0.342,0.203-0.104,0.375c0.19,0,0.307-0.188,0.442-0.307
	c0.685,0.135,1.431,0.068,1.926-0.461c0.306-0.459,0.357-1.021,0.357-1.617c0.273-0.051,0.682,0.119,0.801-0.17
	c-0.203-0.154-0.528-0.052-0.801-0.086c0.035-1.107-0.494-2.672,0.629-3.355c0.529-0.236,1.262-0.287,1.805-0.033
	c0.341,0.324,0.171,0.988,0.154,1.432l-0.154,0.953c-0.151,0.018-0.356-0.256-0.442,0c0.035,0.188,0.256,0.188,0.391,0.271
	l-0.287,1.346c-1.397,0.869-2.742,1.855-4.02,3.031c-0.783-0.17-1.566-0.459-2.367-0.646c-0.104-0.104,0.051-0.512-0.238-0.41
	c-0.086,0.086-0.051,0.223-0.035,0.324c-1.055-0.271-2.264-0.375-3.44-0.324c-0.119-0.203-0.084-0.664-0.371-0.646
	c-0.088,0.221,0.17,0.545,0.049,0.715l-2.996,0.256c-0.051-0.137,0.015-0.324-0.135-0.426c-0.107-0.018-0.156,0.051-0.156,0.154
	c-0.016,0.102,0.035,0.17,0.017,0.271c-2.027,0.086-3.763-0.477-5.125-1.975c0.135-0.238,0.459-0.426,0.508-0.717
	c-0.049-0.049-0.099-0.068-0.15-0.068l-0.545,0.613l-1.584-1.481c0.099-0.169,0.289-0.306,0.306-0.511l-0.101-0.084
	c-0.17,0.084-0.256,0.289-0.393,0.443l-3.082-2.164c-0.238-0.254-0.478-0.51-0.459-0.867c0.221-0.768,0.92-1.584,1.772-1.652
	C266.464,377.157,267.263,379.304,268.181,380.7"/>
<path fill="#FFFFFF" d="M316.217,375.864c0.104-0.273,0.342-0.547,0.223-0.869c-0.223-0.479-0.746-0.545-1.225-0.563
	c-0.222,0.033-0.441,0.186-0.547,0.393c-0.097,0.209-0.191,0.418-0.283,0.633C314.385,375.458,315.643,374.661,316.217,375.864"/>
<path fill="#FFFFFF" d="M304.648,376.507c0.112-0.184,0.207-0.379,0.248-0.594c-0.222-0.492-0.732-0.832-1.228-0.936
	c-0.306,0-0.613,0.051-0.748,0.357c-0.112,0.197-0.222,0.398-0.324,0.604C302.597,375.938,303.979,375.124,304.648,376.507"/>
<path fill="#FFFFFF" d="M329.605,378.817c0.112-0.064,0.227-0.129,0.34-0.195l-0.75-0.41c-0.069-0.066,0-0.152,0.053-0.203
	c0.354,0.084,0.627,0.375,0.984,0.459c0.562-0.391,1.278-0.732,1.567-1.395c-0.17-0.563-0.784-0.803-1.241-1.006
	c-1.793-0.602-3.177,0.463-4.373,1.65C326.186,377.718,331.855,376.382,329.605,378.817"/>
<path fill="#221714" d="M329.945,378.622l-0.75-0.41c-0.068-0.066,0-0.153,0.053-0.203c0.353,0.084,0.627,0.375,0.984,0.459
	L329.945,378.622z"/>
<path fill="#FFFFFF" d="M266.394,377.972c-0.494-0.533-1.092-0.926-1.871-1.002c-0.852,0.068-1.551,0.885-1.772,1.652
	c-0.019,0.357,0.221,0.613,0.459,0.867l0.487,0.34C263.697,379.829,263.818,377.362,266.394,377.972"/>
<path fill="#FFFFFF" d="M287.599,380.124c0.035-0.371,0.047-0.766-0.193-0.992c-0.543-0.254-1.276-0.203-1.805,0.033
	c-0.398,0.242-0.588,0.596-0.67,0.998C284.931,380.163,285.747,378.968,287.599,380.124"/>
<path fill="#FFFFFF" d="M278.314,379.405c0.016-0.375,0.119-0.818-0.119-1.125c-0.186-0.34-0.527-0.492-0.885-0.51
	c-0.613-0.018-1.209,0.205-1.549,0.715c-0.035,0.246-0.027,0.481,0,0.717C275.761,379.202,277.365,378.069,278.314,379.405"/>
<path fill="#221714" d="M297.617,400.642v0.055c-0.982-0.332-2.227-0.371-3.113,0.205c-0.707,0.445-1.133,1.188-1.45,1.873
	c0.206-1.057,1.094-2.338,2.28-2.541C296.133,400.048,296.967,400.233,297.617,400.642"/>
<path fill="#221714" d="M298.542,402.31c-0.129,0.205-0.391,0.408-0.648,0.465c-1.133,0.111-2.319-0.314-3.391,0.111
	c-0.486,0.166-0.893,0.518-1.303,0.871c0.373-0.945,1.373-1.428,2.285-1.576C296.542,402.144,297.541,402.812,298.542,402.31"/>
<path fill="#221714" d="M293.294,410.216c0,0.074-0.057,0.168-0.129,0.186c-0.314,0.02-0.502-0.297-0.797-0.24
	c-0.947,0.889-2.168,1.576-3.506,1.113c-0.463-0.131-0.834-0.557-1.259-0.779c-0.317-0.057-0.579,0.518-0.801,0.111
	c0.041-0.186,0.244-0.223,0.392-0.26c0.983-0.242,1.391,0.982,2.354,0.797c1.187,0.037,2.096-0.557,2.951-1.297
	C292.814,409.864,293.108,409.956,293.294,410.216"/>
<path fill="#F0BF8D" d="M306.939,383.015c-0.648,0.188-1.568,0.664-2.215,0.068c-0.461-0.357-0.697-0.852-0.867-1.346
	C304.914,382.13,305.968,382.47,306.939,383.015"/>
<path fill="#221714" d="M301.166,394.646c0.953,1.344,1.6,2.826,1.688,4.51c-0.411-2.246-1.807-4.697-4.122-5.549
	c-1.804-0.322-3.457,0.256-4.873,1.141c-0.082,0.018-0.183-0.033-0.183-0.119c0.135-0.307,0.476-0.459,0.748-0.648
	c1.463-0.799,3.424-1.395,5.125-0.695C300.162,393.554,300.727,394.101,301.166,394.646"/>
<path fill="#221714" d="M284.699,393.964c-0.34,0.033-0.816-0.17-1.242-0.188c-1.278-0.085-2.317,0.563-3.049,1.567
	c-0.578,0.92-0.799,1.975-0.779,3.15c-0.17-1.65-0.071-3.475,1.392-4.496C282.042,393.386,283.646,393.333,284.699,393.964"/>
<path fill="#221714" d="M290.285,394.458c0.186,0.424,0.051,0.971-0.238,1.311c-0.356,0.357-0.938,0.443-1.397,0.273
	c-0.543-0.289-0.763-0.867-0.679-1.465c0.05-0.307,0.289-0.596,0.58-0.75C289.16,393.554,290.031,393.743,290.285,394.458"/>
<path fill="#FFFFFF" d="M289.707,394.116c0.221,0.291,0.273,0.717,0.17,1.074c-0.104,0.307-0.256,0.629-0.578,0.783
	c-0.24,0.051-0.514,0.016-0.666-0.188c-0.34-0.34-0.442-0.852-0.289-1.311c0.086-0.291,0.359-0.598,0.664-0.63
	C289.278,393.827,289.519,393.931,289.707,394.116"/>
<path fill="#221714" d="M289.501,394.253c0.172,0.17,0.205,0.461,0.119,0.682c-0.068,0.154-0.17,0.307-0.322,0.357
	c-0.223,0.033-0.426-0.086-0.527-0.256c-0.088-0.154-0.051-0.342,0.033-0.477c0.101-0.102,0.24-0.17,0.39-0.102
	c0.104,0.086,0.17,0.221,0.104,0.358l-0.104,0.05c0.034-0.033,0.051-0.238-0.101-0.256c-0.102-0.033-0.205,0.104-0.221,0.206
	c0.068,0.103,0.068,0.255,0.203,0.306c0.223,0.033,0.342-0.172,0.41-0.34c0.034-0.256-0.121-0.443-0.326-0.58
	c-0.254-0.086-0.494,0.119-0.609,0.342c-0.137,0.289-0.088,0.68,0.133,0.936c0.172,0.221,0.476,0.238,0.734,0.152l0.238-0.135
	c-0.154,0.188-0.392,0.305-0.648,0.256c-0.274,0-0.51-0.273-0.594-0.494c-0.103-0.275-0.086-0.613,0.067-0.852
	c0.083-0.172,0.253-0.342,0.443-0.359C289.16,393.997,289.35,394.116,289.501,394.253"/>
<path fill="#221714" d="M285.927,401.524c0.322,0.391,0.594,0.801,0.697,1.26c-0.258-0.221-0.306-0.613-0.562-0.869
	c-0.852-1.09-2.246-1.396-3.524-1.036c0.067-0.188,0.34-0.188,0.51-0.257C284.154,400.45,285.195,400.69,285.927,401.524"/>
<path fill="#221714" d="M286.318,402.733c0.254,0.512,0.102,1.174-0.24,1.584c-0.459,0.527-1.088,0.936-1.805,0.783
	c-0.695-0.104-1.359-0.646-1.719-1.295c-0.306-0.545-0.357-1.293-0.136-1.891c-0.049-0.238-0.409-0.102-0.493-0.322
	c1.055-0.137,2.332-0.887,3.352-0.137C285.757,401.78,286.115,402.257,286.318,402.733"/>
<path fill="#FFFFFF" d="M284.99,401.745c-0.324,0.104-0.799,0.393-0.953,0.783c-0.154,0.307-0.258,0.717-0.119,1.057
	c0.203-0.068,0.525-0.104,0.767-0.018c-0.088,0.223-0.359,0.271-0.511,0.461c0.253,0.373,0.644,0.612,1.087,0.629
	c-0.289,0.205-0.628,0.34-1.021,0.289c-0.662-0.066-1.191-0.613-1.531-1.156c-0.258-0.631-0.19-1.412,0.119-1.994
	C283.457,401.438,284.342,401.403,284.99,401.745"/>
<path fill="#FFFFFF" d="M285.857,402.938c0.053,0.203-0.033,0.393-0.223,0.494c-0.185,0.084-0.373-0.053-0.457-0.205
	c-0.068-0.189-0.017-0.41,0.121-0.545C285.517,402.528,285.824,402.698,285.857,402.938"/>
<path fill="#221714" d="M287.544,407.11c0.135,0.273,0.406,0.477,0.664,0.561c0.576,0.154,1.141-0.459,1.633,0.053
	c-0.186,0.135-0.442-0.018-0.682,0.033c-0.476,0.102-1.052,0.375-1.545,0.119c-1.078-0.869-0.308-2.332,0.014-3.305
	c0.24-0.613,0.479-1.227,0.441-1.941C288.414,404.214,287,405.493,287.544,407.11"/>
<path fill="#F0BF8D" d="M282.333,418.118c-0.406-0.938-0.228-2.127-0.074-3.174l0.004-0.031c0.067-0.68,0.781-1.098,1.371-1.25
	l0.012-0.002l0.006-0.01c0.346-0.438,0.734-0.652,1.183-0.652h0.016l0.01-0.012c0.191-0.236,0.537-0.316,0.879-0.211
	c0.148,0.176,0.345,0.336,0.556,0.508c0.442,0.359,0.899,0.73,0.899,1.254c0,0.068-0.008,0.139-0.024,0.211
	c-0.072,0.279-0.357,0.631-0.697,0.752c0.012-0.068,0.022-0.137,0.022-0.203c0-0.588-0.403-1.061-0.793-1.518
	c0,0-0.27-0.324-0.276-0.334c-0.008-0.189-0.174-0.387-0.363-0.426c-0.109,0.031-0.152,0.059-0.156,0.098v0.01
	c0,0.043,0.047,0.074,0.099,0.109c0.061,0.043,0.137,0.092,0.137,0.156c0.041,0.327,0.258,0.588,0.465,0.842
	c0.14,0.168,0.285,0.344,0.373,0.533c0.103,0.172,0.209,0.363,0.209,0.563c0,0.056-0.006,0.109-0.024,0.164
	c-0.209,0.383-0.587,0.535-0.882,0.598c0.013-0.074,0.023-0.146,0.023-0.217c0-0.463-0.301-0.832-0.594-1.189
	c-0.199-0.244-0.406-0.498-0.511-0.777l-0.002-0.008l-0.01-0.008l-0.072-0.068c-0.051-0.057-0.114-0.131-0.213-0.086l-0.016,0.006
	l-0.004,0.014c-0.029,0.098,0.016,0.199,0.067,0.309c0.045,0.096,0.091,0.194,0.084,0.293v0.014l0.281,0.352
	c0.387,0.459,0.783,0.934,0.504,1.514c-0.205,0.225-0.469,0.357-0.717,0.357c-0.049-0.008-0.086-0.018-0.123-0.027
	c-0.004-0.02-0.016-0.066-0.016-0.066c-0.004-0.029-0.009-0.057-0.009-0.082c0-0.039,0.009-0.068,0.025-0.086
	c0.029-0.037,0.103-0.035,0.178-0.035c0.089,0.002,0.191,0.004,0.269-0.055l0.041-0.027l-0.045-0.027
	c-0.502-0.297-0.853-0.619-1.043-0.957c-0.066-0.049-0.105-0.006-0.125,0.018l-0.029,0.029l-0.01,0.021
	c0.008,0.189,0.123,0.332,0.231,0.467c0.146,0.18,0.269,0.334,0.133,0.572l-0.006,0.012l0.093,0.307
	c0.17,0.521,0.366,1.111-0.129,1.512l-0.013,0.009v0.017c0,0.033,0.019,0.049,0.035,0.061l0.033,0.035l0.024,0.002
	c0.242-0.068,0.461-0.295,0.533-0.549c0.035-0.119,0.051-0.252,0.051-0.385c0-0.143-0.022-0.279-0.057-0.4
	c0.242-0.025,0.447-0.152,0.645-0.277c0.207-0.131,0.404-0.25,0.644-0.27c-0.103,0.158-0.199,0.32-0.199,0.504
	c0,0.037,0.002,0.072,0.012,0.109l0.013,0.076l0.043-0.064c0.379-0.561,0.901-1.217,1.545-1.314
	c0.215-0.168,0.426-0.291,0.621-0.111c0.063,0.033,0.112-0.014,0.129-0.033l0.01-0.008v-0.012c0.002-0.008,0.002-0.018,0.002-0.023
	c0-0.102-0.076-0.146-0.145-0.189c0,0-0.066-0.053-0.086-0.07c0.118-0.168,0.147-0.377,0.174-0.58
	c0.028-0.234,0.061-0.453,0.215-0.607c0.025,0.025,0.086,0.084,0.086,0.084c0.103,0.115,0.234,0.256,0.416,0.188l0.039-0.018
	l-0.158-0.199c-0.104-0.119-0.197-0.223-0.186-0.391c0.045-0.344,0.276-0.77,0.676-0.891c0.111-0.023,0.496-0.08,0.607,0.201
	c0.022,0.059,0.03,0.115,0.03,0.17c0,0.16-0.074,0.311-0.149,0.459l-0.101,0.217l-0.934,1.836c-0.086,0.883-0.281,1.851-1.148,2.441
	c-0.483,0.346-1.069,0.506-1.698,0.455l-0.015-0.002l-0.024,0.021c-0.033,0.031-0.074,0.07-0.074,0.113c0,0.002,0,0.006,0.002,0.01
	c0,0.016,0.01,0.037,0.041,0.051c0.004,0.002,0.143,0.047,0.254,0.082C284.398,419.112,283.304,418.835,282.333,418.118
	 M283.853,416.491c0.012,0.008,0.021,0.016,0.021,0.016s0.065,0.045,0.083,0.059c-0.041-0.016-0.079-0.037-0.106-0.068
	C283.851,416.495,283.851,416.495,283.853,416.491"/>
<path fill="#D6484C" d="M307.588,413.888c-2.506,1.293-5.076,2.758-7.478,4.461c1.228-1.006,2.267-2.486,3.731-2.912
	c1.072-0.629,2.16-1.414,2.996-2.469C307.178,413.188,307.213,413.632,307.588,413.888"/>
<path fill="#F0BF8D" d="M287.423,413.937l-0.338-0.354C287.39,413.308,287.372,413.802,287.423,413.937"/>
<path fill="#D6484C" d="M308.863,414.329l0.953,1.143c-3.814,0.135-6.98,1.922-10.218,3.523c2.692-1.941,5.519-3.508,8.464-4.818
	C308.318,414.243,308.572,414.329,308.863,414.329"/>
<path fill="#D6484C" d="M310.668,416.306c0.291,0.424,0.44,0.883,0.612,1.344c-2.726-0.102-5.245,0.527-7.747,1.09
	c-2.421,0.682-4.852,1.313-6.948,2.725c1.584-1.939,3.797-2.572,5.823-3.559c2.25-0.918,4.497-1.84,7-2.145
	C309.936,415.657,310.412,415.845,310.668,416.306"/>
<path fill="#F0BF8D" d="M294.791,418.056c2.006-0.131,4.02-0.574,6.514-1.434c-0.561,0.873-1.366,1.674-2.016,2.281
	c0.002-0.002-0.563,0.42-0.563,0.42c-1.077,0.801-2.184,1.629-3.104,2.732c-0.228,0.27-0.357,0.545-0.393,0.82
	c-3.484,2.943-7.244,5.434-11.494,7.615c-0.076-0.293-0.115-0.617-0.115-0.945c0-0.141,0.008-0.281,0.022-0.418
	c1.179-0.717,1.974-1.949,2.427-3.764c0.03,0.002,0.135,0.01,0.135,0.01c0.152,0.023,0.34,0.049,0.445-0.111l0.02-0.027
	l-0.027-0.018c-0.092-0.063-0.202-0.076-0.305-0.092c0,0-0.147-0.033-0.186-0.043c0.317-1.447,0.621-2.977,0.926-4.672
	c0.02-0.014,0.119-0.086,0.119-0.086c0.213-0.154,0.457-0.326,0.514-0.592c0.004-0.025,0.004-0.051,0.004-0.074
	c0-0.176-0.061-0.309-0.182-0.426c0.115-0.152,0.244-0.359,0.244-0.582c0-0.076-0.013-0.154-0.05-0.232
	c-0.006-0.008-0.166-0.146-0.231-0.203c0.086-0.045,0.152-0.123,0.217-0.207c0.07-0.09,0.135-0.176,0.209-0.18
	c0.051,0,0.109,0.037,0.178,0.115c1.293,1.813,3.478,2.52,5.99,1.936c0.002,0,0.209-0.053,0.209-0.053
	c1.068-0.268,2.174-0.543,3.17-1.025l0.017-0.008v-0.17l-0.043,0.02c-1.263,0.518-5.535,2.01-8.101-0.232
	C290.936,418.819,292.96,418.69,294.791,418.056"/>
<path fill="#F0BF8D" d="M282.042,418.263c-0.203,0.119-0.34,0.34-0.307,0.598l0.086,0.338c-0.238,0.121-0.256,0.393-0.205,0.615
	c0.035,0.016,0.018,0.051,0.018,0.066l-1.004-0.662c0.307-0.904,0.697-1.756,1.142-2.59
	C281.807,417.173,281.787,417.786,282.042,418.263"/>
<path fill="#221714" d="M281.744,416.612c-0.492,0.926-0.865,1.773-1.145,2.594l-0.007,0.023l1.068,0.705l0.01-0.061v-0.025
	c0-0.018-0.006-0.035-0.022-0.051c-0.009-0.045-0.021-0.107-0.021-0.18c0-0.141,0.043-0.305,0.209-0.389l0.023-0.014l-0.092-0.365
	c0-0.023-0.002-0.045-0.002-0.068c0-0.197,0.108-0.381,0.295-0.492c0,0-0.007-0.014-0.017-0.027
	c0.015-0.008,0.029-0.016,0.029-0.016c-0.211-0.391-0.232-0.877-0.252-1.348l-0.023-0.391L281.744,416.612z M281.744,416.751
	c0.006,0.074,0.008,0.15,0.008,0.15c0.025,0.469,0.047,0.951,0.252,1.35c-0.19,0.123-0.305,0.318-0.305,0.531
	c0,0.025,0.002,0.053,0.006,0.08c0,0.006,0.068,0.27,0.08,0.324c-0.176,0.104-0.225,0.279-0.225,0.43
	c0,0.076,0.014,0.143,0.024,0.193c-0.115-0.078-0.875-0.58-0.914-0.605C280.935,418.427,281.289,417.622,281.744,416.751"/>
<path fill="#F0BF8D" d="M306.691,418.413l0.807-0.109c1.025-0.141,2.088-0.289,3.201-0.264c0.015,0.023,0.084,0.141,0.111,0.188
	c-2.279,0.771-4.414,1.934-6.347,3.461c-0.222-0.289-0.377-0.582-0.552-0.918l-0.36-0.646l-0.015-0.004
	c-0.057-0.01-0.125,0.006-0.168,0.043c-0.037,0.029-0.057,0.068-0.057,0.109c0.004,0.012,0.711,1.678,0.766,1.805
	c-0.008,0.018-0.033,0.08-0.033,0.08c-0.045,0.111-0.1,0.246-0.1,0.375c0,0.088,0.022,0.172,0.09,0.248
	c0-0.002,0.047,0.063,0.07,0.098c-1.183,1.727-3.078,2.738-5.345,2.846l-0.056,0.002l0.076,0.111l0.015,0.002
	c2.129,0.348,4.181-0.508,5.778-2.404c0.041,0.043,0.397,0.402,0.397,0.402c0.289,0.807,0.787,1.539,1.274,2.211
	c0.009,0.047,0.013,0.094,0.013,0.139c0,0.436-0.325,0.773-0.668,1.129c-0.207,0.217-0.423,0.439-0.554,0.689
	c-0.508,0.701-0.918,1.5-1.221,2.371c-0.215,0.018-0.373,0.225-0.431,0.318c-0.019,0.053-0.024,0.109-0.024,0.164
	c0,0.027,0.002,0.053,0.002,0.078v0.035c-0.25,0.01-0.445,0.117-0.541,0.303c-0.051,0.299-0.301,0.309-0.592,0.318
	c-0.181,0.006-0.363,0.012-0.502,0.096c-1.018,0.174-1.757,1.094-2.402,1.904l-0.297,0.365c-0.002-0.002-0.172,0.072-0.172,0.072
	c-0.238,0.1-0.486,0.207-0.654,0.445c-0.026,0.006-0.545,0.074-0.545,0.074c-0.205,0.033-0.401,0.064-0.608,0.076
	c0.043-0.023,0.27-0.143,0.27-0.143c0.307-0.154,0.627-0.313,0.81-0.641c0.02-0.084,0.03-0.162,0.03-0.24
	c0-0.271-0.117-0.51-0.233-0.74c-0.093-0.193-0.193-0.393-0.222-0.605c-0.403-1.637-0.467-3.443-0.467-5.24
	c0-0.412,0.004-0.826,0.008-1.234c0,0,0.004-0.348,0.004-0.371c0.015-0.02,5.625-5.865,5.625-5.865
	c0.771-0.6,1.736-0.76,2.671-0.914C305.923,418.571,306.316,418.505,306.691,418.413"/>
<path fill="#F0C91E" d="M312.107,418.731c0,0.188-0.181,0.213-0.314,0.281c-2.641,0.682-4.956,2.127-7.221,3.729
	c-0.139,0-0.272-0.068-0.31-0.205c-0.013-0.271,0.634-0.715,0.989-1.004c2.027-1.447,4.107-2.563,6.507-3.158
	c0.243-0.043,0.269,0.092,0.336,0.211L312.107,418.731z"/>
<path fill="#F0C91E" d="M287.476,418.655c-0.086,0.34-0.461,0.527-0.715,0.697c-1.398,0.836-3.387,0.494-4.65-0.408
	c-0.102-0.053-0.069-0.205-0.051-0.289l0.137-0.086c1.019,0.459,2.129,1.074,3.353,0.699c0.598-0.154,1.16-0.377,1.653-0.766
	C287.324,418.485,287.441,418.536,287.476,418.655"/>
<path fill="#F0C91E" d="M312.49,419.388c0.018,0.203-0.17,0.322-0.322,0.391c-2.475,0.871-4.754,2.072-6.949,3.729
	c-0.168,0.051-0.305-0.068-0.357-0.203l0.034-0.221c1.569-1.379,4.623-3.115,6.589-3.695
	C311.854,419.3,312.25,419.063,312.49,419.388"/>
<path fill="#D6484C" d="M297.455,424.683l-5.5,5.313c-2.861,2.45-5.637,5.126-9.211,5.856c-0.205-0.443-0.019-0.953,0.016-1.414
	c-0.016-0.697,0.631-1.156,1.158-1.498l5.465-3.234c2.129-1.328,4.017-3.236,5.994-4.919c1.652-1.5,3.203-3.237,4.819-4.771
	c0.768-0.221,1.518-0.441,2.282-0.664L297.455,424.683z"/>
<path fill="#F0C91E" d="M281.552,420.306c-0.105,0.104-0.156,0.598-0.395,0.291c-0.425-0.238-0.834-0.529-1.173-0.92
	c0-0.119,0.084-0.256,0.203-0.289C280.648,419.694,281.072,420.052,281.552,420.306"/>
<path fill="#F0C91E" d="M287.152,419.437c0.119-0.016,0.238,0.021,0.254,0.139c-0.033,0.357-0.442,0.477-0.678,0.664
	c-1.451,0.85-3.39,0.441-4.685-0.461c-0.084-0.068-0.084-0.188-0.051-0.271l0.187-0.119
	C283.578,420.255,285.773,420.493,287.152,419.437"/>
<path fill="#F0C91E" d="M281.123,421.089l-0.152,0.342c-0.493-0.256-1.02-0.613-1.362-1.09c-0.088-0.152,0.034-0.324,0.188-0.34
	C280.187,420.46,280.682,420.731,281.123,421.089"/>
<path fill="#D6484C" d="M299.717,420.231c-3.103,2.945-6.019,5.879-9.304,8.416c-2.435,1.754-4.945,3.051-7.5,4.498l-0.019,0.033
	c-0.051-0.613,0.037-1.277,0.24-1.838c0.562-0.289,1.176-0.545,1.752-0.854c3.746-2.16,7.359-4.715,10.797-7.66
	c0.801-0.58,1.088-1.5,1.992-1.805c0.713-0.357,1.48-0.631,2.23-0.887"/>
<path fill="#F0BF8D" d="M305.771,423.595c1.776-1.365,3.799-2.461,6.172-3.348c0.024,0.049,0.385,0.743,0.385,0.743
	c0.744,1.415,1.515,2.878,1.73,4.53v0.095c0,0.882-0.504,1.536-1.039,2.228l-0.504,0.688c-1.242,1.553-2.746,3.307-4.459,4.544
	c-1.434-0.649-2.664-1.472-3.755-2.511c0.429-1.602,1.487-3.225,3.239-4.955l0.057-0.055h-0.08c-0.279,0-0.525,0.182-0.767,0.357
	c0,0-0.015,0.01-0.026,0.021c-0.561-0.733-0.957-1.408-1.214-2.063C305.529,423.843,305.771,423.595,305.771,423.595"/>
<path fill="#F0BF8D" d="M280.126,424.142l0.137-0.17c0.004-0.008,0.082-0.188,0.082-0.188c0.504-1.186,1.025-2.41,1.777-3.521
	c1.209,0.684,3.037,1.07,4.455,0.42c-0.152,0.672-0.281,1.363-0.4,2.035c-0.256,1.42-0.522,2.891-1.082,4.217
	c-0.498,0.996-1.574,1.953-2.877,2.557c-0.416,0.13-0.887,0.236-1.231,0.033c-1.597-0.926-2.506-2.441-2.506-4.129
	c0-0.189,0.012-0.379,0.036-0.572c-0.004-0.084-0.006-0.164-0.006-0.245c0-1.372,0.535-2.511,1.123-3.541
	c0.056,0.041,1.025,0.753,1.06,0.78l-0.279,0.838c-0.156,0.443-0.314,0.904-0.43,1.373l-0.005,0.018l0.125,0.123L280.126,424.142z"
	/>
<path fill="#D6484C" d="M297.675,433.13c0.102,0.168,0.084,0.441,0.018,0.629c-0.428,0.459-1.024,0.563-1.516,0.902
	c-0.273-1.227-0.205-2.605-0.307-3.9l-0.291-3.711l1.158-1.227C296.823,428.345,296.823,430.915,297.675,433.13"/>
<path fill="#D6484C" d="M295.888,434.507c-0.035,0.58,0.545,0.818,0.9,1.193c0.036,0.205-0.254,0.34-0.408,0.443
	c-0.646,0.51-1.635,0.289-2.281-0.07c-0.119-0.066-0.256-0.135-0.322-0.271c0.34-0.494,0.834-0.953,0.664-1.668l-0.272-5.721
	c0.424-0.359,0.83-0.854,1.26-1.176L295.888,434.507z"/>
<path fill="#D6484C" d="M294.152,434.542c-0.443-0.256-1.025-0.221-1.414-0.563c0.135-1.565,0.375-3.097,0.494-4.665l0.715-0.68
	C294.048,430.608,294.218,432.515,294.152,434.542"/>
<path fill="#F0BF8D" d="M292.751,429.815c-0.037,1.443-0.176,2.91-0.402,4.244c0,0,0.013,0.002,0.029,0.006l-0.031-0.004
	c0,0.01-0.002,0.02-0.002,0.027c0,0.219,0.226,0.354,0.361,0.415c0.01,0.003,0.227,0.044,0.227,0.044
	c0.127,0.027,0.256,0.053,0.404,0.057c0.008,0.045,0.039,0.363,0.045,0.418c-0.065,0.004-1.533,0.131-1.533,0.131
	c-1.905,0.184-3.866,0.373-5.51-0.313C288.28,433.632,290.266,432.075,292.751,429.815"/>
<path fill="#F0C91E" d="M303.992,430.71c1.328,1.262,2.793,2.146,4.342,2.861c0.053,0.068,0.053,0.203,0,0.271l-0.103,0.07
	c-1.7-0.529-3.254-1.568-4.547-2.947C303.601,430.796,303.824,430.608,303.992,430.71"/>
<path fill="#F0C91E" d="M303.482,431.341c1.379,1.346,2.944,2.246,4.58,3.014c0.053,0.119,0.086,0.257-0.015,0.357
	c-1.858-0.561-3.545-1.67-4.94-3.183C303.056,431.306,303.345,431.239,303.482,431.341"/>
<path fill="#F0BF8D" d="M299.077,434.323l0.246-0.107c0.69-1.117,1.739-1.939,2.821-2.213c0.384-0.076,0.701-0.072,0.963,0.016
	c1.339,1.303,2.793,2.264,4.314,2.861c0.178,0.248,0.225,0.574,0.27,0.887c0.035,0.254,0.074,0.518,0.189,0.748
	c0,0.012,0.002,0.021,0.002,0.033c0,0.195-0.09,0.373-0.174,0.549l-0.05,0.105c-0.041,0.943-0.181,1.865-0.413,2.676
	c-0.003,0.002-0.041,0.064-0.041,0.064s-0.013,0.014-0.018,0.02c0.043-0.203,0.179-0.83,0.179-0.83l-0.009-0.012
	c-0.125-0.186-0.165-0.385-0.165-0.592c0-0.188,0.034-0.379,0.067-0.566c0.031-0.186,0.063-0.369,0.063-0.549
	c0-0.27-0.073-0.525-0.33-0.734l-0.019-0.016l-0.022,0.014c-0.056,0.043-0.088,0.084-0.093,0.129v0.012
	c0,0.059,0.042,0.105,0.087,0.152c0.041,0.047,0.082,0.092,0.082,0.143c0,0.008-0.002,0.018-0.003,0.025
	c-0.135,0.217-0.182,0.453-0.182,0.699c0,0.24,0.043,0.488,0.086,0.732c0.033,0.195,0.068,0.398,0.078,0.588
	c0,0.002-0.117,0.561-0.117,0.561c-0.094,0.527-0.184,1.025-0.588,1.404c-0.002,0-0.041,0.01-0.074,0.018
	c0.023-0.152,0.033-0.307,0.037-0.475c0.011-0.32,0.025-0.652,0.176-0.932c0-0.025,0.001-0.053,0.001-0.078
	c0-0.242-0.052-0.455-0.101-0.66c-0.051-0.213-0.104-0.414-0.104-0.639c0.034-0.135,0.08-0.355,0.08-0.584
	c0-0.271-0.069-0.551-0.313-0.705l-0.008-0.004l-0.02,0.002h-0.064c-0.057-0.004-0.132-0.012-0.162,0.07
	c-0.004,0.018-0.007,0.033-0.007,0.047c0,0.09,0.071,0.104,0.119,0.113c0.045,0.008,0.079,0.018,0.093,0.051
	c0.066,0.119,0.09,0.236,0.09,0.355c0,0.148-0.037,0.295-0.078,0.449c-0.041,0.162-0.084,0.328-0.084,0.502
	c0,0.117,0.019,0.238,0.072,0.363c0.1,0.17,0.133,0.338,0.133,0.51c0,0.203-0.049,0.406-0.101,0.617
	c-0.052,0.215-0.106,0.438-0.106,0.664c0,0.023,0.002,0.047,0.002,0.07c-0.025,0.217-0.133,0.406-0.248,0.609
	c0,0-0.051,0.09-0.072,0.127c-0.102-0.063-0.219-0.105-0.373-0.125l-0.025-0.002l-0.104,0.211c-0.026,0.043-0.047,0.09-0.069,0.135
	c0.009-0.094,0.013-0.189,0.013-0.285c0-0.08,0-0.158-0.004-0.236l-0.004-0.213c0.131-0.346,0.195-0.752,0.195-1.174
	c0-0.424-0.064-0.863-0.195-1.273c0,0.012,0.03-0.289,0.03-0.289c0.043-0.311,0.084-0.631-0.085-0.893
	c-0.092-0.166-0.256-0.254-0.441-0.236c-0.074,0.023-0.066,0.094-0.064,0.133l0.004,0.035l0.025,0.02
	c0.131,0.084,0.281,0.176,0.295,0.324c0.06,0.205-0.004,0.354-0.072,0.514c-0.079,0.178-0.161,0.367-0.023,0.607h-0.002
	c0,0.004,0.006,0.035,0.006,0.035c0.09,0.4,0.189,0.832,0.189,1.256c0,0.283-0.045,0.561-0.163,0.824
	c-0.002,0.006-0.032,0.162-0.046,0.23c-0.143-0.055-0.262-0.068-0.346-0.023c-0.101,0.143-0.104,0.305-0.108,0.463l-0.015,0.244
	l0.015,0.012c0,0,0.338,0.217,0.39,0.25c-0.109,0.115-0.293,0.176-0.445,0.135c-0.289,0.018-0.49-0.26-0.543-0.344
	c-0.067-0.164-0.092-0.352-0.092-0.543c0-0.219,0.033-0.441,0.059-0.641l0.005-0.031l-0.007-0.012
	c-0.086-0.148-0.112-0.326-0.139-0.514c-0.043-0.305-0.086-0.621-0.418-0.809c-0.105-0.135-0.117-0.332-0.123-0.523
	c-0.015-0.266-0.029-0.539-0.326-0.678c-0.197-0.334-0.309-0.719-0.418-1.092c-0.11-0.385-0.223-0.779-0.432-1.117l-0.016-0.025
	c0,0-0.116,0.057-0.145,0.07c-0.031-0.023-0.824-0.639-0.875-0.68c0.114-0.109,0.188-0.227,0.207-0.348v-0.016l-0.011-0.01
	c-0.034-0.043-0.069-0.061-0.106-0.063c-0.065-0.002-0.108,0.047-0.152,0.096c-0.049,0.049-0.096,0.096-0.152,0.09
	c-0.646,0.195-1.139,0.492-1.612,0.965c-0.293,0.188-0.553,0.242-0.783,0.16c-0.149-0.084-0.278-0.26-0.334-0.471
	c0,0,0.017-0.063,0.027-0.098c0.182-0.037,0.373,0.055,0.535,0.152l0.026,0.016l0.058-0.082c0.11-0.145,0.221-0.291,0.221-0.477
	c0-0.039-0.006-0.082-0.016-0.123c-0.039-0.127-0.15-0.154-0.26-0.17C298.412,434.612,298.746,434.464,299.077,434.323
	 M304.922,442.132c0,0.014,0,0.025,0.006,0.037c0.027,0.074,0.094,0.131,0.195,0.17c0.002,0,0.088,0.07,0.088,0.07
	s0.012,0.014,0.023,0.025c-0.008,0.078-0.077,0.111-0.182,0.148l-0.086,0.033c-0.111,0.029-0.191-0.02-0.274-0.07
	c0,0-0.042-0.021-0.078-0.041C304.766,442.409,304.864,442.282,304.922,442.132"/>
<path fill="#221714" d="M291.273,433.485c-0.375,0.121-0.646,0.479-0.938,0.715c-0.271-0.084-0.355-0.406-0.613-0.492l-0.34-0.137
	c0.205,0,0.614,0.086,0.852,0.271C290.574,433.708,290.916,433.587,291.273,433.485"/>
<path fill="#D6484C" d="M294.083,434.831c-0.051,0.238-0.225,0.426-0.408,0.613l-0.086-0.816
	C293.776,434.628,293.962,434.679,294.083,434.831"/>
<path fill="#D6484C" d="M296.398,434.968c0.068-0.154,0.254-0.172,0.357-0.273v0.631L296.398,434.968z"/>
<path fill="#FFFFFF" d="M298.017,434.849c-0.088,0.373-0.648,0.494-0.563,0.938c0.034,0.286,0.272,0.56,0.528,0.696
	c0.986,0.357,1.465-0.869,2.333-0.902l0.494,0.391c-0.631,1.311-2.062,1.719-3.372,1.906c-1.057,0.139-2.215,0.018-3.252,0.188
	c0.269-0.461,0.631-0.902,0.986-1.326c0.733,0.066,1.43-0.324,1.807-0.952l0.051-0.802
	C297.351,434.933,297.675,434.899,298.017,434.849"/>
<path fill="#FFFFFF" d="M293.417,435.36l0.035,0.561c0.444,0.375,0.953,0.631,1.447,0.801c-0.205,0.561-0.816,0.613-1.261,0.852
	c-1.018,0.34-2.094,0.527-3.149,0.766c0.92,0.035,1.805-0.221,2.692-0.391l1.072-0.324c-0.188,0.254-0.545,0.459-0.512,0.801
	c0.444,0.527,1.143,0.391,1.653,0.732c-0.172,0.34-0.561,0.441-0.87,0.596c-1.685,0.834-3.882,0.578-5.875,0.563
	c-0.613-0.104-1.277-0.104-1.718-0.596c0.357-0.41,1.328-0.496,1.123-1.279c-0.289-0.629-0.799-1.158-1.344-1.668
	c0.936,0.527,2.01,0.648,3.15,0.666v-0.053c-1.55-0.375-3.423-0.477-4.226-2.18l0.189-0.137
	C288.123,435.835,290.916,435.495,293.417,435.36"/>
<path fill="#F0BF8D" d="M298.408,435.257l-0.137,0.324l-0.355-0.102C298.119,435.409,298.187,434.899,298.408,435.257"/>
<path fill="#FFFFFF" d="M287.697,438.526c-0.834-0.408-1.906,0.271-2.842-0.152c-0.988-0.256-1.398-1.346-1.588-2.248
	c0.684-0.188,1.348-0.41,1.979-0.75C285.943,436.483,287.271,437.317,287.697,438.526"/>
<path fill="#3C5F9A" d="M301.832,437.335c-0.529,0.086-1.228,0.135-1.705-0.137c0.271-0.324,0.731-0.613,0.985-0.988
	C301.438,436.499,301.776,436.874,301.832,437.335"/>
<path fill="#3C5F9A" d="M301.883,437.589c0.135,0.375,0.223,0.768,0.508,1.059c0.121,0.457,0.221,0.936,0.582,1.293v0.068
	c-2.213-0.34-4.361-0.836-6.387-1.584c-0.068-0.035-0.205-0.137-0.086-0.205c1.244,0,2.385-0.238,3.373-0.885
	C300.452,437.624,301.184,437.708,301.883,437.589"/>
<path fill="#3C5F9A" d="M286.333,438.747c-0.732,0.563-1.648,0.768-2.518,1.006l-0.119-1.67
	C284.395,438.747,285.38,438.765,286.333,438.747"/>
<path fill="#3C5F9A" d="M295.683,438.987c-0.344-0.309-0.885-0.291-1.229-0.631c0.088-0.256,0.43-0.17,0.651-0.223l1.072,0.07
	L295.683,438.987z"/>
<path fill="#D6484C" d="M303.057,440.433c0.307,0.563-0.07,1.432,0.408,1.875c-2.826-0.562-5.602-1.193-8.105-2.488
	c0.375,0.512,1.039,0.648,1.582,0.922c2.336,0.867,4.771,1.496,7.306,1.873c0.187,0.203,0.429,0.305,0.681,0.322
	c0.207-0.033,0.393-0.084,0.547-0.223c0,1.246-0.441,2.385-0.441,3.662c-0.086,0.205-0.122,0.426-0.309,0.596
	c-2.879-0.154-5.314-1.379-7.765-2.57c-1.906-1.09-3.847-2.146-5.535-3.729c0.651-0.035,1.328-0.086,1.942-0.223
	c1.31,1.396,2.945,2.078,4.531,2.861c1.974,0.816,3.914,1.668,6.094,1.941l0.018-0.018l-0.033-0.051
	c-2.367-0.426-4.514-1.363-6.663-2.35c-1.272-0.684-2.586-1.33-3.658-2.42h-0.067c1.037-0.219,2.246-0.68,2.656-1.787
	C298.388,439.515,300.74,439.94,303.057,440.433"/>
<path fill="#3C5F9A" d="M287.476,438.798c-0.152,0.324-0.527,0.41-0.766,0.664l-0.138-0.766
	C286.88,438.679,287.255,438.577,287.476,438.798"/>
<path fill="#D6484C" d="M287.22,440.28c0.373,0.102,0.715,0.238,1.123,0.256c-1.004,0.854-2.228,1.311-3.353,1.924l0.205-0.018
	c1.209-0.527,2.433-1.072,3.507-1.855l2.096,0.068c-1.689,1.889-3.783,3.115-5.808,4.309c-0.291,0.102-0.596,0.289-0.92,0.186
	c-0.393-0.611-0.426-1.346-0.477-2.076c-0.086-0.971,0-1.941-0.256-2.844c1.09-0.188,2.112-0.613,3.067-1.16
	C286.507,439.548,286.659,440.144,287.22,440.28"/>
<path fill="#3C5F9A" d="M291.242,440.673c0.457,0.645,1.137,1.09,1.699,1.549c-1.004,0.818-2.402,1.156-3.064,2.4
	c0-1.158,0.594-2.264,0.765-3.457l0.444-0.51L291.242,440.673z"/>
<path fill="#F0BF8D" d="M306.256,441.317c-0.031,0.139-0.101,0.342-0.271,0.428l-0.068-0.016
	C305.969,441.608,305.984,441.284,306.256,441.317"/>
<path fill="#F0BF8D" d="M304.676,441.456l0.03,0.51l-0.344-0.152l0.058-0.461C304.504,441.39,304.605,441.353,304.676,441.456"/>
<path fill="#F0BF8D" d="M305.492,441.796c-0.056,0.154-0.086,0.289-0.138,0.441l-0.237-0.135l0.153-0.426
	C305.354,441.694,305.424,441.745,305.492,441.796"/>
<path fill="#3C5F9A" d="M290.064,446.325c-0.102,1.072-0.119,2.162-0.578,3.082c-0.272,0.563-0.664,1.141-0.479,1.84
	c0.325,0.457,0.563,1.055,0.358,1.652c-0.442,0.477-1.106,0.492-1.686,0.68c-0.373,0.033-0.799,0.238-1.142,0
	c-0.305-0.545-0.34-1.193-0.407-1.822c-0.068-2.844,0.782-5.297,1.582-7.781v-0.154l-0.084,0.086
	c-0.849,2.367-1.72,4.701-1.923,7.34c-0.444-1.875-0.918-3.73-1.227-5.654c1.926-1.09,3.815-2.367,5.586-3.863
	C290.031,443.192,288.923,444.964,290.064,446.325"/>
<path fill="#3C5F9A" d="M302.545,447.159l1.889,0.307c-0.032,1.959-0.071,3.916-0.305,5.791c-0.683,0.219-1.566,0.254-2.162-0.188
	c-3.047-1.773-5.738-4.939-7.322-7.953l-0.545-1.396l-0.137-0.051c0.443,2.076,1.74,3.848,3.066,5.586
	c1.393,1.703,3.116,3.32,4.972,4.221l-4.734,0.07c-2.16-0.375-3.61-2.725-4.188-4.633c-0.033-0.117-0.101,0.035-0.152-0.033
	c0.56,1.771,1.361,4.068,3.455,4.666c-2.248-0.035-4.514-0.07-6.641-0.41c1.09-0.902,1.346-2.16,1.483-3.455
	c0.357-0.154,0.695-0.479,0.715-0.904c0.441-1.906-0.02-4.205,0.732-5.994l0.562-0.357
	C296.159,444.417,299.189,446.171,302.545,447.159"/>
<path fill="#FFFFFF" d="M291.734,448.454c-0.443-1.004-1.381-1.805-1.688-2.861c-0.289-1.498,1.45-2.076,2.385-2.707
	C291.765,444.521,291.97,446.616,291.734,448.454"/>
<path fill="#3C5F9A" d="M291.46,448.913c-0.035,0.256-0.307,0.41-0.51,0.512l-1.449,0.852c0.646-0.99,0.699-2.352,0.732-3.645
	C290.659,447.397,291.375,448.028,291.46,448.913"/>
<path fill="#FFFFFF" d="M290.929,449.833c-0.047,1.156-0.391,2.264-1.342,2.963c0.254-0.613-0.152-1.158-0.324-1.721
	C289.519,450.345,290.335,450.157,290.929,449.833"/>
<path fill="#F0BF8D" d="M288.994,453.536c0.205-0.059,0.418-0.119,0.596-0.246c1.152,0.428,2.484,0.502,3.769,0.572
	c0,0,1.299,0.088,1.334,0.088c0.012,0.029,0.076,0.154,0.076,0.154c0,0.018,0.534,4.695,0.571,5.033
	c-1.678,0.24-3.44,0.232-4.965-0.02c-0.516-1.164-0.908-2.441-1.285-3.678c0,0-0.535-1.688-0.551-1.74
	C288.676,453.624,288.83,453.579,288.994,453.536"/>
<path fill="#F0BF8D" d="M295.261,453.968c0.037,0.002,6.516,0.051,6.584,0.053c-0.082,1.725-0.394,3.385-0.691,4.99
	c0,0-0.041,0.221-0.049,0.262c-1.699,0.291-3.598,0.309-5.221,0.049c-0.01-0.012-0.041-0.043-0.051-0.053
	c-0.004-0.021-0.613-5.227-0.613-5.232C295.224,454.036,295.247,453.991,295.261,453.968"/>
<path fill="#F0C91E" d="M295.138,459.487c-0.154,0.137-0.221,0.375-0.119,0.58c-1.652,0.289-3.594,0.221-5.16-0.205
	c-0.119-0.066-0.102-0.238-0.069-0.34l0.19-0.137C291.613,459.692,293.452,459.692,295.138,459.487"/>
<path fill="#F0C91E" d="M301.713,459.726c0.102,0.596-0.631,0.426-0.974,0.563c-1.754,0.223-3.711,0.188-5.363-0.221
	c-0.119-0.086-0.154-0.271-0.068-0.393l0.119-0.084c1.906,0.322,4.103,0.271,5.995-0.054
	C301.559,459.537,301.659,459.606,301.713,459.726"/>
<path fill="#F0C91E" d="M295.087,460.39c-0.137,0.172-0.203,0.41-0.119,0.615c-1.652,0.287-3.576,0.221-5.16-0.205
	c-0.102-0.068-0.086-0.238-0.069-0.342l0.188-0.137C291.563,460.612,293.417,460.646,295.087,460.39"/>
<path fill="#F0C91E" d="M301.814,460.714c-0.019,0.135-0.103,0.307-0.256,0.324c-1.959,0.459-4.275,0.41-6.232-0.033
	c-0.119-0.086-0.119-0.24-0.084-0.359l0.22-0.135c1.872,0.338,4.069,0.305,5.927-0.053
	C301.576,460.425,301.796,460.511,301.814,460.714"/>
<path fill="#F0BF8D" d="M290.388,461.261c0.197,0.063,0.402,0.129,0.6,0.098c1.363,0.191,2.886,0.168,4.175-0.064
	c0.127,0.405,0.176,0.816,0.176,1.232c0,0.703-0.135,1.414-0.267,2.111c0,0-0.092,0.475-0.1,0.51
	c-0.244,0.096-0.525,0.135-0.801,0.177c0,0-0.099,0.013-0.144,0.019c-0.006-0.061-0.032-0.406-0.032-0.406l-0.062-0.008
	c-0.135,0.463-0.481,0.881-0.816,1.283l-0.012,0.014c-0.567,0.434-1.125,0.615-1.703,0.555c0.009-0.025,0.017-0.051,0.017-0.051
	c0.026-0.063,0.055-0.135,0.055-0.205c0-0.043-0.012-0.086-0.041-0.125l-0.029-0.045l-0.024,0.051
	c-0.117,0.248-0.349,0.453-0.601,0.541l0.004-0.066c0.005-0.056,0.009-0.123,0.009-0.189c0-0.1-0.011-0.203-0.05-0.285l-0.041-0.08
	l-0.022,0.086c-0.164,0.686-0.826,1.334-1.541,1.508c-0.289,0.035-0.586-0.041-0.793-0.197c-0.209-0.174-0.314-0.396-0.314-0.668
	c0-0.061,0.007-0.123,0.019-0.188c0.063,0.012,1.545,0.303,1.545,0.303l0.01-0.01c0.174-0.135,0.115-0.412,0.062-0.564
	c-0.068-0.207-0.289-0.406-0.513-0.463c-0.135-0.041-0.295-0.025-0.475,0.025c0.047-0.156,0.182-0.439,0.395-0.545
	c0.001,0,0.191-0.047,0.191-0.047c0.227-0.061,0.459-0.125,0.644,0.01l0.018,0.014l0.09-0.059l-0.008-0.025
	c-0.043-0.125-0.152-0.207-0.324-0.26c0.072-0.152,0.217-0.182,0.371-0.205l0.273-0.057l-0.08-0.041
	c-0.41-0.221-0.716,0.043-1.015,0.299c-0.153,0.131-0.309,0.266-0.477,0.33l-0.01,0.004l-0.031,0.049
	c-0.246,0.377-0.478,0.732-0.834,1.041c-0.133,0.123-0.111,0.307-0.096,0.471c0.028,0.213,0.045,0.381-0.214,0.426
	c-0.266,0.051-0.565-0.002-0.78-0.131c-0.164-0.197-0.271-0.434-0.326-0.693c0.102,0.025,1.012,0.26,1.012,0.26l0.008-0.004
	c0.154-0.051,0.172-0.217,0.185-0.35l0.006-0.051c0-0.209-0.103-0.455-0.33-0.512c-0.15-0.027-0.291,0.008-0.428,0.08
	c0.178-0.303,0.516-0.467,0.826-0.605l0.1-0.045c0.158,0.021,0.299,0.061,0.416,0.119l0.053,0.027l-0.006-0.059
	c-0.018-0.17-0.213-0.246-0.346-0.297l-0.027-0.012c0.004-0.047,0.035-0.078,0.092-0.121c0.056-0.043,0.117-0.092,0.129-0.178
	l0.005-0.033l-0.037-0.002c-0.158-0.012-0.283,0.121-0.392,0.238l-0.17,0.156c-0.285,0.096-0.461,0.316-0.633,0.529
	c-0.172,0.215-0.334,0.418-0.605,0.508c-0.163,0.121-0.122,0.281-0.086,0.412c0.019,0.082,0.041,0.16,0.007,0.213
	c-0.019,0.033-0.068,0.057-0.138,0.072c-0.237,0.078-0.442-0.023-0.639-0.125l-0.021-0.01c-0.143-0.125-0.209-0.297-0.215-0.518
	c0.101,0.002,0.211,0.055,0.318,0.104c0.141,0.068,0.272,0.129,0.389,0.086c0.072-0.027,0.127-0.09,0.172-0.191
	c0.037-0.156,0.05-0.277,0-0.416c-0.1-0.158-0.239-0.17-0.373-0.158c0.007-0.17,0.216-0.326,0.406-0.412
	c0.15-0.092,0.338-0.063,0.506-0.037l0.32,0.033l-0.088-0.068c0,0-0.23-0.189-0.265-0.221c0.021-0.051,0.064-0.076,0.107-0.1
	c0.055-0.027,0.115-0.061,0.135-0.143l0.015-0.059l-0.091,0.035c-0.458,0.168-1.022,0.377-1.278,0.854
	c-0.043,0.08-0.131,0.135-0.222,0.193c-0.112,0.068-0.239,0.148-0.305,0.283c0,0-0.004,0.377-0.004,0.43
	c-0.287,0.037-0.533-0.082-0.654-0.326c0-0.01-0.028-0.217-0.041-0.305c0.058,0.008,0.129,0.039,0.199,0.076
	c0.125,0.066,0.256,0.131,0.369,0.084c0.072-0.031,0.121-0.104,0.156-0.225c0-0.004,0.018-0.086,0.018-0.086
	c0.015-0.063,0.029-0.123,0.017-0.201c-0.031-0.068-0.08-0.109-0.138-0.131c-0.049-0.014-0.102-0.008-0.155,0.004
	c0.143-0.352,0.539-0.488,0.862-0.533l0.031-0.004l-0.004-0.033c0-0.012-0.002-0.02-0.002-0.029c0-0.094,0.07-0.139,0.152-0.189
	c0.061-0.037,0.124-0.076,0.153-0.137l0.031-0.063l-0.066,0.018c-0.18,0.041-0.34,0.134-0.494,0.219
	c-0.159,0.09-0.325,0.182-0.51,0.223c-0.158,0.111-0.24,0.246-0.321,0.375c-0.105,0.164-0.203,0.318-0.416,0.393
	c-0.082,0.051-0.099,0.117-0.099,0.189c0,0.029,0.002,0.059,0.006,0.088c0,0,0.004,0.066,0.004,0.1
	c-0.202,0.031-0.387-0.111-0.43-0.27c-0.055-0.086-0.065-0.174-0.076-0.266c0,0-0.002-0.008-0.002-0.01
	c0.037,0.018,0.078,0.041,0.078,0.041c0.135,0.076,0.289,0.162,0.447,0.049c0.174-0.137,0.252-0.285,0.233-0.457v-0.016
	l-0.016-0.008c-0.072-0.041-0.147-0.041-0.219-0.033c0.123-0.078,0.237-0.176,0.301-0.336c0.213-0.193,0.531-0.271,0.85-0.201
	l0.107,0.023c0,0-0.135-0.137-0.16-0.162c0.109-0.176,0.279-0.24,0.459-0.305l0.281-0.123c0.684-0.986,1.715-1.755,3.164-2.365
	c0,0.002,0.842-0.1,0.842-0.1l0.035-0.004l-0.008-0.036c-0.031-0.132-0.207-0.144-0.359-0.153c0,0-0.02,0-0.041-0.002
	C289.771,461.063,290.058,461.151,290.388,461.261"/>
<path fill="#F0BF8D" d="M301.456,461.397c0.021,0.029,0.228,0.344,0.298,0.451c-0.091-0.027-0.195-0.049-0.296-0.008l-0.049,0.023
	l0.351,0.271c0.004,0.002,0.832,0.443,0.832,0.443c0.625,0.313,1.27,0.643,1.782,1.205c-0.088-0.01-0.188-0.006-0.267,0.074
	l-0.03,0.027l0.034,0.021c0.275,0.188,0.589,0.285,0.893,0.383c0.471,0.145,0.913,0.285,1.241,0.717c0,0,0.002,0.004,0.006,0.006
	c-0.01-0.004-0.015-0.006-0.022-0.008l-0.414-0.135l0.078,0.09c0,0,0.078,0.086,0.113,0.123c-0.011,0.006-0.064,0.041-0.064,0.041
	l0.043,0.027c0.097,0.059,0.211,0.094,0.318,0.127c0.172,0.053,0.35,0.113,0.481,0.262c-0.104,0.035-0.185,0.107-0.201,0.211
	c0,0.008-0.002,0.02-0.002,0.027c0,0.193,0.17,0.359,0.347,0.432c0.145-0.012,0.271-0.082,0.396-0.193v0.002
	c0,0.084-0.052,0.17-0.106,0.258l-0.104,0.199c-0.077,0.111-0.198,0.182-0.366,0.221c-0.002-0.072-0.015-0.449-0.015-0.449
	l-0.45-0.305c-0.25-0.158-0.485-0.307-0.699-0.549l-0.011-0.016l-0.016,0.004c-0.131,0.023-0.236-0.041-0.347-0.107
	c-0.106-0.066-0.219-0.133-0.353-0.113l-0.065,0.008c0,0,0.179,0.178,0.222,0.223c-0.025,0.014-0.109,0.063-0.109,0.063l0.189,0.068
	c0.217,0.078,0.436,0.16,0.614,0.357c-0.058,0.025-0.108,0.063-0.142,0.119c-0.032,0.061-0.047,0.127-0.047,0.195
	c0,0.053,0.008,0.105,0.027,0.15c0.053,0.127,0.184,0.275,0.314,0.291h0.002c0.164,0,0.294-0.064,0.423-0.129
	c0,0,0.116-0.053,0.164-0.074c0.006,0.047,0.008,0.09,0.008,0.137c0,0.305-0.108,0.623-0.431,0.703h-0.381
	c0.013-0.053,0.025-0.107,0.025-0.154c0-0.145-0.046-0.275-0.093-0.414l-0.011-0.037l-0.012-0.004
	c-0.332-0.168-0.604-0.441-0.867-0.709c-0.244-0.244-0.494-0.496-0.783-0.654l-0.021-0.012l-0.091,0.09c0,0,0.093,0.102,0.136,0.152
	c-0.045,0.006-0.101,0.016-0.101,0.016c-0.112,0.01-0.237,0.021-0.293,0.125l-0.019,0.045l0.047,0.002
	c0.375,0.033,0.697,0.184,0.967,0.441c-0.135,0-0.366,0.031-0.436,0.232c-0.017,0.26,0.096,0.477,0.307,0.598l0.015,0.01
	l0.013-0.008c0.256-0.109,0.621-0.143,0.887-0.084c-0.053,0.293-0.157,0.633-0.483,0.742c-0.295,0.09-0.604,0.102-0.842,0.035
	c0.002-0.027,0.006-0.064,0.006-0.064c0.007-0.088,0.015-0.186,0.015-0.283c0-0.219-0.035-0.447-0.199-0.601
	c-0.239-0.116-0.442-0.31-0.641-0.497c-0.259-0.244-0.523-0.496-0.855-0.584c-0.321-0.273-0.793-0.33-1.166-0.135l-0.049,0.025
	l0.047,0.031c0.078,0.053,0.201,0.053,0.326,0.053c0.121,0,0.235,0.006,0.332,0.047c-0.01,0.004-0.029,0.01-0.029,0.01l-0.516,0.227
	l0.08,0.023c0.112,0.039,0.229,0.006,0.336-0.027c0.102-0.029,0.207-0.063,0.315-0.039c0.327,0.049,0.668,0.135,0.801,0.443
	c-0.204-0.016-0.446-0.031-0.579,0.135c-0.152,0.08-0.125,0.299-0.056,0.459c0.03,0.156,0.086,0.256,0.17,0.303
	c0.121,0.063,0.272,0.002,0.433-0.061c0.145-0.061,0.293-0.123,0.424-0.086c0.006,0,0.385,0.014,0.488,0.016
	c0.012,0.049,0.02,0.1,0.02,0.15c0,0.17-0.057,0.357-0.17,0.568c-0.471,0.453-1.285,0.316-1.887,0.123
	c-0.34-0.109-0.537-0.395-0.728-0.674l-0.244-0.334l-0.022,0.053c-0.024,0.055-0.033,0.107-0.033,0.16
	c0,0.094,0.029,0.188,0.058,0.277c0,0,0.015,0.061,0.026,0.109c-0.176-0.035-0.321-0.123-0.467-0.225l-0.269-0.168l-0.013,0.033
	c-0.012,0.027-0.021,0.053-0.021,0.078c0,0.063,0.036,0.117,0.073,0.164c-0.534,0.047-1.441-0.006-1.974-0.809
	c0.045-0.068,0.064-0.133,0.064-0.191c0-0.162-0.137-0.297-0.264-0.42l-0.109-0.107c-0.064-0.066-0.15-0.109-0.254-0.127
	l-0.027-0.005l-0.01,0.022c-0.012,0.029-0.016,0.057-0.016,0.084c0,0.09,0.061,0.172,0.12,0.248c0.052,0.07,0.099,0.141,0.109,0.215
	c-0.705-0.162-1.426-0.334-2.037-0.717c-0.108-0.156-0.149-0.328-0.149-0.508c0-0.234,0.067-0.479,0.131-0.721
	c0.043-0.158,0.084-0.318,0.108-0.473c0.082,0.068,0.168,0.127,0.283,0.127h0.062l-0.035-0.049
	c-0.248-0.379-0.363-0.832-0.318-1.238c0.084-0.313,0.236-0.602,0.453-0.852l0.031-0.037l-0.049-0.016
	c-0.103-0.029-0.216,0.018-0.296,0.104v-0.463C297.749,461.749,299.799,461.726,301.456,461.397 M306.281,465.019
	c0.341-0.059,0.533,0.143,0.736,0.357c0.092,0.096,0.187,0.184,0.295,0.258c-0.021-0.006-0.037-0.014-0.057-0.018
	c0,0-0.168-0.055-0.181-0.059c-0.177-0.34-0.5-0.451-0.798-0.537L306.281,465.019z M307.678,465.673
	c0.01,0.031,0.016,0.061,0.016,0.088c0,0.061-0.016,0.111-0.034,0.162c-0.021-0.1-0.08-0.17-0.158-0.213
	C307.553,465.698,307.641,465.683,307.678,465.673"/>
<path fill="#F0BF8D" d="M284.171,465.327c-0.033,0.104-0.152,0.188-0.238,0.258c-0.051-0.035-0.104-0.053-0.172-0.069
	C283.866,465.431,284.02,465.362,284.171,465.327"/>
<path fill="#F0BF8D" d="M307.396,465.481l0.121,0.051L307.396,465.481z"/>
<path fill="#F0BF8D" d="M284.886,465.737c0,0.102-0.084,0.188-0.135,0.256l-0.273-0.086
	C284.529,465.823,284.734,465.616,284.886,465.737"/>
<path fill="#F0BF8D" d="M307.195,465.872c0,0.07-0.17,0.223-0.289,0.121c-0.106-0.068-0.19-0.17-0.121-0.289
	C306.939,465.704,307.074,465.788,307.195,465.872"/>
<path fill="#F0BF8D" d="M285.974,466.231l-0.066,0.221c-0.17-0.084-0.358-0.119-0.545-0.152
	C285.499,466.163,285.925,465.839,285.974,466.231"/>
<path fill="#F0BF8D" d="M306.291,466.267c-0.119,0.103-0.256,0.187-0.441,0.187c-0.086-0.12-0.239-0.255-0.12-0.392
	C305.969,466.044,306.104,466.198,306.291,466.267"/>
<path fill="#F0BF8D" d="M287.476,466.47l-0.035,0.291l-0.781-0.172C286.847,466.368,287.306,466.11,287.476,466.47"/>
<path fill="#F0BF8D" d="M289.451,466.638c0.018,0.104,0.068,0.189,0.051,0.309l-1.209-0.256c0.17-0.203,0.39-0.34,0.648-0.373
	C289.16,466.317,289.383,466.435,289.451,466.638"/>
<path fill="#F0BF8D" d="M305.117,466.675c-0.238-0.018-0.459-0.018-0.646,0.086c-0.123-0.053-0.209-0.205-0.155-0.342
	C304.588,466.28,304.879,466.487,305.117,466.675"/>
<path fill="#F0BF8D" d="M303.416,466.843c-0.359-0.049-0.65,0.086-0.957,0.139c-0.068-0.104-0.136-0.221-0.136-0.359
	c0.154-0.152,0.427-0.117,0.632-0.066C303.106,466.638,303.278,466.708,303.416,466.843"/>
<path fill="#F0BF8D" d="M286.164,409.479c0.049-0.168,0.164-0.367,0.334-0.414c0.254-0.08,0.459,0.109,0.539,0.32
	c0.074,0.217,0.113,0.424,0.113,0.633c0,0.127-0.017,0.256-0.045,0.387c-0.234,0.137-0.591,0.16-0.877,0.061l-0.015-0.006
	l-0.012,0.008c-0.043,0.021-0.039,0.066-0.035,0.092l0.002,0.039l0.017,0.012c0.297,0.148,0.635,0.193,0.917,0.127
	c-0.002,0.023-0.004,0.047-0.004,0.072c0,0.084,0.007,0.176,0.017,0.273c0.008,0.107,0.016,0.217,0.016,0.318
	c0,0.26-0.061,0.471-0.338,0.494c-0.117,0.037-0.225,0.02-0.332,0.004c-0.096-0.014-0.184-0.027-0.272,0l-0.045,0.012l0.03,0.037
	c0.174,0.236,0.537,0.213,0.828,0.191c0,0,0.096-0.006,0.109-0.008c0.012,0.08,0.033,0.24,0.033,0.24
	c0.028,0.156,0.053,0.32,0.053,0.475c0,0.186-0.039,0.355-0.168,0.471c-0.006-0.002-0.125,0.031-0.16,0.041
	c-0.361-0.217-0.676-0.514-0.928-0.879C285.942,412.454,286.164,409.479,286.164,409.479"/>
<path fill="#221714" d="M309.652,397.556c-0.746,0.027-1.256,1.025-1.416,1.941c-0.156,0.893-0.023,2.066,0.871,2.426
	c0.078,0.031,0.162-0.006,0.196-0.082c0.028-0.076-0.007-0.162-0.086-0.193c-0.728-0.295-0.828-1.314-0.687-2.102
	c0.166-0.947,0.637-1.502,1.121-1.52c1.02-0.039,1.498,0.797,1.592,1.752c0.072,0.738-0.078,1.502-0.227,2.219
	c-0.177,0.824-0.418,1.631-0.686,2.43c-0.295,0.869-0.526,1.744-0.692,2.646c-0.157,0.852-0.224,1.73-0.231,2.596
	c-0.004,0.359,0.135,1.689-0.225,2.045c-0.193,0.191-0.486,0.113-0.625,0.086c-0.916-0.334-0.564-1.395-0.811-1.547
	c-0.055-0.035-0.069,0.148-0.071,0.17c-0.021,0.193-0.065,0.377-0.054,0.574c0.011,0.176,0.054,0.348,0.121,0.512
	c0.031,0.068,0.062,0.139,0.103,0.203c0.198,0.316,0.582,0.461,0.784,0.5c0.182,0.037,0.596,0.09,0.835-0.184
	c0.241-0.271,0.304-0.852,0.259-1.83c-0.046-0.982,0.047-2.35,0.152-3.154c0.029-0.227,0.063-0.449,0.1-0.674
	c0.068-0.451,0.202-0.908,0.342-1.346c0.266-0.824,0.508-1.639,0.735-2.473c0.269-0.965,0.558-2.084,0.489-2.801
	C311.436,398.659,310.882,397.507,309.652,397.556"/>
<path fill="#221714" d="M309.516,397.661c-0.392,1.354,0.403,4.504,0.535,4.854c0.092,0.28-0.686,2.47-1.447,3.175
	c-0.174,0.16-0.318,0.217-0.433,0.172c-0.22-0.088-0.241-0.193-0.252-0.23c-0.067-0.297,0.401-0.814,0.707-1.157
	c0.31-0.345,0.448-0.5,0.425-0.657c-0.023-0.176,0.025-0.563-0.054-0.727c-0.125,0.002-0.556-0.158-0.554-0.148
	c0.035,0.176,0.174,0.311,0.248,0.469c0.072,0.146,0.117,0.297,0.136,0.426c-0.022,0.072-0.285,0.285-0.421,0.438
	c-0.352,0.389-0.78,0.863-0.791,1.282c-0.002,0.048,0,0.097,0.011,0.144c0.045,0.193,0.192,0.34,0.435,0.438
	c0.24,0.096,0.506-0.064,0.783-0.336c0.793-0.77,1.604-2.877,1.442-3.293c-0.164-0.439-1.021-3.326-0.677-4.516
	c0.023-0.078,0.17-0.41,0.092-0.432C309.62,397.538,309.538,397.583,309.516,397.661"/>
</svg>
