<?xml version="1.0" encoding="utf-8"?>
<!-- Generator: Adobe Illustrator 14.0.0, SVG Export Plug-In . SVG Version: 6.00 Build 43363)  -->
<!DOCTYPE svg PUBLIC "-//W3C//DTD SVG 1.1//EN" "http://www.w3.org/Graphics/SVG/1.1/DTD/svg11.dtd">
<svg version="1.1" id="レイヤー_1" xmlns="http://www.w3.org/2000/svg" xmlns:xlink="http://www.w3.org/1999/xlink" x="0px"
	 y="0px" width="595.28px" height="841.89px" viewBox="0 0 595.28 841.89" enable-background="new 0 0 595.28 841.89"
	 xml:space="preserve">
<path fill="#221714" d="M316.138,372.312c-0.51,0.025-0.943,0.266-1.215,0.676c0,0.002-0.447,1-0.447,1l-0.064,0.191l-0.338,1.012
	c-0.42,1.285-0.814,2.496-1.525,3.355c-0.285,0.35-0.67,0.564-1.08,0.791l-0.264,0.146c0,0.002-0.238,0.142-0.238,0.142
	l-1.326,0.634l-0.09,0.047l-1.047,0.51l-0.396,0.156c-1.115-0.613-2.387-1.152-3.746-1.6c-0.127-0.281-0.197-0.586-0.197-0.915
	c-0.01-1.024,0.73-2.085,1.379-2.894l0.199-0.236l0.477-0.699c0.002-0.002,0.072-0.412,0.072-0.412
	c-0.006-0.479-0.281-0.932-0.785-1.277c-0.434-0.295-0.955-0.465-1.434-0.469l-0.223,0.014c-0.342,0.049-0.631,0.26-0.887,0.652
	l-0.371,0.719l-0.07,0.158c-0.563,1.227-1.141,2.68-1.145,4.186l0.016,0.387c-1.289-0.354-2.799-0.521-4.328-0.521
	c-1.066,0-2.084,0.08-3.023,0.24c-1.648,0.279-3.24,0.783-4.865,1.543l-0.381,0.194c0,0-0.627,0.292-0.641,0.298
	c0.055-0.014,0.223-0.695,0.223-0.695l0.209-0.785l0.213-1.219l-0.064-0.496c-0.104-0.342-0.369-0.617-0.813-0.838
	c-0.369-0.178-0.789-0.279-1.188-0.281c-0.77,0.01-1.582,0.408-2,0.969c-0.279,0.398-0.322,0.916-0.324,1.418l0.066,1.152
	l0.043,0.604c0,0.037,0.018,0.652,0.018,0.652l-0.09,0.854c-0.074,0.234-0.172,0.379-0.324,0.469c-0.002,0-0.656,0.127-0.656,0.127
	c-0.82,0.002-1.992-0.375-2.377-0.5c-0.094-0.029-1.33-0.48-1.33-0.48c-0.449-0.203-0.77-0.447-0.885-0.672
	c-0.133-0.252-0.199-0.541-0.199-0.885c-0.004-0.52,0.158-1.102,0.314-1.664l0.313-1.545c0.004-0.588-0.248-1.065-0.688-1.379
	c-0.385-0.273-0.887-0.426-1.416-0.428c-0.742,0.002-1.381,0.291-1.754,0.793c-0.209,0.283-0.32,0.631-0.32,1.002l0.24,1.168
	l0.035,0.115c0.123,0.387,0.328,1.135,0.328,1.82l-0.148,0.852c-0.111,0.242-0.262,0.396-0.484,0.504
	c-0.563,0.264-1.172,0.398-1.813,0.398l-0.719-0.055c-1.082-0.16-1.969-0.695-2.789-1.684c-0.678-0.814-1.186-1.805-1.68-2.764
	l-0.209-0.408c-0.307-0.602-0.623-1.227-1.15-1.762c-0.748-0.748-1.488-1.113-2.264-1.119l-0.174,0.008
	c-0.74,0.057-1.217,0.525-1.563,0.869l-0.592,0.688c-0.174,0.25-0.369,0.582-0.375,0.967c0.064,0.662,0.512,1.068,0.941,1.392
	l0.863,0.558l0.396,0.244l2.059,1.537l1.266,1.275c0.775,0.84,1.576,1.707,2.67,2.213c0.732,0.334,1.639,0.488,2.844,0.488
	l2.365-0.123l1.441-0.098l0.57-0.013c1.385,0,2.672,0.233,4.047,0.737l0.125,0.043l0.572,0.223c0,0,0.246,0.125,0.266,0.135
	c-0.047,0.004-0.229,0.193-0.229,0.193l-0.142,0.131l-0.25,0.247c-2.175,2.401-3.235,4.757-3.556,7.878l-0.086,1.693
	c0,1.309,0.148,2.668,0.455,4.156l0.332,1.221l0.334,1.236l0.068,0.33c0.135,0.641,0.287,1.365,0.287,1.998
	c0,0.002-0.016,0.354-0.016,0.354c-0.002,0.029-0.219,0.779-0.219,0.779c-0.164,0.531-0.336,1.082-0.385,1.771
	c0,0-0.021,0.67-0.021,0.672c0,1.911,0.578,3.607,1.826,5.338c0,0.002,0.215,0.27,0.215,0.27l0.369,0.529
	c0.004,0.004,0.107,0.682,0.107,0.682c0.033,0.371,0.07,0.756,0.27,1.15c-0.514,0.701-0.859,1.572-1.029,2.551
	c-0.105,0.033-0.332,0.142-0.465,0.416l-0.041,0.226c0.002,0.077,0.002,0.136,0.002,0.136c-0.004,0.057-0.1,0.189-0.1,0.189
	l-0.221,0.408l-0.01,0.137c0,0.279,0.121,0.486,0.24,0.652c-0.346,0.992-0.525,2.09-0.525,3.146l0.088,1.234
	c0.219,1.508,0.813,2.656,1.816,3.508c0.465,0.396,0.977,0.805,1.633,1.041l0.764,0.135c0.58,0,1.063-0.227,1.463-0.449
	c0.898-0.504,1.57-1.238,2.117-2.307c-0.023,0.006-0.031,0.061-0.031,0.129c0,0.102,0.012,0.219,0.012,0.219l0.086,0.615
	c0.328,1.584,0.877,2.992,1.674,4.307c-0.018-0.008-0.117,0.078-0.117,0.078c0,0.002-0.205,0.428-0.205,0.428
	c0,0.088,0.252,0.867,0.252,0.867c0.041,0.082,0.277,0.646,0.277,0.646c-0.002,0.002-0.068,0.375-0.068,0.375l0.24,1.012
	l0.156,0.516c0.002,0.004,0.094,0.666,0.094,0.666l0.199,1.037l0.125,0.146c0,0,0.211,0.059,0.217,0.059
	c-0.031,0.002-0.109,0.551-0.109,0.555c-0.02,0-0.42,0.225-0.42,0.225c-0.199,0.24-0.236,0.521-0.262,0.838l-0.018,0.368
	l-0.023,0.462l-0.24,1.479l-0.232,1.354c0,0.002-0.018,0.121-0.018,0.121l-0.076,0.873l0.092,0.592
	c0.047,0.137,0.188,0.305,0.387,0.363c-0.029-0.033,0.004,0.529,0.004,0.529c0.098,1.926,0.207,4.107,0.553,5.922
	c0,0.002,0.059,0.281,0.059,0.281c0.115,0.605,0.248,1.295,0.707,1.699c0.189,0.159,0.432,0.236,0.723,0.236
	c0,0,0.789-0.143,0.793-0.143c-0.002,0-0.004,0.004-0.004,0.01c0,0.162,0.42,2.182,0.42,2.182l0.154,0.742l0.098,0.357l0.135,0.563
	c-0.078,0.035-0.209,0.145-0.209,0.145c-0.15,0.158-0.234,0.367-0.234,0.574c0,0.002,0.174,0.527,0.178,0.534
	c-0.012,0-0.119,0.375-0.119,0.375c0.004,0.293,0.141,0.569,0.363,0.741c-0.002-0.055-0.176,0.061-0.176,0.061l-0.668,0.287
	l-1.27,0.62l-0.803,0.673l-0.277,0.314l-0.092,0.111c0,0.002-0.25,0.25-0.25,0.25c-0.004,0.002-0.246,0.094-0.246,0.094
	l-0.561,0.279c-0.295-0.006-0.504,0.139-0.686,0.293c-0.002,0-0.133,0.117-0.133,0.117l-0.246,0.202
	c-0.002,0-0.227,0.079-0.227,0.079c-0.027,0.01-0.379,0.223-0.379,0.223c-0.133,0.156-0.201,0.361-0.201,0.607
	c0.004,0.322,0.109,0.613,0.301,0.818l0.404,0.232l0.16,0.055c0.006,0.006,0.076,0.111,0.076,0.111l0.289,0.295l0.355,0.072
	c0.096-0.002,0.348,0.029,0.348,0.029c0.004,0.002,0.305,0.24,0.305,0.24c0.195,0.16,0.418,0.307,0.719,0.309l0.15-0.014
	c0.088,0.174,0.236,0.363,0.502,0.473l0.371,0.059l0.359-0.016c0.002,0,0.135,0.012,0.135,0.012c0.018,0.025,0.314,0.25,0.314,0.25
	c0.27,0.139,0.57,0.209,0.898,0.209l0.732-0.113c0.057,0.27,0.252,0.514,0.514,0.684c0.316,0.207,0.732,0.316,1.195,0.316
	l0.406-0.025c0.201,0.225,0.549,0.35,1.006,0.354c0.002,0,0.568-0.078,0.568-0.078c0.232,0.188,0.561,0.297,0.889,0.301
	c0.002,0,0.309-0.039,0.309-0.039c0.229,0.209,0.588,0.246,0.838,0.252l0.529-0.084c0.205,0.17,0.461,0.265,0.709,0.265
	c0.51-0.009,0.859-0.317,1.174-0.587c0.285-0.266,0.566-0.512,0.708-0.529c0.007,0,0.364-0.033,0.364-0.033
	c0.092,0.002,0.184,0.002,0.184,0.002l0.383-0.043c0.748-0.213,1.246-0.684,1.646-1.06c0.469-0.442,0.834-0.79,1.318-0.962
	l0.525-0.125l1.055-0.303c0.539-0.252,0.846-0.793,0.846-1.49v-0.037c-0.004-0.766-0.289-1.619-0.516-2.305l-0.209-0.664
	l-0.078-0.506l0.008-0.1l0.104-0.146l0.189-0.487c0-0.038-0.146-0.5-0.146-0.5s-0.064-0.095-0.066-0.097
	c0.012-0.002,0.125-0.371,0.125-0.371c-0.004-0.277-0.154-0.471-0.248-0.588c-0.025-0.028-0.191-0.237-0.191-0.237
	c-0.002-0.005-0.053-0.431-0.053-0.431l-0.021-0.305l-0.098-0.805c0,0-0.154-1.354-0.154-1.357c0.002,0.037,0.824,0.053,0.824,0.053
	l1.191-0.064l0.828-0.184c0.275-0.1,0.561-0.201,0.742-0.473c0-0.002,0.178-0.732,0.178-0.732c0-0.008,0.051-0.701,0.051-0.701
	l0.047-0.41c0.123-1.173,0.244-2.281,0.531-3.172c0.086,0.027,0.438-0.08,0.438-0.08l0.092-0.115
	c0.182-0.43,0.219-0.857,0.252-1.234l0.082-0.609c0.248-1.23,0.582-2.279,0.9-3.25l0.18-0.461c0.152-0.369,0.328-0.787,0.336-1.219
	l-0.078-0.432c0,0.021,0.506-1.617,0.506-1.617l0.662-2.268c0.449-0.572,0.504-1.367,0.506-1.914l-0.156-1.879l-0.109-1.014
	c0-0.002-0.027-0.363-0.027-0.363c-0.051-0.668-0.109-1.428-0.281-2.072c-0.117-0.439-0.266-0.766-0.469-1.029
	c-0.197-0.252-0.453-0.436-0.742-0.528c0,0.003,0.004-0.003,0.004-0.017c0-0.107-0.084-0.719-0.084-0.719
	c1.273-0.584,2.424-1.318,3.492-2.213l0.318-0.268c0.939-0.773,2.105-1.736,2.502-3.146l0.141-1.059
	c-0.002-1.495-0.77-2.84-1.342-3.719c-0.764-1.166-1.576-2.256-2.48-3.334c0.01-0.002,0.02-0.148,0.02-0.148v-0.016
	c0-0.393-0.262-0.742-0.654-0.871c0-0.014-0.189-0.357-0.189-0.357l-0.141-0.145c-0.344-0.678-0.84-1.102-1.363-1.514
	s-1.152-0.859-1.971-0.959c0-0.004-0.301-0.178-0.301-0.178l-0.357-0.219c0.002,0,0.002-0.059,0.002-0.154
	c0-0.432-0.018-1.637-0.018-1.637l0.084-2.354c0.117-1.348,0.533-2.498,0.92-3.443l0.24-0.582c0.828-1.998,1.611-3.887,1.992-6.199
	c0.123-0.742,0.188-1.508,0.188-2.273c0-1.764-0.336-3.594-0.998-5.436c-0.779-2.164-1.816-3.943-3.082-5.287
	c0.014,0.047,2.459-0.875,2.459-0.875l0.232-0.082c0.824-0.297,1.682-0.602,2.672-0.602l0.211,0.006
	c0.896,0.037,1.715,0.268,2.582,0.512l0.688,0.189c0.801,0.211,1.654,0.416,2.521,0.416l1.09-0.135
	c0.945-0.254,1.775-0.643,2.576-1.019l0.285-0.134l2.012-0.912c1.58-0.707,3.213-1.439,4.713-2.27
	c0.025-0.016,0.703-0.43,0.703-0.43c0.256-0.189,0.5-0.385,0.609-0.68l0.086-0.486c0-0.592-0.395-0.984-0.727-1.207
	c-0.426-0.289-0.93-0.447-1.275-0.531l-1.461-0.174c-0.807,0.004-1.438,0.16-1.869,0.471l-1.715,1.496l-0.258,0.25l-0.535,0.436
	l-0.471,0.369l-0.297,0.295c-0.205,0.211-0.381,0.395-0.605,0.457l-0.156,0.107c-0.146,0.207-0.447,0.379-0.77,0.561l-0.225,0.129
	c-0.676,0.406-1.299,0.746-2.074,0.789c-0.002,0-0.33,0.01-0.33,0.01c-0.979,0.002-1.889-0.246-2.77-0.486l-1.172-0.297
	l-0.922-0.084l-0.705-0.047l-0.096-0.059l0.188-0.496l0.23-0.379l0.092-0.143l1.492-2.283c0-0.002,0.129-0.186,0.129-0.186
	c0.229-0.328,0.514-0.734,0.563-1.234l0.006-0.135c0.006-0.424-0.191-0.803-0.533-1.041c-0.305-0.213-0.707-0.326-1.172-0.328
	L316.138,372.312z"/>
<path fill-rule="evenodd" clip-rule="evenodd" fill="#221714" d="M324.632,378.196c0.455-0.137,0.697-0.537,1.018-0.813
	c0.324-0.282,0.688-0.503,1.014-0.813c0.611-0.584,1.229-1.209,1.939-1.721c0.668-0.48,1.982-0.51,3.084-0.244
	c0.887,0.209,2.068,0.768,1.701,1.826c-0.129,0.367-0.813,0.744-1.176,0.945c-2.113,1.172-4.482,2.139-6.705,3.174
	c-0.885,0.412-1.789,0.859-2.811,1.133c-1.119,0.303-2.416-0.008-3.455-0.281c-1.109-0.293-2.146-0.66-3.334-0.713
	c-1.255-0.053-2.258,0.354-3.23,0.695c-0.988,0.35-1.93,0.703-2.852,1.09c1.434,1.414,2.508,3.285,3.291,5.465
	c0.766,2.133,1.268,4.709,0.799,7.553c-0.414,2.5-1.324,4.553-2.215,6.717c-0.414,1.008-0.822,2.168-0.943,3.531
	c-0.113,1.326-0.096,2.918-0.055,4.322c0.234,0.229,0.575,0.354,0.852,0.539c0.75,0.074,1.338,0.479,1.877,0.904
	c0.568,0.445,0.979,0.816,1.279,1.412c0.105,0.201,0.422,0.289,0.305,0.617c0.467,0.029,0.758,0.4,0.615,0.873
	c0.908,1.076,1.731,2.174,2.543,3.408c0.695,1.059,1.645,2.801,1.162,4.531c-0.398,1.443-1.699,2.41-2.721,3.264
	c-1.107,0.928-2.293,1.672-3.629,2.293c0.068,0.365,0.113,0.75,0.154,1.137c1.295,0.229,1.347,2.209,1.477,3.768
	c0.129,1.6,0.627,3.65-0.223,4.658c-0.314,1.438-0.838,2.654-1.201,4.045c0.291,0.559-0.195,1.34-0.408,1.982
	c-0.35,1.066-0.666,2.076-0.91,3.285c-0.123,0.59-0.064,1.205-0.314,1.779c-0.098,0.078-0.316,0.027-0.477,0.035
	c-0.385,1.072-0.502,2.439-0.654,3.832c-0.041,0.379-0.031,1.049-0.192,1.311c-0.169,0.283-0.909,0.455-1.345,0.508
	c-0.799,0.102-1.525,0.061-2.309,0.039c0.066,0.787,0.186,1.639,0.283,2.473c0.029,0.268,0.008,0.621,0.096,0.818
	c0.104,0.25,0.703,0.59,0.244,1.068c0.084,0.223,0.268,0.326,0.262,0.596c-0.014,0.279-0.24,0.365-0.287,0.582
	c-0.045,0.203,0.018,0.541,0.072,0.748c0.303,1.125,1.42,3.49,0.041,4.143c-0.561,0.266-1.096,0.256-1.551,0.416
	c-1.158,0.416-1.658,1.652-2.943,2.016c-0.256,0.072-0.516-0.01-0.904,0.068c-0.736,0.152-1.42,1.771-2.512,0.803
	c-0.356,0.219-1.133,0.154-1.328-0.166c-0.42,0.207-0.979-0.018-1.217-0.254c-0.502,0.207-1.271,0.139-1.512-0.262
	c-0.988,0.178-1.951-0.145-2.035-1.041c-0.52,0.229-1.164,0.293-1.676,0.029c-0.168-0.092-0.264-0.258-0.4-0.283
	c-0.283-0.053-0.566,0.053-0.814-0.041c-0.252-0.096-0.375-0.365-0.506-0.531c-0.557,0.244-0.887-0.391-1.189-0.48
	c-0.301-0.092-0.49,0-0.656-0.084c-0.16-0.08-0.17-0.26-0.307-0.367c-0.15-0.119-0.375-0.092-0.539-0.264
	c-0.234-0.246-0.299-0.773-0.088-1.02c0.111-0.129,0.359-0.141,0.527-0.236c0.322-0.184,0.588-0.668,1.031-0.564
	c0.205-0.256,0.525-0.262,0.822-0.412c0.23-0.115,0.469-0.51,0.695-0.73c0.238-0.23,0.523-0.475,0.762-0.639
	c0.584-0.396,1.26-0.578,1.898-0.885c0.216-0.104,0.34-0.248,0.531-0.461c-0.469-0.01-0.77-0.725-0.336-1.006
	c-0.275-0.223-0.379-0.604-0.115-0.885c0.061-0.068,0.248-0.156,0.277-0.242c0.067-0.227-0.168-0.816-0.225-1.092
	c-0.23-1.102-0.461-2.182-0.674-3.254c-0.398,0.129-1.105,0.396-1.52,0.057c-0.395-0.33-0.535-1.166-0.658-1.803
	c-0.391-2.035-0.475-4.518-0.594-6.689c-0.617,0.15-0.422-1.031-0.347-1.615c0.134-1.023,0.368-1.842,0.472-2.842
	c0.078-0.736-0.102-1.727,0.693-1.66c0.049-0.398,0.107-0.785,0.164-1.172c-0.092-0.055-0.277,0.102-0.385,0.037
	c-0.203-0.52-0.139-1.059-0.277-1.658c-0.145-0.625-0.547-1.303-0.32-1.797c-0.016-0.496-0.57-1.051-0.531-1.529
	c0.023-0.285,0.32-0.314,0.373-0.533c-0.773-1.234-1.377-2.664-1.73-4.363c-0.115-0.553-0.059-1.172-0.348-1.66
	c-0.535,1.27-1.188,2.186-2.283,2.799c-0.592,0.332-1.223,0.564-1.975,0.295c-0.592-0.213-1.066-0.582-1.541-0.986
	c-0.928-0.793-1.496-1.861-1.709-3.322c-0.219-1.494,0.006-3.088,0.463-4.402c-0.168-0.227-0.293-0.395-0.258-0.684
	c0.029-0.215,0.234-0.258,0.309-0.492c0.045-0.146-0.01-0.289,0.031-0.385c0.088-0.197,0.311-0.271,0.459-0.35
	c0.18-1.113,0.564-2.008,1.105-2.738c-0.383-0.576-0.244-1.23-0.432-1.91c-0.082-0.297-0.461-0.654-0.635-0.896
	c-1.029-1.434-1.924-3.268-1.744-5.811c0.068-0.961,0.385-1.637,0.599-2.5c0.005-0.014-0.001-0.031,0.003-0.045
	c0.088-0.885-0.174-1.932-0.346-2.771c-0.174-0.863-0.5-1.645-0.668-2.459c-0.352-1.721-0.578-3.66-0.364-5.756
	c0.356-3.467,1.665-5.695,3.483-7.707c0.17-0.188,0.744-0.662,0.742-0.82c0-0.234-0.906-0.529-1.207-0.639
	c-1.373-0.502-2.887-0.83-4.736-0.742c-2.191,0.102-4.76,0.559-6.512-0.242c-1.557-0.711-2.518-2.262-3.859-3.438
	c-0.607-0.531-1.352-1.078-2.092-1.564c-0.648-0.426-1.992-1.059-2.061-1.881c-0.043-0.529,0.537-1.164,0.871-1.498
	c0.355-0.354,0.752-0.736,1.375-0.781c0.947-0.07,1.721,0.543,2.195,1.023c0.553,0.557,0.867,1.24,1.223,1.93
	c1.016,1.969,2.188,4.395,4.779,4.773c1.047,0.152,1.945-0.014,2.701-0.369c1.168-0.545,0.832-2.387,0.467-3.543
	c-0.197-0.629-0.471-1.375,0.002-2.014c0.854-1.16,3.363-0.764,3.307,0.822c-0.043,1.242-1.076,2.947-0.391,4.248
	c0.354,0.674,1.582,1.041,2.393,1.299c0.727,0.234,2.496,0.791,3.273,0.348c0.641-0.365,0.584-1.395,0.551-2.25
	c-0.035-0.867-0.305-2.344,0.156-2.986c0.316-0.438,1.063-0.844,1.74-0.842c0.697,0.002,1.572,0.367,1.724,0.898
	c0.163,0.582-0.104,1.338-0.224,1.83c-0.143,0.592-0.33,1.082-0.379,1.666c0.525-0.057,0.99-0.379,1.463-0.6
	c1.426-0.664,2.994-1.215,4.791-1.521c2.387-0.404,5.324-0.283,7.639,0.336c-0.248-1.711,0.443-3.453,1.061-4.797
	c0.233-0.508,0.524-1.281,1.098-1.354c0.912-0.119,2.393,0.711,2.041,1.744c-0.1,0.289-0.41,0.564-0.631,0.844
	c-0.811,1.029-2.012,2.672-1.139,4.252c1.418,0.461,2.734,1.018,3.943,1.676c0.549-0.242,1.17-0.414,1.625-0.754
	c0.693-0.219,1.117-0.506,1.627-0.801c0.496-0.287,1.025-0.52,1.426-1.008c0.955-1.168,1.355-2.869,1.912-4.461
	c0.295-0.828,0.496-1.604,1.463-1.662c0.904-0.055,1.629,0.35,1.561,1.166c-0.041,0.476-0.398,0.92-0.643,1.277
	c-0.535,0.789-0.973,1.434-1.5,2.297c-0.209,0.338-1.012,1.42-0.193,1.533c0.584,0.082,1.094,0.02,1.603,0.129
	c1.339,0.283,2.724,0.871,4.351,0.779c0.889-0.053,1.578-0.449,2.215-0.832C323.943,378.729,324.382,378.532,324.632,378.196"/>
<path fill="#F0BF8D" d="M311.14,402.962l-0.156,0.387c-0.172,0.422-0.369,0.898-0.475,1.375c-0.242,1.078-0.27,2.473-0.295,3.82
	l-0.013,0.602v0.83c0.024,1.301,0.04,2.422-1.114,2.675c-0.859,0.187-1.634-0.503-1.908-1.052l-0.051-0.15
	c-0.053-0.178-0.119-0.398-0.291-0.416c-0.172-0.016-0.355,0.236-0.619,0.625l-0.207,0.287c-1.433,1.607-3.935,2.896-7.433,3.836
	c-1.212,0.324-2.606,0.551-4.146,0.672c-0.262,0.02-0.527,0.076-0.783,0.131l-0.582,0.108c-2.157,0.288-4.227,0.056-5.568-0.616
	c0.264-0.672,0.475-1.262,0.579-1.979c0.735,0.336,1.888,0.424,3.12,0.225l0.242-0.033c0.395-0.051,0.804-0.102,0.994-0.402
	l0.068-0.11l-0.131,0.003c-0.283,0.006-0.6,0.064-0.936,0.127c-0.414,0.078-0.842,0.158-1.287,0.161
	c-0.848,0.003-1.537-0.19-1.996-0.556c0.006-0.086,0.012-0.168,0.012-0.248c0-0.655-0.214-1.125-0.438-1.617
	c-0.137-0.305-0.279-0.619-0.371-0.986l-0.096-0.432c-0.131-0.637-0.279-1.357-0.689-1.557c-0.346-0.168-0.73-0.018-0.953,0.234
	c-0.154-0.285-0.24-0.682-0.322-1.074c-0.136-0.66-0.275-1.344-0.775-1.584c-0.264-0.127-0.59-0.088-0.805,0.08
	c-0.252-0.141-0.584-0.15-0.859-0.014c-0.219,0.105-0.35,0.283-0.385,0.486c-0.35,0.086-0.449,0.332-0.551,0.601l-0.129,0.312
	c-0.048,0.088-0.121,0.162-0.195,0.234c-0.084,0.082-0.162,0.161-0.205,0.26c-0.156,0.373-0.209,0.785-0.209,1.217
	c0,0.439,0.055,0.896,0.107,1.348c0.055,0.443,0.109,0.9,0.109,1.332c0,0.08-0.008,0.158-0.012,0.238
	c-1.228-1.479-1.851-3.223-1.851-5.201c0-0.176,0.007-0.354,0.015-0.532c0.023-0.438,0.141-0.829,0.252-1.206
	c0.117-0.389,0.236-0.791,0.258-1.25c0.004-0.066,0.006-0.133,0.006-0.197c0-0.652-0.152-1.314-0.287-1.906l-0.072-0.322
	l-0.055-0.258c-0.45-2.057-0.912-4.178-0.912-6.602c0-0.143,0.002-0.287,0.006-0.434c0.09-3.904,1.658-6.285,3.18-8.098
	c1.621-1.93,3.785-3.73,6.098-5.074c2.672-1.549,5.479-2.348,8.58-2.439c2.023-0.059,3.707,0.268,5.229,0.633
	c0.027,0.061,0.357,0.758,0.357,0.758c0.199,0.418,0.408,0.85,0.595,1.334l0.067,0.168c0.07,0.162,0.183,0.426,0.183,0.533v0.016
	c-0.011,0.072-0.075,0.131-0.151,0.197c-0.09,0.08-0.191,0.17-0.222,0.309c-0.015,0.07-0.022,0.139-0.022,0.209
	c0,0.568,0.455,1.156,0.754,1.438c0.838,0.787,2.473,1.002,3.644,0.48c0.237-0.105,1.026-0.496,1.177-1.057
	c0.018-0.064,0.027-0.127,0.027-0.189c0-0.131-0.047-0.262-0.123-0.389c0.119-0.049,0.652-0.266,0.652-0.266
	s0.416-0.172,0.488-0.201c1.805,1.633,3.145,4.15,3.873,7.287c0.242,1.035,0.346,2.135,0.346,3.232c0,2.297-0.453,4.59-1.067,6.268
	c-0.028,0.082,0.026-0.137,0.026-0.137c0.389-2.016,0.26-3.99-0.947-4.871c-0.584-0.422-1.246-0.545-1.916-0.35
	c-1.008,0.289-1.947,1.26-2.455,2.533c-0.482,1.211-0.225,3.607,0.76,4.674c0.482,0.52,1.088,0.684,1.754,0.479
	c0.082-0.023,0.127-0.109,0.102-0.189c-0.023-0.078-0.189-0.035-0.27-0.012c-0.555,0.172-1.014,0.012-1.416-0.422
	c-0.9-0.975-1.092-3.311-0.646-4.418c0.463-1.17,1.277-1.922,2.18-2.184c0.59-0.172,1.166-0.09,1.678,0.281
	c1.359,0.99,1.166,4.348,0.246,7.189C311.325,402.567,311.14,402.962,311.14,402.962"/>
<path fill="#221714" d="M333.032,374.839"/>
<path fill="#221714" d="M307.407,459.876"/>
<path fill="#221714" d="M287.595,464.712"/>
<path fill-rule="evenodd" clip-rule="evenodd" fill="#C06221" d="M315.989,376.12c-0.168-0.074-0.332-0.412-0.537-0.24
	c0.023,0.258,0.32,0.256,0.398,0.463c-0.221,0.328-0.49,0.693-0.771,1.137c-0.369,0.564-1.15,1.766,0.205,1.748
	c-0.025,0.207-0.221,0.35-0.148,0.586c0.326-0.008,0.264-0.422,0.42-0.602c1.52,0.008,2.588,0.451,3.855,0.699
	c-0.033,0.201-0.055,0.709,0.166,0.705c0.248-0.006-0.068-0.422,0.057-0.633c3.141,0.668,5.018-1.332,6.695-2.675
	c0.195,0.288,0.459,0.625,0.844,0.653c-0.002-0.027,0.006-0.041,0.025-0.045c-0.139-0.348-0.578-0.406-0.707-0.764
	c1.016-0.797,2.139-2.451,4.174-2.303c0.879,0.064,1.854,0.406,2.123,1.047c0.096,0.221-0.023,0.43-0.172,0.584
	c-0.379,0.391-0.998,0.672-1.449,0.984c-0.359-0.082-0.672-0.543-1.029-0.407c0.111,0.317,0.533,0.345,0.779,0.538
	c-1.92,1.076-3.912,2.078-6.041,2.938c-0.115-0.229-0.137-0.549-0.348-0.688c-0.268,0.164,0.094,0.533,0.141,0.753
	c-0.988,0.403-2.033,0.916-3.391,0.825c-1.369-0.092-2.592-0.561-3.783-0.789c-0.057-0.137,0.135-0.52-0.057-0.59
	c-0.215,0.006-0.143,0.313-0.17,0.516c-1.762-0.492-3.488,0.098-4.879,0.545c-0.104-0.229-0.127-0.529-0.324-0.664
	c-0.27,0.164,0.102,0.51,0.119,0.75c-1.445,0.518-2.881,1.045-4.205,1.691c-0.145-0.104-0.09-0.398-0.33-0.414
	c-0.189,0.148,0.08,0.342,0.078,0.521c-0.188,0.119-0.723,0.234-0.689,0.483c0.035,0.247,0.254,0.015,0.361,0.097
	c0.008,0.285-0.23,0.314-0.352,0.469c0.297-0.037,0.617-0.25,0.604-0.689c0.285,0.236,0.012,0.607-0.105,0.746
	c-0.982,1.145-3.65,0.984-4.313-0.416c-0.117-0.242-0.424-1.01,0.09-0.973c0.121,0.094,0.043,0.172,0.059,0.318
	c0.076,0.764,0.625,1.365,1.486,1.346c-0.4-0.293-1.207-0.414-1.082-1.063c0.078-0.108,0.154,0.062,0.246,0.003
	c-0.191-0.455-0.531-0.773-0.695-1.26c0.176-0.082,0.557-0.043,0.551-0.236c-0.01-0.234-0.465,0.008-0.656,0.029
	c-0.25-0.521-0.488-1.055-0.666-1.645c0.189-0.066,0.432-0.09,0.525-0.26c-0.123-0.266-0.418,0.055-0.635,0.055
	c-0.336-0.873-0.771-2.064-0.287-3.154c0.246-0.07,0.711,0.086,0.793-0.16c-0.096-0.188-0.502-0.063-0.701-0.063
	c0.107-0.574,0.391-1.193,0.654-1.773c0.221-0.482,0.518-1.334,0.918-1.518c0.152-0.07,0.533-0.057,0.725,0.018
	c0.338,0.13,0.988,0.602,0.994,0.973c0.006,0.279-0.33,0.604-0.469,0.805c-0.201,0.287-0.344,0.506-0.52,0.758
	c-0.244-0.119-0.393-0.543-0.711-0.447c0.063,0.33,0.389,0.408,0.574,0.625c-0.389,0.682-0.869,1.268-0.893,2.333
	c-0.166,0.017-0.412-0.108-0.498,0.032c-0.004,0.227,0.305,0.154,0.494,0.193c0.197,0.615,0.357,1.266,0.59,1.848
	c-0.348-0.041-0.299,0.355,0.088,0.25c0.322,0.557,0.715,1.24,1.438,1.346c1.334,0.195,2.541-0.588,3.506-0.869
	c0.189,0.133,0.193,0.678,0.414,0.666c0.283-0.014-0.133-0.588-0.162-0.75c1.705-0.887,3.803-1.363,4.334-3.477
	c0.178-0.021,0.43,0.111,0.521-0.033c0.012-0.213-0.248-0.16-0.426-0.191c0.396-1.063,0.82-2.26,1.301-3.32
	c0.133-0.299,0.338-0.809,0.563-0.959c0.537-0.357,1.551,0.088,1.617,0.58c0.061,0.453-0.386,0.988-0.572,1.299
	C316.487,375.421,316.226,375.749,315.989,376.12"/>
<path fill-rule="evenodd" clip-rule="evenodd" fill="#FFFFFF" d="M317.083,374.474c0.146-0.248,0.264-0.52,0.23-0.768
	c-0.066-0.492-1.08-0.938-1.617-0.58c-0.225,0.15-0.43,0.66-0.563,0.959C315.134,374.085,316.745,373.2,317.083,374.474"/>
<path fill-rule="evenodd" clip-rule="evenodd" fill="#FFFFFF" d="M305.083,375.122c0.139-0.201,0.475-0.525,0.469-0.805
	c-0.006-0.371-0.657-0.844-0.994-0.973c-0.191-0.074-0.572-0.088-0.725-0.018c-0.271,0.125-0.498,0.557-0.682,0.975
	C303.151,374.302,305.216,373.575,305.083,375.122"/>
<path fill-rule="evenodd" clip-rule="evenodd" fill="#FFFFFF" d="M330.481,377.839c0.146-0.082,0.291-0.16,0.436-0.242
	c-0.246-0.193-0.668-0.221-0.779-0.539c0.357-0.135,0.67,0.326,1.029,0.408c0.451-0.313,1.07-0.594,1.449-0.984
	c0.148-0.154,0.268-0.363,0.172-0.584c-0.27-0.641-1.244-0.982-2.123-1.047c-1.064-0.078-1.877,0.34-2.559,0.865
	C328.106,375.716,332.522,376.042,330.481,377.839"/>
<path fill-rule="evenodd" clip-rule="evenodd" fill="#221714" d="M330.917,377.597c-0.246-0.193-0.668-0.221-0.779-0.539
	c0.357-0.135,0.67,0.326,1.029,0.408L330.917,377.597z"/>
<path fill-rule="evenodd" clip-rule="evenodd" fill="#C06221" d="M268.159,378.298c-0.133,0.068-0.398,0.098-0.342,0.287
	c0.164,0.141,0.334-0.084,0.498-0.102c0.742,1.217,1.521,2.396,2.871,3.031c0.086,0.125-0.369,0.195-0.26,0.424
	c0.232,0.121,0.367-0.225,0.553-0.303c0.988,0.408,2.723,0.592,3.73,0.131c0.07,0.182,0.092,0.414,0.263,0.502
	c0.255-0.111-0.044-0.432-0.079-0.611c0.516-0.473,0.908-1.072,0.908-2.084c0.201-0.076,0.465-0.086,0.57-0.26
	c-0.098-0.252-0.406,0.016-0.588,0.033c0.072-1.111-0.525-1.793-0.432-2.861c0.111-1.26,2.543-1.367,2.693-0.029
	c0.016,0.123,0.002,0.268-0.008,0.385c-0.102,1.209-0.588,2.373-0.422,3.588c-0.16,0.02-0.418-0.066-0.479,0.058
	c-0.016,0.247,0.332,0.14,0.539,0.171c0.105,0.729,0.771,0.914,1.4,1.143c-0.006,0.205-0.285,0.42-0.08,0.563
	c0.234-0.031,0.201-0.344,0.328-0.49c0.877,0.291,1.756,0.58,2.629,0.875c0.092,0.082-0.213,0.129-0.189,0.291
	c0.006,0.045,0.061,0.045,0.066,0.092c0.229-0.023,0.295-0.217,0.461-0.307c1.564,0.377,2.432-0.506,2.355-2.074
	c0.264-0.031,0.689,0.107,0.814-0.07c-0.023-0.301-0.561-0.115-0.832-0.178c0.143-0.992-0.32-2.121,0.205-2.938
	c0.209-0.328,0.773-0.613,1.326-0.648c0.467-0.031,1.098,0.059,1.236,0.391c0.264,0.641-0.229,1.582-0.234,2.258
	c-0.111-0.037-0.332-0.209-0.428-0.055c-0.021,0.232,0.266,0.172,0.377,0.281c-0.088,0.482-0.207,0.938-0.326,1.395
	c-1.516,0.875-2.904,1.883-4.188,3.004c-0.793-0.246-1.576-0.5-2.383-0.734c0.084-0.391-0.354-0.586-0.246-0.074
	c-1.004-0.277-2.221-0.467-3.479-0.371c-0.127-0.221-0.059-0.623-0.301-0.734c-0.227,0.168,0.066,0.504,0.053,0.748
	c-1.072,0.043-2.074,0.162-3.174,0.178c0.064-0.557-0.393-0.424-0.248,0.016c-2.508,0.033-4.049-0.852-5.154-2.156
	c0.111-0.281,0.564-0.434,0.49-0.758c-0.313,0.008-0.426,0.416-0.67,0.574c-0.543-0.492-1.02-1.047-1.594-1.508
	c0.09-0.205,0.375-0.314,0.328-0.582c-0.277-0.068-0.332,0.281-0.482,0.42c-0.875-0.859-2.352-1.498-3.205-2.406
	c-0.898-0.959,0.525-2.502,1.686-2.404c0.947,0.078,1.67,0.887,2.137,1.564C267.372,376.706,267.743,377.554,268.159,378.298"/>
<path fill-rule="evenodd" clip-rule="evenodd" fill="#FFFFFF" d="M266.563,375.563c-0.457-0.563-1.078-1.105-1.844-1.168
	c-1.16-0.098-2.584,1.445-1.686,2.404c0.152,0.162,0.324,0.314,0.51,0.463C263.544,377.263,263.138,375.243,266.563,375.563"/>
<path fill-rule="evenodd" clip-rule="evenodd" fill="#FFFFFF" d="M287.88,378.421c0.094-0.4,0.15-0.795,0.018-1.115
	c-0.139-0.332-0.77-0.422-1.236-0.391c-0.553,0.035-1.117,0.32-1.326,0.648c-0.156,0.238-0.223,0.503-0.246,0.785
	C285.089,378.349,286.761,377.097,287.88,378.421"/>
<path fill-rule="evenodd" clip-rule="evenodd" fill="#FFFFFF" d="M278.538,376.841c0.01-0.117,0.023-0.262,0.008-0.385
	c-0.15-1.338-2.582-1.23-2.693,0.03c-0.018,0.2-0.012,0.39,0.012,0.569C275.864,377.056,276.741,375.587,278.538,376.841"/>
<path fill-rule="evenodd" clip-rule="evenodd" fill="#F0BF8D" d="M304.333,380.128c1.09,0.428,2.211,0.824,3.135,1.408
	c-0.582,0.078-1.166,0.477-1.795,0.299C304.954,381.63,304.567,380.821,304.333,380.128"/>
<path fill-rule="evenodd" clip-rule="evenodd" fill="#221714" d="M302.952,397.798c-0.527-2.17-1.355-3.967-2.98-5.162
	c-0.773-0.57-2.063-0.814-3.34-0.576c-0.787,0.148-1.6,0.428-2.26,0.785c-0.104,0.057-0.541,0.408-0.66,0.211
	c-0.141-0.232,0.547-0.572,0.742-0.684c0.906-0.518,2.209-0.984,3.461-0.961c1.834,0.031,2.844,0.873,3.641,2.098
	C302.313,394.673,302.794,396.021,302.952,397.798"/>
<path fill-rule="evenodd" clip-rule="evenodd" fill="#221714" d="M284.634,392.146c-0.805-0.174-1.559-0.348-2.279-0.189
	c-1.934,0.428-2.922,2.246-2.961,4.664c-0.369-2.645,0.609-4.895,2.99-5.023C283.294,391.546,284.106,391.747,284.634,392.146"/>
<path fill-rule="evenodd" clip-rule="evenodd" fill="#221714" d="M288.938,391.95c1.189-0.123,1.959,1.318,1.037,2.174
	c-0.873,0.816-2.174,0.027-2.076-1.156C287.946,392.374,288.31,392.017,288.938,391.95 M289.046,394.306
	c1.049,0.012,1.27-2.439-0.107-2.195C287.931,392.286,288.03,394.298,289.046,394.306"/>
<path fill-rule="evenodd" clip-rule="evenodd" fill="#FFFFFF" d="M288.938,392.11c1.377-0.244,1.156,2.207,0.107,2.195
	C288.03,394.298,287.931,392.286,288.938,392.11 M289.06,392.655c-0.531-0.045-0.502,1.104,0.229,0.932
	c0.607-0.143,0.393-1.307-0.264-1.316c-1.014-0.018-0.92,1.898,0.139,1.791c0.176-0.02,0.35-0.078,0.46-0.285
	c-1.144,0.949-1.64-1.408-0.603-1.35c0.504,0.029,0.555,1.01,0.09,0.975c-0.279-0.02-0.336-0.633-0.01-0.52
	c0.164,0.059,0.008,0.213,0.061,0.252C289.44,393.112,289.296,392.675,289.06,392.655"/>
<path fill-rule="evenodd" clip-rule="evenodd" fill="#221714" d="M289.161,393.134c-0.053-0.039,0.104-0.193-0.061-0.252
	c-0.326-0.113-0.27,0.5,0.01,0.52c0.465,0.035,0.414-0.945-0.09-0.975c-1.037-0.059-0.541,2.299,0.602,1.35
	c-0.109,0.207-0.283,0.266-0.459,0.285c-1.059,0.107-1.152-1.809-0.139-1.791c0.656,0.01,0.871,1.174,0.264,1.316
	c-0.731,0.172-0.76-0.977-0.229-0.932C289.296,392.675,289.44,393.112,289.161,393.134"/>
<path fill-rule="evenodd" clip-rule="evenodd" fill="#221714" d="M287.827,400.956c0.027-0.004,0.041,0.006,0.045,0.023
	c0.285,1.506-0.897,2.574-0.774,4.125c0.04,0.475,0.331,0.918,0.792,1.014c0.59,0.121,1.277-0.445,1.625,0.129
	c-0.813-0.18-1.385,0.432-2.152,0.131c-0.432-0.172-0.638-0.674-0.65-1.146C286.655,403.563,287.915,402.601,287.827,400.956"/>
<path fill-rule="evenodd" clip-rule="evenodd" fill="#F0BF8D" d="M283.528,406.628c0.293,0.146,0.549,0.6,0.549,1.031
	c0,0.096-0.014,0.191-0.039,0.279c-0.047,0.066-0.115,0.107-0.189,0.15c-0.072,0.041-0.148,0.084-0.201,0.15l-0.016,0.021
	l0.016,0.02c0.125,0.164,0.293,0.047,0.414-0.037c0,0,0.061-0.035,0.096-0.057c0.02,0.068,0.088,0.316,0.088,0.316
	c0.061,0.18,0.127,0.379,0.127,0.549c0,0.059-0.008,0.115-0.025,0.164c-0.027,0.074-0.086,0.109-0.148,0.146
	c-0.074,0.043-0.158,0.094-0.158,0.209c0,0.006,0.004,0.027,0.004,0.027l0.01,0.01c0.092,0.074,0.195,0.006,0.287-0.057
	c0.049-0.031,0.1-0.061,0.146-0.074c0.02,0.143,0.09,0.285,0.164,0.426c0.082,0.158,0.17,0.32,0.17,0.469
	c0,0.021-0.002,0.039-0.006,0.061c-0.016,0.082-0.064,0.117-0.119,0.156c-0.07,0.049-0.145,0.104-0.164,0.246l-0.002,0.023
	l0.021,0.012c0.201,0.105,0.443-0.068,0.605-0.184l0.061-0.041v-0.039c0-0.34-0.15-0.631-0.293-0.912
	c-0.086-0.176-0.174-0.342-0.221-0.514c-0.043-0.162-0.061-0.328-0.08-0.486c-0.031-0.293-0.063-0.566-0.25-0.811
	c0.006-0.055,0.008-0.105,0.008-0.156c0-0.418-0.139-0.752-0.254-1.027c0,0-0.029-0.074-0.049-0.119
	c0.354-0.002,0.666,0.383,0.77,0.775c0.074,0.268,0.055,0.596-0.207,0.717l-0.031,0.012l0.01,0.031
	c0.053,0.129,0.211,0.094,0.324,0.068c0,0,0.043-0.008,0.068-0.014c0.02,0.049,0.102,0.264,0.102,0.264
	c0.072,0.168,0.154,0.354,0.154,0.518c0,0.035-0.004,0.072-0.016,0.107c-0.014,0.057-0.063,0.084-0.107,0.111
	c-0.057,0.031-0.125,0.07-0.125,0.166v0.025l0.004,0.014l0.012,0.008c0.092,0.063,0.176,0.012,0.242-0.031
	c0,0,0.047-0.02,0.072-0.033c0.102,0.221,0.146,0.502,0.186,0.779c0,0,0.039,0.244,0.045,0.291c-0.025,0.01-0.07,0.01-0.111,0.008
	c-0.08-0.004-0.17-0.01-0.201,0.061c0,0.012-0.002,0.021-0.002,0.031c0,0.115,0.148,0.148,0.281,0.18c0,0,0.119,0.033,0.146,0.041
	c0.018,0.092,0.025,0.18,0.025,0.258c0,0.279-0.096,0.49-0.203,0.727c-0.104,0.225-0.219,0.48-0.252,0.834
	c-0.02,0.186-0.029,0.355-0.029,0.51c0,0.543,0.111,0.895,0.342,1.088l0.088,0.07l-0.035-0.107c-0.07-0.238-0.104-0.523-0.104-0.82
	c0-0.635,0.156-1.32,0.422-1.725c0.148,0.055,0.48,0.143,0.617-0.002l0.037-0.037l-0.234-0.086
	c-0.121-0.041-0.238-0.078-0.309-0.156c-0.006-0.025-0.027-0.188-0.027-0.188s-0.018-0.174-0.025-0.23
	c0.27,0.045,0.639,0.104,0.805-0.066l0.043-0.047l-0.332-0.053c-0.232-0.031-0.416-0.055-0.561-0.256
	c-0.227-0.318-0.17-1.195,0.09-1.422c0.109-0.094,0.238-0.068,0.389,0.074c0.23,0.215,0.326,0.672,0.414,1.109
	c0.053,0.262,0.109,0.531,0.191,0.748l0.127,0.32c0.303,0.754,0.521,1.299,0.438,2.508c-0.064,0.971-0.307,2.146-0.705,2.588
	c-0.389,0.428-1.492,0.705-2.361,0.592c-0.498-0.064-1.547-0.365-1.863-0.734c-0.945-1.102-0.988-3.588-1.025-5.586l-0.018-0.869
	l-0.01-0.234c-0.027-0.465-0.063-1.168,0.215-1.428c0.094-0.086,0.213-0.119,0.365-0.1c0.264,0.033,0.402,0.473,0.369,0.863
	c-0.031,0.359-0.213,0.736-0.629,0.717l-0.09-0.006l0.064,0.063c0.174,0.162,0.436,0,0.609-0.107c0,0,0.033-0.02,0.059-0.035
	c0.119,0.217,0.186,0.439,0.186,0.633c0,0.115-0.021,0.221-0.066,0.309c-0.08,0.17-0.244,0.273-0.477,0.305l-0.074,0.01l0.057,0.049
	c0.199,0.172,0.439,0.023,0.617-0.086c0.063-0.037,0.117-0.07,0.162-0.084c0.119,0.154,0.186,0.342,0.186,0.529
	c0,0.07-0.008,0.137-0.025,0.203c-0.057,0.232-0.207,0.416-0.412,0.504l-0.115,0.049l0.123,0.014
	c0.32,0.037,0.559-0.104,0.678-0.393c0.047-0.123,0.07-0.264,0.07-0.404c0-0.34-0.135-0.693-0.359-0.873
	c-0.043-0.389-0.133-0.73-0.268-1.014c0.023-0.137,0.031-0.266,0.033-0.393l0.004,0.008c0.074,0.137,0.199,0.082,0.291,0.043
	c0,0,0.066-0.021,0.098-0.031c0.02,0.096,0.057,0.195,0.1,0.303c0.059,0.146,0.117,0.299,0.117,0.438
	c0,0.041-0.004,0.082-0.018,0.119c-0.021,0.066-0.082,0.094-0.146,0.123c-0.074,0.031-0.162,0.07-0.162,0.178
	c0,0.016,0,0.031,0.004,0.047l0.004,0.02l0.018,0.006c0.109,0.041,0.217-0.004,0.32-0.049c0,0,0.094-0.031,0.127-0.043
	c0.035,0.113,0.1,0.23,0.164,0.344c0.092,0.164,0.189,0.332,0.189,0.488c0,0.02,0,0.039-0.002,0.057
	c-0.016,0.092-0.086,0.129-0.16,0.17c-0.082,0.045-0.174,0.094-0.174,0.223c0,0.02,0.002,0.041,0.006,0.064l0.006,0.027h0.027
	c0.279-0.002,0.465-0.096,0.551-0.281c0.035-0.078,0.051-0.166,0.051-0.262c0-0.412-0.289-0.938-0.484-1.176
	c-0.041-0.438-0.129-0.756-0.271-0.998c0.047-0.193,0.072-0.389,0.072-0.576c0-0.334-0.072-0.643-0.215-0.867
	c-0.125-0.203-0.301-0.328-0.516-0.385C283.087,406.595,283.308,406.517,283.528,406.628 M282.554,407.181
	c0.164-0.045,0.367,0.043,0.529,0.229c0.141,0.158,0.262,0.414,0.262,0.711c0,0.139-0.027,0.285-0.092,0.436
	c-0.031,0.045-0.09,0.076-0.152,0.107c-0.074,0.039-0.146,0.076-0.191,0.152c0,0-0.002,0.004-0.002,0.006
	c0-0.006,0.002-0.014,0.002-0.018c0-0.52-0.166-0.93-0.471-1.119c-0.064-0.029-0.141-0.031-0.223-0.033
	C282.276,407.388,282.39,407.224,282.554,407.181"/>
<path fill-rule="evenodd" clip-rule="evenodd" fill="#D6484C" d="M310.735,410.628c0.129,0.068,0.248,0.148,0.379,0.211
	c-0.108,0.063-0.225,0.117-0.365,0.152C310.704,410.907,310.743,410.747,310.735,410.628"/>
<path fill-rule="evenodd" clip-rule="evenodd" fill="#F0BF8D" d="M313.358,413.327c-2.039,1.439-3.832,3.277-5.189,5.311
	c-0.244-0.164-0.363-0.361-0.559-0.568c-0.238-0.254-0.482-0.514-0.811-0.693l-0.066-0.035l-0.004,0.074v0.029
	c0,0.279,0.213,0.51,0.408,0.713l0.148,0.164l0.412,0.461c0,0,0.252,0.279,0.277,0.309c-0.027,0.096-0.049,0.189-0.049,0.275
	c0,0.146,0.043,0.277,0.127,0.387c0.135,0.172,0.354,0.26,0.623,0.248c0.078,0.451,0.328,0.676,0.766,0.672
	c0.574,0.738,1.34,1.395,2.33,2.004c0.006,0.043,0.268,1.805,0.268,1.805c0.156,1.021,0.318,2.078,0.43,3.145l0.063,0.443
	c0.045,0.301,0.094,0.631,0.094,0.926c0,0.137-0.012,0.268-0.037,0.385c-0.059,0.256-0.383,0.621-0.592,0.797
	c-0.16,0.135-0.352,0.248-0.537,0.355c-0.4,0.236-0.813,0.48-0.969,0.971c-0.025,0.014-0.873,0.514-0.873,0.514
	c-0.777,0.469-1.586,0.955-2.545,1.275c-0.566,0.186-1.143,0.332-1.758,0.488l-0.289,0.072l-0.691,0.156
	c-0.656,0.139-1.33,0.281-1.807,0.586c0.017-0.008-0.447,0.104-0.447,0.104c-0.273,0.074-0.555,0.145-0.881,0.166
	c0.01-0.064,0.021-0.154,0.021-0.154s0.016-0.127,0.023-0.164c0.037-0.016,0.221-0.086,0.221-0.086
	c0.385-0.141,0.861-0.314,0.891-0.846v-0.033c0-0.211-0.098-0.434-0.189-0.65l-0.109-0.271c-0.473-1.352-0.498-3.221-0.498-5.064
	v-0.666c0-0.744-0.006-1.449-0.039-2.121c1.398-0.074,2.6-0.479,3.469-1.172c0.848-0.674,1.762-1.51,1.848-2.865l0.012-0.166
	l-0.479,0.668c-0.197,0.279-0.379,0.545-0.598,0.801c-1.195,1.406-2.553,2.178-4.27,2.43c0.004-0.063,0.008-0.127,0.008-0.188
	c0-0.221-0.023-0.434-0.047-0.643c-0.025-0.205-0.051-0.414-0.051-0.631c0-0.145,0.01-0.291,0.041-0.441
	c0.063-0.318,0.273-0.697,0.479-1.063l0.23-0.428l0.686-1.418c0.494-1.033,0.959-2.01,1.512-2.951
	C307.36,415.257,310.206,414.171,313.358,413.327"/>
<path fill-rule="evenodd" clip-rule="evenodd" fill="#F0C91E" d="M314.31,413.249c0.23-0.049,0.361-0.031,0.393,0.141
	c0.068,0.4-0.619,0.678-0.789,0.798c-1.84,1.296-3.303,2.847-4.68,4.688c-0.072,0.1-0.705,1.135-0.965,0.613
	c-0.127-0.252,0.385-0.801,0.508-0.982c1.027-1.477,2.307-2.84,3.691-3.987c0.531-0.44,1.18-1.005,1.795-1.25
	C314.276,413.265,314.284,413.253,314.31,413.249"/>
<path fill-rule="evenodd" clip-rule="evenodd" fill="#221714" d="M284.366,412.669h0.066c0.285,0.457,0.705,1.037,0.846,1.695
	c0.148,0.703,0.084,1.719-0.543,1.912c0.02-0.195,0.268-0.432,0.311-0.717c0.189-1.178-0.377-2.082-0.703-2.824
	C284.337,412.698,284.364,412.696,284.366,412.669"/>
<path fill-rule="evenodd" clip-rule="evenodd" fill="#F0C91E" d="M315.142,413.981c0.125-0.018,0.236,0.096,0.248,0.158
	c0.07,0.393-0.582,0.734-0.729,0.842c-1.801,1.32-3.195,2.75-4.539,4.559c-0.104,0.135-0.826,1.246-1.033,0.541
	c-0.07-0.25,0.387-0.719,0.549-0.951c1.338-1.93,3.27-3.918,5.258-5.059C314.96,414.034,315.048,413.995,315.142,413.981"/>
<path fill-rule="evenodd" clip-rule="evenodd" fill="#F0BF8D" d="M313.112,423.13l0.094-0.033l-0.631-0.383
	c-0.695-0.416-1.412-0.848-1.982-1.439l-0.152-0.148c-0.232-0.223-0.387-0.324-0.387-0.668c0-0.031,0.002-0.063,0.006-0.096
	c0.045-0.336,0.572-0.941,0.889-1.303l0.199-0.234c0.947-1.164,2.438-2.766,4.186-3.801h0.012c0.025,0.033,0.514,0.574,0.514,0.574
	c0.584,0.656,1.182,1.336,1.666,2.16l0.113,0.188c0.602,1.02,1.287,2.176,1.355,3.492c0.004,0.051,0.004,0.1,0.004,0.15
	c0,1.48-1.193,2.455-2.16,3.242l-0.379,0.311c-1.002,0.852-2.141,1.59-3.473,2.26c-0.018-0.125-0.348-2.262-0.348-2.262
	s-0.313-2.031-0.336-2.182c0.072,0.027,0.174,0.066,0.174,0.066C312.673,423.112,312.896,423.208,313.112,423.13"/>
<path fill-rule="evenodd" clip-rule="evenodd" fill="#F0BF8D" d="M293.257,417.015l0.779-0.16c0.395-0.074,0.906-0.092,1.402-0.107
	c0.412-0.014,0.805-0.025,1.123-0.07c2.156-0.303,3.861-0.785,5.357-1.51c-0.404,0.908-0.979,1.658-1.539,2.379l-0.607,0.785
	c-0.635,0.818-1.289,1.662-1.613,2.791c-2.336,3.373-4.988,7.206-8.373,10.135c-1.004-1.516-1.586-3.179-1.781-5.08
	c0.582,0.047,1.182-0.053,1.58-0.266l0.156-0.08l-0.236-0.01c-0.445-0.018-1.055-0.039-1.475-0.256
	c-0.174-0.088-0.506-0.336-0.531-0.477c-0.014-0.076,0.031-0.252,0.072-0.42l0.081-0.377c0.095-0.666,0.099-1.266,0.101-1.9
	l0.006-0.729c0.014-0.555-0.016-1.123-0.047-1.67c-0.037-0.707-0.072-1.373-0.006-1.9l0.068-0.227
	c0.057-0.129,0.109-0.254,0.01-0.457c0,0.002-0.102-0.125-0.102-0.125s-0.014-0.014-0.023-0.025c0.01-0.045,0.064-0.105,0.117-0.164
	c0.084-0.094,0.186-0.203,0.186-0.324v-0.004c0.061,0.025,0.133,0.053,0.133,0.053c0.148,0.064,0.303,0.127,0.492,0.154
	c0.916,1.088,2.033,1.686,3.418,1.826c1.34,0.133,2.527-0.398,3.393-0.787c0.994-0.445,1.549-0.703,2.27-1.283l0.148-0.117
	l-0.227,0.041c-0.205,0.039-0.215,0.041-0.334,0.115l-0.152,0.092c-1.053,0.602-2.102,1.018-3.119,1.236
	c-1.668,0.356-3.449-0.012-4.324-0.867C290.956,417.503,292.177,417.247,293.257,417.015"/>
<path fill-rule="evenodd" clip-rule="evenodd" fill="#F0BF8D" d="M282.079,415.761c0.082,0.098,0.115,0.242,0.17,0.367
	c-0.41,0.004-0.59,0.594-0.359,0.92c-0.461,0.313-0.031,0.889-0.326,1.328c-0.133-0.029-0.215-0.104-0.336-0.145
	C281.339,417.228,281.667,416.454,282.079,415.761"/>
<path fill-rule="evenodd" clip-rule="evenodd" fill="#F0C91E" d="M287.286,416.54c0.135-0.037,0.301-0.023,0.338,0.096
	c0.082,0.26-0.344,0.479-0.465,0.557c-1.34,0.859-3.162,0.74-4.594-0.063c-0.168-0.092-0.535-0.283-0.486-0.508
	c0.057-0.25,0.381-0.109,0.566-0.01c0.516,0.277,1.123,0.627,1.885,0.699c1.207,0.117,2.033-0.35,2.711-0.75
	C287.259,416.55,287.266,416.544,287.286,416.54"/>
<path fill-rule="evenodd" clip-rule="evenodd" fill="#D6484C" d="M303.708,416.985c0.02-0.004,0.021,0.008,0.023,0.023
	c-1.697,3.703-3.559,7.428-5.525,10.918c-0.973,1.723-1.963,3.527-3.236,4.973c-1.27,1.432-2.613,2.863-4.434,3.699
	c-0.145-0.605-0.258-1.357-0.449-2.025c-0.057-0.189-0.213-0.459-0.189-0.615c0.029-0.217,0.707-0.617,0.945-0.814
	c4.76-3.928,8.131-9.533,11.17-15.18C302.567,417.628,303.147,417.315,303.708,416.985"/>
<path fill-rule="evenodd" clip-rule="evenodd" fill="#F0C91E" d="M282.153,417.325c0.014-0.004,0.018-0.027,0.045-0.023
	c0.476,0.084,0.73,0.367,1.166,0.527c1.051,0.381,2.574,0.355,3.514-0.146c0.121-0.066,0.477-0.285,0.592-0.213
	c0.383,0.236-0.48,0.713-0.652,0.801c-1.061,0.534-2.561,0.534-3.713,0.027c-0.205-0.09-0.369-0.197-0.605-0.332
	C282.399,417.909,281.649,417.485,282.153,417.325"/>
<path fill-rule="evenodd" clip-rule="evenodd" fill="#D6484C" d="M301.575,418.249c-3.211,5.668-6.51,11.58-11.668,15.211
	c0.025-0.356-0.479-0.85-0.447-1.211c0.012-0.152,0.494-0.559,0.67-0.729c1.65-1.577,3.266-3.245,4.646-5.077
	c1.633-2.166,3.102-4.422,4.564-6.57C300.079,419.325,300.792,418.749,301.575,418.249"/>
<path fill-rule="evenodd" clip-rule="evenodd" fill="#F0BF8D" d="M280.866,423.343c0.102-0.096,0.119-0.35,0.123-0.584v-0.049
	c0.184-1.633,0.629-3.148,1.084-4.545c1.334,0.879,3.844,1.162,5.213,0.244c-0.01,0.242-0.016,0.486-0.016,0.738
	c0,0.475,0.014,0.967,0.027,1.475c0.014,0.518,0.027,1.039,0.027,1.553c0,1.186-0.07,2.336-0.383,3.305
	c-0.406,1.287-1.51,2.514-2.617,2.92c-0.242,0.088-0.645,0.131-0.943,0.043c-0.9-0.262-1.852-1.029-2.484-2.006
	c-0.551-0.848-0.779-2.025-0.779-3.219c0-1.066,0.184-2.143,0.482-3.01c0.121,0.057,0.244,0.125,0.389,0.217
	c-0.129,0.695-0.227,1.383-0.318,2.227l-0.008,0.063c-0.035,0.252-0.064,0.527,0.021,0.629l0.084,0.041L280.866,423.343z"/>
<path fill-rule="evenodd" clip-rule="evenodd" fill="#F0C91E" d="M281.464,418.757c-0.023,0.176-0.074,0.322-0.123,0.473
	c-0.178-0.176-0.637-0.211-0.691-0.445C280.53,418.28,281.261,418.597,281.464,418.757"/>
<path fill-rule="evenodd" clip-rule="evenodd" fill="#F0C91E" d="M281.243,419.567c-0.039,0.156-0.076,0.307-0.125,0.449
	c-0.252-0.184-0.77-0.309-0.754-0.629C280.386,418.903,281.013,419.503,281.243,419.567"/>
<path fill-rule="evenodd" clip-rule="evenodd" fill="#D6484C" d="M300.979,423.372c0.273,2.801,0.033,6.574,0.719,9.115
	c0.098,0.357,0.299,0.824,0.201,1.158c-0.184,0.619-1.264,0.592-1.652,0.982c-0.227-1.34-0.137-2.914-0.189-4.486
	c-0.043-1.143-0.025-2.311-0.057-3.533c-0.012-0.389-0.109-0.789-0.064-1.109c0.045-0.332,0.365-0.773,0.521-1.074
	C300.657,424.05,300.86,423.72,300.979,423.372"/>
<path fill-rule="evenodd" clip-rule="evenodd" fill="#D6484C" d="M299.749,425.833c0.02-0.004,0.02,0.01,0.021,0.023
	c0.022,2.068,0.081,4.551,0.159,6.885c0.021,0.711-0.078,1.689,0.172,2.197c0.146,0.293,0.543,0.439,0.711,0.721
	c-0.414,0.646-1.303,0.828-2.094,0.426c-0.198-0.102-0.609-0.244-0.645-0.422c-0.039-0.191,0.53-0.601,0.629-0.846
	c0.07-0.168,0.09-0.4,0.104-0.586c0.08-0.98-0.043-2.21-0.057-3.375c-0.006-0.51-0.018-1.055-0.031-1.584
	c-0.014-0.541-0.051-1.248,0.061-1.674C298.948,426.938,299.563,426.44,299.749,425.833"/>
<path fill-rule="evenodd" clip-rule="evenodd" fill="#D6484C" d="M298.497,428.091c0.094,2.027,0.162,4.164,0.012,6.268
	c-0.371-0.094-1.025-0.301-1.414-0.527c-0.031-0.713,0.182-1.414,0.299-2.145c0.119-0.729,0.088-1.512,0.277-2.189
	C297.815,428.987,298.374,428.565,298.497,428.091"/>
<path fill-rule="evenodd" clip-rule="evenodd" fill="#FFFFFF" d="M314.454,436.786c-0.867-1.68-1.539-3.563-2.828-4.932
	c-0.309-0.33-0.758-0.504-0.316-0.865c0.279-0.23,0.65-0.371,0.941-0.611c0.275-0.23,0.682-0.998,0.969-0.951
	c0.402,0.063,0.615,0.742,0.748,1.102c0.176,0.496,0.25,1.016,0.301,1.523C314.452,433.79,314.653,435.116,314.454,436.786"/>
<path fill-rule="evenodd" clip-rule="evenodd" fill="#F0BF8D" d="M297.274,430.122c-0.082,0.768-0.164,1.986-0.363,2.867
	c-0.105,0.467-0.314,0.865-0.051,1.197c-0.123,0.088-0.303,0.113-0.436,0.193c-0.215-0.141-0.467-0.246-0.805-0.268
	c0.334,0.16,0.582,0.404,0.82,0.652c0.236-0.094,0.338-0.326,0.51-0.486c0.207,0.105,0.549,0.08,0.787,0.154
	c0.02,0.258,0.018,0.531,0.006,0.814c-1.379,0.148-3.027,0.014-4.252-0.254C294.899,433.521,296.216,431.958,297.274,430.122"/>
<path fill-rule="evenodd" clip-rule="evenodd" fill="#3C5F9A" d="M310.886,431.614c1.191,0.76,2.039,2.373,2.652,3.818
	c0.182,0.434,0.588,1.074,0.618,1.484c0.032,0.383-0.173,0.848-0.274,1.215c-0.328,1.186-0.678,2.297-1.142,3.301
	c-3.595-0.576-6.698-1.816-9.567-3.162c0.192-0.166,0.656-0.061,0.932-0.068c1.389-0.045,2.635-0.355,3.484-0.984
	c1.123,0.475,3.211,0.041,3.703-0.662c-0.424,0.119-0.889,0.42-1.482,0.51c-0.59,0.088-1.262,0.107-1.879-0.043
	c0.832-0.795,1.361-1.938,1.752-3.332C309.946,432.753,310.104,431.978,310.886,431.614"/>
<path fill-rule="evenodd" clip-rule="evenodd" fill="#FFFFFF" d="M309.761,432.356c0.018-0.004,0.021,0.01,0.021,0.023
	c-0.55,2.943-1.634,5.182-4.72,5.48c-0.568,0.055-1.189,0.084-1.814,0.049c-0.684-0.039-1.703-0.199-2.264,0.107
	c0.193-0.48,0.496-0.955,0.777-1.455c0.359-0.629,0.662-1.545,1.289-1.824c0.541-0.242,1.221-0.293,1.82-0.434
	C306.622,433.892,308.524,433.251,309.761,432.356"/>
<path fill-rule="evenodd" clip-rule="evenodd" fill="#D6484C" d="M297.921,434.437c0.193,0.029,0.363,0.08,0.492,0.17
	c-0.012,0.375-0.256,0.502-0.445,0.693C297.95,435.013,297.938,434.722,297.921,434.437"/>
<path fill-rule="evenodd" clip-rule="evenodd" fill="#D6484C" d="M300.858,434.64c0.059,0.203-0.018,0.463-0.018,0.68
	c-0.145-0.141-0.301-0.271-0.396-0.461C300.597,434.8,300.731,434.726,300.858,434.64"/>
<path fill-rule="evenodd" clip-rule="evenodd" fill="#FFFFFF" d="M302.229,435.013c-0.221,0.725-0.748,1.535-1.141,2.238
	c-1.117,0.564-2.533,0.818-3.896,1.131c1.266-0.033,2.596-0.39,3.686-0.754c-0.029,0.297-0.414,0.414-0.398,0.693
	c0.025,0.482,1.256,0.535,1.609,0.738c0.006,0.281-0.215,0.492-0.418,0.625c-0.83,0.531-2.336,0.781-3.574,0.822
	c-1.568,0.053-3.275,0.063-4.148-0.729c0.406-0.436,1.49-0.557,1.051-1.471c-0.275-0.58-0.961-1.088-1.23-1.521
	c0.787,0.488,1.895,0.668,3.178,0.686c-1.619-0.383-3.342-0.664-4.078-1.883c0.195-0.523,0.785-0.277,1.408-0.195
	c1.195,0.158,2.148,0.168,3.393,0.148c0.122,0.412,1.105,1.033,1.648,1.123c0.543,0.088,1.588-0.4,1.764-0.91
	c0.057-0.162,0.018-0.391,0.059-0.541C301.521,435.163,301.911,435.128,302.229,435.013"/>
<path fill-rule="evenodd" clip-rule="evenodd" fill="#FFFFFF" d="M294.745,438.597c-0.537-0.313-1.488,0.012-2.082-0.025
	c-1.039-0.068-1.297-0.832-1.68-1.645c0.564-0.33,1.072-0.717,1.584-1.096C293.323,436.726,294.292,437.415,294.745,438.597"/>
<path fill-rule="evenodd" clip-rule="evenodd" fill="#3C5F9A" d="M290.903,437.353c0.158,0.318,0.223,0.719,0.432,0.984
	c-0.161,0.037-0.449,0.051-0.59,0.031C290.784,438.017,290.854,437.694,290.903,437.353"/>
<path fill-rule="evenodd" clip-rule="evenodd" fill="#3C5F9A" d="M302.948,438.175c-0.158,0.264-0.326,0.521-0.471,0.803
	c-0.068-0.275-1.328-0.375-1.275-0.684c0.033-0.184,0.549-0.166,0.797-0.164C302.382,438.134,302.667,438.14,302.948,438.175"/>
<path fill-rule="evenodd" clip-rule="evenodd" fill="#D6484C" d="M303.009,438.583c2.934,1.406,6.176,2.523,9.744,3.324
	c0.051,0.719-0.35,1.164-0.473,1.78c-3.674-0.784-6.826-2.065-9.693-3.62c0.572,0.572,1.365,0.895,2.123,1.248
	c2.27,1.061,4.848,1.939,7.475,2.663c-0.141,0.675-0.355,1.392-0.545,2.091c-0.186,0.68-0.193,1.498-0.658,1.955
	c-2.922-0.441-5.088-1.721-7.193-3.018c-2.084-1.283-4.191-2.588-5.855-4.256c0.801-0.057,1.664-0.049,2.336-0.238
	c1.383,1.259,2.941,2.33,4.611,3.297c1.67,0.969,3.467,1.854,5.559,2.393c-3.834-1.373-7.246-3.262-9.781-5.793
	C301.792,440.165,302.536,439.521,303.009,438.583"/>
<path fill-rule="evenodd" clip-rule="evenodd" fill="#D6484C" d="M293.313,438.856c0.141,0.797,0.436,1.443,1.252,1.592
	c-0.986,0.393-2.182,0.574-3.281,0.852c1.18-0.074,2.506-0.393,3.553-0.754c0.654,0.184,1.49,0.254,2.232,0.232
	c-1.564,1.352-3.6,2.5-6.131,2.959c-0.68,0.123-1.26,0.254-1.326-0.482c-0.145-1.645,0.662-3.037,0.559-4.561
	c0.471,0.133,1.012-0.072,1.451-0.035c0.004,0.002,0.016-0.002,0.023,0.002C292.138,438.86,292.681,438.956,293.313,438.856"/>
<path fill-rule="evenodd" clip-rule="evenodd" fill="#3C5F9A" d="M294.491,438.794c-0.092,0.422-0.521,0.488-0.785,0.729
	c-0.02-0.256-0.135-0.535-0.119-0.748C293.823,438.708,294.272,438.671,294.491,438.794"/>
<path fill-rule="evenodd" clip-rule="evenodd" fill="#3C5F9A" d="M298.831,442.042c-1.029,1.139-3.188,1.094-4.15,2.301
	c0.342-0.891,0.652-1.738,1.209-2.369c0.408-0.465,1.068-0.645,1.387-1.191c0.324,0.023,0.625,0.434,0.844,0.631
	C298.388,441.655,298.599,441.864,298.831,442.042"/>
<path fill-rule="evenodd" clip-rule="evenodd" fill="#3C5F9A" d="M299.03,442.249c3.678,2.24,6.799,5.01,11.559,6.219
	c-0.109,1.297-0.363,2.533-0.584,3.789c-0.076,0.414-0.07,0.934-0.258,1.191c-0.254,0.364-1.465,0.471-2.088,0.316
	c-0.49-0.125-1.01-0.572-1.43-0.895c-2.154-1.66-3.928-3.873-5.261-6.254c-0.272-0.482-0.534-0.996-0.761-1.533
	s-0.357-1.162-0.641-1.645c0.381,2.34,1.627,4.281,2.85,5.994c1.234,1.727,2.746,3.305,4.607,4.385
	c-1.537-0.041-3.195-0.082-4.564-0.287c-1.344-0.197-2.322-1.002-3.037-1.857c-0.604-0.721-0.973-1.594-1.297-2.633
	c0.152,2.002,1.533,3.328,2.729,4.408c-2.756-0.074-5.492-0.344-7.418-1.279c0.543-0.66,1.092-1.516,1.371-2.524
	c0.844-0.089,1.074-1.009,1.354-1.804c0.561-1.584,0.803-3.723,1.854-4.801C298.278,442.772,298.702,442.538,299.03,442.249"/>
<path fill-rule="evenodd" clip-rule="evenodd" fill="#FFFFFF" d="M295.671,448.552c-0.213-1.264-1.158-2.189-1.01-3.439
	c0.166-1.355,1.895-1.521,3.035-1.988C296.718,444.431,296.284,446.712,295.671,448.552"/>
<path fill-rule="evenodd" clip-rule="evenodd" fill="#3C5F9A" d="M294.591,446.356c0.111,0.645,0.779,1.596,0.736,2.324
	c-0.053,0.922-1.68,0.709-2.313,1.148C293.708,449.03,294.315,447.743,294.591,446.356"/>
<path fill-rule="evenodd" clip-rule="evenodd" fill="#FFFFFF" d="M292.757,452.198c0.305-0.682-0.322-1.123-0.188-1.68
	c0.136-0.553,1.354-0.639,1.921-0.838C294.271,450.71,293.655,451.728,292.757,452.198"/>
<path fill-rule="evenodd" clip-rule="evenodd" fill="#F0BF8D" d="M292.993,453.802l-0.084-0.316
	c-0.072-0.234-0.154-0.52-0.154-0.709c0-0.043,0.004-0.08,0.016-0.111c0.02-0.063,0.113-0.104,0.205-0.146
	c0.074-0.035,0.145-0.07,0.191-0.121c1.652,0.744,3.553,1.219,5.65,1.408c0.014,0.063,0.221,0.902,0.221,0.902
	c0.193,0.74,0.394,1.504,0.394,2.363v0.084c-2.222,0.344-4.052,0.371-5.757,0.09C293.454,456.05,293.183,454.714,292.993,453.802"/>
<path fill-rule="evenodd" clip-rule="evenodd" fill="#F0BF8D" d="M299.884,456.423c-0.197-0.871-0.4-1.771-0.52-2.574
	c1.131,0.047,2.238,0.135,3.313,0.221c1.111,0.088,2.26,0.18,3.436,0.225c0.199,1.076,0.381,2.139,0.455,3.297
	c-2.107,0.359-4.561,0.354-6.428-0.014C300.126,457.519,299.884,456.423,299.884,456.423"/>
<path fill-rule="evenodd" clip-rule="evenodd" fill="#F0C91E" d="M299.675,457.45c0.088,0.316-0.221,0.377-0.285,0.604
	c-1.348,0.39-3.275,0.45-4.984,0.226c-0.41-0.053-1.379-0.061-1.369-0.484c0.012-0.506,1.193-0.145,1.721-0.098
	C296.486,457.858,298.249,457.655,299.675,457.45"/>
<path fill-rule="evenodd" clip-rule="evenodd" fill="#F0C91E" d="M306.704,457.929c0.166,0,0.494,0.158,0.305,0.482
	c-0.172,0.291-1.297,0.316-1.75,0.369c-1.223,0.139-2.672,0.152-4.006-0.027c-0.504-0.066-1.582-0.179-1.574-0.578
	c0.014-0.51,1.166-0.148,1.521-0.1c1.762,0.232,3.979,0.174,5.455-0.146C306.671,457.927,306.69,457.929,306.704,457.929"/>
<path fill-rule="evenodd" clip-rule="evenodd" fill="#F0C91E" d="M299.667,458.673c-0.047,0.117-0.162,0.168-0.186,0.313
	c-1.35,0.396-3.309,0.442-5.053,0.222c-0.352-0.045-1.703-0.131-1.275-0.662c0.158-0.197,0.471-0.061,0.723-0.029
	c0.762,0.086,1.541,0.188,2.375,0.189c1.289,0.004,2.115-0.125,3.018-0.27C299.497,458.399,299.524,458.544,299.667,458.673"/>
<path fill-rule="evenodd" clip-rule="evenodd" fill="#F0C91E" d="M306.655,458.925c0.211-0.012,0.426-0.004,0.449,0.213
	c0.059,0.5-1.068,0.605-1.553,0.643c-1.379,0.109-2.803,0.121-4.164-0.049c-0.502-0.063-1.656-0.152-1.66-0.559
	c-0.012-0.547,1.055-0.182,1.473-0.125c0.582,0.076,1.256,0.119,1.852,0.133C304.495,459.214,305.505,458.988,306.655,458.925"/>
<path fill-rule="evenodd" clip-rule="evenodd" fill="#F0BF8D" d="M299.417,459.374c0.211,0.119,0.27,0.33,0.279,0.486v0.061
	c0,0.387-0.225,0.867-0.518,1.08c-0.182,0.133-0.41,0.225-0.633,0.313l-0.414,0.178c-0.664,0.354-1.217,0.879-1.719,1.396
	l-0.324,0.396c-0.115,0.154-0.232,0.313-0.373,0.445c-0.18,0.172-0.41,0.309-0.635,0.441c-0.359,0.213-0.717,0.441-0.92,0.814
	c0.002-0.014,0.002-0.025,0.002-0.035c0-0.043-0.008-0.082-0.041-0.107l-0.053-0.039l-0.021,0.063
	c-0.07,0.229-0.227,0.369-0.391,0.518c-0.141,0.127-0.285,0.262-0.375,0.455c-0.34,0.352-1.119,0.432-1.568,0.15
	c-0.215-0.135-0.322-0.332-0.322-0.574c0-0.103,0.023-0.217,0.063-0.33c0.066,0.014,0.213,0.057,0.213,0.057
	c0.396,0.107,0.809,0.219,1.174,0.367l0.031,0.012l0.02-0.023c0.205-0.211,0.219-0.518,0.043-0.783
	c-0.164-0.24-0.488-0.408-0.857-0.307c0.078-0.201,0.246-0.377,0.473-0.477c0.275-0.121,0.584-0.111,0.844,0.025l0.068,0.037v-0.084
	c0-0.193-0.139-0.26-0.264-0.301c0.107-0.191,0.405-0.178,0.539-0.158l0.121,0.016l-0.078-0.094
	c-0.24-0.295-0.541-0.094-0.725,0.027l-0.086,0.057c-0.117,0.07-0.258,0.117-0.396,0.162c-0.23,0.078-0.47,0.156-0.625,0.348
	l-0.236,0.34c-0.127,0.193-0.246,0.363-0.438,0.486c0-0.18-0.076-0.328-0.215-0.418c-0.131-0.084-0.301-0.102-0.461-0.059
	c0.255-0.296,0.678-0.633,1.223-0.48l0.086,0.023l-0.027-0.086c-0.039-0.096-0.127-0.133-0.205-0.164c0,0-0.063-0.035-0.094-0.055
	c0.016-0.053,0.053-0.088,0.104-0.125c0.049-0.034,0.105-0.074,0.137-0.143l0.041-0.096l-0.098,0.031
	c-0.381,0.117-0.76,0.447-1.129,0.768l-0.428,0.357l-0.125,0.088c-0.184,0.125-0.359,0.244-0.359,0.529
	c0,0.061,0.016,0.133,0.033,0.209c-0.242,0.057-0.49,0.006-0.653-0.145c-0.114-0.105-0.173-0.244-0.173-0.4
	c0-0.024,0.004-0.049,0.008-0.076c0.035,0.014,0.076,0.027,0.076,0.027c0.186,0.061,0.379,0.123,0.529,0.215l0.02,0.01l0.02-0.006
	c0.121-0.037,0.215-0.15,0.248-0.309c0.035-0.177-0.006-0.352-0.111-0.443c-0.049-0.043-0.135-0.078-0.254-0.061
	c0.051-0.127,0.137-0.238,0.271-0.309c0.23-0.125,0.547-0.137,0.838-0.031l0.137,0.049l-0.08-0.119
	c-0.074-0.111-0.162-0.181-0.268-0.229c0.02-0.051,0.059-0.08,0.125-0.111l0.125-0.076l-0.043-0.082
	c-0.262,0.051-1.125,0.262-1.4,0.863c-0.236,0.086-0.398,0.193-0.51,0.336l-0.01,0.01c0,0-0.025,0.371-0.031,0.424
	c-0.205,0.019-0.371-0.029-0.48-0.139c-0.096-0.096-0.145-0.234-0.145-0.4c0-0.023,0.004-0.047,0.004-0.07
	c0.074,0.02,0.139,0.049,0.201,0.082l0.256,0.1l0.008-0.006c0.168-0.045,0.318-0.339,0.268-0.525
	c-0.014-0.051-0.063-0.152-0.221-0.146c0.145-0.277,0.461-0.381,0.838-0.463l0.031-0.004l0.002-0.033
	c0.025-0.129,0.117-0.18,0.225-0.24l0.201-0.119l-0.113-0.025c-0.172-0.045-0.369,0.074-0.467,0.215c-0.49,0-0.732,0.26-0.967,0.512
	c-0.15,0.164-0.295,0.318-0.502,0.408l-0.02,0.008l-0.031,0.121c-0.014,0.055-0.031,0.115-0.031,0.191
	c-0.248-0.041-0.336-0.236-0.387-0.502c0.18,0.107,0.445,0.102,0.609-0.004c0.158-0.105,0.195-0.281,0.096-0.467l-0.017-0.035
	c0,0-0.034,0.012-0.038,0.012c0.09-0.162,0.275-0.352,0.52-0.424c0.176-0.053,0.348-0.031,0.498,0.058l0.047,0.026l0.012-0.033
	l0.029-0.07l-0.063-0.088c-0.02-0.018-0.031-0.029-0.035-0.041c0.111-0.131,0.266-0.18,0.432-0.227
	c0.104-0.031,0.213-0.061,0.316-0.115c0.178-0.096,0.322-0.286,0.465-0.473l0.242-0.289c0.68-0.648,1.813-1.432,3.354-1.471
	l0.07-0.002l-0.029-0.064c-0.053-0.111-0.205-0.158-0.334-0.168c0.041-0.031,0.088-0.055,0.14-0.078
	c0.112-0.051,0.233-0.109,0.284-0.248C295.618,459.77,297.677,459.733,299.417,459.374"/>
<path fill-rule="evenodd" clip-rule="evenodd" fill="#F0BF8D" d="M300.333,459.919c1.852,0.357,4.174,0.367,6.141,0.033
	c0.002,0.002,0.006,0.01,0.006,0.01c0.119,0.232,0.186,0.549,0.186,0.867c0,0.469-0.148,0.939-0.508,1.143l0.035,0.088
	c0.004,0,0.008-0.004,0.012-0.006h0.002c0.467-0.129,0.754-0.498,0.801-0.984c0.029,0.072,0.057,0.152,0.057,0.152
	c0.229,0.574,0.555,1.4,0.555,2.092c0,0.369-0.094,0.701-0.348,0.932c-0.164,0.15-0.48,0.221-0.816,0.297l-0.535,0.139
	c-0.477,0.158-0.869,0.359-1.203,0.611l-0.609,0.518c-0.576,0.521-1.076,0.971-2.041,0.973c0.004-0.053,0.008-0.158,0.008-0.158
	c0.006-0.041,0.012-0.086,0.012-0.125c0-0.033-0.004-0.063-0.012-0.092l-0.037-0.109l-0.053,0.104
	c-0.143,0.283-0.275,0.436-0.566,0.648c-0.176,0.129-0.318,0.287-0.453,0.439c-0.23,0.258-0.447,0.502-0.791,0.539
	c-0.225,0.027-0.449-0.049-0.604-0.199c-0.123-0.119-0.182-0.27-0.168-0.422c0.018-0.162,0.172-0.242,0.34-0.326
	c0.107-0.055,0.221-0.113,0.297-0.199c0.143-0.385,0.506-0.719,0.982-0.574l0.023,0.01l0.021-0.02
	c0.027-0.023,0.033-0.047,0.033-0.066v-0.006c-0.004-0.051-0.053-0.076-0.092-0.098c0,0-0.016-0.01-0.027-0.016
	c0.008-0.018,0.018-0.031,0.045-0.053c0.027-0.02,0.074-0.053,0.074-0.105c0-0.016-0.004-0.033-0.018-0.055l-0.02-0.033
	l-0.301,0.105l-0.215,0.078c-0.291,0.094-0.414,0.258-0.555,0.445l-0.225,0.273l-0.25,0.188c-0.186,0.123-0.373,0.25-0.412,0.453
	c-0.006,0.023-0.006,0.049-0.006,0.074c0,0.096,0.039,0.203,0.111,0.318c-0.316,0.111-0.654,0.094-0.836-0.055
	c-0.105-0.084-0.158-0.205-0.158-0.359c0-0.033,0.006-0.068,0.01-0.105c0.113-0.012,0.242,0.027,0.367,0.066
	c0.129,0.043,0.25,0.08,0.359,0.068l0.021-0.004l0.016-0.02c0.064-0.104,0.082-0.273,0.039-0.436
	c-0.031-0.119-0.088-0.209-0.156-0.244c-0.109-0.021-0.174-0.006-0.229,0.014c0.139-0.311,0.42-0.508,0.889-0.611l0.043-0.01
	l-0.008-0.045c-0.004-0.014-0.004-0.025-0.004-0.037c0-0.051,0.027-0.078,0.066-0.119c0.037-0.037,0.082-0.084,0.104-0.158
	l0.031-0.107l-0.49,0.264c-0.402,0.199-0.816,0.408-0.961,0.9c-0.16,0.086-0.285,0.188-0.371,0.313l-0.008,0.012l-0.002,0.012
	c-0.002,0.055-0.006,0.111-0.006,0.166c0,0.094,0.008,0.188,0.018,0.283c-0.24,0.143-0.572,0.125-0.824-0.043
	c-0.18-0.121-0.273-0.289-0.273-0.473c0-0.02,0.002-0.039,0.002-0.059c0.24,0.039,0.479,0.1,0.73,0.188l0.02,0.008l0.02-0.012
	c0.209-0.109,0.258-0.422,0.162-0.627c-0.078-0.168-0.229-0.225-0.41-0.186c0.047-0.166,0.145-0.311,0.301-0.406
	c0.227-0.141,0.537-0.174,0.826-0.092l0.063,0.02l-0.004-0.068c-0.002-0.078-0.1-0.129-0.197-0.182c0,0-0.072-0.046-0.105-0.066
	c0.014-0.066,0.055-0.1,0.125-0.141l0.105-0.072l-0.049-0.078c-0.428,0.162-1.135,0.434-1.311,1.043
	c-0.225,0.078-0.418,0.246-0.502,0.445c-0.035,0.078-0.049,0.162-0.049,0.246c0,0.086,0.025,0.172,0.059,0.256
	c-0.264,0.158-0.553,0.174-0.811,0.037c-0.293-0.156-0.496-0.479-0.527-0.814c0.092,0.025,0.32,0.086,0.32,0.086
	c0.256,0.08,0.52,0.158,0.793,0.148h0.035l0.01-0.035c0.088-0.322-0.002-0.65-0.221-0.793c-0.111-0.074-0.242-0.084-0.375-0.043
	c0.336-0.4,0.793-0.789,1.328-0.518l0.07,0.033v-0.076c0-0.113-0.133-0.18-0.26-0.242c0,0-0.086-0.047-0.115-0.063
	c0.002-0.076,0.043-0.107,0.1-0.146c0.047-0.033,0.102-0.072,0.127-0.148l0.041-0.117l-0.109,0.061
	c-0.555,0.322-1.129,0.82-1.629,1.273c-0.082-0.326-0.199-0.66-0.455-0.803c-0.125-0.068-0.275-0.072-0.441-0.033
	c0.176-0.328,0.66-0.822,1.293-0.584l0.127,0.049l-0.068-0.117c-0.057-0.094-0.148-0.143-0.238-0.191
	c0.172-0.123,0.443-0.197,0.75-0.201h0.055l-0.006-0.055c-0.018-0.115-0.127-0.136-0.229-0.148c1.105-1.506,2.471-2.426,4.176-2.805
	l0.033-0.008l0.004-0.031c0-0.006,0.002-0.012,0.002-0.016c0-0.035-0.016-0.07-0.045-0.102c-0.051-0.051-0.146-0.094-0.254-0.102
	C300.208,460.462,300.28,460.181,300.333,459.919 M306.651,459.923c0.002,0.002,0.002,0.008,0.004,0.01
	c-0.002-0.004-0.01-0.004-0.016-0.008C306.644,459.925,306.646,459.925,306.651,459.923"/>
<path fill-rule="evenodd" clip-rule="evenodd" fill="#F0BF8D" d="M287.86,463.356c0.104,0.133-0.291,0.414-0.389,0.148
	C287.614,463.472,287.743,463.417,287.86,463.356"/>
<path fill-rule="evenodd" clip-rule="evenodd" fill="#F0BF8D" d="M288.595,463.804c-0.023,0.127-0.088,0.215-0.162,0.291
	c-0.111-0.027-0.172-0.102-0.291-0.119C288.224,463.86,288.46,463.714,288.595,463.804"/>
<path fill-rule="evenodd" clip-rule="evenodd" fill="#F0BF8D" d="M289.651,464.212c0.055,0.137-0.014,0.281-0.053,0.387
	c-0.191-0.063-0.354-0.152-0.564-0.195C289.179,464.29,289.421,464.087,289.651,464.212"/>
<path fill-rule="evenodd" clip-rule="evenodd" fill="#F0BF8D" d="M290.991,465.013c-0.248-0.08-0.488-0.166-0.764-0.221
	C290.372,464.433,291.308,464.335,290.991,465.013"/>
<path fill-rule="evenodd" clip-rule="evenodd" fill="#F0BF8D" d="M292.841,465.282c-0.375-0.145-0.791-0.248-1.191-0.367
	C291.905,464.454,293.003,464.458,292.841,465.282"/>
<path fill-rule="evenodd" clip-rule="evenodd" fill="#F0BF8D" d="M289.976,464.854c0.363,0.125,0.748,0.23,1.123,0.344
	c-0.023,0.232,0.021,0.406,0.031,0.611C290.411,465.972,290.032,465.466,289.976,464.854"/>
<path fill-rule="evenodd" clip-rule="evenodd" fill="#F0BF8D" d="M295.132,466.083c-0.391-0.123-0.748-0.275-1.17-0.367
	C294.144,465.208,295.401,465.134,295.132,466.083"/>
<path fill-rule="evenodd" clip-rule="evenodd" fill="#F0BF8D" d="M295.081,466.216c-0.102,0.283-0.004,0.6,0.119,0.795
	c-0.863,0.369-2.02-0.391-1.424-1.209C294.22,465.933,294.644,466.081,295.081,466.216"/>
<path fill-rule="evenodd" clip-rule="evenodd" fill="#F0BF8D" d="M296.296,466.562c-0.273-0.057-0.533-0.125-0.787-0.199
	C295.718,466.05,296.407,465.843,296.296,466.562"/>
<path fill-rule="evenodd" clip-rule="evenodd" fill="#F0BF8D" d="M297.61,466.593c0.066,0.117,0.037,0.33-0.035,0.43
	c-0.164-0.082-0.354-0.135-0.584-0.15C297.122,466.71,297.317,466.509,297.61,466.593"/>
<path fill-rule="evenodd" clip-rule="evenodd" fill="#F0BF8D" d="M298.802,466.868c0.068,0.082,0.074,0.225,0.082,0.365
	c-0.143,0.012-0.324-0.117-0.541-0.102C298.45,466.997,298.587,466.89,298.802,466.868"/>
<path fill-rule="evenodd" clip-rule="evenodd" fill="#221714" d="M300.021,466.925c-0.27,0.014-0.619,0.248-0.623,0.479v0.031
	l0.029,0.014c0.148,0.061,0.344,0.078,0.533,0.094l0.178,0.018l0.02-0.018c0.094-0.08,0.182-0.158,0.182-0.314
	c0-0.018-0.002-0.039-0.004-0.061C300.315,467.003,300.2,466.915,300.021,466.925 M299.628,467.339
	c0.145,0.023,0.301,0.037,0.473,0.035C300.364,466.968,299.692,467.081,299.628,467.339"/>
<path fill-rule="evenodd" clip-rule="evenodd" fill="#D6484C" d="M307.604,412.956c1.326,0.645,3.291,0.193,3.135-1.512
	c0.365-0.125,0.74-0.41,1.145-0.404c0.424,0.006,0.908,0.424,1.248,0.684c0.393,0.301,0.768,0.627,0.906,0.949
	c-4.203,1.107-8.131,2.768-11.605,4.666c-1.18,0.646-2.258,1.35-3.221,2.303c1.021-1.947,2.836-3.283,4.631-4.533
	C305.026,414.284,306.356,413.638,307.604,412.956"/>
<path fill-rule="evenodd" clip-rule="evenodd" fill="#D6484C" d="M306.632,411.913c0.307,0.203,0.395,0.613,0.684,0.832
	c-2.033,1.061-4.139,2.293-5.699,3.693c0.691-0.645,1.127-1.521,1.883-2.107c0.502-0.391,1.17-0.672,1.697-1.07
	C305.733,412.86,306.2,412.438,306.632,411.913"/>
<path fill-rule="evenodd" clip-rule="evenodd" fill="#D6484C" d="M302.835,414.653c-0.307,0.455-0.801,0.91-1.164,1.379
	C301.966,415.567,302.214,414.854,302.835,414.653"/>
<path fill-rule="evenodd" clip-rule="evenodd" fill="#3C5F9A" d="M295.224,442.409c-0.447,0.893-1.291,2.268-0.717,3.605
	c-0.305,0.881-0.49,1.584-0.891,2.287c-0.35,0.623-1.078,1.23-1.266,1.873c-0.191,0.674,0.398,1.336,0.182,1.949
	c-0.135,0.385-1.02,0.865-1.553,0.6c-0.287-0.145-0.422-0.824-0.445-1.256c-0.09-1.545,0.396-2.982,0.863-4.145
	c0.49-1.209,1.152-2.225,1.75-3.195c-0.76,0.77-1.301,1.764-1.807,2.787c-0.518,1.041-0.844,2.232-1.056,3.574
	c-0.343-1.848-0.312-4.055-0.333-6.209C291.869,443.825,293.737,443.315,295.224,442.409"/>
<path fill="#221714" d="M297.54,398.933l-0.002,0.068c-0.998-0.352-2.256-0.414-3.168,0.135c-0.736,0.453-1.168,1.184-1.512,1.869
	c0.211-0.998,1.053-2.242,2.186-2.492C295.892,398.29,296.841,398.483,297.54,398.933"/>
<path fill="#221714" d="M286.226,400.56c0.051,0.174,0.201,0.352,0.164,0.521c-0.236-0.229-0.297-0.611-0.553-0.895
	c-0.838-1.09-2.266-1.467-3.57-1.117c0.074-0.189,0.352-0.199,0.525-0.266C284.249,398.544,285.583,399.267,286.226,400.56"/>
<path fill="#221714" d="M298.509,399.593c0.066,0.09-0.07,0.086-0.107,0.137c-0.346,0.113-0.711,0.156-1.092,0.148
	c0.613,0.43,0.75,1.229,0.613,1.951c-0.172,0.688-0.807,1.277-1.453,1.574c-0.699,0.314-1.666,0.24-2.277-0.207
	c-0.322-0.232-0.645-0.568-0.793-0.936c0.641,0.742,1.389,1.33,2.377,1.18c0.643-0.123,1.289-0.438,1.633-1.053
	c0.291-0.633,0.273-1.498-0.195-2.027c-0.574-0.688-1.561-0.658-2.342-0.434c-0.783,0.207-1.596,0.932-1.736,1.775
	c-0.072,0.102,0.045,0.33-0.111,0.326c-0.063-1.021,0.477-1.979,1.439-2.457C295.745,398.771,297.106,399.771,298.509,399.593"/>
<path fill="#FFFFFF" d="M293.399,402.261c0.641,0.742,1.389,1.33,2.377,1.18c0.643-0.123,1.289-0.438,1.633-1.053
	c0.291-0.633,0.273-1.498-0.195-2.027c-0.574-0.688-1.561-0.658-2.342-0.434c-0.783,0.207-1.596,0.932-1.736,1.775
	C293.136,401.702,293.204,401.991,293.399,402.261"/>
<path fill="#221714" d="M285.864,400.585c0.182,0.387,0.396,0.789,0.334,1.289c-0.23-0.629-0.502-1.5-1.273-1.844
	c-0.682-0.449-1.668-0.385-2.387-0.057c-0.287,0.564-0.477,1.322-0.215,1.951c0.332,0.629,0.92,1.352,1.697,1.334
	c0.795,0.02,1.547-0.293,1.977-0.992c-0.129,0.447-0.676,0.902-1.148,1.082c-0.764,0.24-1.57-0.055-2.127-0.621
	c-0.713-0.674-0.947-1.732-0.6-2.623c-0.045-0.227-0.414-0.098-0.477-0.322c1.145-0.164,2.668-0.926,3.68,0.15L285.864,400.585z"/>
<path fill="#FFFFFF" d="M285.997,402.267c-0.43,0.699-1.182,1.012-1.977,0.992c-0.777,0.018-1.365-0.705-1.697-1.334
	c-0.262-0.629-0.072-1.387,0.215-1.951c0.719-0.328,1.705-0.393,2.387,0.057c0.711,0.318,1.002,1.086,1.219,1.693
	C286.144,401.724,286.081,402.046,285.997,402.267"/>
<path fill="#221714" d="M293.464,402.235c0.33,0.605,1.158,0.816,1.795,0.605c0.734-0.24,1.166-1.342,0.848-2.072
	c-0.314-0.727-1.137-1.227-1.992-0.848C293.241,400.312,292.866,401.452,293.464,402.235"/>
<path fill="#FFFFFF" d="M294.261,401.515c0.098,0.219,0.354,0.318,0.576,0.223c0.221-0.096,0.324-0.354,0.23-0.572
	c-0.096-0.219-0.355-0.318-0.578-0.223C294.269,401.038,294.167,401.294,294.261,401.515"/>
<path fill="#FFFFFF" d="M296.169,402.302c-0.105-0.193-0.613-0.25-0.635-0.408c-0.008-0.082,0.473-0.256,0.779-0.064"/>
<path fill="#221714" d="M282.345,401.981c0.33,0.607,1.158,0.818,1.795,0.607c0.734-0.24,1.164-1.344,0.85-2.072
	s-1.102-1.121-1.994-0.848C281.995,399.978,281.745,401.198,282.345,401.981"/>
<path fill="#FFFFFF" d="M283.142,401.263c0.096,0.217,0.354,0.318,0.576,0.223c0.223-0.098,0.322-0.354,0.23-0.572
	c-0.098-0.221-0.355-0.32-0.576-0.223C283.151,400.786,283.048,401.042,283.142,401.263"/>
<path fill="#FFFFFF" d="M285.052,402.05c-0.107-0.193-0.615-0.25-0.635-0.408c-0.01-0.082,0.471-0.258,0.779-0.064"/>
<path fill="#221714" d="M293.638,408.515c-0.021,0.105-0.006,0.268-0.166,0.264l-0.443-0.117c-0.154,1.314-0.809,2.727-2.209,3.104
	c-0.359,0.135-0.895,0.121-1.189-0.117c-0.518-0.74-0.998-1.572-1.754-2.105c-0.258-0.273-0.947,0.264-0.813-0.32
	c0.6-0.449,1.119,0.256,1.723,0.27c1.475,0.139,2.855-0.186,3.859-1.301C293.001,408.216,293.431,408.19,293.638,408.515"/>
<path fill="#FFFFFF" d="M292.616,408.724c-0.008,1.104-0.656,2.211-1.734,2.668c-1.303,0.791-1.383-1.084-2.154-1.617
	C290.167,409.95,291.546,409.642,292.616,408.724"/>
<path fill="#221714" d="M309.817,396.358c-0.754,0.014-1.291,1.016-1.467,1.939c-0.18,0.904-0.068,2.098,0.832,2.48
	c0.076,0.031,0.164-0.004,0.195-0.08c0.033-0.076-0.002-0.164-0.08-0.197c-0.73-0.314-0.809-1.352-0.654-2.145
	c0.188-0.957,0.676-1.512,1.16-1.521c1.035-0.018,1.504,0.838,1.578,1.811c0.061,0.748-0.107,1.521-0.273,2.244
	c-0.193,0.834-0.451,1.645-0.738,2.448c-0.314,0.878-0.566,1.763-0.752,2.673c-0.178,0.861-0.262,1.752-0.289,2.629
	c-0.01,0.363,0.107,1.715-0.266,2.068c-0.197,0.189-0.492,0.105-0.633,0.076c-0.918-0.357-0.543-1.428-0.787-1.588
	c-0.055-0.035-0.072,0.15-0.074,0.174c-0.029,0.195-0.078,0.381-0.066,0.58c0.008,0.178,0.047,0.355,0.111,0.523
	c0.029,0.068,0.059,0.141,0.098,0.205c0.193,0.324,0.582,0.48,0.785,0.523c0.182,0.041,0.6,0.104,0.85-0.17
	c0.248-0.271,0.322-0.855,0.295-1.852c-0.025-0.996,0.096-2.381,0.217-3.195c0.033-0.227,0.072-0.453,0.109-0.68
	c0.082-0.457,0.227-0.918,0.377-1.359c0.279-0.83,0.545-1.65,0.793-2.492c0.287-0.973,0.602-2.102,0.545-2.83
	C311.597,397.513,311.06,396.333,309.817,396.358"/>
<path fill="#221714" d="M309.677,396.464c-0.42,1.365,0.32,4.574,0.445,4.932c0.086,0.287-0.74,2.492-1.527,3.193
	c-0.18,0.158-0.326,0.213-0.438,0.164c-0.223-0.094-0.242-0.201-0.25-0.236c-0.064-0.303,0.418-0.82,0.738-1.162
	s0.461-0.498,0.441-0.656c-0.021-0.18,0.037-0.57-0.041-0.738c-0.125,0-0.559-0.172-0.555-0.16c0.029,0.178,0.168,0.316,0.242,0.479
	c0.068,0.148,0.111,0.305,0.127,0.436c-0.025,0.072-0.295,0.283-0.436,0.436c-0.361,0.387-0.807,0.859-0.824,1.283
	c-0.006,0.049,0,0.098,0.012,0.146c0.039,0.195,0.184,0.35,0.426,0.453c0.24,0.102,0.512-0.057,0.801-0.326
	c0.814-0.766,1.676-2.887,1.523-3.313c-0.16-0.449-0.967-3.393-0.598-4.592c0.025-0.078,0.182-0.412,0.102-0.436
	C309.786,396.341,309.702,396.386,309.677,396.464"/>
</svg>
