<?xml version="1.0" encoding="utf-8"?>
<!-- Generator: Adobe Illustrator 14.0.0, SVG Export Plug-In . SVG Version: 6.00 Build 43363)  -->
<!DOCTYPE svg PUBLIC "-//W3C//DTD SVG 1.1//EN" "http://www.w3.org/Graphics/SVG/1.1/DTD/svg11.dtd">
<svg version="1.1" id="レイヤー_1" xmlns="http://www.w3.org/2000/svg" xmlns:xlink="http://www.w3.org/1999/xlink" x="0px"
	 y="0px" width="595.28px" height="841.89px" viewBox="0 0 595.28 841.89" enable-background="new 0 0 595.28 841.89"
	 xml:space="preserve">
<path fill="#221714" d="M317.045,402.423c0.004-0.003,0.008-0.003,0.012-0.007c0.004-0.002,0.008-0.007,0.014-0.01L317.045,402.423z
	 M331.67,375.69c-1.25-0.279-2.293,0.45-3.074,1.406c-1.043,1.824-1.912,3.735-3.613,5.246c-1.25,1.095-3.508,1.11-4.932,0.328
	c-0.591-0.397-0.68-1.041-0.643-1.718c-0.037-1.321,1.094-2.431,0.52-3.718c-0.156-0.313-0.468-0.503-0.764-0.625
	c-0.66-0.191-1.598-0.347-2.119,0.244c-0.799,0.59-0.433,1.562-0.226,2.31c0.14,0.974,0.417,2.224-0.069,3.109
	c-0.957,0.869-2.172,1.078-3.336,1.405c-0.814,0.105-1.91,0.451-2.588-0.207c-0.695-1.494,0.088-3.231-0.225-4.828
	c-0.33-0.574-0.92-0.99-1.563-1.061c-0.749-0.121-1.477,0.105-1.98,0.678c-0.244,1.268,0.328,2.414,0.484,3.612
	c-0.052,0.068-0.104,0.089-0.189,0.068c-2.156-1.196-4.431-2.063-6.914-2.447c-2.257-0.383-4.742-0.121-6.86,0.296
	c0.329-1.545-0.329-2.952-0.749-4.325c-0.258-0.627-0.502-1.285-0.988-1.789c-0.573-0.229-1.251-0.07-1.719,0.276
	c-0.4,0.348-0.852,0.781-0.679,1.304c0.732,0.989,1.495,1.979,1.929,3.091c0.279,0.749-0.018,1.461-0.278,2.104
	c-1.355,0.433-2.692,0.919-3.943,1.597c-1.042-0.399-2.031-0.938-3.004-1.459c-2.954-1.319-2.832-4.742-4.152-7.156
	c-0.504-0.349-1.354-0.435-1.894-0.087c-0.345,0.193-0.502,0.538-0.485,0.921c0.59,1.753,2.135,3.127,2.639,4.932
	c-0.035,0.122-0.172,0.192-0.278,0.227c-1.771-0.122-3.211,0.539-4.828,0.749c-3.406,0.52-5.47-2.47-7.869-4.535
	c-0.711-0.904-1.771-1.094-2.883-1.007c-0.99,0.174-2.292,0.261-2.605,1.424c-0.207,0.974,0.99,1.201,1.529,1.648l7.069,3.51
	l1.841,0.8c2.694,0.658,4.951-0.921,7.625-0.8c1.962,0.382,3.77,1.166,5.524,1.979c-2.432,2.364-3.647,5.265-4.326,8.372
	c-0.815,3.818,0.398,7.514,1.755,10.814c0.833,1.995,1.286,4.149,1.112,6.584c0.226,1.646-0.903,3.836,0.695,4.964
	c0.276,0.158,0.59,0.228,0.852,0.368c-0.731,0.397-1.252,1.162-1.703,1.841c-0.332,0.293-0.245,0.988-0.799,0.972
	c-0.209,0.086-0.401,0.295-0.365,0.521c-0.051,0.104,0.171,0.243-0.036,0.26c-0.138,0.071-0.311,0.243-0.33,0.399
	c0.019,0.227,0.106,0.451,0.295,0.572l-1.164,2.553c-0.433,1.495-1.598,3.266-0.504,4.829c1.582,2.19,3.457,4.412,5.629,6.22
	c0.121,0.189-0.139,0.329-0.052,0.572c0.07,0.157,0.225,0.348,0.399,0.364c-0.103,0.087-0.12,0.191-0.138,0.314
	c-0.036,0.259,0.225,0.451,0.364,0.521c-0.034,0.469,0.07,1.041-0.087,1.492c0.034,0.626,0.174,1.233,0.157,1.896
	c0.365,0.815,0.138,1.875,1.092,2.449c0.418,0.276,0.037,0.711,0.162,1.094c0.293,2.24,1.109,4.289,0.899,6.668
	c0.036,0.418,0.47,0.139,0.591,0.35c0.313,1.927,0.157,4.047,0.33,6.009l0.139,0.33l2.068,0.156c0.189,1.858,0.658,3.63,1.008,5.435
	l-0.418,0.072c-0.192,0.12-0.33,0.33-0.295,0.572c0,0.19,0.189,0.313,0.347,0.382c-0.244,0.141-0.312,0.381-0.279,0.643
	c0.035,0.141,0.139,0.245,0.279,0.296c-0.244,0.989-1.321,1.112-2.015,1.598l-1.252,1.199l-0.832,0.293
	c-0.383,0.175-0.627,0.679-1.059,0.714c-0.314,0.418-0.992,0.279-1.164,0.799c-0.017,0.276,0.016,0.521,0.242,0.71
	c0.313-0.016,0.227,0.351,0.399,0.489c0.176,0.19,0.4,0.225,0.643,0.243c0.261,0.451,0.73,0.606,1.251,0.558
	c0.452,0.484,1.164,0.623,1.772,0.414c0.174,0.192,0.399,0.277,0.625,0.367c0.799,0.172,1.547-0.055,2.12-0.559l0.659-0.034
	c1.147,0.104,2.346-0.188,2.883-1.302c0.955-0.141,2.016-0.177,2.605-1.008c0.349,0.156,0.783,0.121,1.129,0.259
	c0.574,0.975,1.615,1.549,2.764,1.391c0.189,0.07,0.328,0.244,0.572,0.208c0.433,0.471,0.938,0.783,1.545,0.833
	c0.505,0.018,0.938-0.139,1.303-0.468c0.262,0.069,0.557,0.158,0.869,0.087c0.295-0.034,0.488-0.328,0.66-0.572
	c0.262,0.085,0.591,0.033,0.834-0.054c0.295-0.034,0.365-0.502,0.73-0.382c0.518,0.086,0.66-0.589,1.18-0.521
	c0.348-0.173,0.383-0.535,0.398-0.885c-0.068-0.278-0.398-0.312-0.623-0.435c-0.365-0.485-0.922-0.572-1.32-0.938
	c-0.801-0.156-1.023-1.076-1.633-1.563c-0.818-0.887-2.068-0.729-2.851-1.649l0.106-0.315c0.051-0.207-0.07-0.433-0.262-0.555
	c0.155-0.138,0.279-0.347,0.227-0.608c-0.088-0.171-0.227-0.347-0.418-0.382c0.729-1.719,1.285-3.527,1.754-5.331
	c0.713,0.035,1.615,0.382,2.173-0.278c0.92-2.589,1.493-5.332,2.049-8.075c0.156,0.016,0.399,0.226,0.503,0
	c0.521-1.791,0.244-3.909,0.68-5.734c-0.054-0.242-0.332-0.259-0.506-0.363c0.037-0.729,0.139-1.441,0.086-2.206
	c0.662-1.251,0.782-3.161-0.172-4.324c0.625-2.919,0.383-6.341-0.503-9.067c0.329-0.364,0.538-0.8,0.78-1.199
	c0.505-0.087,1.009-0.258,1.511-0.258l0.036,0.12c0.104,0.19,0.33,0.365,0.557,0.297c0.312-0.489,0.502,0.188,0.902,0.016
	c0.348-0.175,0.436-0.54,0.537-0.854c1.912-0.172,3.77-0.519,5.42-1.316c0.591-0.298,1.305-0.522,1.615-1.2
	c1.527-2.779,1.719-6.167,1.6-9.571l0.086-0.173c0.154-0.209,0.051-0.453-0.086-0.625l0.329-0.277
	c0.087-0.243-0.052-0.453-0.243-0.624c0.555-1.634,0.016-3.441-0.486-4.954c-0.365-0.694-1.215-0.659-1.53-1.405
	c-0.329-0.451-0.955-0.261-1.231-0.781c-1.477-0.382-2.607-1.824-3.631-2.988c-0.209-0.156-0.556-0.068-0.746,0.035v-0.07
	c0.764-4.821-0.365-9.388-3.873-12.704c-0.07-0.087,0.034-0.158,0.068-0.227c0.66-0.331,1.338-0.572,2.049-0.781
	c3.734-1.354,8.008,1.355,11.393-0.99c1.86-1.718,3.651-3.63,5.787-4.724c0.537-0.418,1.512-0.783,1.457-1.634
	C333.232,376.905,332.52,375.985,331.67,375.69 M315.414,405.649c0.027-1.257,0.371-2.418,0.705-3.542
	c0.132-0.446,0.262-0.9,0.377-1.363c0.354,0.52,0.816,1.004,1.27,1.478c0,0,0.143,0.152,0.287,0.306
	c-0.002-0.004-0.008-0.008-0.012-0.008c-0.216-0.142-0.577-0.379-0.984-0.104c-0.324,0.179-0.523,0.484-0.523,0.793
	c0,0.046,0.006,0.089,0.015,0.134c0.099,0.471,0.374,0.874,0.745,1.117c0.1,0.641,0.664,1.149,1.232,1.354
	c0.01,0.013,0.014,0.018,0.031,0.034c0.002,0.717,0.021,1.446,0.424,2.031c-0.094,0.079-0.178,0.182-0.221,0.308l-0.014,0.037v0.041
	c0,0.124,0.012,0.253,0.041,0.378c-0.143,0.146-0.217,0.345-0.217,0.581c0,0.081,0.01,0.166,0.027,0.254l0.008,0.039
	c0,0,0.072,0.121,0.119,0.198c-0.51,1.311-0.986,2.81-1.494,4.679c-0.795-0.103-1.692-0.123-2.528-0.054
	c-0.124-0.162-0.306-0.259-0.503-0.286c1.136-1.509,1.752-3.442,1.752-5.378C315.951,407.645,315.773,406.612,315.414,405.649"/>
<path fill="#221714" d="M277.934,373.054c-0.42,0.235-0.657,0.65-0.657,1.15v0.077c0.002,0.031,0.01,0.063,0.02,0.092
	c0.295,0.879,0.812,1.66,1.316,2.415c0.506,0.761,0.975,1.486,1.244,2.295c-1.119-0.053-2.11,0.184-3.066,0.411
	c-0.574,0.138-1.114,0.268-1.684,0.343c-2.546,0.389-4.292-1.302-6.139-3.091c-0.472-0.452-0.955-0.923-1.448-1.348
	c-0.692-0.853-1.721-1.219-3.149-1.106c-0.008,0.002-0.021,0.005-0.031,0.007l-0.301,0.048c-0.942,0.152-2.234,0.361-2.572,1.62
	c-0.207,0.969,0.601,1.401,1.135,1.688c0.197,0.107,0.38,0.205,0.503,0.31c0.02,0.015,0.044,0.032,0.067,0.041l7.068,3.511
	c0.016,0.009,1.856,0.806,1.856,0.806c0.019,0.008,0.037,0.016,0.055,0.019c1.603,0.393,3.058,0.033,4.464-0.316
	c1.031-0.256,2.098-0.519,3.201-0.473c1.797,0.353,3.45,1.045,4.997,1.753c-2.02,2.094-3.33,4.705-4.088,8.188
	c-0.189,0.886-0.272,1.763-0.272,2.627c0,2.923,0.957,5.737,2.045,8.387c0.752,1.803,1.122,3.587,1.122,5.426
	c0,0.333-0.011,0.667-0.036,1.003v0.026c0,0.014,0.002,0.029,0.002,0.045c0.02,0.146,0.029,0.296,0.029,0.453
	c0,0.382-0.049,0.792-0.101,1.22c-0.053,0.425-0.108,0.869-0.108,1.304c0,0.838,0.203,1.646,1.016,2.221
	c0.01,0.006,0.019,0.013,0.029,0.018c0.108,0.062,0.213,0.108,0.321,0.149c-0.542,0.463-0.956,1.079-1.281,1.563
	c-0.151,0.161-0.231,0.358-0.298,0.535c-0.114,0.304-0.14,0.304-0.215,0.3c-0.048-0.001-0.096,0.009-0.14,0.025
	c-0.301,0.124-0.578,0.423-0.578,0.779c0,0.018,0.003,0.034,0.004,0.053c-0.001,0.012-0.008,0.023-0.008,0.035
	c0,0.009,0.004,0.017,0.004,0.024c-0.161,0.127-0.334,0.33-0.36,0.565c0,0.014-0.001,0.023-0.001,0.037
	c0,0.008,0.001,0.015,0.001,0.024c0.017,0.246,0.1,0.456,0.228,0.622c-0.163,0.357-1.066,2.337-1.066,2.337
	c-0.008,0.017-0.013,0.032-0.017,0.047c-0.093,0.319-0.221,0.653-0.357,1.007c-0.297,0.776-0.62,1.615-0.62,2.456
	c0,0.556,0.141,1.114,0.52,1.655c1.852,2.563,3.673,4.585,5.572,6.185c-0.033,0.073-0.076,0.18-0.076,0.313
	c0,0.065,0.011,0.138,0.038,0.214c0.004,0.009,0.007,0.018,0.009,0.024c0.055,0.119,0.142,0.254,0.258,0.36
	c-0.01,0.049-0.018,0.092-0.022,0.133c-0.007,0.031-0.007,0.061-0.007,0.09c0,0.283,0.169,0.511,0.367,0.66v0.344
	c0,0.092,0.002,0.185,0.002,0.276c0,0.211-0.012,0.414-0.069,0.583c-0.013,0.033-0.019,0.064-0.019,0.098
	c0,0.008,0,0.018,0.002,0.03l0.076,0.764c0.041,0.337,0.079,0.66,0.079,0.993v0.108c-0.001,0.003-0.001,0.004-0.001,0.01
	c0,0.048,0.01,0.094,0.029,0.138c0.106,0.234,0.156,0.509,0.211,0.794c0.119,0.631,0.252,1.345,1.018,1.805
	c0.023,0.018,0.038,0.027,0.038,0.075c0,0.038-0.009,0.101-0.029,0.208c-0.019,0.104-0.041,0.222-0.041,0.349
	c0,0.09,0.011,0.182,0.041,0.277c-0.007-0.02-0.011-0.038-0.013-0.058c0.101,0.772,0.265,1.527,0.424,2.26
	c0.259,1.202,0.51,2.348,0.51,3.575c0,0.25-0.011,0.503-0.033,0.76c0,0.01-0.002,0.02-0.002,0.028c0,0.01,0.002,0.021,0.002,0.03
	c0.029,0.348,0.239,0.533,0.616,0.558c0.155,1.055,0.182,2.188,0.202,3.285c0.013,0.833,0.029,1.691,0.101,2.517
	c0.006,0.036,0.015,0.068,0.028,0.102l0.138,0.328c0.051,0.117,0.158,0.195,0.285,0.205c0,0,1.379,0.105,1.792,0.136
	c0.144,1.217,0.395,2.405,0.64,3.56c0,0,0.178,0.86,0.266,1.287c-0.018,0-0.07,0.01-0.07,0.01c-0.044,0.008-0.088,0.023-0.127,0.049
	c-0.288,0.185-0.455,0.477-0.455,0.785c0,0.039,0.003,0.079,0.008,0.121c-0.003-0.016-0.004-0.03-0.004-0.048
	c0,0.104,0.042,0.267,0.18,0.425c-0.077,0.14-0.118,0.303-0.118,0.479c0,0.055,0.003,0.109,0.01,0.166
	c0.001,0.014,0.005,0.026,0.008,0.04c0.034,0.131,0.105,0.248,0.198,0.343c-0.189,0.383-0.591,0.571-1.049,0.785
	c-0.254,0.118-0.519,0.239-0.751,0.402c-0.013,0.012-0.028,0.023-0.039,0.033c0,0-1.104,1.056-1.201,1.149
	c-0.114,0.039-0.764,0.271-0.764,0.271c-0.01,0.003-0.019,0.006-0.028,0.01c-0.211,0.099-0.376,0.256-0.521,0.395
	c-0.156,0.151-0.291,0.279-0.424,0.289c-0.096,0.008-0.185,0.054-0.242,0.134c-0.08,0.104-0.232,0.159-0.407,0.221
	c-0.279,0.097-0.661,0.231-0.81,0.675c-0.008,0.028-0.014,0.057-0.016,0.086c-0.003,0.045-0.004,0.091-0.004,0.14
	c0,0.274,0.062,0.596,0.369,0.851c0.044,0.038,0.1,0.057,0.157,0.067c0.004,0.016,0.012,0.034,0.012,0.034
	c0.034,0.104,0.089,0.26,0.225,0.378c0.22,0.225,0.488,0.291,0.689,0.314c0.298,0.391,0.748,0.596,1.31,0.576
	c0.479,0.432,1.148,0.598,1.795,0.445c0.192,0.151,0.401,0.233,0.591,0.309c0.017,0.007,0.038,0.014,0.055,0.018
	c0.835,0.179,1.645-0.023,2.307-0.556c0.14-0.007,0.526-0.028,0.547-0.028c1.422,0.117,2.53-0.364,3.088-1.327
	c0.092-0.013,0.186-0.026,0.186-0.026c0.808-0.105,1.71-0.232,2.322-0.906c0.145,0.038,0.289,0.065,0.434,0.085
	c0.137,0.021,0.262,0.045,0.375,0.076c0.654,1.016,1.744,1.556,2.903,1.443c0.035,0.019,0.073,0.04,0.073,0.04
	c0.104,0.061,0.247,0.143,0.436,0.158c0.496,0.498,1.049,0.785,1.65,0.838c0.538,0.018,1.004-0.137,1.404-0.439
	c0.244,0.062,0.529,0.118,0.848,0.054c0.35-0.048,0.581-0.303,0.756-0.534c0.336,0.036,0.657-0.057,0.801-0.105
	c-0.025,0.008-0.05,0.013-0.076,0.015c0.252-0.026,0.406-0.198,0.508-0.31c0.025-0.028,0.062-0.069,0.084-0.086
	c0.016,0.006,0.035,0.011,0.045,0.012c0.422,0.069,0.695-0.176,0.875-0.34c0.164-0.149,0.227-0.189,0.314-0.179
	c0.067,0.01,0.135-0.002,0.195-0.033c0.544-0.271,0.57-0.836,0.586-1.171v-0.017c0-0.027-0.003-0.055-0.008-0.082
	c-0.094-0.373-0.418-0.498-0.635-0.581c0,0-0.072-0.032-0.118-0.053c-0.245-0.288-0.539-0.452-0.804-0.595
	c-0.182-0.095-0.354-0.185-0.49-0.311c-0.045-0.044-0.1-0.07-0.162-0.084c-0.359-0.069-0.581-0.383-0.838-0.744
	c-0.184-0.257-0.373-0.524-0.637-0.737c-0.451-0.477-0.992-0.676-1.514-0.867c-0.438-0.16-0.845-0.318-1.17-0.628
	c0.018-0.05,0.035-0.11,0.035-0.11c0.006-0.006,0.007-0.018,0.01-0.026c0.014-0.06,0.021-0.119,0.021-0.18
	c0-0.172-0.063-0.337-0.164-0.483c0.082-0.144,0.129-0.299,0.129-0.463c0-0.06-0.008-0.121-0.018-0.185
	c-0.008-0.029-0.018-0.059-0.029-0.086c-0.084-0.163-0.182-0.291-0.297-0.387c0.58-1.402,1.086-2.948,1.58-4.809
	c0.105,0.012,0.217,0.027,0.217,0.027c0.631,0.087,1.416,0.197,1.965-0.455c0.025-0.031,0.047-0.065,0.059-0.104
	c0.859-2.412,1.416-4.956,1.988-7.763c0.316,0.049,0.475-0.117,0.555-0.284c0.006-0.014,0.012-0.03,0.016-0.045
	c0.285-0.986,0.342-2.061,0.395-3.1c0.044-0.896,0.092-1.821,0.289-2.652c0.006-0.024,0.01-0.052,0.01-0.078
	c0-0.024-0.004-0.048-0.008-0.071c-0.068-0.313-0.307-0.434-0.482-0.508c0.014-0.189,0.028-0.419,0.028-0.419
	c0.028-0.366,0.058-0.74,0.058-1.129c0-0.125-0.006-0.25-0.012-0.377c0.322-0.646,0.522-1.436,0.522-2.227
	c0-0.8-0.21-1.59-0.681-2.234c0.223-1.082,0.332-2.235,0.332-3.408c0-1.874-0.281-3.788-0.821-5.517
	c0.204-0.26,0.374-0.531,0.526-0.797c0,0,0.051-0.089,0.102-0.174c0.152-0.032,0.363-0.076,0.363-0.076
	c0.252-0.058,0.49-0.104,0.724-0.124c0.188,0.281,0.535,0.493,0.899,0.381c0.061-0.021,0.125-0.072,0.168-0.126
	c0.004,0,0.012,0.007,0.012,0.007c0.145,0.096,0.412,0.273,0.758,0.122c0.402-0.2,0.555-0.553,0.654-0.849
	c2.191-0.217,3.887-0.637,5.316-1.327c0.002-0.003,0.299-0.142,0.299-0.142c0.543-0.256,1.16-0.54,1.473-1.214
	c1.357-2.482,1.663-5.388,1.663-8.098c0-0.525-0.013-1.037-0.03-1.543c0.023-0.049,0.049-0.1,0.049-0.1
	c-0.008,0.018-0.019,0.035-0.029,0.051c0.096-0.13,0.143-0.277,0.143-0.433c0-0.103-0.023-0.211-0.066-0.316
	c0.051-0.045,0.113-0.099,0.113-0.099c0.045-0.038,0.08-0.087,0.102-0.144c0.027-0.078,0.045-0.165,0.045-0.263
	c0-0.169-0.064-0.365-0.237-0.573c0.135-0.466,0.206-0.938,0.206-1.414c0-1.186-0.357-2.391-0.742-3.547
	c-0.006-0.017-0.012-0.034-0.021-0.05c-0.221-0.421-0.571-0.622-0.881-0.802c-0.287-0.165-0.518-0.296-0.636-0.58
	c-0.011-0.024-0.022-0.046-0.038-0.068c-0.221-0.301-0.525-0.397-0.768-0.476c-0.236-0.073-0.362-0.117-0.441-0.267
	c-0.044-0.081-0.121-0.143-0.212-0.166c-1.231-0.319-2.255-1.497-3.157-2.535l-0.305-0.35c-0.016-0.017-0.033-0.033-0.051-0.047
	c-0.172-0.128-0.371-0.155-0.564-0.144c0.109-0.813,0.178-1.615,0.178-2.396c0-3.915-1.383-7.371-3.996-9.957
	c0.518-0.243,1.086-0.455,1.773-0.655c0.008,0,0.014-0.002,0.021-0.006c1.594-0.578,3.35-0.374,5.047-0.178
	c2.185,0.254,4.445,0.518,6.422-0.854c0.014-0.01,0.025-0.017,0.037-0.028l1.023-0.964c1.467-1.395,2.986-2.836,4.688-3.709
	c0.011-0.005,0.041-0.025,0.053-0.033l0.387-0.262c0.53-0.339,1.254-0.8,1.203-1.658c-0.004-0.03-0.008-0.058-0.018-0.087
	c-0.281-0.845-1.045-1.913-2.051-2.262c-0.014-0.005-0.025-0.008-0.037-0.011c-1.199-0.267-2.379,0.26-3.41,1.521
	c-0.012,0.016-0.021,0.03-0.031,0.047l-0.541,0.967c-0.844,1.535-1.643,2.987-3.003,4.195c-1.164,1.015-3.276,0.971-4.528,0.292
	c-0.342-0.235-0.492-0.587-0.492-1.188c0-0.071,0.002-0.145,0.006-0.225c0.002-0.006,0.002-0.011,0.002-0.018
	c0-0.003-0.002-0.045-0.002-0.062c0-0.463,0.16-0.908,0.33-1.379c0.177-0.486,0.355-0.984,0.355-1.513
	c0-0.29-0.055-0.59-0.195-0.903c-0.172-0.346-0.486-0.611-0.94-0.798c-0.013-0.005-0.022-0.011-0.036-0.014
	c-1.121-0.323-1.938-0.216-2.436,0.315c-0.461,0.354-0.604,0.81-0.604,1.268c0,0.429,0.126,0.861,0.224,1.208
	c0,0,0.039,0.131,0.047,0.16c0.006,0.042,0.051,0.334,0.051,0.334c0.072,0.464,0.15,0.962,0.15,1.428
	c0,0.39-0.059,0.757-0.215,1.063c-0.738,0.647-1.646,0.892-2.605,1.146c0,0-0.488,0.132-0.526,0.14
	c-0.051,0.009-0.43,0.068-0.43,0.068c-0.675,0.115-1.362,0.228-1.806-0.152c-0.18-0.418-0.24-0.867-0.24-1.335
	c0-0.376,0.035-0.765,0.074-1.162c0.035-0.409,0.074-0.823,0.074-1.241c0-0.314-0.021-0.632-0.082-0.946
	c-0.01-0.036-0.021-0.07-0.039-0.104c-0.391-0.677-1.088-1.149-1.82-1.226c-0.867-0.145-1.701,0.145-2.27,0.788
	c-0.04,0.045-0.068,0.101-0.08,0.16c-0.045,0.24-0.063,0.475-0.063,0.705c0,0.645,0.152,1.255,0.302,1.852
	c0.058,0.233,0.11,0.459,0.159,0.685c-2.217-1.182-4.393-1.935-6.631-2.277c-1.83-0.311-4.022-0.232-6.508,0.213
	c0.015-0.15,0.024-0.301,0.024-0.45c0-0.99-0.311-1.914-0.611-2.813l-0.243-0.746c-0.002-0.008-0.007-0.022-0.009-0.029
	l-0.069-0.166c-0.248-0.603-0.504-1.225-0.99-1.729c-0.033-0.034-0.075-0.062-0.12-0.078c-0.638-0.254-1.442-0.128-2.045,0.32
	c-0.007,0.007-0.013,0.011-0.019,0.016c-0.306,0.264-0.836,0.721-0.836,1.323c0,0.107,0.019,0.224,0.057,0.341
	c0.014,0.034,0.029,0.065,0.051,0.096l0.164,0.223c0.658,0.888,1.336,1.804,1.721,2.789c0.062,0.168,0.088,0.339,0.088,0.507
	c0,0.403-0.149,0.806-0.307,1.201c-1.139,0.368-2.441,0.833-3.699,1.499c-0.92-0.365-1.817-0.841-2.68-1.304l-0.154-0.084
	c-0.006-0.003-0.014-0.006-0.02-0.009c-1.87-0.836-2.417-2.578-2.994-4.423c-0.275-0.877-0.561-1.785-1-2.588
	c-0.025-0.045-0.062-0.086-0.103-0.116C279.619,372.76,278.623,372.618,277.934,373.054 M278.267,373.641
	c0.007-0.004,0.012-0.007,0.019-0.012c0.411-0.264,1.06-0.188,1.454,0.044c0.381,0.724,0.639,1.532,0.907,2.388
	c0.599,1.906,1.215,3.876,3.363,4.835c-0.008-0.002-0.014-0.006-0.022-0.009l0.154,0.081c0.925,0.498,1.882,1.009,2.889,1.395
	c0.092,0.035,0.196,0.029,0.283-0.017c1.308-0.71,2.698-1.195,3.885-1.575c0.095-0.031,0.171-0.103,0.209-0.195l0.011-0.021
	c0.185-0.461,0.403-1,0.403-1.58c0-0.24-0.037-0.492-0.132-0.746c-0.42-1.074-1.125-2.028-1.809-2.95c0,0-0.075-0.101-0.122-0.165
	c-0.005-0.028-0.013-0.059-0.013-0.087c0-0.243,0.229-0.495,0.586-0.806c0.391-0.286,0.906-0.381,1.315-0.25
	c0.364,0.404,0.582,0.914,0.804,1.456c0,0,0.056,0.135,0.064,0.155c0.011,0.035,0.241,0.743,0.241,0.743
	c0.283,0.847,0.574,1.715,0.574,2.605c0,0.26-0.025,0.524-0.082,0.787c-0.005,0.023-0.008,0.048-0.008,0.072
	c0,0.087,0.035,0.173,0.098,0.237c0.08,0.078,0.195,0.114,0.305,0.094c2.605-0.513,4.871-0.611,6.741-0.294
	c2.298,0.353,4.522,1.141,6.806,2.412c0.029,0.016,0.063,0.028,0.096,0.036c0.273,0.055,0.439-0.079,0.531-0.2
	c0.043-0.06,0.064-0.131,0.064-0.202c0-0.014,0-0.03-0.002-0.042c-0.055-0.426-0.16-0.841-0.26-1.243
	c-0.145-0.573-0.281-1.125-0.281-1.686c0-0.159,0.018-0.32,0.042-0.481c0.411-0.418,0.987-0.604,1.604-0.505
	c0.523,0.056,1.006,0.385,1.293,0.854c0.043,0.248,0.064,0.498,0.064,0.754c0,0.383-0.037,0.773-0.074,1.177
	c-0.039,0.406-0.076,0.815-0.076,1.224c0,0.572,0.074,1.143,0.33,1.689c0.016,0.037,0.041,0.071,0.068,0.1
	c0.684,0.665,1.655,0.5,2.436,0.369l0.432-0.068c0.013-0.002,0.035-0.007,0.049-0.01l0.535-0.145
	c1.018-0.269,2.068-0.548,2.936-1.338c0.027-0.023,0.051-0.054,0.068-0.087c0.484-0.882,0.307-2.039,0.162-2.968l-0.055-0.352
	c-0.002-0.015-0.004-0.028-0.008-0.043l-0.053-0.186c-0.23-0.797-0.354-1.387,0.154-1.762c0.019-0.015,0.035-0.031,0.052-0.049
	c0.304-0.344,0.894-0.392,1.753-0.148c0.291,0.126,0.484,0.276,0.574,0.458c0.091,0.206,0.129,0.409,0.129,0.613
	c0,0.411-0.148,0.826-0.314,1.285c-0.184,0.505-0.371,1.027-0.371,1.606v0.061c-0.004,0.082-0.006,0.166-0.006,0.251
	c0,0.61,0.131,1.297,0.799,1.75c0.008,0.005,0.016,0.01,0.027,0.015c1.443,0.794,3.889,0.877,5.316-0.368
	c1.449-1.289,2.314-2.858,3.15-4.378c0,0,0.49-0.878,0.519-0.93c0.862-1.047,1.771-1.473,2.704-1.274
	c0.734,0.266,1.35,1.089,1.597,1.79c-0.003,0.401-0.356,0.66-0.892,1c0,0-0.346,0.235-0.404,0.275
	c-1.779,0.917-3.328,2.387-4.825,3.809c0,0-0.954,0.902-0.995,0.938c-1.764,1.213-3.795,0.976-5.943,0.727
	c-1.775-0.205-3.613-0.419-5.357,0.214c0.008-0.003,0.016-0.004,0.021-0.007c-0.824,0.239-1.494,0.496-2.105,0.804
	c-0.061,0.03-0.12,0.095-0.152,0.152l0.01-0.016l-0.012,0.016c-0.211,0.273-0.109,0.484-0.029,0.586
	c0.01,0.014,0.021,0.023,0.031,0.034c3.264,3.087,4.57,7.379,3.773,12.407c-0.004,0.019-0.005,0.035-0.005,0.053v0.07
	c0,0.118,0.063,0.229,0.165,0.288c0.104,0.063,0.23,0.064,0.334,0.009c0.137-0.073,0.313-0.095,0.371-0.064
	c0.059,0.067,0.262,0.302,0.262,0.302c0.939,1.081,2.004,2.295,3.379,2.704c0.215,0.287,0.51,0.395,0.738,0.467
	c0.209,0.065,0.34,0.11,0.426,0.229c-0.016-0.022-0.027-0.044-0.038-0.067c0.207,0.492,0.587,0.71,0.923,0.902
	c0.256,0.148,0.479,0.28,0.607,0.516c0.361,1.088,0.695,2.217,0.695,3.301c0,0.476-0.064,0.946-0.219,1.396
	c-0.012,0.037-0.02,0.071-0.02,0.111c0,0.092,0.041,0.185,0.111,0.248c0.107,0.096,0.145,0.16,0.154,0.2
	c-0.098,0.083-0.23,0.195-0.23,0.195c-0.08,0.066-0.121,0.163-0.121,0.259c0,0.073,0.025,0.148,0.074,0.21
	c0.004,0.006,0.09,0.115,0.09,0.183c0,0.01-0.004,0.021-0.01,0.031c-0.012,0.016-0.022,0.032-0.031,0.05l-0.088,0.174
	c-0.022,0.046-0.035,0.098-0.035,0.15v0.014c0.018,0.523,0.031,1.061,0.031,1.606c0,2.625-0.291,5.43-1.586,7.788
	c-0.004,0.007-0.008,0.015-0.012,0.021c-0.209,0.452-0.665,0.665-1.146,0.89l-0.314,0.149c-1.395,0.675-3.08,1.083-5.298,1.283
	c-0.136,0.014-0.249,0.104-0.29,0.232l-0.029,0.091c-0.091,0.284-0.162,0.465-0.324,0.555c-0.027-0.008-0.08-0.042-0.113-0.063
	c-0.118-0.078-0.297-0.196-0.523-0.147c-0.103,0.02-0.189,0.083-0.275,0.162c-0.032-0.015-0.068-0.048-0.101-0.098
	c-0.011-0.034-0.021-0.071-0.021-0.071c-0.043-0.143-0.176-0.242-0.325-0.242c-0.374,0-0.733,0.083-1.082,0.161l-0.485,0.104
	c-0.094,0.02-0.184,0.076-0.232,0.157l-0.182,0.311c-0.174,0.304-0.339,0.59-0.562,0.837c-0.058,0.063-0.087,0.146-0.087,0.226
	c0,0.036,0.005,0.072,0.017,0.106c0.554,1.708,0.839,3.616,0.839,5.479c0,1.177-0.113,2.334-0.346,3.412
	c-0.004,0.022-0.007,0.045-0.007,0.071c0,0.076,0.028,0.153,0.077,0.215c0.437,0.53,0.617,1.235,0.617,1.944
	c0,0.722-0.186,1.445-0.481,2.006c-0.026,0.05-0.04,0.105-0.04,0.159c0,0.007,0.002,0.014,0.004,0.022
	c0.008,0.144,0.014,0.283,0.014,0.422c0,0.357-0.029,0.709-0.058,1.072l-0.046,0.673c0,0.012-0.001,0.025-0.001,0.036
	c0,0.121,0.049,0.216,0.165,0.271l0.222,0.102c0.032,0.012,0.069,0.028,0.099,0.042c-0.182,0.849-0.232,1.751-0.277,2.625
	c-0.048,0.934-0.102,1.895-0.323,2.756c-0.069-0.021-0.188-0.054-0.188-0.054c-0.09-0.024-0.158-0.009-0.238,0.041
	c-0.082,0.048-0.107,0.135-0.126,0.229c-0.589,2.899-1.147,5.503-2.017,7.961c-0.285,0.298-0.691,0.268-1.314,0.181l-0.545-0.06
	c-0.166-0.017-0.301,0.091-0.342,0.253c-0.543,2.087-1.096,3.766-1.738,5.285c-0.02,0.043-0.027,0.086-0.027,0.131
	c0,0.056,0.012,0.111,0.041,0.161c0.047,0.09,0.135,0.154,0.236,0.172c0.035,0.006,0.096,0.066,0.152,0.164v0.004
	c0,0.083-0.043,0.164-0.125,0.238c-0.07,0.063-0.113,0.155-0.113,0.251c0,0.009,0.001,0.018,0.001,0.026
	c0.009,0.105,0.065,0.201,0.155,0.259c0.074,0.048,0.117,0.124,0.117,0.173c0,0.004-0.002,0.008-0.002,0.011
	c-0.013,0.038-0.098,0.294-0.098,0.294c-0.012,0.033-0.02,0.071-0.02,0.107c0,0.079,0.029,0.157,0.082,0.219
	c0.457,0.536,1.029,0.746,1.582,0.947c0.48,0.175,0.932,0.338,1.277,0.714c0.01,0.01,0.023,0.025,0.035,0.032
	c0.197,0.159,0.354,0.379,0.52,0.615c0.283,0.399,0.605,0.846,1.174,0.995c0.18,0.144,0.367,0.251,0.551,0.352
	c0.261,0.138,0.482,0.256,0.65,0.479c0.035,0.048,0.059,0.07,0.111,0.094l0.237,0.104c0.067,0.026,0.167,0.064,0.2,0.098
	c-0.016,0.274-0.062,0.408-0.156,0.481c-0.328,0.013-0.555,0.213-0.711,0.353c-0.163,0.149-0.223,0.188-0.311,0.175
	c0.02,0.001,0.033,0.007,0.051,0.013c-0.418-0.14-0.67,0.141-0.791,0.274c-0.031,0.036-0.08,0.085-0.098,0.098
	c-0.01,0.002-0.053,0.01-0.061,0.013c-0.223,0.08-0.465,0.098-0.613,0.048c-0.139-0.044-0.297,0.006-0.383,0.125l-0.032,0.047
	c-0.124,0.173-0.264,0.373-0.394,0.389c-0.01,0-0.021,0.002-0.032,0.007c-0.218,0.046-0.444-0.016-0.667-0.074l-0.043-0.011
	c-0.109-0.029-0.227-0.001-0.311,0.076c-0.302,0.271-0.65,0.395-1.064,0.382c-0.463-0.04-0.896-0.28-1.311-0.726
	c-0.076-0.081-0.186-0.12-0.295-0.104c-0.039,0.006-0.07-0.011-0.173-0.072l-0.237-0.121c-0.061-0.029-0.094-0.024-0.162-0.017
	c-0.971,0.133-1.9-0.336-2.424-1.228c-0.039-0.063-0.098-0.114-0.168-0.142c-0.203-0.079-0.41-0.11-0.613-0.14
	c-0.186-0.026-0.363-0.053-0.502-0.114c-0.146-0.066-0.32-0.021-0.413,0.113c-0.435,0.611-1.206,0.714-2.024,0.82l-0.355,0.048
	c-0.112,0.017-0.207,0.085-0.255,0.187c-0.543,1.122-1.831,1.18-2.549,1.113h-0.048l-0.66,0.034
	c-0.077,0.004-0.149,0.034-0.205,0.084c-0.509,0.447-1.151,0.617-1.805,0.481c-0.188-0.071-0.353-0.14-0.466-0.264
	c-0.092-0.103-0.231-0.137-0.36-0.094c-0.504,0.173-1.072,0.041-1.414-0.328c-0.075-0.075-0.178-0.116-0.283-0.104
	c-0.438,0.042-0.749-0.088-0.922-0.389c-0.057-0.097-0.158-0.16-0.27-0.169c-0.239-0.016-0.34-0.047-0.416-0.134
	c-0.002,0-0.012-0.011-0.022-0.019c-0.001-0.006-0.029-0.084-0.029-0.084c-0.041-0.121-0.132-0.413-0.441-0.48
	c-0.043-0.058-0.067-0.133-0.067-0.271v-0.035c0.047-0.099,0.147-0.146,0.377-0.226c0.198-0.068,0.436-0.16,0.627-0.35
	c0.293-0.075,0.512-0.274,0.69-0.442c0.116-0.111,0.224-0.216,0.33-0.265c0.045-0.016,0.812-0.288,0.812-0.288
	c0.045-0.015,0.084-0.04,0.12-0.073c0,0,1.179-1.127,1.226-1.174c0.182-0.126,0.401-0.229,0.633-0.337
	c0.607-0.281,1.292-0.599,1.503-1.45c0.005-0.026,0.009-0.053,0.009-0.079c0-0.14-0.086-0.268-0.221-0.319
	c-0.024-0.008-0.051-0.022-0.064-0.052c-0.001-0.016-0.003-0.032-0.003-0.047c0-0.16,0.08-0.207,0.116-0.228
	c0.106-0.06,0.172-0.173,0.172-0.293c0-0.006,0-0.011-0.002-0.018c-0.006-0.126-0.084-0.241-0.2-0.292
	c-0.097-0.044-0.137-0.081-0.148-0.093v-0.026c-0.002-0.01-0.003-0.019-0.003-0.026c0-0.079,0.054-0.143,0.099-0.182
	c0.104-0.016,0.335-0.055,0.335-0.055c0.089-0.017,0.172-0.064,0.223-0.142c0.04-0.055,0.061-0.121,0.061-0.188
	c0-0.022-0.002-0.044-0.006-0.065l-0.34-1.641c-0.262-1.223-0.534-2.49-0.665-3.77c-0.016-0.163-0.147-0.289-0.311-0.301
	c0,0-1.526-0.115-1.86-0.143c-0.017-0.04-0.026-0.06-0.035-0.084c-0.067-0.786-0.086-1.615-0.1-2.42
	c-0.021-1.188-0.045-2.412-0.233-3.567c-0.004-0.042-0.02-0.079-0.04-0.117c-0.146-0.246-0.413-0.255-0.543-0.26
	c0.019-0.232,0.031-0.468,0.031-0.694c0-1.313-0.265-2.538-0.523-3.73c-0.156-0.716-0.319-1.459-0.414-2.205
	c-0.005-0.019-0.008-0.038-0.014-0.058c-0.008-0.021-0.01-0.048-0.01-0.073c0-0.063,0.014-0.142,0.03-0.222
	c0.016-0.091,0.039-0.207,0.039-0.329c0-0.219-0.069-0.461-0.35-0.65c-0.521-0.313-0.612-0.796-0.717-1.359
	c-0.053-0.284-0.115-0.573-0.226-0.855v-0.065c0-0.379-0.045-0.735-0.086-1.08c0,0-0.062-0.628-0.069-0.688
	c0.063-0.226,0.086-0.462,0.086-0.698c0-0.101-0.003-0.2-0.006-0.298l0.003-0.484c0-0.131-0.071-0.272-0.186-0.328
	c-0.102-0.05-0.182-0.14-0.182-0.171c0-0.004,0.002-0.004,0.002-0.004l0.019-0.096c0.067-0.063,0.101-0.152,0.101-0.243
	c0-0.035-0.005-0.071-0.012-0.104c-0.036-0.123-0.145-0.223-0.27-0.248l0.012,0.002c-0.024-0.008-0.08-0.067-0.121-0.143
	c0.008-0.02,0.021-0.053,0.021-0.053c0.029-0.066,0.076-0.176,0.076-0.304c0-0.088-0.023-0.188-0.087-0.285
	c-0.016-0.031-0.04-0.057-0.067-0.079c-1.895-1.577-3.718-3.593-5.57-6.157c-0.283-0.406-0.391-0.831-0.391-1.271
	c0-0.72,0.288-1.471,0.57-2.207c0.135-0.355,0.264-0.692,0.365-1.028c0.014-0.031,1.157-2.538,1.157-2.538
	c0.02-0.043,0.029-0.093,0.029-0.14c0-0.113-0.056-0.224-0.156-0.288c-0.064-0.041-0.107-0.138-0.127-0.259
	c0.021-0.034,0.066-0.08,0.116-0.111c0.135-0.037,0.209-0.118,0.247-0.185c0.033-0.063,0.046-0.123,0.046-0.179
	c0-0.091-0.032-0.162-0.055-0.209v-0.003c0-0.019,0-0.034-0.004-0.054v-0.001c0-0.025,0.05-0.093,0.135-0.137
	c0.489-0.045,0.656-0.467,0.753-0.729c0.051-0.13,0.1-0.262,0.166-0.322c0.022-0.019,0.041-0.041,0.057-0.064
	c0.404-0.606,0.909-1.361,1.582-1.732c0.11-0.06,0.19-0.167,0.19-0.292c0-0.005-0.001-0.01-0.001-0.015
	c-0.006-0.13-0.072-0.237-0.192-0.289l-0.431-0.184c-0.142-0.052-0.277-0.103-0.398-0.169c-0.563-0.408-0.719-0.973-0.719-1.639
	c0-0.386,0.052-0.803,0.107-1.239c0.051-0.433,0.104-0.875,0.104-1.305c0-0.168-0.01-0.332-0.029-0.496
	c0.023-0.345,0.038-0.689,0.038-1.032c0-1.928-0.388-3.796-1.175-5.683c-1.06-2.581-1.994-5.314-1.994-8.13
	c0-0.821,0.08-1.648,0.258-2.481c0.769-3.539,2.115-6.145,4.229-8.2c0.068-0.063,0.103-0.151,0.103-0.243
	c0-0.016-0.001-0.035-0.004-0.056c-0.019-0.109-0.09-0.202-0.191-0.25c-1.635-0.76-3.553-1.606-5.602-2.004
	c-0.018-0.004-0.033-0.006-0.049-0.006c-1.213-0.057-2.335,0.222-3.42,0.49c-1.382,0.344-2.688,0.665-4.121,0.321
	c-0.064-0.029-1.805-0.785-1.805-0.785c0.013,0.007-6.747-3.349-7.041-3.493c-0.168-0.132-0.366-0.242-0.564-0.348
	c-0.545-0.295-0.815-0.477-0.815-0.794c0-0.044,0.006-0.091,0.018-0.143c0.204-0.761,0.967-0.94,2.024-1.11
	c0,0,0.248-0.042,0.287-0.049c1.214-0.092,2.033,0.188,2.582,0.882c0.011,0.016,0.027,0.03,0.044,0.046
	c0.485,0.418,0.968,0.889,1.434,1.338c1.887,1.825,3.834,3.714,6.705,3.274c0.598-0.078,1.182-0.218,1.746-0.355
	c0.994-0.239,1.934-0.465,3.008-0.39c0.046,0.003,0.092-0.003,0.133-0.018c0.333-0.112,0.451-0.308,0.493-0.451
	c0.011-0.031,0.015-0.063,0.015-0.096c0-0.03-0.004-0.06-0.013-0.091c-0.278-0.996-0.852-1.857-1.407-2.692
	c-0.49-0.739-0.953-1.438-1.223-2.214C277.956,374.011,278.015,373.778,278.267,373.641 M284.257,408.914
	c0.001,0.016,0.003,0.031,0.003,0.048C284.258,408.947,284.258,408.93,284.257,408.914 M282.93,417.662v0.002
	c0,0.034-0.006,0.073-0.026,0.116C282.922,417.746,282.927,417.704,282.93,417.662 M287.472,437.621v0.008V437.621z
	 M289.628,447.821c0,0.002,0.001,0.002,0.001,0.002v0.016c0,0.006-0.001,0.004-0.004,0.024
	C289.628,447.85,289.625,447.836,289.628,447.821 M312.223,437.995c0.002,0.007,0.002,0.017,0.002,0.024
	C312.225,438.012,312.225,438.002,312.223,437.995 M311.513,465.756c0.019,0.016,0.034,0.034,0.056,0.062
	C311.551,465.792,311.529,465.776,311.513,465.756 M303.873,468.542c-0.035,0.005-0.059,0.008-0.082,0.008
	C303.818,468.544,303.844,468.546,303.873,468.542 M280.002,379.088c-0.008-0.002-0.014,0-0.023-0.002
	C279.985,379.086,279.994,379.086,280.002,379.088 M277.922,373.06c0.004-0.001,0.008-0.005,0.012-0.006
	c0.003-0.002,0.004-0.003,0.006-0.005C277.934,373.052,277.926,373.059,277.922,373.06 M316.791,376.63
	c0.01-0.01,0.021-0.018,0.031-0.029c0.008-0.006,0.012-0.012,0.021-0.019C316.824,376.597,316.806,376.612,316.791,376.63
	 M322.873,420.381c-0.004,0.005-0.006,0.011-0.008,0.015c0.004-0.008,0.008-0.014,0.012-0.021
	C322.874,420.377,322.873,420.377,322.873,420.381 M308.566,463.267c0.008,0.01,0.018,0.013,0.025,0.023
	c-0.012-0.014-0.023-0.026-0.038-0.035C308.559,463.256,308.563,463.261,308.566,463.267 M287.168,468.142
	c-0.006-0.004-0.007-0.01-0.011-0.014c-0.01-0.008-0.019-0.014-0.03-0.022C287.141,468.117,287.152,468.13,287.168,468.142
	 M308.17,469.201c-0.007,0-0.009,0.001-0.012,0.001c0.012-0.001,0.021-0.001,0.033-0.004
	C308.184,469.201,308.178,469.198,308.17,469.201"/>
<path fill="#F0BF8D" d="M283.107,401.943l-0.35-1.182c-0.338-2.157-0.168-3.694,0.52-4.71c0.449-0.517,1.137-0.739,1.842-0.599
	c1.217,0.268,2.134,1.523,2.381,2.569c0.271,2.111-0.127,3.555-1.228,4.41c-0.282,0.199-0.715,0.122-1.061,0.064l-0.194-0.033
	c-0.014,0.007-0.058,0.113-0.058,0.113l0.044,0.108c0.001,0.004,0.604,0.161,0.606,0.161c-0.004,0-0.004,0.383-0.004,0.383
	c-0.008,0.079-0.013,0.157-0.013,0.234c0,0.195,0.041,0.382,0.23,0.527c-0.003-0.003,0.213,0.233,0.213,0.233
	c0.299,0.325,0.607,0.659,0.717,1.075c0.014,0.144-0.121,0.212-0.251,0.275c-0.323-0.014-0.519-0.275-0.691-0.505l-0.103-0.133
	c-0.46-0.732-0.803-1.54-1.073-2.546c0.002,0,0.161-0.754,0.161-0.754c0.237-1.091,0.481-2.213,0.481-3.408
	c0-0.175-0.006-0.347-0.017-0.526c0.553,0.25,0.735,0.869,0.868,1.482c0.133,0.844,0.015,1.456-0.36,1.877
	c-0.004,0.003-0.214,0.16-0.214,0.16c-0.137,0.061-0.28,0.127-0.188,0.348c0.108,0.136,0.225,0.063,0.327,0.001l0.127-0.063
	c1.05-0.779,0.673-2.447,0.534-2.938c-0.125-0.356-0.507-1.436-1.371-1.455c-0.611-0.048-1.211,0.316-1.528,0.93
	c-0.747,1.647-0.214,3.273,0.301,4.845l0.514,1.768c0.664,2.03,0.71,4.362,0.658,6.579c0.047,0.434,0.221,0.716,0.516,0.833
	c0.307,0.102,0.659,0.053,1.074-0.158c0.692-0.453,0.619-1.339,0.514-1.825c-0.018,0.009-0.02,0.026-0.031,0.039l-0.041,0.047
	c-0.12,0.119-0.164,0.285-0.186,0.472c-0.033,0.263-0.064,0.532-0.275,0.717c-0.19,0.209-0.444,0.31-0.735,0.29
	c-0.168-0.028-0.325-0.183-0.401-0.385l-0.089-1.895c-0.016-0.923-0.033-1.875-0.24-2.759l-0.709-2.598
	c-0.436-1.388-0.887-2.818-0.887-4.381c0-0.166,0.005-0.333,0.016-0.504c0.079-0.368,0.342-1.247,1.082-1.423l0.191-0.025
	c0.139-0.024,0.27-0.05,0.346,0.036c0.115,1.637-0.33,3.161-0.756,4.631c0.309,1.319,0.756,2.74,1.994,3.569
	c0.211,0.083,0.418,0.017,0.629-0.194c0.176-0.154,0.234-0.439,0.144-0.677c-0.206-0.488-0.614-0.899-1.005-1.298l-0.215-0.223
	c0.108-0.37,0.305-0.899,0.808-1.044c1.155-1.168,1.563-3.051,1.072-4.92c-0.421-1.114-1.398-2.366-2.636-2.649
	c-0.742-0.138-1.458,0.074-2.016,0.596c-0.535,0.575-0.654,0.949-0.764,1.311c-0.113,0.359-0.193,0.789-0.196,1.481
	c0,0.257,0.014,0.52,0.039,0.779l-0.081-0.244c-0.308-1.245-0.588-2.844-0.588-4.534c0-1.054,0.11-2.146,0.389-3.213
	c0.612-2.288,1.623-5.192,4.004-7.438c0.153,0.064,0.702,0.289,0.971,0.402c-0.07,0.118-0.1,0.232-0.1,0.332
	c0,0.087,0.02,0.164,0.043,0.228l0.006,0.01l0.004,0.01c0.488,0.945,1.52,1.487,2.836,1.487c0.832-0.048,1.861-0.215,2.541-1.118
	c0.204-0.314,0.478-0.745,0.478-1.185c0-0.156-0.033-0.313-0.117-0.466l-0.01-0.024c0,0-0.13-0.129-0.212-0.212
	c0.343-0.915,0.75-1.812,1.212-2.663c7.223-1.856,14.484,0.922,19.936,7.633c1.98,2.33,2.861,5.411,2.617,9.158
	c-0.047,1.564-0.401,3.041-0.745,4.466c-0.31,1.287-0.632,2.62-0.731,4.026l-0.004,0.037l0.014,0.036
	c1.057,2.964,0.287,6.392-1.918,8.526c-1.364,1.166-3.053,2.393-5.188,2.573l-0.047,0.005l-0.039,0.026
	c-2.028,1.379-5.158,0.988-6.842,0.632c-3.505-0.378-6.794-1.381-9.79-2.982c-0.021-0.016-0.232-0.167-0.232-0.167
	c-0.959-0.681-2.047-1.455-2.621-2.508l-0.05-0.092l-0.103-0.003c-0.412-0.018-0.482,0.318-0.519,0.501
	c-0.019,0.096-0.039,0.194-0.086,0.233l-0.017,0.012l-0.012,0.014c-0.46,0.563-1.016,0.843-1.651,0.839
	c-0.521-0.133-1.012-0.628-1.101-1.111c0.028-1.053,0.054-2.122,0.054-3.192c0-0.979-0.023-1.961-0.089-2.927
	c-0.133-0.906-0.428-1.74-0.713-2.547c-0.183-0.514-0.372-1.043-0.513-1.578L283.107,401.943z"/>
<path fill="#C06221" d="M279.84,373.883c0.643,1.303,1.129,2.676,1.581,4.064c-0.104,0.105-0.452-0.068-0.417,0.228
	c0.156,0.172,0.468-0.088,0.539,0.12c0.416,2.085,2.727,2.605,4.238,3.492c-0.017,0.226-0.209,0.451-0.261,0.675
	c0.052,0.037,0.07,0.142,0.158,0.105l0.363-0.643c1.18,0.435,2.362,1.043,3.735,0.888c0.468-0.263,1.058-0.679,1.251-1.232
	c0.12-0.106,0.416,0.033,0.381-0.192c-0.052-0.106-0.157-0.106-0.242-0.106l0.606-1.839c0.174-0.069,0.505,0.067,0.505-0.209
	c-0.123-0.138-0.312-0.019-0.47-0.036c0.019-0.902-0.434-1.614-0.85-2.327l0.591-0.554c0.016-0.071-0.019-0.105-0.071-0.159
	c-0.242,0.088-0.434,0.28-0.643,0.454c-0.328-0.434-0.693-0.869-0.955-1.39c-0.017-0.521,0.592-0.902,1.008-1.095
	c0.242-0.052,0.469-0.052,0.713,0c0.781,0.973,1.146,2.137,1.528,3.283c-0.261,0.067-0.556-0.123-0.731,0.067
	c0.105,0.279,0.504,0.157,0.763,0.192c0.54,1.027,0.018,2.187-0.33,3.145c-0.224,0.068-0.535-0.382-0.64,0
	c0.138,0.153,0.329,0.153,0.504,0.243c-0.139,0.556-0.434,1.093-0.696,1.613c-0.209-0.017-0.45-0.224-0.659-0.067
	c0.052,0.262,0.382,0.191,0.555,0.295l-0.728,1.216c0.051,0.191,0.225-0.157,0.277,0.086c0.016,0.297-0.244,0.504-0.467,0.661
	c-0.194,0.191-0.573,0.086-0.663,0.347c0.504,0.019,1.043-0.207,1.302-0.679c0.174-0.259,0.227-0.606,0.227-0.903
	c0.052-0.137,0.174-0.017,0.262-0.017c0.156,0.435-0.139,0.853-0.332,1.218c-0.555,0.71-1.389,0.868-2.274,0.832
	c-0.765-0.104-1.564-0.33-2.031-1.042c-0.037-0.155-0.123-0.364,0-0.503c-0.019,0.332,0.311,0.573,0.572,0.729
	c0.016,0,0.052,0,0.07-0.016c-0.105-0.14-0.366-0.277-0.312-0.506c0.086,0,0.312,0.141,0.363-0.068
	c-0.105-0.313-0.453-0.381-0.693-0.521c-0.019-0.155,0.276-0.381,0.068-0.54c-0.244,0-0.172,0.523-0.452,0.348
	c-1.319-0.642-2.691-1.181-4.048-1.738c-0.034-0.259,0.471-0.605,0.071-0.728l-0.33,0.641c-1.495-0.484-3.125-1.144-4.846-0.657
	c-0.07-0.175,0.068-0.503-0.209-0.521c-0.121,0.155-0.069,0.397-0.051,0.571c-1.668,0.332-3.406,0.973-5.213,0.591
	c-0.676-0.206-1.337-0.451-1.98-0.746l0.279-0.694l-0.121-0.086c-0.209,0.138-0.244,0.433-0.366,0.659
	c-2.031-0.852-4.046-1.896-5.992-3.058c0.244-0.172,0.642-0.242,0.782-0.538c-0.227-0.14-0.451,0.137-0.678,0.209l-0.348,0.172
	c-0.572-0.361-1.232-0.694-1.649-1.301c0-0.521,0.591-0.87,1.024-1.044c2.155-0.903,3.823,0.73,5.298,2.12
	c-0.122,0.347-0.537,0.47-0.728,0.729c-0.02,0.054,0.05,0.104,0.087,0.124c0.328-0.09,0.608-0.366,0.816-0.643
	c1.65,1.371,3.178,2.985,5.402,2.935l1.215-0.122c0.209,0.243-0.277,0.607,0.156,0.643c0.122-0.19,0.174-0.435,0.106-0.678
	c1.283-0.242,2.533-0.678,3.905-0.59c0.123,0.19,0.105,0.555,0.383,0.59c0.14-0.191-0.069-0.399-0.12-0.59
	c0.328,0,0.676-0.052,0.833-0.366c-0.122-1.008-0.868-1.754-1.338-2.606c0.155-0.139,0.417-0.206,0.417-0.434
	c-0.208-0.173-0.381,0.209-0.572,0.209c-0.453-0.747-0.991-1.439-1.252-2.273c0.018-0.279,0.211-0.524,0.453-0.644
	C278.886,373.501,279.578,373.38,279.84,373.883"/>
<path fill="#FFFFFF" d="M292.101,374.866c-0.146-0.254-0.313-0.503-0.501-0.739c-0.244-0.052-0.469-0.052-0.713,0
	c-0.416,0.191-1.024,0.573-1.008,1.095c0.083,0.166,0.178,0.323,0.278,0.474C290.157,375.695,290.1,374.394,292.101,374.866"/>
<path fill="#FFFFFF" d="M280.083,374.394c-0.079-0.169-0.159-0.342-0.243-0.511c-0.26-0.503-0.954-0.382-1.373-0.207
	c-0.24,0.119-0.433,0.364-0.451,0.642c0.074,0.231,0.168,0.453,0.274,0.669C278.29,374.986,278.664,373.406,280.083,374.394"/>
<path fill="#FFFFFF" d="M267.354,376.179c-1.143-0.915-2.42-1.543-3.945-0.906c-0.434,0.174-1.025,0.523-1.025,1.044
	c0.417,0.606,1.077,0.939,1.65,1.301l0.347-0.173c0.227-0.071,0.452-0.348,0.678-0.209c-0.14,0.298-0.538,0.367-0.781,0.539
	c0.158,0.095,0.32,0.192,0.48,0.286C264.757,378.061,261.512,375.505,267.354,376.179"/>
<path fill="#221714" d="M264.033,377.617l0.348-0.173c0.226-0.071,0.451-0.349,0.677-0.209c-0.139,0.297-0.538,0.367-0.781,0.539"/>
<path fill="#C06221" d="M332.573,377.045c0.174,0.313,0.382,0.625,0.294,1.008c-0.919,1.32-2.432,1.771-3.577,2.83
	c-0.157-0.155-0.224-0.486-0.47-0.433c-0.119,0.225,0.174,0.382,0.261,0.573l-1.579,1.493l-0.556-0.592c-0.07,0-0.14,0-0.175,0.069
	c0.07,0.28,0.365,0.468,0.521,0.715c-1.355,1.562-3.16,2.151-5.211,2.046c-0.053-0.172,0.104-0.327-0.053-0.434
	c-0.086-0.033-0.137,0.037-0.189,0.088l-0.02,0.313l-3.16-0.24c-0.035-0.247,0.279-0.575,0.033-0.731
	c-0.174-0.017-0.12,0.19-0.189,0.294l-0.121,0.418c-1.182-0.088-2.432-0.017-3.51,0.293c0.018-0.101,0.07-0.273-0.051-0.346
	c-0.277-0.035-0.123,0.295-0.227,0.434l-2.416,0.66c-1.301-1.182-2.639-2.258-4.098-3.092l-0.313-1.424
	c0.121-0.087,0.416-0.053,0.383-0.295c-0.139-0.176-0.279,0.035-0.436,0.035c-0.104-0.729-0.277-1.476-0.174-2.24
	c0.33-0.452,1.008-0.383,1.547-0.313c0.397,0.086,0.799,0.313,1.025,0.678c0.33,0.865,0.139,1.963,0.086,2.916
	c-0.277,0.019-0.59-0.054-0.816,0.07c-0.017,0.068,0.016,0.122,0.07,0.155h0.746c0.07,0.765,0.053,1.615,0.801,2.033
	c0.415,0.207,1.008,0.261,1.475,0.14c0.227,0,0.383,0.469,0.592,0.226c0.033-0.173-0.158-0.173-0.227-0.296
	c0.92-0.26,1.805-0.572,2.743-0.8c0.052,0.175,0.104,0.366,0.243,0.469c0.331-0.121-0.035-0.363-0.018-0.573
	c0.557-0.189,1.355-0.38,1.459-1.111c0.123-0.104,0.592,0.139,0.504-0.208c-0.12-0.121-0.311-0.034-0.467-0.071
	c0.172-1.3-0.262-2.5-0.33-3.767c0-0.347,0.119-0.662,0.379-0.889c0.523-0.396,1.305-0.241,1.826,0.038
	c0.209,0.155,0.502,0.364,0.47,0.659c0.019,1.06-0.435,1.928-0.487,2.937c-0.207,0-0.418-0.278-0.572-0.053
	c0.068,0.207,0.348,0.226,0.539,0.313c0,0.817,0.26,1.545,0.883,2.103c-0.051,0.188-0.242,0.362-0.172,0.591
	c0.068,0.032,0.104,0.032,0.172,0l0.211-0.471c1.111,0.503,2.605,0.347,3.716-0.031c0.208,0.065,0.347,0.413,0.573,0.309
	c0.121-0.173-0.189-0.295-0.277-0.434c1.303-0.503,2.24-1.858,2.988-2.986c0.172,0.018,0.328,0.295,0.502,0.103
	c0-0.241-0.262-0.191-0.364-0.329c0.868-1.356,1.598-3.267,3.351-3.768C331.514,375.969,332.141,376.438,332.573,377.045"/>
<path fill="#FFFFFF" d="M332.259,378.744c0.222-0.202,0.427-0.431,0.608-0.691c0.088-0.383-0.121-0.695-0.295-1.008
	c-0.432-0.607-1.059-1.079-1.859-0.919c-0.568,0.16-1.031,0.473-1.423,0.867C329.29,376.993,332.037,376.47,332.259,378.744"/>
<path fill="#FFFFFF" d="M319.633,378.275c0.014-0.14,0.02-0.284,0.016-0.432c0.035-0.295-0.258-0.505-0.467-0.659
	c-0.521-0.279-1.303-0.435-1.824-0.038c-0.261,0.227-0.381,0.542-0.381,0.889c0.006,0.101,0.012,0.197,0.021,0.3
	C316.998,378.335,317.729,377.063,319.633,378.275"/>
<path fill="#FFFFFF" d="M310.25,379.366c-0.027-0.179-0.074-0.35-0.135-0.516c-0.227-0.363-0.629-0.589-1.025-0.676
	c-0.539-0.07-1.217-0.14-1.547,0.313c-0.035,0.267-0.039,0.533-0.02,0.798C307.523,379.285,309.211,378.204,310.25,379.366"/>
<path fill="#F0BF8D" d="M290.939,380.968c-0.209,0.662-0.715,1.392-1.391,1.636c-0.642,0.067-1.302-0.142-1.752-0.365
	C288.786,381.699,289.846,381.318,290.939,380.968"/>
<path fill="#221714" d="M301.256,393.978c0.055,0.053,0.035,0.123,0.035,0.208l-0.088,0.07c-1.684-1.007-4.064-1.873-5.955-0.765
	c-1.79,1.318-2.92,3.192-3.25,5.24c0.156-2.187,1.094-4.252,2.884-5.708C296.915,391.844,299.536,392.659,301.256,393.978"/>
<path fill="#221714" d="M315.065,394.411c0.556,1.059,0.728,2.358,0.538,3.657c0.018-1.854-0.643-3.813-2.484-4.592
	c-0.816-0.382-1.822-0.174-2.691,0C311.836,392.643,314.162,392.833,315.065,394.411"/>
<path fill="#221714" d="M307.023,393.821c0.156,0.468,0.121,1.076-0.229,1.458c-0.311,0.397-0.832,0.414-1.283,0.33
	c-0.277-0.088-0.555-0.312-0.713-0.591c-0.141-0.312-0.189-0.763-0.033-1.094c0.172-0.396,0.59-0.709,1.023-0.748
	C306.295,393.145,306.795,393.337,307.023,393.821"/>
<path fill="#FFFFFF" d="M306.659,393.787c0.224,0.486,0.173,1.11-0.192,1.511c-0.191,0.188-0.451,0.327-0.728,0.207
	c-0.505-0.261-0.628-0.798-0.61-1.319c0.018-0.294,0.156-0.587,0.4-0.729C305.912,393.216,306.45,393.354,306.659,393.787"/>
<path fill="#221714" d="M306.45,393.771c0.174,0.242,0.156,0.623,0,0.867c-0.103,0.243-0.401,0.19-0.575,0.138
	c-0.207-0.122-0.311-0.345-0.225-0.572c0.053-0.119,0.158-0.294,0.314-0.294c0.119,0.017,0.242,0.104,0.275,0.224
	c0.02,0.09-0.018,0.175-0.084,0.228h-0.072c0.018-0.053,0.053-0.087,0.037-0.157c-0.053-0.086-0.123-0.103-0.227-0.086
	c-0.155,0.086-0.07,0.226-0.07,0.362c0.07,0.124,0.244,0.244,0.363,0.142c0.193-0.158,0.263-0.365,0.193-0.574
	c-0.053-0.156-0.193-0.296-0.346-0.363c-0.296-0.104-0.488,0.207-0.609,0.4c-0.105,0.291-0.037,0.624,0.104,0.865
	c0.154,0.19,0.365,0.313,0.592,0.262l0.467-0.176c-0.174,0.156-0.365,0.278-0.59,0.263c-0.259-0.035-0.537-0.174-0.643-0.435
	c-0.139-0.296-0.158-0.693,0.016-0.973c0.105-0.157,0.262-0.312,0.438-0.346C306.084,393.491,306.26,393.616,306.45,393.771"/>
<path fill="#F0BF8D" d="M317.082,400.568c-0.217-0.307-0.441-0.62-0.441-0.968c0-0.13,0.031-0.263,0.104-0.401
	c0.054-0.084,0.14-0.118,0.203-0.13c0.109-0.024,0.234-0.003,0.32,0.055c0.787,1.005,1.725,1.932,2.646,2.619
	c-0.213,0.074-0.4,0.236-0.58,0.397c-0.137,0.123-0.277,0.247-0.428,0.333c-0.035-0.031-0.186-0.17-0.186-0.17
	s-0.232-0.218-0.271-0.257c0.045-0.04,0.09-0.094,0.119-0.138c0.004-0.012,0.005-0.026,0.005-0.039c0-0.019-0.005-0.04-0.019-0.057
	c-0.025-0.034-0.068-0.06-0.102-0.06c-0.01,0.003-0.16,0.05-0.203,0.066c-0.232-0.184-0.504-0.449-0.829-0.813
	c0.038-0.037,0.224-0.222,0.224-0.222l-0.016-0.023c-0.097-0.138-0.208-0.085-0.297-0.043c0,0-0.094,0.032-0.117,0.04
	C317.193,400.726,317.082,400.568,317.082,400.568"/>
<path fill="#221714" d="M301.638,401.162c0.19,0.313,0.263,0.677,0.382,1.007c-0.328-0.607-0.709-1.389-1.424-1.841
	c-0.92-0.608-2.187-0.608-3.213-0.262c0.746-0.675,2.189-0.66,3.074-0.173C300.943,400.174,301.361,400.695,301.638,401.162"/>
<path fill="#221714" d="M312.65,400.484c-1.042-0.244-2.275-0.103-3.109,0.538c-0.484,0.382-0.764,0.867-1.008,1.373l-0.049,0.017
	c0.17-0.956,1.145-1.858,2.082-2.138c0.66-0.155,1.494-0.173,2.084,0.157V400.484z"/>
<path fill="#221714" d="M301.291,401.422c0.359,0.432,0.59,1.13,0.537,1.79h-0.051c-0.053-0.8-0.504-1.563-1.25-1.929
	c-0.748-0.382-1.702-0.539-2.537-0.226c-0.33,0.139-0.66,0.451-0.797,0.797c-0.21,0.732,0.033,1.495,0.573,2.016
	c0.519,0.54,1.195,0.766,1.943,0.697c0.695-0.088,1.234-0.643,1.756-1.131c-0.4,0.714-1.129,1.215-1.893,1.286
	c-1.095,0.052-2.104-0.572-2.553-1.546c-0.244-0.59-0.192-1.39,0.226-1.875l0.38-0.313c-0.432-0.071-0.953-0.02-1.248-0.332
	c1.439,0.157,3.02-0.831,4.271,0.176C300.648,400.833,300.932,400.993,301.291,401.422"/>
<path fill="#FFFFFF" d="M301.465,403.437c-0.521,0.488-1.061,1.043-1.756,1.131c-0.748,0.068-1.424-0.157-1.943-0.697
	c-0.54-0.521-0.782-1.283-0.572-2.016c0.136-0.346,0.466-0.658,0.796-0.797c0.835-0.313,1.79-0.157,2.538,0.226
	c0.637,0.312,1.059,0.916,1.203,1.582C301.73,402.865,301.599,403.295,301.465,403.437"/>
<path fill="#221714" d="M313.259,401.215c-0.071,0.241-0.712,0.034-0.45,0.47c0.276,0.728,0,1.492-0.365,2.081
	c-0.523,0.679-1.287,1.163-2.156,0.975c-0.59-0.138-1.334-0.539-1.441-1.233c0.436,0.729,1.182,1.096,1.98,1.146
	c0.713-0.037,1.338-0.645,1.686-1.25c0.225-0.625,0.155-1.391-0.121-1.963c-0.729-0.486-1.842-0.398-2.554,0.068
	c-0.606,0.416-1.043,1.025-1.163,1.703c-0.087-0.816,0.416-1.615,1.128-2.083C310.844,400.328,312.164,401.042,313.259,401.215"/>
<path fill="#221714" d="M309.802,401.129c1.042-0.801,2.362-0.087,3.457,0.086c-0.071,0.241-0.712,0.034-0.45,0.468
	c0.276,0.729,0,1.494-0.365,2.083"/>
<path fill="#FFFFFF" d="M308.846,403.507c0.436,0.729,1.182,1.096,1.98,1.146c0.713-0.037,1.338-0.645,1.686-1.25
	c0.225-0.625,0.154-1.392-0.121-1.963c-0.729-0.486-1.842-0.398-2.554,0.068c-0.55,0.377-0.954,0.905-1.118,1.504
	C308.719,403.013,308.764,403.364,308.846,403.507"/>
<path fill="#F0BF8D" d="M317.896,403.994c0-0.391,0.357-0.686,0.697-0.928c0.225-0.099,0.461-0.278,0.712-0.468
	c0.435-0.331,0.886-0.671,1.315-0.603c0.232,0.036,0.439,0.191,0.635,0.47c0,0,0.014-0.01,0.027-0.019v0.035
	c0.428,0.008,0.666,0.313,0.92,0.637c0.158,0.203,0.324,0.414,0.539,0.537c0.766,0.292,0.932,1.033,1.092,1.749l0.16,0.631
	c0.086,0.405,0.156,0.892,0.156,1.383c0,0.521-0.08,1.044-0.305,1.479c-1.229,0.568-2.823,0.277-3.838-0.684h0.047
	c0.137,0.005,0.307,0.015,0.402-0.082l0.035-0.033l-0.045-0.021c-0.367-0.166-0.822-0.372-1.099-0.787
	c0-0.002-0.032-0.085-0.032-0.085c-0.098-0.247-0.201-0.517-0.201-0.803c0-0.09,0.016-0.182,0.039-0.277
	c0.066,0.032,0.309,0.152,0.309,0.152c0.5,0.246,1.018,0.498,1.47,0.852l0.011,0.007h0.084c-0.122,0.26-0.201,0.573-0.201,0.887
	c0,0.332,0.086,0.656,0.291,0.889l0.008,0.009l0.008,0.001c0.09,0.023,0.123-0.05,0.139-0.085l0.006-0.014l0.003-0.032
	c-0.081-0.217-0.128-0.471-0.128-0.729c0-0.44,0.139-0.896,0.484-1.23c0.008-0.007,0.115-0.107,0.115-0.107
	c0.078-0.055,0.156-0.111,0.162-0.192v-0.013c0-0.037-0.025-0.077-0.059-0.115v-0.435c0.016-0.014,0.088-0.091,0.088-0.091
	c0.135-0.135,0.283-0.285,0.283-0.458c0-0.037-0.008-0.077-0.027-0.12l-0.017-0.045l-0.28,0.257c-0.322,0.3-0.658,0.612-1.096,0.706
	l-0.026,0.007v0.078l0.013,0.011c0.092,0.063,0.203,0.061,0.311,0.057c0,0,0.08,0.002,0.115,0.002
	c0.006,0.046,0.035,0.306,0.035,0.306l0.041-0.014c0.121-0.043,0.166-0.148,0.211-0.252c0.023-0.059,0.051-0.107,0.086-0.153
	c0,0.004,0.002,0.008,0.002,0.011c0,0.069-0.024,0.137-0.051,0.207c0,0-0.035,0.107-0.043,0.134
	c-0.094,0.054-0.371,0.194-0.602,0.077c-0.188-0.085-0.383-0.252-0.598-0.51c-0.133-0.673,0.387-1.183,0.893-1.678l0.32-0.325
	l-0.008-0.02c-0.035-0.099,0.033-0.181,0.105-0.271c0.078-0.095,0.166-0.2,0.082-0.327l-0.012-0.02l-0.021,0.004
	c-0.224,0.032-0.313,0.198-0.402,0.359c-0.057,0.104-0.111,0.205-0.202,0.272c-0.005,0.003-0.231,0.217-0.231,0.217
	c-0.461,0.425-0.982,0.903-0.982,1.503c0,0.045,0.008,0.091,0.012,0.134c-0.434-0.1-0.809-0.432-0.936-0.846
	c0.028-0.568,0.475-0.998,0.908-1.413l0.484-0.492l-0.002-0.012c0-0.21,0.127-0.385,0.345-0.473l0.015-0.009l0.006-0.016
	c0.002-0.009,0.002-0.019,0.002-0.025c0-0.061-0.057-0.091-0.1-0.11l-0.046-0.025l-0.012-0.003c-0.243,0-0.362,0.199-0.468,0.374
	c-0.057,0.095-0.109,0.185-0.178,0.243c-0.002,0-0.031,0.023-0.031,0.023c-0.576,0.496-1.288,1.108-1.288,1.892
	c0,0.015,0,0.027,0.001,0.039C318.148,404.929,317.896,404.487,317.896,403.994"/>
<path fill="#221714" d="M307.873,407.102c-0.137,0.21-0.295,0.504-0.555,0.558c-0.746,0.19-1.354-0.348-2.084-0.191h-0.017
	c0.537-0.678,1.3,0.294,1.927-0.229c1.025-0.762,0.311-2.135,0.104-3.071c-0.294-0.54-0.416-1.252-0.26-1.911
	C306.954,404.009,308.377,405.329,307.873,407.102"/>
<path fill="#F0BF8D" d="M317.113,403.357c-0.002-0.026-0.005-0.056-0.005-0.084c0-0.171,0.048-0.353,0.239-0.394
	c0.211-0.055,0.35,0.058,0.494,0.172c0,0,0.043,0.037,0.072,0.059c-0.211,0.216-0.412,0.479-0.441,0.794
	C317.303,403.772,317.182,403.6,317.113,403.357"/>
<path fill="#F0C91E" d="M320.346,408.926c1.007,0.816,2.588,0.694,3.734,0.278c0.088,0.019,0.141,0.086,0.174,0.154
	c0.017,0.297-0.332,0.278-0.521,0.401c-1.234,0.433-2.762,0.227-3.77-0.537c-0.314-0.246-0.695-0.539-0.695-0.921
	c0.07-0.122,0.262-0.086,0.348-0.036L320.346,408.926z"/>
<path fill="#F0C91E" d="M320.118,409.781c1.044,0.694,2.554,0.694,3.753,0.33c0.088,0,0.176,0.088,0.191,0.172
	c-0.016,0.279-0.365,0.262-0.557,0.385c-1.301,0.45-2.883,0.208-3.908-0.66c-0.242-0.192-0.467-0.436-0.555-0.716
	C319.391,408.773,319.721,409.695,320.118,409.781"/>
<path fill="#221714" d="M302.68,409.637c0.955,0.905,2.209,1.601,3.561,1.166c0.643-0.296,1.234-1.025,2.032-0.592
	c0.036,0.069,0.14,0.156,0.071,0.243c-0.383,0.261-0.678-0.556-1.061-0.034c-0.66,0.678-1.599,0.853-2.554,0.729
	c-0.765-0.207-1.424-0.695-2.067-1.268c-0.328,0-0.659,0.538-0.902,0.12C301.934,409.689,302.334,409.586,302.68,409.637"/>
<path fill="#F0BF8D" d="M317.332,416.19l0.139-0.176c0.469-2.057,1.075-3.922,1.844-5.823c1.064,0.981,2.856,1.294,4.4,0.768
	c0.043,0.647,0.087,1.142,0.087,1.742c0,3-0.542,5.431-1.645,7.393c-1.505,1.416-3.573,1.743-5.394,2.035
	c0,0-0.826,0.073-1.017,0.103c0.035-0.481,0.054-0.966,0.054-1.449c0-1.938-0.281-3.886-0.83-5.713
	c0.776-0.229,1.598-0.045,2.33,0.053c-0.098,0.314-0.115,0.664-0.115,0.995v0.019l0.129,0.078L317.332,416.19z"/>
<path fill="#221714" d="M307.354,414.188c-0.154,0.396-0.417,0.853-0.836,1.061c-1.268,0.607-2.986,0.295-4.252-0.07
	c-0.018-0.069-0.124-0.087-0.071-0.156c1.095,0.191,2.38,0.574,3.545,0.191c0.778-0.207,1.423-0.974,1.665-1.702
	C307.563,413.7,307.404,413.98,307.354,414.188"/>
<path fill="#F0BF8D" d="M288.463,413.614c3.495,2.979,7.902,3.897,12.146,4.444c1.617,0.543,3.483,0.634,5.021,0.257
	c-2.47,2.275-6.837,0.75-8.131,0.22l-0.021-0.01l-0.018,0.016c-0.025,0.03-0.037,0.078-0.025,0.12
	c0.008,0.039,0.037,0.064,0.078,0.077c2.027,0.77,5.414,2.05,7.965,0.483c-0.209,0.796-0.363,1.63-0.508,2.438
	c-0.203,1.125-0.412,2.287-0.79,3.363c-3.933,2.507-8.458,3.503-12.837,4.463c-0.408-1.297-1.18-2.54-2.43-3.907
	c-0.042-0.101-0.06-0.196-0.06-0.285c0-0.299,0.207-0.55,0.422-0.815c0.164-0.199,0.332-0.402,0.41-0.64
	c0.201-0.347,0.349-0.658,0.459-0.953c0.038,0.077,0.068,0.165,0.099,0.262c0.051,0.16,0.106,0.329,0.217,0.461
	c1.473,1.758,3.487,2.545,5.678,2.216l0.065-0.009l-0.145-0.143h-0.013c-2.473-0.056-4.569-1.326-5.476-3.314v-0.009
	c0-0.185,0.161-0.292,0.331-0.404c0.166-0.111,0.347-0.231,0.347-0.451c0-0.053-0.012-0.111-0.035-0.178
	c0,0-0.111-0.212-0.133-0.249c0.014-0.032,0.799-1.858,0.799-1.858l-0.006-0.011c-0.016-0.053-0.037-0.115-0.097-0.157l-0.012-0.006
	l-0.171,0.021l-0.27,0.537c-0.186,0.375-0.351,0.693-0.592,1.045c-2.341-1.779-4.568-2.952-6.803-3.584
	C284.729,415.375,286.459,413.641,288.463,413.614"/>
<path fill="#F0C91E" d="M314.555,415.129c0.695,2.447,1.063,5.228,0.66,7.938c-0.051,0.121-0.154,0.243-0.294,0.275
	c-0.157-0.017-0.263-0.138-0.296-0.275c0.365-2.885-0.086-5.698-0.746-8.301c-0.012-0.13,0.047-0.231,0.168-0.249
	c0.342-0.064,0.416,0.192,0.461,0.397L314.555,415.129z"/>
<path fill="#F0C91E" d="M313.318,414.945c0.781,2.067,1.111,4.359,1.023,6.757l-0.191,1.451c-0.051,0.139-0.243,0.209-0.363,0.122
	l-0.104-0.226c0.086-2.796-0.158-5.41-0.852-7.894C312.971,415.033,313.11,414.772,313.318,414.945"/>
<path fill="#F0BF8D" d="M309.65,435.376c0-0.065-0.021-0.137-0.041-0.209c-0.018-0.064-0.035-0.13-0.035-0.183
	c0-0.025,0.003-0.05,0.014-0.071c0.02-0.033,0.059-0.061,0.119-0.073c0.371-0.177,0.791-0.501,0.875-0.896v-0.034
	c0-0.389-0.168-0.7-0.332-1.002c-0.131-0.239-0.265-0.487-0.311-0.765c-0.77-2.081-1.205-4.326-1.625-6.498l-0.199-1.024
	c-0.021-0.113-0.033-0.224-0.033-0.332c0-0.414,0.142-0.813,0.279-1.201c0.104-0.298,0.213-0.608,0.26-0.921
	c0.234-0.615,0.334-1.302,0.434-1.967c0.18-1.226,0.365-2.496,1.431-3.381c0.379-0.349,0.804-0.601,1.216-0.845
	c0.309-0.183,0.508-0.252,0.809-0.482c0.55,2.028,0.734,4.085,0.734,6.071c0,0.336-0.006,0.669-0.023,1.004
	c-0.254,0.12-0.328,0.015-0.607,0.052c0,0-0.293,0.047-0.359,0.058c0.024-0.25,0.037-0.501,0.037-0.749
	c0-1.089-0.236-2.136-0.688-3.014c-0.012-0.013-0.049-0.049-0.049-0.049c-0.033-0.035-0.082-0.088-0.152-0.053l-0.021,0.011
	l0.002,0.021c0.02,0.235,0.084,0.458,0.156,0.693c0.064,0.219,0.133,0.446,0.156,0.682c0.299,1.813-0.049,3.17-1.029,4.035
	c-0.65,0.563-1.438,0.78-2.19,0.929l-0.062,0.012l0.178,0.18l0.014-0.002c0.943-0.062,1.629-0.21,2.217-0.473
	c0.441,1.464,0.768,3.317,0.768,5.221c0,1.584-0.225,3.2-0.795,4.654c-0.25,0.435-0.715,0.548-1.145,0.617V435.376z"/>
<path fill="#D6484C" d="M304.854,424.471c0.484-2.5,1.979-4.671,3.072-6.964c0.607-0.14,1.27-0.295,1.842-0.557
	C308.152,419.417,306.746,422.057,304.854,424.471"/>
<path fill="#F0C91E" d="M290.869,421.312c0.053,0.051,0.053,0.188,0,0.26c-0.104,0.138-0.313,0.138-0.435,0.051
	c-2.31-1.701-4.742-3.073-7.451-3.804c-0.139-0.103-0.139-0.262-0.069-0.382c0.087-0.122,0.226-0.157,0.348-0.173
	C286.041,417.994,288.576,419.348,290.869,421.312"/>
<path fill="#D6484C" d="M305.564,421.553c0.225-1.164,0.434-2.345,0.764-3.456l0.799-0.364L305.564,421.553z"/>
<path fill="#F0C91E" d="M289.875,421.723c0.19,0.19,0.588,0.4,0.381,0.73c-0.104,0.138-0.347,0.138-0.469,0.034
	c-2.189-1.736-4.621-2.833-7.139-3.806c-0.103-0.068-0.173-0.208-0.103-0.329l0.172-0.14
	C285.357,418.786,287.684,420.072,289.875,421.723"/>
<path fill="#F0BF8D" d="M282.992,419.288c2.601,0.975,4.637,2.079,6.404,3.473c0.006,0.007,0.157,0.215,0.178,0.241
	c-0.266,0.693-0.599,1.213-1.178,1.943c-0.264-0.206-0.523-0.388-0.808-0.404l-0.088-0.003l0.062,0.061
	c1.762,1.783,2.766,3.314,3.282,4.969c-1.024,1.033-2.279,1.888-3.832,2.611c-2.293-1.657-4.378-4.008-5.979-6.753
	c-0.096-0.292-0.141-0.581-0.141-0.863c0-0.77,0.306-1.497,0.602-2.207l0.201-0.494
	C281.695,421.863,282.855,419.563,282.992,419.288"/>
<path fill="#D6484C" d="M304.313,429.371c-2.343,1.805-4.846,3.178-7.59,4.011c-0.937-0.173-1.146-1.27-1.876-1.808l0.07-0.067
	c3.527-0.853,6.808-2.241,9.779-4.447c2.223-1.91,2.918-4.533,3.613-7.122l0.503-0.852
	C308.309,422.873,307.301,426.607,304.313,429.371"/>
<path fill="#D6484C" d="M304.26,427.041c-3.004,2.033-6.27,3.405-9.777,4.258c-0.608-0.351-1.305-0.54-2.051-0.607
	c-0.086-0.192-0.172-0.453-0.399-0.522l-0.261-0.035c0.054-0.036,0.017-0.086,0.035-0.121c4.048-0.867,7.99-2.033,11.586-4.013
	c1.928-1.128,3.195-3.144,4.258-4.951C306.988,423.238,306.26,425.479,304.26,427.041"/>
<path fill="#D6484C" d="M310.201,433.676c0.02,0.748-0.866,0.871-1.268,1.322l-0.346-1.46l-1.254-7.104
	c-0.311-0.608,0.244-1.026,0.366-1.527C308.344,427.877,309.039,430.882,310.201,433.676"/>
<path fill="#D6484C" d="M308.238,432.964c0.436,0.99,0.053,2.397,1.234,3.023c0.053,0.383-0.434,0.522-0.678,0.713
	c-0.625,0.363-1.34,0.019-1.877-0.349c0.09-0.33,0.383-0.589,0.469-0.919v-1.009c-0.416-2.312-0.78-4.654-0.92-7.033l0.627-1.165
	L308.238,432.964z"/>
<path fill="#D6484C" d="M307.145,434.998c-0.381-0.192-0.869-0.175-1.199-0.472c0-1.978-0.52-3.785-0.52-5.73l0.73-0.971
	C306.555,430.185,306.709,432.635,307.145,434.998"/>
<path fill="#F0BF8D" d="M303.674,430.509c0.423-0.347,0.908-0.76,1.348-1.226c0.277,1.505,0.412,3.144,0.506,4.557
	c-0.242,0.05-0.494,0.106-0.699,0.269c-0.029-0.01-1.061-0.359-1.061-0.359l-0.025,0.062c0.283,0.152,0.66,0.455,0.963,0.773
	l0.02,0.021l0.023-0.012c0.117-0.072,0.22-0.167,0.318-0.262c0.146-0.137,0.287-0.264,0.471-0.313
	c0.014,0.053,0.022,0.107,0.022,0.169c0,0.068-0.007,0.141-0.013,0.212c-0.007,0.072-0.014,0.143-0.014,0.212
	c0,0.198,0.055,0.374,0.318,0.438c0.002,0,0.543,0.098,0.655,0.119c0.006,0.036,0.021,0.146,0.021,0.146
	c0.016,0.091,0.031,0.186,0.031,0.283c0,0.014,0,0.03-0.003,0.045c-2.159,0.035-4.265-0.192-6.3-0.413c0,0-2.322-0.237-2.375-0.243
	c-0.014-0.288-0.197-0.478-0.379-0.665c-0.149-0.15-0.301-0.311-0.354-0.518C299.613,432.939,301.75,431.862,303.674,430.509"/>
<path fill="#F0C91E" d="M291.501,429.943c-0.277,0.591-0.921,0.971-1.39,1.388c-1.006,0.783-2.102,1.391-3.283,1.738
	c-0.138-0.035-0.207-0.225-0.12-0.348c1.596-0.729,3.144-1.615,4.497-2.936C291.328,429.751,291.465,429.819,291.501,429.943"/>
<path fill="#F0C91E" d="M292.104,430.568c-0.173,0.468-0.678,0.781-1.026,1.128c-1.232,1.008-2.553,1.789-4.012,2.224
	c-0.087-0.085-0.173-0.209-0.068-0.313c1.684-0.851,3.335-1.788,4.811-3.18C291.931,430.411,292.05,430.446,292.104,430.568"/>
<path fill="#F0BF8D" d="M295.099,432.326c0.432,0.742,1.028,1.279,1.635,1.481c0.009,0.012,0.193,0.308,0.231,0.37
	c-0.126,0.035-0.278,0.124-0.278,0.277c0,0.008,0,0.016,0.002,0.023v0.001c0,0.226,0.173,0.429,0.306,0.56l0.021,0.02l0.024-0.015
	c0.134-0.107,0.308-0.163,0.497-0.166c0.023,0.031,0.038,0.065,0.038,0.1c0,0.078-0.046,0.162-0.092,0.244l-0.028,0.055
	c-0.137,0.199-0.388,0.28-0.654,0.208c-0.387-0.135-0.732-0.459-1.043-0.789c-0.383-0.144-0.807-0.3-1.155-0.509
	c-0.024-0.025-0.076-0.077-0.126-0.069c-0.018,0.003-0.043,0.015-0.059,0.05c-0.043,0.027-0.055,0.057-0.055,0.088
	c0,0.044,0.027,0.089,0.049,0.122l0.038,0.075l0.007,0.015c0,0,0.078,0.074,0.113,0.11c-0.056,0.044-0.852,0.664-0.886,0.69
	c-0.012-0.005-0.026-0.015-0.026-0.015c-0.027-0.025-0.065-0.06-0.137-0.046l-0.016,0.004l-0.009,0.012
	c-0.182,0.337-0.291,0.715-0.398,1.078c-0.159,0.539-0.324,1.1-0.726,1.522l-0.008,0.008l-0.001,0.014
	c-0.013,0.413-0.083,0.927-0.507,1.259l-0.01,0.01l-0.059,0.288c-0.103,0.503-0.191,0.938-0.119,1.49
	c0,0.313-0.163,0.602-0.414,0.728c-0.275,0.072-0.498,0.041-0.682-0.084c0.035-0.061,0.101-0.099,0.176-0.132
	c0.115-0.053,0.245-0.111,0.245-0.272c0-0.014,0-0.026-0.003-0.041c-0.002-0.003-0.022-0.208-0.022-0.208
	c-0.003-0.153-0.008-0.311-0.152-0.39l-0.019-0.013l-0.018,0.015c-0.031,0.022-0.076,0.022-0.125,0.021
	c-0.045-0.001-0.092,0.001-0.134,0.023c-0.154-0.305-0.209-0.628-0.209-0.962c0-0.373,0.069-0.76,0.135-1.141l0.113-0.724
	l-0.01-0.011c-0.102-0.119-0.154-0.302-0.154-0.484c0-0.133,0.029-0.27,0.087-0.382c0,0.003,0.112-0.064,0.112-0.064
	c0.08-0.036,0.178-0.081,0.152-0.217l-0.001-0.014l-0.011-0.007c-0.115-0.098-0.245-0.03-0.351,0.023l-0.022,0.012
	c-0.209,0.184-0.267,0.409-0.267,0.648c0,0.136,0.019,0.273,0.035,0.411c0.018,0.136,0.035,0.275,0.035,0.411
	c0,0.103-0.01,0.203-0.039,0.299c-0.121,0.258-0.161,0.537-0.161,0.824c0,0.379,0.073,0.769,0.143,1.13l0.07,0.372
	c-0.001,0-0.003,0.144-0.003,0.144c0,0.054-0.002,0.109-0.002,0.165c0,0.107,0.008,0.219,0.023,0.325
	c-0.05-0.165-0.106-0.326-0.22-0.454l-0.014-0.014l-0.018,0.002c-0.119,0.017-0.228,0.053-0.348,0.132
	c-0.279-0.306-0.335-0.73-0.386-1.147c-0.027-0.218-0.056-0.438-0.113-0.644c-0.005-0.05-0.008-0.101-0.008-0.151
	c0-0.207,0.035-0.426,0.074-0.653c0.037-0.23,0.078-0.464,0.078-0.69c0-0.229-0.042-0.457-0.161-0.67
	c0.003-0.017,0.015-0.111,0.015-0.111c0.019-0.19,0.045-0.316,0.199-0.336c0.023,0,0.072-0.011,0.095-0.045
	c0.005-0.01,0.008-0.019,0.008-0.03c0-0.005-0.003-0.009-0.003-0.016c0.001-0.004,0.001-0.012,0.001-0.021
	c0-0.034-0.015-0.066-0.044-0.088c-0.03-0.021-0.065-0.022-0.098-0.012c-0.164-0.014-0.316,0.127-0.379,0.266
	c-0.001,0.015-0.004,0.241-0.004,0.241c-0.016,0.773-0.028,1.44-0.169,2.181l-0.003,0.012l0.006,0.012
	c0.149,0.258,0.159,0.538,0.169,0.84c0.007,0.185,0.018,0.374,0.059,0.558c-0.165-0.081-0.281-0.259-0.39-0.439l-0.129-0.196
	c0.007,0.013-0.288-1.359-0.288-1.359c0.005-0.183,0.038-0.381,0.072-0.59c0.079-0.481,0.162-0.979-0.112-1.403
	c-0.029-0.076,0.027-0.142,0.084-0.21c0.049-0.059,0.099-0.116,0.092-0.186c-0.004-0.045-0.03-0.089-0.078-0.131l-0.016-0.014
	l-0.02,0.009c-0.268,0.105-0.328,0.38-0.367,0.651c0.076,0.259,0.117,0.549,0.117,0.867c0,0.342-0.046,0.719-0.132,1.127
	c0,0.012,0.119,0.498,0.175,0.728c-0.11-0.135-0.136-0.311-0.157-0.498c-0.016-0.146-0.034-0.294-0.096-0.426
	c-0.131-0.339-0.159-0.74-0.182-1.128c-0.029-0.459-0.059-0.936-0.271-1.306c-0.008-0.036-0.01-0.069-0.01-0.102
	c0-0.151,0.081-0.273,0.166-0.401l0.007-0.012v-0.015c-0.011-0.073-0.013-0.144-0.013-0.214c0-0.388,0.186-0.688,0.324-1.017
	c0,0,0.018-0.042,0.025-0.059c1.516-0.599,2.971-1.562,4.452-2.944C293.414,430.976,294.363,431.67,295.099,432.326
	 M290.082,441.663c0.063-0.035,0.126-0.07,0.172-0.132c0.053,0.137,0.148,0.255,0.295,0.34c-0.161,0.107-0.385,0.159-0.528,0.048
	c-0.009-0.005-0.09-0.072-0.09-0.072s-0.006-0.005-0.011-0.013C289.941,441.747,290.006,441.706,290.082,441.663"/>
<path fill="#FFFFFF" d="M311.521,437.811c-0.417,0.974-1.425,1.079-2.346,1.147c-0.537-0.105-1.232-0.227-1.754,0.052
	c0.262-1.024,1.338-1.911,2.207-2.553c0.053-0.313,0.172-0.539,0.348-0.765c0.57-0.088,1.111-0.382,1.406-0.922l0.209-0.556
	C312.25,435.241,312.023,436.785,311.521,437.811"/>
<path fill="#F0BF8D" d="M297.383,434.668c-0.226,0.051-0.435,0.26-0.504-0.104C296.984,434.146,297.174,434.547,297.383,434.668"/>
<path fill="#FFFFFF" d="M295.611,434.998c0.435,0.538,1.043,0.92,1.719,0.694c0.155-0.07,0.313-0.209,0.4-0.364l0.781,0.104
	c0.711,1.024,1.563,1.997,2.26,3.021c-2.59-0.158-6.012,0.242-6.967-2.708l1.077-0.888L295.611,434.998z"/>
<path fill="#D6484C" d="M309.385,435.588l-0.277-0.296l0.191-0.21C309.352,435.241,309.352,435.415,309.385,435.588"/>
<path fill="#D6484C" d="M307.128,435.311c-0.017,0.209-0.12,0.382-0.245,0.556l-0.137-0.729
	C306.883,435.154,307.059,435.154,307.128,435.311"/>
<path fill="#FFFFFF" d="M306.606,435.971l0.087,0.521c0.348,0.311,0.762,0.432,1.162,0.591c-0.797,0.382-1.734,0.484-2.586,0.714
	l0.033,0.049c1.025-0.017,1.98-0.19,2.884-0.555c-0.416,0.677-1.319,1.229-1.075,2.083c0.311,0.364,0.744,0.452,1.092,0.765
	c-0.59,0.66-1.544,0.607-2.414,0.66c-2.221,0.087-4.463,0.104-6.184-1.061c-0.016-0.052-0.051-0.103-0.033-0.173
	c0.539-0.277,1.268-0.207,1.684-0.764c-0.016-0.348-0.381-0.52-0.557-0.802c1.217,0.418,2.52,0.682,3.84,0.767v-0.035
	c-1.39-0.277-2.797-0.504-4.029-1.11c-0.625-0.643-1.043-1.425-1.529-2.154C301.5,435.692,304.018,435.971,306.606,435.971"/>
<path fill="#3C5F9A" d="M294.656,437.48l-1.702,0.263c0.277-0.452,0.382-0.975,0.538-1.479
	C293.804,436.682,294.22,437.134,294.656,437.48"/>
<path fill="#3C5F9A" d="M298.408,438.611l0.068,0.07l-0.191,0.189c-1.996,0.729-4.098,1.25-6.285,1.562
	c-0.035-0.675,0.189-1.285,0.623-1.789l0.156-0.537c0.748-0.033,1.441-0.157,2.102-0.4
	C295.925,438.332,297.087,438.644,298.408,438.611"/>
<path fill="#3C5F9A" d="M311.417,440.206c-0.92-0.24-1.843-0.468-2.623-1.005c0.938-0.018,1.998-0.035,2.728-0.681L311.417,440.206z
	"/>
<path fill="#3C5F9A" d="M300.527,438.802c-0.364,0.313-0.885,0.278-1.232,0.624l-0.521-0.782l0.052-0.05
	c0.571,0.018,1.216-0.157,1.702,0.138V438.802z"/>
<path fill="#D6484C" d="M301.465,440.868l-0.174,0.018c-2.378,2.223-5.297,3.23-8.163,4.289c-0.782,0.208-1.513,0.504-2.327,0.609
	c1.041,0.017,1.963-0.418,2.917-0.677c2.397-0.834,4.726-1.825,6.878-3.266c0.348-0.28,0.766-0.592,1.025-0.924
	c0.645,0.106,1.302,0.21,1.996,0.21c-1.631,1.565-3.559,2.623-5.436,3.701c-2.571,1.267-5.108,2.552-8.112,2.761
	c-0.572-0.538-0.294-1.459-0.503-2.171c-0.123-0.73-0.295-1.476-0.295-2.224c0.519-0.243,1.076,0,1.615-0.121
	c2.726-0.452,5.365-1.166,7.869-2.206l0.816-0.521c-2.485,1.182-5.229,1.877-8.008,2.433c-0.66,0.173-1.458,0.173-2.136,0
	c-0.452-0.349-0.436-0.938-0.538-1.46c0.139,0.121,0.382,0.035,0.538,0.121c0.139,0.296,0.158,0.73,0.572,0.816
	c0.366,0.157,0.695-0.068,0.957-0.295c0.365-0.017,0.695-0.19,0.885-0.521l0.158-0.623c2.274-0.453,4.567-0.888,6.652-1.773
	C299.137,440.173,300.371,440.659,301.465,440.868"/>
<path fill="#3C5F9A" d="M308.431,439.912c-0.244-0.262-0.694-0.347-0.78-0.729c0.258-0.157,0.622-0.14,0.918-0.069L308.431,439.912z
	"/>
<path fill="#D6484C" d="M311.92,440.659c-0.434,1.582-0.035,3.491-0.71,4.969c-0.208,0.243-0.521,0.035-0.748,0
	c-2.204-1.181-4.378-2.52-6.218-4.483l2.189-0.12c1.145,0.867,2.43,1.459,3.734,1.962c-0.695-0.45-1.581-0.798-2.346-1.232
	l-1.076-0.729c0.658-0.106,1.441-0.243,1.822-0.868l0.156-0.66C309.732,440.034,310.758,440.521,311.92,440.659"/>
<path fill="#F0BF8D" d="M289.255,441.06c-0.104,0.104-0.279-0.106-0.331-0.209l-0.034-0.191
	C289.151,440.608,289.115,440.918,289.255,441.06"/>
<path fill="#F0BF8D" d="M290.748,440.694c0.034,0.224,0.139,0.589-0.226,0.607l-0.035,0.053
	C290.522,441.128,290.332,440.659,290.748,440.694"/>
<path fill="#F0BF8D" d="M289.811,441.615c-0.02-0.175-0.366-0.556,0.052-0.591C289.95,441.216,290.208,441.512,289.811,441.615"/>
<path fill="#3C5F9A" d="M303.41,446.878c0.016,1.527-0.348,2.952-1.041,4.221c-0.453,1.009,0.973,1.58,0.277,2.588
	c-0.364,0.313-0.834,0.398-1.32,0.418l-2.641,0.12c2.049-0.659,2.78-2.883,3.405-4.637l-0.104-0.071
	c-0.625,1.929-2.102,4.376-4.361,4.742c-1.615,0.053-3.265,0.019-4.861-0.034c3.507-1.771,6.373-5.436,7.935-8.842l0.35-1.163
	l-0.156,0.019c-1.199,3.386-3.788,6.461-6.843,8.79c-0.66,0.45-1.321,0.884-2.068,1.143c-0.452-0.015-0.886-0.033-1.303-0.154
	c-0.276-1.894-0.276-3.942-0.366-5.923c3.092-0.294,5.734-1.755,8.373-3.194c1.755-1.096,3.629-2.104,5.089-3.735
	C303.672,443.074,302.141,445.053,303.41,446.878"/>
<path fill="#3C5F9A" d="M305.945,442.986c-0.902,0.68-2.171,1.025-2.709,2.188c0.068-1.354,0.625-2.5,0.938-3.751
	C304.729,441.979,305.338,442.518,305.945,442.986"/>
<path fill="#3C5F9A" d="M310.705,446.131c-0.295,1.946-0.712,3.874-1.25,5.749c-0.26-2.552-1.078-5.122-2.033-7.521l-0.035,0.243
	c0.973,2.972,2.205,6.236,1.32,9.589c-0.174,0.226-0.449,0.243-0.712,0.261c-1.545-0.158-3.106-0.227-4.585-0.559l-0.157-0.154
	c0.903-0.902,1.269-2.101,1.356-3.387c1.041-0.4,0.711-1.633,0.92-2.52c0.121-1.544-0.018-3.212,0.572-4.566l0.086-0.07
	C307.65,444.307,309.143,445.296,310.705,446.131"/>
<path fill="#FFFFFF" d="M305.875,443.37c-0.799,1.683-0.449,3.836-0.729,5.75c-0.451-1.062-1.476-1.877-1.754-3.007
	C303.148,444.602,304.904,443.977,305.875,443.37"/>
<path fill="#3C5F9A" d="M304.783,449.066c0.105,0.191,0.105,0.504,0,0.695c-0.609,0.468-1.285,0.799-1.93,1.197
	c0.695-1.076,0.715-2.449,0.765-3.753L304.783,449.066z"/>
<path fill="#FFFFFF" d="M302.958,453.53c0.228-0.555-0.087-1.164-0.328-1.65c0-0.677,0.796-0.919,1.267-1.215l0.435-0.21
	C304.297,451.655,303.896,452.75,302.958,453.53"/>
<path fill="#F0BF8D" d="M300.941,454.507c0.699-0.079,1.424-0.165,2.016-0.521c0.367,0.282,0.842,0.337,1.301,0.389l0.535,0.075
	c0,0,0.002-0.018,0.006-0.034c-0.002,0.017-0.004,0.035-0.004,0.035s1.605,0.226,1.68,0.237c-0.536,1.742-1.076,3.477-1.756,5.24
	c-1.857,0.33-3.789,0.177-5.096-0.016c0.008-0.066,0.625-5.161,0.625-5.163c0.002,0,0.059-0.123,0.076-0.164
	C300.357,454.582,300.941,454.507,300.941,454.507"/>
<path fill="#F0BF8D" d="M299.435,454.641c0.12-0.014,0.261,0.011,0.276,0.125c-0.002,0.011-0.615,5.219-0.621,5.268
	c-1.451,0.314-3.162,0.31-5.377-0.019c-0.007-0.045-0.127-0.59-0.127-0.59c-0.27-1.506-0.547-3.062-0.595-4.696
	C295.468,454.808,297.577,454.778,299.435,454.641"/>
<path fill="#F0C91E" d="M305.277,460.451c0.086,0.243-0.193,0.311-0.33,0.364c-1.598,0.313-3.404,0.384-5.037,0.122
	c0.068-0.156,0.068-0.398-0.054-0.556l-0.067-0.07c1.649,0.26,3.49,0.228,5.105-0.07c0.174-0.032,0.355,0.082,0.408,0.236"/>
<path fill="#F0C91E" d="M299.506,460.438c0.105,0.034,0.155,0.121,0.191,0.209c0.035,0.242-0.26,0.296-0.416,0.364
	c-2.034,0.366-4.377,0.435-6.29-0.227c-0.07-0.174,0.018-0.396,0.209-0.434C295.199,460.681,297.509,460.784,299.506,460.438"/>
<path fill="#F0C91E" d="M305.355,461.418c0.053,0.188-0.121,0.327-0.279,0.362c-1.596,0.346-3.438,0.398-5.104,0.14
	c0.069-0.156,0.087-0.401-0.017-0.522l-0.07-0.07c1.58,0.212,3.508,0.212,5.09-0.086
	C305.129,461.19,305.285,461.278,305.355,461.418"/>
<path fill="#F0C91E" d="M299.536,461.418c0.123,0.016,0.173,0.135,0.209,0.223c0.035,0.263-0.243,0.297-0.399,0.365
	c-1.98,0.383-4.359,0.418-6.253-0.208c-0.104-0.069-0.086-0.245-0.018-0.331l0.191-0.121
	C295.264,461.678,297.539,461.798,299.536,461.418"/>
<path fill="#F0BF8D" d="M305.088,462.162c0.018,0.01,0.287,0.106,0.395,0.172c-0.129,0.017-0.266,0.04-0.373,0.133l-0.076,0.063
	l0.098-0.003c0.76-0.024,1.387,0.332,1.994,0.679l0.631,0.343c0.496,0.386,1.018,0.927,1.463,1.519
	c0.014,0.011,0.249,0.099,0.249,0.099c0.202,0.068,0.392,0.135,0.535,0.304c-0.019,0.047-0.052,0.074-0.099,0.105l0.023,0.062
	c0.406-0.056,0.689,0.006,0.838,0.18c0.063,0.168,0.178,0.267,0.309,0.344c-0.039-0.003-0.078-0.008-0.116,0l-0.011,0.002
	l-0.006,0.007c-0.098,0.096-0.068,0.271,0.016,0.376c0.16,0.305,0.467,0.178,0.671,0.09c-0.032,0.203-0.084,0.389-0.28,0.503
	c0.002-0.003-0.113,0.008-0.113,0.008s-0.041,0-0.076,0.003c0.003-0.018,0.004-0.037,0.004-0.056c0-0.204-0.104-0.416-0.311-0.463
	c-0.109-0.065-0.195-0.187-0.285-0.313c-0.129-0.18-0.262-0.363-0.498-0.416c-0.174,0.007-0.293-0.08-0.42-0.171
	c-0.123-0.087-0.248-0.178-0.418-0.178h-0.063l0.033,0.05c0.037,0.062,0.102,0.1,0.166,0.137c0.094,0.055,0.176,0.103,0.176,0.21
	c0,0.007,0,0.01-0.001,0.019l-0.003,0.028l0.029,0.007c0.385,0.072,0.746,0.198,0.867,0.54c-0.066-0.012-0.139-0.011-0.197,0.023
	c-0.067,0.04-0.105,0.104-0.105,0.185c0.057,0.174,0.111,0.316,0.254,0.443l0.014,0.012c0,0,0.43-0.161,0.52-0.196
	c-0.004,0.021-0.008,0.045-0.008,0.045c-0.041,0.221-0.084,0.452-0.309,0.551c-0.078,0.055-0.17,0.052-0.271,0.047
	c0,0-0.064,0-0.109,0.001c0.008-0.043,0.016-0.089,0.016-0.132c0-0.304-0.186-0.592-0.477-0.7c-0.076-0.015-0.111-0.084-0.148-0.165
	c-0.033-0.065-0.07-0.144-0.137-0.194c-0.396-0.296-0.797-0.503-1.158-0.596l-0.056-0.016l0.015,0.056
	c0.02,0.083,0.086,0.121,0.144,0.154c0.046,0.023,0.081,0.048,0.103,0.089c-0.123,0.059-0.227,0.145-0.309,0.229l-0.086,0.088
	l0.118-0.029c0.356-0.091,0.819-0.059,1.062,0.214c0,0.001,0.059,0.118,0.1,0.192c-0.086-0.015-0.178-0.007-0.256,0.038
	c-0.09,0.051-0.147,0.128-0.166,0.227c-0.002,0.01,0.008,0.09,0.008,0.09c0.011,0.174,0.023,0.369,0.22,0.469l0.015,0.007
	c0,0,0.651-0.216,0.719-0.237c0.006,0.029,0.014,0.056,0.014,0.085c0,0.222-0.18,0.423-0.383,0.517
	c-0.215,0.078-0.438,0.145-0.607,0.021c-0.115-0.049-0.102-0.112-0.068-0.238c0.024-0.088,0.053-0.186,0.012-0.285
	c-0.108-0.157-0.251-0.264-0.389-0.366c-0.174-0.128-0.336-0.248-0.43-0.451c-0.009-0.012-0.488-0.363-0.488-0.363
	c-0.195-0.134-0.381-0.26-0.561-0.429l-0.023-0.023l-0.09,0.09l0.004,0.018c0.018,0.071,0.077,0.111,0.131,0.146
	c0.063,0.042,0.102,0.072,0.102,0.126c0,0.008-0.002,0.018-0.003,0.027c-0.187,0.052-0.312,0.136-0.372,0.255
	c-0.002,0.006-0.008,0.009-0.012,0.014l-0.047,0.107l0.098-0.065c0.309-0.21,0.66-0.021,0.973,0.146c0,0,0.156,0.083,0.157,0.083
	c0,0.002,0.126,0.171,0.22,0.293c-0.162-0.069-0.359-0.078-0.515-0.008c-0.259,0.157-0.243,0.452-0.21,0.662
	c0.002,0.009,0.021,0.07,0.021,0.07c0.014,0.056,0.032,0.132,0.127,0.146c0.012,0,0.836-0.203,1.064-0.261
	c-0.02,0.056-0.045,0.129-0.045,0.129c-0.086,0.257-0.17,0.501-0.424,0.663c-0.396,0.098-0.699,0.07-0.86-0.084
	c-0.034-0.075-0.021-0.173-0.009-0.275c0.014-0.111,0.027-0.223-0.018-0.338c-0.152-0.22-0.316-0.413-0.476-0.603
	c-0.179-0.214-0.364-0.433-0.519-0.672l-0.006-0.008l-0.01-0.005c-0.17-0.068-0.324-0.203-0.473-0.332
	c-0.294-0.252-0.596-0.514-1.016-0.309l-0.029,0.012l0.015,0.032c0.05,0.112,0.144,0.093,0.212,0.075
	c0.059-0.013,0.096-0.02,0.127,0.007c0.104,0.032,0.176,0.118,0.236,0.194c-0.088,0.016-0.156,0.071-0.216,0.129l-0.103,0.087v0.022
	c0.01,0.049,0.027,0.082,0.059,0.097c0.045,0.021,0.096-0.005,0.148-0.033c0.047-0.023,0.094-0.05,0.131-0.038
	c0.004,0,0.168,0.023,0.168,0.023c0.304,0.035,0.592,0.067,0.73,0.376c0,0,0.076,0.15,0.121,0.242
	c-0.254-0.079-0.596-0.062-0.79,0.117c-0.229,0.249-0.321,0.575-0.233,0.837c0.006,0.01,0.075,0.082,0.075,0.082l0.013,0.012
	c0,0,1.488-0.299,1.549-0.311c0.029,0.069,0.043,0.137,0.043,0.206c0,0.178-0.074,0.338-0.115,0.416
	c-0.162,0.257-0.441,0.416-0.771,0.435c-0.699,0.017-1.229-0.503-1.551-0.943c-0.066-0.091-0.105-0.201-0.146-0.318l-0.135-0.318
	l-0.033,0.043c-0.055,0.066-0.076,0.145-0.076,0.224c0,0.068,0.014,0.141,0.027,0.206c0,0,0.01,0.074,0.017,0.131
	c-0.255-0.111-0.524-0.249-0.603-0.545l-0.014-0.049l-0.041,0.03c-0.05,0.038-0.066,0.086-0.066,0.136
	c0,0.057,0.021,0.114,0.041,0.164c0.014,0.037,0.021,0.068,0.025,0.096c-0.758,0.083-1.477-0.238-2.02-0.911
	c0.002,0.006-0.209-0.297-0.209-0.297c-0.154-0.203-0.301-0.396-0.322-0.656l-0.008-0.084l-0.053,0.064
	c-0.051,0.061-0.06,0.146-0.06,0.231c0,0.026,0.001,0.055,0.001,0.082c0,0,0,0.075-0.001,0.117
	c-0.072-0.013-0.938-0.188-0.978-0.195c-0.01-0.044-0.125-0.677-0.125-0.677c-0.127-0.66-0.256-1.335-0.256-2
	c0-0.428,0.057-0.788,0.203-1.2C301.8,462.692,303.963,462.384,305.088,462.162"/>
<path fill="#F0BF8D" d="M293.404,462.276c1.575,0.428,3.655,0.469,5.715,0.122v0.448c-0.068-0.068-0.152-0.112-0.23-0.138
	l-0.043-0.015l-0.064,0.098l0.021,0.021c0.463,0.429,0.611,1.12,0.373,1.717c-0.07,0.14-0.162,0.266-0.258,0.391l-0.024,0.035
	l0.038,0.018c0.071,0.029,0.184,0.019,0.322-0.122c0.021,0.164,0.066,0.336,0.117,0.52c0.07,0.244,0.139,0.493,0.139,0.719
	c0,0.236-0.075,0.451-0.305,0.614c-0.631,0.262-1.281,0.461-1.927,0.592c0.007-0.065,0.052-0.132,0.105-0.203
	c0.065-0.089,0.129-0.18,0.139-0.287l0.002-0.032l-0.03-0.005c-0.244-0.053-0.441,0.197-0.586,0.38l-0.037,0.047
	c-0.008,0.013-0.026,0.229-0.026,0.229c-0.001,0.149-0.001,0.277-0.142,0.377c-0.463,0.558-1.132,0.63-1.841,0.648
	c0.025-0.066,0.109-0.285,0.109-0.285l-0.061,0.011c-0.121,0.023-0.23,0.099-0.346,0.177c-0.13,0.086-0.265,0.17-0.423,0.193
	c0.009-0.057,0.027-0.113,0.049-0.175c0.031-0.075,0.06-0.155,0.06-0.235c0-0.055-0.013-0.113-0.052-0.171l-0.028-0.042
	l-0.039,0.058c-0.25,0.385-0.563,0.862-1.049,1.012c-0.336,0.114-1.177,0.33-1.723-0.079c-0.214-0.152-0.255-0.405-0.255-0.639
	c0-0.065,0.004-0.128,0.007-0.189c0.381-0.012,0.864-0.006,1.293,0.155l0.024,0.011l0.096-0.137
	c0.113-0.155,0.242-0.334,0.167-0.559c-0.143-0.209-0.404-0.301-0.681-0.259c0.242-0.349,0.697-0.457,1.064-0.427
	c0.115,0.055,0.222,0.087,0.368,0.087h0.072l-0.049-0.056c-0.086-0.1-0.244-0.185-0.408-0.229c0.224-0.059,0.486-0.057,0.605-0.047
	l0.071,0.007l-0.039-0.059c-0.149-0.233-0.529-0.172-0.777-0.133l-0.091,0.014c-0.457,0.176-0.89,0.47-1.372,0.931
	c-0.276,0.129-0.631,0.412-0.688,0.766c0,0.01,0.055,0.441,0.066,0.556c-0.349,0.134-0.759,0.011-0.974-0.077
	c-0.293-0.139-0.37-0.428-0.424-0.738c0.206-0.033,0.404-0.006,0.614,0.027l0.384,0.047l0.008-0.009
	c0.175-0.141,0.299-0.416,0.201-0.63c-0.102-0.131-0.238-0.188-0.394-0.176c0.29-0.27,0.62-0.422,0.989-0.436l0.063-0.004
	l-0.037-0.05c-0.08-0.116-0.249-0.111-0.394-0.104h-0.022c0.012-0.012,0.015-0.023,0.033-0.036c0.041-0.028,0.094-0.066,0.094-0.137
	v-0.021l-0.004-0.023l-0.02-0.005c-0.183-0.047-0.343,0.123-0.462,0.247l-0.091,0.088c-0.177,0.255-0.418,0.421-0.65,0.582
	c-0.233,0.158-0.472,0.326-0.64,0.572l-0.007,0.008c0,0-0.014,0.404-0.016,0.451c-0.26,0.075-0.493-0.047-0.641-0.173
	c-0.138-0.091-0.16-0.223-0.16-0.368c0-0.038,0-0.076,0.003-0.113c0,0-0.003-0.13-0.003-0.191c0.062,0.017,0.127,0.048,0.197,0.083
	c0.154,0.082,0.328,0.172,0.512,0.073c0.154-0.132,0.236-0.302,0.236-0.465c0-0.032-0.004-0.062-0.009-0.09
	c-0.036-0.094-0.114-0.129-0.183-0.148c0.164-0.231,0.438-0.317,0.733-0.387l0.051-0.012c0,0-0.065-0.079-0.084-0.105
	c0.033-0.034,0.203-0.206,0.203-0.206l-0.045-0.019c-0.123-0.055-0.25,0.036-0.363,0.116l-0.149,0.094
	c-0.293,0.049-0.53,0.241-0.764,0.429c-0.164,0.134-0.335,0.272-0.522,0.352c-0.112,0.063-0.143,0.166-0.143,0.274
	c0,0.069,0.011,0.137,0.021,0.199c0,0,0.006,0.035,0.01,0.065c-0.215,0.01-0.391-0.164-0.451-0.346
	c0.001-0.008,0.001-0.016,0.001-0.02c0-0.078-0.05-0.133-0.094-0.176c-0.042-0.039-0.074-0.071-0.074-0.123c0-0.004,0-0.008,0-0.013
	c0.032,0.018,0.063,0.042,0.063,0.042c0.113,0.084,0.24,0.177,0.369,0.156c0.068-0.012,0.131-0.056,0.182-0.133
	c0.116-0.114,0.153-0.211,0.153-0.293c0-0.059-0.02-0.107-0.05-0.145c-0.006-0.008-0.097-0.069-0.146-0.107
	c0.131-0.142,0.307-0.197,0.479-0.25c0.115-0.035,0.234-0.073,0.335-0.133l0.018-0.009v-0.02c0-0.024-0.022-0.04-0.038-0.055
	c0.043-0.033,0.087-0.07,0.12-0.116l0.055-0.082l-0.392,0.124c0.002-0.003,0.005-0.009,0.005-0.009
	c0.332-0.442,0.803-0.59,1.262-0.731c0.301-0.096,0.613-0.188,0.883-0.371l0.021-0.013l-0.008-0.025
	c-0.031-0.109-0.146-0.101-0.23-0.093h-0.032c0.487-0.554,1.118-0.883,1.737-1.192c0.412-0.209,0.838-0.426,1.222-0.71l0.015-0.009
	v-0.091c0,0-0.243,0.025-0.333,0.032C293.114,462.688,293.383,462.311,293.404,462.276 M287.645,466.412
	c0.236-0.233,0.478-0.475,0.84-0.411c0,0,0.002,0.001,0.004,0.001c-0.346,0.1-0.7,0.209-0.903,0.577
	c-0.015,0.007-0.158,0.049-0.158,0.049c-0.009,0.001-0.018,0.003-0.025,0.006C287.417,466.619,287.645,466.412,287.645,466.412
	 M287.011,466.738c0-0.016,0.007-0.031,0.008-0.045c0.032,0.024,0.074,0.042,0.128,0.04c-0.053,0.039-0.088,0.094-0.105,0.167
	C287.026,466.851,287.011,466.795,287.011,466.738"/>
<path fill="#F0BF8D" d="M311.452,466.488c-0.122,0.156-0.383,0.034-0.399-0.158L311.452,466.488z"/>
<polygon fill="#F0BF8D" points="287.152,466.558 287.273,466.488 287.205,466.558 "/>
<path fill="#F0BF8D" d="M287.951,466.749c0.017,0.119-0.086,0.206-0.191,0.277c-0.104,0-0.174-0.086-0.26-0.138
	C287.586,466.765,287.812,466.679,287.951,466.749"/>
<path fill="#F0BF8D" d="M310.758,466.889c-0.156,0.066-0.398,0.189-0.436-0.086l0.02-0.106
	C310.496,466.729,310.636,466.749,310.758,466.889"/>
<path fill="#F0BF8D" d="M309.768,467.251l-0.521,0.21c-0.051-0.124-0.086-0.261-0.035-0.366
	C309.385,466.94,309.592,467.165,309.768,467.251"/>
<path fill="#F0BF8D" d="M288.976,467.356c-0.104,0.191-0.294,0.032-0.435,0l-0.086-0.069c0.053-0.122,0.313-0.192,0.504-0.242
	C289.134,467.062,289.012,467.271,288.976,467.356"/>
<path fill="#F0BF8D" d="M308.484,467.565l-0.801,0.207c-0.053-0.172-0.053-0.436,0.156-0.502
	C308.1,467.271,308.272,467.442,308.484,467.565"/>
<path fill="#F0BF8D" d="M306.814,467.703l-1.234,0.242c-0.016-0.242,0.088-0.484,0.315-0.589
	C306.24,467.233,306.588,467.442,306.814,467.703"/>
<path fill="#F0BF8D" d="M290.451,467.409c0.071,0.139-0.017,0.259-0.104,0.363l-0.657-0.086
	C289.81,467.513,290.157,467.287,290.451,467.409"/>
<path fill="#F0BF8D" d="M292.484,467.634c-0.018,0.799-0.678,0.018-1.094,0.226C291.652,467.601,292.12,467.373,292.484,467.634"/>
<path fill="#221714" d="M300.252,400.914l-0.887-0.391c-0.082,0.021-0.16,0.052-0.241,0.09c-0.868,0.411-1.218,1.565-0.599,2.338
	c0.344,0.601,1.18,0.793,1.817,0.566c0.686-0.241,1.085-1.237,0.859-1.956L300.252,400.914z"/>
<path fill="#FFFFFF" d="M299.492,402.179c0.098,0.217,0.361,0.311,0.581,0.21c0.224-0.101,0.319-0.36,0.218-0.578
	c-0.1-0.219-0.361-0.313-0.582-0.213C299.486,401.701,299.391,401.962,299.492,402.179"/>
<path fill="#FFFFFF" d="M301.242,402.956c-0.111-0.191-0.622-0.238-0.645-0.395c-0.01-0.083,0.468-0.269,0.781-0.083"/>
<path fill="#221714" d="M311.254,400.896l-0.507,0.05l-0.923,0.412l-0.605,0.635c-0.08,0.392-0.005,0.81,0.268,1.152
	c0.33,0.577,1.133,0.759,1.744,0.543c0.705-0.248,1.096-1.32,0.773-2.016C311.85,401.336,311.58,401.056,311.254,400.896"/>
<path fill="#FFFFFF" d="M310.24,402.433c0.096,0.209,0.346,0.298,0.561,0.199c0.209-0.096,0.303-0.344,0.207-0.555
	c-0.098-0.21-0.346-0.3-0.559-0.202C310.236,401.972,310.145,402.222,310.24,402.433"/>
<path fill="#FFFFFF" d="M312.098,403.149c-0.107-0.185-0.598-0.229-0.619-0.378c-0.012-0.08,0.447-0.26,0.748-0.08"/>
</svg>
