<?xml version="1.0" encoding="utf-8"?>
<!-- Generator: Adobe Illustrator 14.0.0, SVG Export Plug-In . SVG Version: 6.00 Build 43363)  -->
<!DOCTYPE svg PUBLIC "-//W3C//DTD SVG 1.1//EN" "http://www.w3.org/Graphics/SVG/1.1/DTD/svg11.dtd">
<svg version="1.1" id="レイヤー_1" xmlns="http://www.w3.org/2000/svg" xmlns:xlink="http://www.w3.org/1999/xlink" x="0px"
	 y="0px" width="595.28px" height="841.89px" viewBox="0 0 595.28 841.89" enable-background="new 0 0 595.28 841.89"
	 xml:space="preserve">
<path fill="#221714" d="M314.501,372.221c-0.4,0.56-0.605,1.3-0.783,1.953l-0.152,0.521c-0.533,1.793-1.035,3.228-2.236,4.016
	c-1.146,0.756-2.182,1.232-3.627,1.873c-1.248-0.696-2.688-1.187-3.801-1.537c-0.137-0.306-0.217-0.636-0.217-0.976
	c-0.006-0.907,0.6-1.801,1.084-2.517c0.053-0.081,0.316-0.405,0.316-0.405l0.264-0.313c0.186-0.238,0.395-0.563,0.398-0.975
	l-0.047-0.315c-0.238-0.809-1.16-1.426-2.145-1.44l-0.605,0.093c0,0.002-0.377,0.287-0.377,0.287l-0.627,1.157
	c-0.559,1.342-1.061,2.674-1.061,4.191l0.02,0.501c-1.115-0.317-2.361-0.459-3.664-0.459c-2.953,0-6.098,0.729-8.623,1.996
	c-0.002,0-0.42,0.232-0.42,0.232s-0.582,0.303-0.594,0.308c0.055-0.011,0.238-0.825,0.238-0.825l0.309-1.6
	c0.002-0.031,0.02-0.375,0.02-0.375l-0.055-0.417c-0.109-0.341-0.385-0.618-0.82-0.832c-0.373-0.176-0.801-0.274-1.205-0.274
	l-0.127,0.004c-0.922,0.058-1.643,0.608-1.951,1.13c-0.186,0.33-0.211,0.71-0.213,1.004l0.074,0.979l0.055,0.593l0.012,0.217
	l0.037,0.909c0.004,0.515-0.063,0.924-0.176,1.153l-0.322,0.264l-0.646,0.096c-0.789,0.001-1.822-0.299-2.264-0.427l-0.129-0.036
	l-1.242-0.407c-0.465-0.192-0.801-0.434-0.924-0.659c-0.133-0.239-0.203-0.584-0.203-1.008c0-0.741,0.211-1.588,0.322-2.043
	c0-0.002,0.059-0.206,0.059-0.206l0.158-0.867c-0.053-0.96-0.816-1.707-1.738-1.781l-0.217-0.009
	c-0.439,0.004-1.518,0.103-2.02,0.88c-0.17,0.271-0.256,0.581-0.254,0.912c0.002,0.442,0.141,0.837,0.26,1.187l0.055,0.159
	c0.148,0.421,0.393,1.236,0.393,1.949c-0.006,0.622-0.178,1.028-0.529,1.232c-0.479,0.283-1.229,0.451-2.002,0.451
	c-0.645,0-1.283-0.113-1.746-0.31c-1.033-0.432-1.764-1.392-2.367-2.255l-1.15-1.925l-0.635-1.123
	c-0.354-0.602-1.357-1.998-2.998-2.009l-0.32,0.021c-0.488,0.058-0.984,0.339-1.471,0.834c-0.418,0.432-0.744,0.958-0.896,1.444
	l-0.049,0.289c0.02,0.585,0.469,1.002,0.947,1.365l0.936,0.586l0.225,0.13c1.549,0.972,2.648,1.981,3.926,3.151l0.141,0.133
	l0.363,0.338c0.516,0.493,1.055,1.004,1.807,1.351c0.727,0.331,1.58,0.485,2.703,0.488l2.691-0.191l1.369-0.133l0.928-0.035
	c1.303,0,2.541,0.214,3.787,0.653c0,0.002,0.117,0.041,0.117,0.041l0.811,0.347c-1.826,1.919-3.729,4.497-3.994,8.662l-0.037,1.157
	c0,1.56,0.195,3.192,0.568,4.723l0.34,1.141l0.383,1.328l0.096,0.409c0.146,0.624,0.332,1.397,0.332,1.979
	c0,0.002-0.021,0.303-0.021,0.303l-0.191,0.755l-0.285,1.126l-0.07,1.035c0,0,0.027,0.68,0.031,0.706
	c-0.012-0.053-0.293-0.189-0.293-0.189l-0.938-0.555l-0.521-0.599l-0.387-0.468l-1.5-1.439c0,0-1.475-1.427-1.479-1.431
	c0.012-0.004,0.059-0.25,0.059-0.25c-0.004-0.35-0.225-0.667-0.551-0.788v-0.009c0-0.169-0.104-0.358-0.258-0.476
	c0,0-0.418-0.175-0.424-0.178c0.006,0,0.006-0.024,0.006-0.062c0-0.097-0.016-0.291-0.016-0.291l-0.184-1.288
	c-0.115-0.495-0.404-1.129-1.107-1.334c0.02,0.01-0.373-0.354-0.373-0.354l-0.467-0.512c-0.271-0.521-0.441-1.237-0.607-1.934
	l-0.035-0.13c-0.182-0.729-0.365-1.485-0.766-2.039c-0.176-0.254-0.445-0.414-0.736-0.44l-0.178-0.011
	c-0.344-0.006-0.645,0.14-0.805,0.392c-0.178,0.262-0.201,0.564-0.203,0.798c0.002,0.536,0.162,1.133,0.277,1.565l0.078,0.307
	c0,0,0.309,1.159,0.318,1.19c-0.021-0.14-1.328-2.033-1.328-2.033c-0.002-0.002-0.121-0.201-0.121-0.201
	c-0.172-0.282-0.379-0.638-0.688-0.832c-0.002,0-0.547-0.145-0.547-0.145c-0.242,0.003-0.467,0.072-0.654,0.204
	c-0.211,0.146-0.348,0.377-0.373,0.625l-0.008,0.16c0.008,0.617,0.346,1.129,0.59,1.499l0.184,0.294l0.213,0.361l0.523,0.93
	c-0.494,0.146-0.814,0.585-0.816,1.1l0.01,0.165c-0.24,0.006-0.463,0.125-0.617,0.304c-0.178,0.207-0.264,0.48-0.264,0.83
	c0.004,0.683,0.328,1.452,0.482,1.822l0.107,0.259c0.193,0.465,0.395,0.945,0.732,1.36c0.406,0.489,0.898,0.845,1.332,1.161
	l0.854,0.696v0.02c0,0.202,0.096,0.411,0.25,0.541l0.291,0.166c0.002,0.184,0.102,0.374,0.25,0.492l0.455,0.195
	c1.299,2.03,2.482,3.867,4.111,5.434c0.604,0.578,1.281,1.002,1.938,1.417l0.939,0.612l1.217,0.937l1.436,1.092
	c0.049,0.231,0.25,0.402,0.41,0.453l0.439,0.138c0.006,0.001,0.135,0.134,0.135,0.134c0.029,0.033,0.375,0.286,0.375,0.286
	c0.527,0.161,1.025,0.488,1.549,0.837l1.146,0.692c-0.02,0.001-0.121,1.009-0.121,1.009c0,1.16,0.377,2.288,1.033,3.097
	c-0.502,1.619-0.744,3.021-0.744,4.255c0,0,0.17,1.613,0.172,1.631c-0.012-0.021-0.236,0.085-0.236,0.085l-0.131,0.168
	c-0.219,0.671-0.418,1.397-0.418,2.138l0.031,0.476c-0.217,0.581-0.326,1.382-0.33,2.364l0.021,0.695
	c0.004,0.104,0.063,0.201,0.154,0.251c0,0.002,0.262,0.066,0.262,0.066s0.125-0.013,0.131-0.013l-0.004,0.002
	c0,0.041,0.178,0.382,0.178,0.382l0.051,0.09l0.252,0.598l0.035,0.46l-0.047,1.131c0,0,0.021,0.417,0.021,0.422
	c-0.018,0-0.256,0.222-0.256,0.222l-0.137,0.559l0.111,0.83l0.068,0.368l0.102,1.592l0.029,0.798
	c0.047,0.818,0.121,1.598,0.514,2.152c0.021,0.023,0.305,0.157,0.305,0.157s-0.004,0.01-0.004,0.029
	c0,0.217,0.146,1.569,0.146,1.569c0.168,1.657,0.34,3.372,0.83,4.759l0.07,0.192l0.443,1.083c0.236,0.435,0.523,0.719,0.875,0.872
	v0.004c0,0.102,0.381,2.632,0.381,2.632l0.301,1.922c-0.262,0.126-0.436,0.444-0.439,0.798c0,0,0.131,0.463,0.131,0.469
	c-0.01,0-0.131,0.397-0.131,0.397c0.01,0.279,0.129,0.545,0.33,0.73c-0.006-0.054-0.688,0.21-0.688,0.21l-0.533,0.186
	c-0.717,0.294-1.275,0.641-1.816,1.127l-0.313,0.32l-0.32,0.304c-0.014,0.005-0.102,0.024-0.102,0.024l-0.344,0.092
	c-0.002,0.003-0.381,0.243-0.381,0.243l-0.146,0.021l-0.385,0.069l-0.379,0.256c-0.016,0.017-0.23,0.185-0.23,0.185l-0.287,0.106
	c-0.02,0.008-0.357,0.238-0.357,0.238l-0.191,0.573c0.004,0.273,0.117,0.554,0.318,0.787c0,0,0.512,0.356,0.514,0.357
	c0.002,0.005,0.346,0.372,0.346,0.372l0.658,0.157c0.242,0.251,0.59,0.556,1.146,0.564c0.193,0.406,0.662,0.666,1.195,0.658
	l0.207-0.012c0.332,0.334,0.793,0.516,1.303,0.514l0.174-0.007c0.457-0.04,0.789-0.229,1.059-0.382l0.363-0.179l1.201-0.157
	c0.438-0.015,0.918-0.031,1.391-0.24l0.693-0.462l0.215-0.226l0.26-0.248c0.307-0.159,0.828-0.191,1.373-0.223l0.406-0.024
	l0.996-0.201c0.352-0.142,0.605-0.397,0.719-0.723l0.15-0.876c-0.006-0.624-0.199-1.212-0.371-1.731l-0.244-0.851l-0.076-0.551
	l0.02-0.107l0.246-0.512c0-0.064-0.1-0.464-0.1-0.464s-0.063-0.108-0.063-0.11c0-0.043,0.117-0.447,0.117-0.447
	c-0.004-0.066-0.23-0.515-0.23-0.515c-0.047-0.051-0.107-0.118-0.107-0.118c-0.018-0.021-0.055-0.369-0.055-0.369l0.049-1.018
	c0,0,0.039-3.907,0.039-3.914c0.002,0.034,2.445,0.091,2.445,0.091l2.352,0.051c0.604,1.31,1.326,2.814,1.906,4.413
	c-0.008,0.002-0.141,0.482-0.141,0.482c0.002,0.266,0.092,0.511,0.25,0.67c-0.006-0.037-0.055,0.244-0.055,0.244
	c0.008,0.348,0.193,0.66,0.482,0.824c-0.09,0.34-0.17,0.728-0.318,0.935c-0.51,0.314-1.059,0.699-1.592,1.323l-0.496,0.699
	c-0.242,0.37-0.473,0.719-0.707,0.895c-0.002,0-0.375,0.206-0.375,0.206l-0.52,0.283c-0.002,0-0.412,0.428-0.412,0.428l-0.178,0.201
	c-0.004,0-0.324,0.197-0.324,0.197c-0.07,0.041-0.094,0.056-0.094,0.056l-0.449,0.401c-0.002,0.001-0.178,0.651-0.178,0.651
	c0,0.417,0.225,0.813,0.613,1.087c0.357,0.253,0.801,0.393,1.262,0.393l0.27-0.018c0.193,0.247,0.561,0.391,1.016,0.396l0.439-0.053
	c0.217,0.168,0.516,0.266,0.816,0.269l0.221-0.02c0.256,0.239,0.631,0.298,0.893,0.301c0.002,0,0.412-0.06,0.412-0.06
	c0.193,0.172,0.449,0.267,0.715,0.267c0.465-0.007,0.85-0.23,1.176-0.441l0.377-0.267l0.512-0.339c0.004,0,0.652-0.301,0.652-0.301
	c0.492-0.212,1.004-0.428,1.408-0.878c0.002,0,0.668-0.936,0.668-0.936l0.623-0.811l0.824-0.439l0.557-0.254
	c0.732-0.363,1.119-0.854,1.178-1.504l0.016-0.308c-0.01-0.979-0.455-1.741-0.85-2.412l-0.42-0.775c0-0.003-0.156-0.563-0.156-0.563
	c0-0.024,0.037-0.121,0.037-0.121l0.125-0.451c-0.002-0.057-0.221-0.521-0.221-0.521c-0.049-0.049-0.094-0.098-0.094-0.099
	c0.01-0.003,0.045-0.235,0.045-0.235c-0.008-0.371-0.217-0.7-0.568-0.882c0-0.034-0.521-1.792-0.521-1.792s-0.65-2.237-0.652-2.243
	c0.01,0.022,0.232-0.135,0.232-0.135c0.217-0.162,0.34-0.362,0.367-0.588v-0.005c0-0.102-0.168-0.743-0.168-0.743
	c0-0.001-0.102-0.241-0.102-0.241l-0.133-0.312c-0.477-1.316-0.789-2.537-0.922-3.628c0.008,0,0.246-0.461,0.246-0.461l0.074-0.719
	l-0.023-0.925l0.006-0.229c0.063-0.888,0.26-1.619,0.465-2.391l0.188-0.716l0.1-0.364l0.223-1.13l-0.023-0.255
	c-0.002,0-0.125-0.246-0.125-0.246c-0.029-0.04-0.063-0.09-0.063-0.09c0.002-0.008,0.088-0.266,0.088-0.266l0.137-0.338
	c0.137-0.465,0.213-1.024,0.213-1.613l-0.139-1.378l-0.152-1.383l-0.002-0.225l0.002-0.451l-0.105-0.924l-0.199-0.296
	c-0.047-0.049-0.123-0.133-0.123-0.133c-0.012-0.011-0.02-0.1-0.02-0.1l0.117-0.691l0.074-0.341l0.6-2.851
	c0.947,2.048,2.041,4.205,3.232,6.219c-0.01,0.003-0.074,0.311-0.074,0.311c0.008,0.265,0.105,0.502,0.27,0.669
	c-0.006-0.034-0.045,0.199-0.045,0.199c0.012,0.285,0.129,0.535,0.328,0.708c-0.012-0.033-0.07,0.659-0.07,0.659
	c0.002,0.937,0.307,1.853,0.834,2.517l0.516,0.553l0.33,0.343l0.324,0.553l0.262,0.521c0.119,0.189,0.486,0.769,0.826,1.036
	c0.256,0.192,0.529,0.233,0.711,0.233c0.496-0.006,0.922-0.252,1.113-0.639c0-0.004,0.129-0.563,0.129-0.563
	c-0.004-0.386-0.176-0.692-0.313-0.941c-0.01-0.011-0.135-0.233-0.135-0.237c0.004,0.052,1.652,0.216,1.652,0.216l0.926,0.061
	l0.639,0.022l0.809,0.06c0.002,0,0.494,0.167,0.494,0.167c0.359,0.135,0.77,0.287,1.186,0.291c0.326,0.005,0.629-0.114,0.854-0.346
	c0.857,0.008,1.334-0.646,1.334-1.249v-0.021c0-0.32-0.162-0.632-0.426-0.821c0.016-0.003,0.059-0.25,0.059-0.25
	c-0.008-0.433-0.324-0.704-0.496-0.849l-0.184-0.146l-0.33-0.293c-0.004-0.001-0.193-0.388-0.193-0.388l-0.252-0.53
	c-0.498-0.753-1.545-1.426-2.047-1.749c-0.002,0-2.215-1.03-2.225-1.034c0.017-0.004,0.045-0.182,0.045-0.182
	c-0.01-0.352-0.24-0.661-0.572-0.771c0-0.021-0.193-0.468-0.193-0.468l-0.262-0.219c-0.541-2.091-1.209-4.125-1.854-6.091
	c-0.77-2.351-1.566-4.777-2.17-7.332c0.17-0.121,0.281-0.366,0.281-0.624v-0.017c0-0.26-0.111-0.51-0.295-0.666
	c0.012,0.032,0.023-0.098,0.023-0.098c0-0.005-0.219-0.58-0.219-0.58c0.008,0.033,0.051-0.26,0.051-0.26
	c-0.01-0.441-0.24-0.824-0.428-1.129l-0.105-0.174l-0.762-1.004c-0.002,0-0.244-0.164-0.244-0.164
	c-0.037-0.025-0.445-0.577-0.445-0.577l-0.084-0.126l-0.254-0.35c0.797-0.257,1.275-0.885,1.332-1.713l0.014-0.423l-0.078-1.212
	l-0.049-0.592c0,0-0.07-1.927-0.07-1.93c0-1.719,0.186-3.179,0.553-4.34l0.873-2.429c0.551-1.451,1.119-2.952,1.455-4.668
	c0.168-0.862,0.254-1.761,0.254-2.674c0-1.814-0.344-3.725-0.994-5.525c-0.822-2.285-1.951-4.167-3.352-5.598
	c0.02,0.038,0.41-0.13,0.41-0.13l2.014-0.834l0.236-0.092c0.822-0.312,1.754-0.666,2.725-0.666l0.168,0.003
	c0.975,0.041,1.924,0.278,2.842,0.51l0.482,0.119c0.725,0.173,1.57,0.362,2.416,0.362l1.24-0.16c1.467-0.424,2.742-1.1,3.971-1.753
	l1.576-0.811l0.764-0.368l3.258-1.665l0.109-0.065l0.555-0.342c0.258-0.184,0.479-0.356,0.596-0.625l0.09-0.446
	c-0.011-0.538-0.285-0.97-0.533-1.195v-0.001c-0.59-0.503-1.732-0.829-2.91-0.837c-0.729,0.001-1.314,0.135-1.74,0.397
	c-0.715,0.44-1.24,1.005-1.742,1.553l-1.043,1.019c0.006-0.002-0.754,0.608-0.754,0.608l-0.482,0.411
	c-0.002,0-0.313,0.282-0.313,0.282c-0.059,0.059-0.459,0.321-0.459,0.321l-1.412,0.804c-0.4,0.159-0.941,0.246-1.521,0.245
	l-0.867-0.06l-1.49-0.317c-0.695-0.175-1.416-0.357-2.289-0.391l-0.162-0.002L315.333,378c-0.002,0-0.406-0.027-0.406-0.027
	c-0.02,0.021,0.16-0.48,0.16-0.48l0.258-0.472l0.076-0.133l0.986-1.569l0.48-0.734c0.002-0.001,0.119-0.186,0.119-0.186
	c0.223-0.347,0.5-0.778,0.541-1.25c0.006-0.525-0.209-0.919-0.584-1.17c-0.318-0.218-0.729-0.338-1.156-0.339
	C315.478,371.644,314.864,371.719,314.501,372.221"/>
<path fill-rule="evenodd" clip-rule="evenodd" fill="#221714" d="M325.651,376.352c0.957-0.751,1.629-1.866,2.771-2.567
	c1.098-0.675,3.486-0.292,4.295,0.408c0.248,0.218,0.563,0.822,0.363,1.295c-0.143,0.339-0.785,0.681-1.137,0.887
	c-1.268,0.744-2.678,1.385-3.998,2.021c-1.826,0.881-3.469,1.963-5.5,2.545c-1.121,0.322-2.395,0.064-3.5-0.204
	c-1.08-0.263-2.191-0.587-3.381-0.637c-1.215-0.052-2.33,0.429-3.25,0.772c-0.998,0.374-1.918,0.799-2.816,1.183
	c1.557,1.485,2.734,3.461,3.564,5.77c0.83,2.298,1.289,5.149,0.73,8.035c-0.51,2.603-1.561,4.683-2.318,7.064
	c-0.551,1.727-0.672,3.985-0.5,6.386c0.051,0.723,0.17,1.459,0.113,2.18c-0.072,0.945-0.705,1.447-1.59,1.635
	c0.443,0.259,0.691,0.939,1.09,1.343c0.072,0.073,0.201,0.119,0.295,0.204c0.254,0.229,0.498,0.587,0.705,0.931
	c0.262,0.442,0.689,1.053,0.385,1.501c0.193,0.099,0.395,0.502,0.182,0.727c0.463,0.122,0.486,0.876,0.045,1.045
	c1.119,4.831,2.881,9.025,4.113,13.745c0.236,0.128,0.535,0.382,0.387,0.749c0.4-0.064,0.781,0.432,0.477,0.797
	c0.688,0.547,1.666,0.694,2.432,1.18c0.621,0.396,1.543,1.029,1.953,1.66c0.188,0.291,0.256,0.657,0.455,0.931
	c0.303,0.414,1.313,0.747,0.816,1.499c0.969,0.353,0.426,1.872-0.658,1.638c-0.555,0.734-1.508,0.137-2.318-0.091
	c-0.381-0.109-1.047-0.049-1.496-0.093c-1-0.098-2.182-0.056-3.045-0.341c0.025,0.629,0.854,1.154,0.475,1.978
	c-0.188,0.41-0.898,0.646-1.361,0.296c-0.24-0.182-0.578-0.677-0.75-0.953c-0.24-0.394-0.324-0.78-0.615-1.115
	c-0.252-0.291-0.566-0.543-0.84-0.885c-0.611-0.768-0.934-1.983-0.684-3.138c-0.258-0.108-0.484-0.573-0.225-0.861
	c-0.281-0.104-0.471-0.595-0.227-0.888c-1.332-2.234-2.52-4.615-3.705-6.997c-0.273,1.121-0.543,2.302-0.771,3.59
	c-0.061,0.335-0.258,0.945-0.18,1.249c0.039,0.171,0.291,0.307,0.34,0.455c0.137,0.438,0.07,1.024,0.09,1.522
	c0.018,0.482,0.061,0.955,0.158,1.43c0.199,0.967,0.166,2.058-0.066,2.842c-0.084,0.279-0.273,0.503-0.227,0.773
	c0.018,0.102,0.16,0.214,0.182,0.316c0.086,0.427-0.174,1.124-0.297,1.614c-0.266,1.068-0.576,1.966-0.658,3.157
	c-0.055,0.752,0.199,1.905-0.318,2.249c0.145,1.322,0.518,2.646,0.953,3.839c0.131,0.351,0.424,0.868,0.385,1.159
	c-0.039,0.343-0.412,0.468-0.635,0.658c0.361,1.517,0.881,2.878,1.273,4.362c0.33,0.118,0.652,0.507,0.43,0.955
	c0.113,0.204,0.32,0.271,0.344,0.523c0.018,0.199-0.143,0.367-0.16,0.567c-0.016,0.169,0.086,0.515,0.182,0.727
	c0.455,1.002,1.363,1.962,1.229,3.341c-0.133,1.313-1.752,1.387-2.455,1.999c-0.543,0.473-0.742,1.116-1.316,1.773
	c-0.502,0.568-1.277,0.732-1.979,1.111c-0.752,0.408-1.742,1.555-2.592,0.705c-0.402,0.204-1.047,0.074-1.271-0.229
	c-0.422,0.13-0.836-0.045-1.066-0.25c-0.514,0.177-1.188,0.059-1.385-0.34c-1.098,0.238-2.389-0.603-1.818-1.637
	c0.129-0.234,0.563-0.371,0.795-0.566c0.207-0.171,0.338-0.452,0.568-0.614c0.289-0.203,0.652-0.299,0.908-0.5
	c0.477-0.37,0.85-1.168,1.25-1.636c0.484-0.569,0.992-0.937,1.568-1.295c0.266-0.33,0.334-0.863,0.432-1.363
	c-0.389-0.059-0.686-0.619-0.365-0.977c-0.363-0.105-0.449-0.741-0.158-0.998c-0.596-1.678-1.33-3.214-2.066-4.75
	c-1.699-0.103-3.59-0.018-5.27-0.136c-0.035,1.164-0.049,2.733-0.049,4.202c0,0.476-0.113,1.083,0,1.454
	c0.053,0.179,0.322,0.304,0.342,0.524c0.016,0.187-0.078,0.322-0.16,0.476c0.107,0.243,0.219,0.31,0.205,0.567
	c-0.012,0.243-0.217,0.32-0.25,0.477c-0.045,0.206,0.021,0.545,0.068,0.773c0.211,1.027,0.893,2.142,0.477,3.294
	c-0.389,1.081-2.367,0.51-3.338,1c-0.203,0.104-0.398,0.388-0.547,0.522c-0.166,0.15-0.387,0.31-0.613,0.41
	c-0.816,0.359-1.688,0.08-2.568,0.386c-0.408,0.142-0.777,0.502-1.338,0.546c-0.543,0.041-1.01-0.131-1.367-0.521
	c-0.682,0.113-1.158-0.154-1.314-0.637c-0.635,0.049-0.908-0.261-1.184-0.568c-0.424,0.044-0.85-0.104-0.93-0.478
	c-0.455-0.041-0.996-0.765-0.613-1.273c0.088-0.118,0.322-0.16,0.52-0.249c0.256-0.113,0.359-0.346,0.594-0.433
	c0.17-0.062,0.354-0.036,0.521-0.089c0.139-0.045,0.264-0.188,0.41-0.252c0.139-0.063,0.309-0.063,0.432-0.113
	c0.229-0.095,0.477-0.458,0.727-0.682c0.518-0.468,1.035-0.787,1.727-1.067c0.58-0.236,1.23-0.32,1.613-0.751
	c-0.443-0.07-0.773-0.785-0.295-1.066c-0.422-0.271-0.229-1.011,0.227-1.091c-0.232-1.669-0.547-3.258-0.75-4.954
	c-0.787-0.229-1.074-1.202-1.363-2.02c-0.658-1.858-0.736-4.438-1.021-6.567c-0.025-0.102-0.209,0.074-0.295-0.023
	c-0.637-0.883-0.383-2.958-0.592-4.408c-0.098-0.668-0.453-1.651,0.252-1.749c-0.154-0.757,0.076-1.508-0.047-2.248
	c-0.084-0.495-0.494-0.919-0.594-1.342c-0.094-0.039-0.293,0.076-0.43,0c-0.055-1.081,0.01-2.229,0.318-3.021
	c-0.145-0.854,0.137-1.836,0.365-2.544c0.125-0.077,0.289-0.117,0.43-0.185c-0.545-2,0.039-4.465,0.545-6.132
	c-0.818-0.926-1.316-2.569-0.908-4.203c-0.986-0.423-1.879-1.308-2.928-1.638c-0.195-0.06-0.279-0.315-0.48-0.406
	c-0.299-0.135-0.674-0.08-0.705-0.502c-0.967-0.626-1.797-1.427-2.748-2.088c-0.969-0.677-1.994-1.189-2.84-1.999
	c-1.654-1.592-2.875-3.514-4.158-5.501c-0.373-0.033-0.627-0.189-0.592-0.636c-0.309-0.07-0.551-0.203-0.521-0.611
	c-0.578-0.679-1.568-1.102-2.246-1.933c-0.357-0.436-0.557-0.977-0.799-1.544c-0.357-0.847-1.02-2.65,0.5-2.591
	c-0.291-0.715,0.203-1.271,0.842-1.34c-0.256-0.574-0.559-1.047-0.887-1.614c-0.268-0.461-0.799-1.069-0.727-1.771
	c0.049-0.489,0.703-0.694,1.111-0.453c0.266,0.155,0.518,0.623,0.707,0.93c0.592,0.971,1.346,2.002,2.043,2.84
	c-0.012-0.725-0.291-1.451-0.477-2.228c-0.188-0.773-0.898-2.832,0.498-2.676c0.244,0.025,0.393,0.135,0.525,0.317
	c0.689,0.942,0.76,2.857,1.385,4.063c0.244,0.469,0.658,0.64,0.955,1c1.131,0.269,1.049,1.751,1.201,2.998
	c0.371-0.05,0.746,0.188,0.639,0.612c0.418-0.008,0.715,0.503,0.434,0.843c0.926,1.099,2.135,1.945,3.111,3.02
	c0.316,0.35,0.584,0.787,0.93,1.092c0.508,0.443,1.219,0.645,1.799,1.022c-0.107-0.706-0.129-1.501-0.027-2.206
	c0.107-0.715,0.396-1.316,0.479-1.883c0.115-0.798-0.258-2.094-0.41-2.794c-0.191-0.881-0.529-1.672-0.727-2.479
	c-0.406-1.683-0.654-3.727-0.52-5.788c0.256-4.001,1.977-6.472,4.086-8.721c-0.283-0.359-0.789-0.479-1.225-0.636
	c-1.359-0.479-2.934-0.781-4.838-0.637c-2.221,0.17-4.787,0.704-6.611-0.137c-0.863-0.393-1.436-1.033-2.092-1.635
	c-1.359-1.245-2.479-2.297-4.113-3.319c-0.463-0.287-2.213-1.118-1.932-2.019c0.271-0.869,1.232-1.969,2.115-2.069
	c1.463-0.162,2.5,0.961,3.02,1.842c0.629,1.063,1.109,2.087,1.795,3.068c0.656,0.931,1.408,1.901,2.5,2.362
	c1.109,0.466,2.951,0.466,4.021-0.159c1.08-0.633,0.637-2.49,0.271-3.546c-0.205-0.603-0.508-1.323-0.09-1.998
	c0.352-0.572,1.281-0.775,1.955-0.728c0.742,0.053,1.42,0.682,1.451,1.408c0.021,0.407-0.131,0.771-0.201,1.068
	c-0.205,0.826-0.586,2.388-0.094,3.272c0.383,0.685,1.652,1.014,2.477,1.248c0.785,0.227,3.096,0.911,3.588-0.089
	c0.301-0.604,0.203-1.669,0.162-2.432c-0.045-0.805-0.291-1.825,0.043-2.409c0.254-0.439,0.906-0.933,1.705-0.976
	c0.729-0.042,1.672,0.323,1.842,0.884c0.064,0.21,0.039,0.448,0.023,0.683c-0.068,0.957-0.506,2.059-0.547,2.84
	c0.533-0.066,0.975-0.419,1.453-0.658c3.127-1.572,8.111-2.651,12.496-1.456c-0.258-1.844,0.375-3.485,0.979-4.929
	c0.15-0.356,0.51-1.175,0.818-1.272c0.975-0.313,2.154,0.372,2.363,1.137c0.189,0.704-0.533,1.216-0.842,1.681
	c-0.684,1.026-1.719,2.416-0.861,4.001c1.424,0.442,2.799,0.939,3.996,1.609c1.43-0.633,2.559-1.134,3.793-1.953
	c1.336-0.884,1.846-2.462,2.365-4.181c0.236-0.79,0.432-1.754,0.885-2.384c0.592-0.821,2.586-0.492,2.5,0.726
	c-0.031,0.429-0.365,0.91-0.615,1.295c-0.451,0.712-1.041,1.543-1.475,2.317c-0.182,0.326-0.613,1.027-0.545,1.341
	c0.066,0.306,0.777,0.209,1.273,0.226c1.404,0.05,2.41,0.521,3.748,0.707c0.93,0.128,1.871,0.061,2.543-0.205
	c0.686-0.272,1.285-0.726,1.865-1.091c0.123-0.079,0.205-0.243,0.359-0.341C324.901,377.072,325.112,376.62,325.651,376.352"/>
<path fill="#F0BF8D" d="M311.196,402.776c-0.453,1.231-0.68,2.499-0.709,3.984l-0.021,2.298l0.045,0.868
	c0.037,0.471,0.078,0.915,0,1.342c-0.096,0.545-0.609,1.154-1.268,1.188c-0.719,0.039-1.412-0.473-1.701-0.971l-0.055-0.168
	c-0.051-0.198-0.113-0.445-0.318-0.472c-0.217-0.03-0.373,0.257-0.469,0.431l-0.035,0.066c-0.643,0.943-1.723,1.834-3.215,2.646
	c-2.377,1.299-4.914,2.076-7.609,2.445l-0.789,0.113c-2.381,0.342-5.342,0.767-7.283-0.24l-0.191-0.138
	c-0.102-0.085-0.207-0.173-0.328-0.209c-0.189-0.06-0.387-0.074-0.576-0.089l-0.408-0.05c-1.762-0.415-3.4-1.388-4.682-2.943
	c-0.934-1.138-2.426-3.512-1.908-6.621l0.156-0.687c0.102-0.4,0.201-0.778,0.186-1.218c-0.02-0.62-0.15-1.191-0.283-1.743
	l-0.129-0.555c-0.732-3.154-1.746-7.477-0.566-11.064c0.621-1.909,1.754-3.737,3.363-5.437c3.441-3.643,6.961-5.719,11.074-6.538
	c2.506-0.494,5.295-0.424,7.865,0.195c0.424,0.828,0.896,1.762,1.268,2.77c-0.213,0.18-0.33,0.417-0.338,0.697v0.026
	c0,0.565,0.422,1.171,0.824,1.495c0.953,0.774,2.543,0.936,3.699,0.377c0.379-0.184,1.047-0.636,1.158-1.172
	c0.012-0.05,0.016-0.1,0.016-0.15c0-0.126-0.047-0.245-0.119-0.358c0.15-0.067,0.527-0.235,0.527-0.235s0.438-0.194,0.533-0.237
	c1.813,1.521,3.252,4.08,4.059,7.222c0.236,0.922,0.48,2.238,0.48,3.745c0,0.454-0.023,0.93-0.074,1.414
	c-0.127,1.182-0.373,2.441-0.693,3.585l0.012-0.243c0.148-1.674-0.141-3.189-1.188-3.913c-0.6-0.413-1.275-0.522-1.953-0.313
	c-1.018,0.31-1.957,1.304-2.449,2.589c-0.465,1.229-0.156,3.632,0.865,4.685c0.502,0.513,1.121,0.666,1.797,0.446
	c0.078-0.024,0.123-0.112,0.096-0.19c-0.025-0.08-0.191-0.033-0.27-0.008c-0.564,0.184-1.035,0.03-1.451-0.396
	c-0.936-0.962-1.174-3.305-0.746-4.429c0.451-1.184,1.262-1.955,2.178-2.236c0.592-0.181,1.184-0.112,1.709,0.254
	c1.072,0.736,1.248,2.886,0.877,5.143C311.974,400.709,311.479,402.02,311.196,402.776"/>
<path fill="#221714" d="M279.114,417.745"/>
<path fill="#221714" d="M282.626,463.412"/>
<path fill="#221714" d="M290.813,466.59"/>
<path fill-rule="evenodd" clip-rule="evenodd" fill="#C06221" d="M315.565,375.511c-0.174-0.073-0.322-0.379-0.545-0.25
	c0.01,0.267,0.279,0.279,0.406,0.433c-0.26,0.701-1.219,1.488-1.316,2.385c-0.051,0.471,0.342,0.555,0.818,0.569
	c-0.02,0.2-0.309,0.457-0.093,0.613c0.237-0.081,0.22-0.419,0.341-0.613c1.49-0.068,2.662,0.385,3.932,0.613
	c-0.043,0.266-0.039,0.689,0.158,0.682c0.268-0.009-0.102-0.453,0.068-0.635c3.357,0.539,4.941-1.423,6.635-2.843
	c0.23,0.229,0.553,0.709,0.908,0.592c-0.086-0.314-0.596-0.405-0.729-0.75c1.096-0.939,2.174-2.555,4.34-2.408
	c0.412,0.027,0.93,0.183,1.271,0.363c0.301,0.156,0.799,0.504,0.752,0.887c-0.037,0.289-0.502,0.613-0.727,0.771
	c-0.326,0.233-0.611,0.394-0.908,0.591c-0.359-0.08-0.693-0.526-1.047-0.387c0.127,0.311,0.553,0.327,0.795,0.522
	c-1.898,1.139-3.906,2.166-5.996,3.114c-0.164-0.147-0.18-0.726-0.41-0.684c-0.242,0.049,0.166,0.594,0.18,0.773
	c-0.84,0.278-1.668,0.792-2.701,0.864c-1.695,0.115-3.141-0.468-4.541-0.706c-0.006-0.193,0.115-0.507-0.049-0.589
	c-0.207,0.021-0.141,0.313-0.16,0.522c-1.754-0.43-3.541,0.172-4.906,0.682c-0.104-0.179-0.16-0.697-0.363-0.659
	c-0.25,0.044,0.15,0.563,0.157,0.75c-1.474,0.522-2.843,1.152-4.224,1.771c-0.111-0.124-0.078-0.392-0.317-0.386
	c-0.161,0.144,0.093,0.347,0.114,0.523c-0.24,0.156-0.787,0.217-0.66,0.591c0.123,0.101,0.232-0.085,0.32-0.023
	c0.027,0.305-0.215,0.332-0.32,0.498c0.293-0.046,0.6-0.278,0.592-0.704c0.182,0.081,0.113,0.263,0.09,0.365
	c-0.295,1.339-3.18,1.531-4.137,0.613c-0.182-0.178-0.75-0.86-0.635-1.34c0.021-0.088,0.141-0.194,0.227-0.185
	c0.159,0.023,0.105,0.152,0.137,0.388c0.102,0.744,0.668,1.271,1.521,1.249c-0.4-0.271-1.268-0.42-1.09-1.043
	c0.029-0.125,0.102,0.049,0.207,0c-0.189-0.467-0.521-0.784-0.73-1.229c0.131-0.156,0.549-0.028,0.545-0.317
	c-0.16-0.152-0.439,0.081-0.656,0.092c-0.238-0.546-0.498-1.063-0.703-1.636c0.168-0.105,0.529-0.111,0.52-0.295
	c-0.01-0.24-0.451,0.047-0.615,0.089c-0.377-0.881-0.848-2.096-0.359-3.202c0.262-0.05,0.699,0.077,0.773-0.16
	c-0.111-0.206-0.488-0.018-0.727-0.067c0.182-0.565,0.361-1.154,0.609-1.751c0.205-0.487,0.621-1.561,1.115-1.636
	c0.633-0.097,1.549,0.552,1.564,1.023c0.012,0.27-0.318,0.615-0.453,0.817c-0.191,0.289-0.33,0.502-0.5,0.75
	c-0.273-0.11-0.35-0.422-0.703-0.454c-0.033,0.352,0.393,0.438,0.566,0.659c-0.391,0.688-0.838,1.325-0.862,2.385
	c-0.132-0.014-0.407-0.111-0.478,0.022c-0.008,0.252,0.346,0.14,0.523,0.206c0.16,0.641,0.383,1.22,0.59,1.817
	c-0.305,0.015-0.277,0.372,0.113,0.272c0.346,0.569,0.768,1.238,1.547,1.318c1.234,0.127,2.555-0.676,3.475-0.955
	c0.139,0.209,0.187,0.511,0.387,0.658c0.268-0.177-0.121-0.521-0.182-0.726c1.676-0.978,3.811-1.489,4.315-3.638
	c0.181-0.033,0.419,0.104,0.5-0.044c0.026-0.223-0.259-0.135-0.409-0.182c0.355-1.107,0.762-2.31,1.23-3.387
	c0.135-0.312,0.309-0.815,0.545-0.976c0.531-0.362,1.57,0.058,1.633,0.569c0.061,0.458-0.383,0.979-0.566,1.295
	C316.013,374.783,315.806,375.131,315.565,375.511"/>
<path fill-rule="evenodd" clip-rule="evenodd" fill="#FFFFFF" d="M316.603,373.835c0.145-0.247,0.268-0.52,0.232-0.776
	c-0.063-0.512-1.102-0.932-1.633-0.569c-0.236,0.16-0.41,0.664-0.545,0.976C314.657,373.465,316.079,372.489,316.603,373.835"/>
<path fill-rule="evenodd" clip-rule="evenodd" fill="#FFFFFF" d="M304.544,374.761c0.135-0.202,0.465-0.548,0.453-0.817
	c-0.016-0.472-0.933-1.12-1.564-1.023c-0.371,0.06-0.699,0.674-0.924,1.186C302.509,374.105,304.603,373.332,304.544,374.761"/>
<path fill-rule="evenodd" clip-rule="evenodd" fill="#FFFFFF" d="M330.317,376.832c0.105-0.064,0.209-0.123,0.309-0.186
	c-0.242-0.195-0.668-0.212-0.795-0.522c0.354-0.14,0.688,0.307,1.047,0.387c0.297-0.197,0.582-0.357,0.908-0.591
	c0.225-0.158,0.689-0.482,0.727-0.771c0.047-0.383-0.451-0.73-0.752-0.887c-0.342-0.181-0.859-0.336-1.271-0.363
	c-1.357-0.091-2.287,0.507-3.061,1.198C327.429,375.097,332.506,374.973,330.317,376.832"/>
<path fill-rule="evenodd" clip-rule="evenodd" fill="#C06221" d="M267.442,378.782c-0.098,0.127-0.377,0.076-0.363,0.318
	c0.146,0.167,0.328-0.096,0.502-0.113c0.771,1.219,1.588,2.396,2.977,2.998c0.063,0.102-0.348,0.226-0.275,0.41
	c0.215,0.173,0.367-0.235,0.566-0.296c0.977,0.382,2.762,0.508,3.75,0.046c0.098,0.148,0.107,0.512,0.297,0.478
	c0.229-0.043-0.07-0.439-0.113-0.592c0.494-0.498,0.898-1.085,0.863-2.113c0.168-0.108,0.572-0.116,0.568-0.294
	c-0.008-0.236-0.404,0.02-0.568,0.045c0-0.989-0.537-1.816-0.521-2.794c0.02-1.313,2.602-1.6,2.725-0.069
	c0.104,1.333-0.654,2.514-0.342,3.909c-0.164,0.021-0.445-0.064-0.477,0.09c-0.018,0.234,0.34,0.102,0.523,0.136
	c0.129,0.736,0.811,0.917,1.453,1.138c-0.012,0.196-0.225,0.362-0.111,0.545c0.285,0.015,0.229-0.316,0.338-0.478
	c0.934,0.248,1.795,0.568,2.727,0.815c-0.053,0.132-0.236,0.13-0.204,0.344c0.245,0.128,0.331-0.235,0.524-0.272
	c0.211-0.046,0.453,0.066,0.613,0.066c1.221,0.004,1.752-0.787,1.68-2.205c0.223-0.095,0.729,0.095,0.842-0.112
	c-0.061-0.267-0.572-0.08-0.842-0.136c0.092-0.965-0.363-2.277,0.16-3.022c0.211-0.301,0.748-0.592,1.295-0.636
	c0.795-0.063,1.332,0.089,1.293,0.955c-0.023,0.56-0.133,1.199-0.227,1.682c-0.156-0.018-0.342-0.204-0.432-0.024
	c0.008,0.21,0.26,0.166,0.389,0.251c-0.072,0.506-0.193,0.957-0.296,1.431c-1.53,0.911-2.896,1.983-4.181,3.136
	c-0.76-0.277-1.598-0.479-2.408-0.701c0.113-0.44-0.365-0.556-0.229-0.072c-1.029-0.253-2.248-0.41-3.52-0.294
	c-0.113-0.229-0.09-0.595-0.297-0.727c-0.248,0.13,0.039,0.515,0.068,0.727c-1.043,0.115-2.094,0.223-3.205,0.271
	c0.029-0.534-0.385-0.433-0.25,0.023c-2.125,0.149-3.693-0.606-4.838-1.635c-0.113-0.102-0.428-0.361-0.43-0.408
	c-0.018-0.2,0.576-0.49,0.545-0.707c-0.007-0.043-0.063-0.043-0.068-0.089c-0.305,0.106-0.412,0.407-0.615,0.613
	c-0.576-0.482-1.107-1.015-1.658-1.523c0.1-0.171,0.395-0.341,0.297-0.567c-0.258-0.035-0.305,0.311-0.479,0.435
	c-0.549-0.452-1.17-0.842-1.863-1.296c-0.529-0.352-1.654-0.95-1.748-1.614c-0.105-0.721,0.705-1.498,1.156-1.728
	c1.264-0.646,2.449,0.589,3.023,1.388C266.587,377.246,266.976,378.099,267.442,378.782"/>
<path fill-rule="evenodd" clip-rule="evenodd" fill="#FFFFFF" d="M266.058,376.511c-0.574-0.798-1.76-2.033-3.023-1.387
	c-0.451,0.229-1.262,1.007-1.156,1.728c0.051,0.363,0.412,0.707,0.811,1.001C262.688,377.853,262.817,375.793,266.058,376.511"/>
<path fill-rule="evenodd" clip-rule="evenodd" fill="#FFFFFF" d="M287.269,378.553c0.029-0.206,0.045-0.414,0.053-0.61
	c0.039-0.866-0.498-1.018-1.293-0.955c-0.547,0.045-1.084,0.336-1.295,0.636c-0.15,0.214-0.219,0.474-0.244,0.759
	C284.489,378.382,285.866,376.956,287.269,378.553"/>
<path fill-rule="evenodd" clip-rule="evenodd" fill="#FFFFFF" d="M277.853,377.298c0.01-0.159,0.01-0.324-0.004-0.492
	c-0.123-1.53-2.705-1.243-2.726,0.069c-0.003,0.158,0.009,0.314,0.032,0.466C275.155,377.341,276.747,375.963,277.853,377.298"/>
<path fill-rule="evenodd" clip-rule="evenodd" fill="#F0BF8D" d="M303.907,379.827c1.139,0.362,2.188,0.813,3.205,1.295
	c-0.529,0.153-1.121,0.519-1.795,0.387C304.579,381.364,304.155,380.485,303.907,379.827"/>
<path fill-rule="evenodd" clip-rule="evenodd" fill="#221714" d="M302.907,397.677c-0.283-1.381-0.811-2.582-1.633-3.678
	c-0.889-1.18-1.908-2.227-4.047-2.11c-1.129,0.065-2.08,0.443-2.885,0.862c-0.258,0.135-0.486,0.389-0.818,0.365
	c-0.037-0.383,0.41-0.563,0.684-0.729c0.869-0.529,2.08-0.991,3.316-1.064c1.99-0.116,3.055,0.85,3.862,2.019
	C302.224,394.554,302.78,395.948,302.907,397.677"/>
<path fill-rule="evenodd" clip-rule="evenodd" fill="#221714" d="M284.349,392.367c-0.535-0.007-0.945-0.229-1.525-0.229
	c-2.49-0.002-3.695,2.326-3.678,4.856c-0.406-2.774,0.574-4.969,3.043-5.126C283.087,391.811,283.798,392.025,284.349,392.367"/>
<path fill-rule="evenodd" clip-rule="evenodd" fill="#F0BF8D" d="M268.851,400.538c-0.088-0.241-0.225-0.438-0.225-0.771
	C269.569,399.301,269.907,400.647,268.851,400.538"/>
<path fill-rule="evenodd" clip-rule="evenodd" fill="#221714" d="M267.101,400.675c0.008,0.378-0.439,0.621-0.791,0.637
	C266.524,401.14,266.833,400.868,267.101,400.675"/>
<path fill-rule="evenodd" clip-rule="evenodd" fill="#221714" d="M267.716,401.518c0.086,0.313-0.268,0.698-0.59,0.68
	C267.341,401.988,267.62,401.845,267.716,401.518"/>
<path fill-rule="evenodd" clip-rule="evenodd" fill="#221714" d="M267.353,402.449c0.297-0.112,0.504-0.316,0.66-0.571
	C268.593,402.195,267.708,402.95,267.353,402.449 M267.513,402.493c0.314,0.17,0.787-0.208,0.521-0.478
	C267.911,402.226,267.694,402.343,267.513,402.493"/>
<path fill-rule="evenodd" clip-rule="evenodd" fill="#F0BF8D" d="M268.034,402.016c0.266,0.271-0.207,0.647-0.521,0.479
	C267.694,402.343,267.911,402.226,268.034,402.016"/>
<path fill-rule="evenodd" clip-rule="evenodd" fill="#F0C91E" d="M272.306,402.515c0.736-0.065,0.143,0.494-0.113,0.705
	c-1.193,0.991-2.277,1.917-3.477,2.885c-0.135,0.11-0.762,0.721-0.818,0.207c-0.031-0.283,0.873-0.882,1.047-1.024
	C270.108,404.335,271.167,403.438,272.306,402.515"/>
<path fill-rule="evenodd" clip-rule="evenodd" fill="#221714" d="M266.673,402.539c0.516,0.332-0.279,0.995-0.686,0.611
	C266.253,402.983,266.54,402.841,266.673,402.539 M266.169,403.15c0.27,0.128,0.734-0.2,0.525-0.476
	C266.569,402.884,266.364,403.009,266.169,403.15"/>
<path fill-rule="evenodd" clip-rule="evenodd" fill="#F0BF8D" d="M266.694,402.675c0.209,0.275-0.256,0.604-0.525,0.476
	C266.364,403.009,266.569,402.884,266.694,402.675"/>
<path fill-rule="evenodd" clip-rule="evenodd" fill="#F0C91E" d="M272.872,403.129c0.176-0.05,0.291,0.012,0.32,0.137
	c0.082,0.347-0.883,0.935-1.045,1.066c-0.813,0.659-1.553,1.283-2.318,1.909c-0.275,0.227-0.893,0.95-1.203,0.91
	c-0.088-0.012-0.193-0.088-0.205-0.204c-0.029-0.279,0.828-0.843,1.043-1.023c1.063-0.904,2.268-1.973,3.363-2.773
	C272.843,403.142,272.854,403.134,272.872,403.129"/>
<path fill-rule="evenodd" clip-rule="evenodd" fill="#F0BF8D" d="M272.161,404.722c0,0,0.74-0.604,0.779-0.638
	c1.432,1.114,3.051,2.378,4.154,4.106l0.004,0.012l0.014,0.003c0.621,0.223,1.182,0.52,1.725,0.808c0,0,0.361,0.189,0.389,0.205
	c0.129,0.957,0.336,1.731,0.869,2.635c-0.834,1.492-1.361,2.897-1.664,4.414c-0.832-0.672-1.635-1.171-2.51-1.743
	c-0.945-0.616-1.922-1.257-2.797-1.993c-1.398-1.177-2.276-2.739-3.199-4.395c0,0-0.566-0.996-0.594-1.046
	C270.253,406.281,271.222,405.487,272.161,404.722"/>
<path fill-rule="evenodd" clip-rule="evenodd" fill="#D6484C" d="M307.745,412.738c-2.748,1.348-5.266,2.928-7.699,4.589
	c0.85-0.838,1.775-1.601,2.635-2.43c1.701-0.766,3.195-1.743,4.273-3.135C307.302,411.989,307.456,412.533,307.745,412.738"/>
<path fill-rule="evenodd" clip-rule="evenodd" fill="#F0C91E" d="M280.44,412.298c0.176,0.243,0.256,0.324,0.432,0.568
	c-0.486,0.92-0.959,2.039-1.34,3.225c-0.08,0.247-0.145,1.259-0.609,1.098c-0.273-0.093-0.018-0.889,0.063-1.209
	C279.336,414.604,279.839,413.322,280.44,412.298"/>
<path fill-rule="evenodd" clip-rule="evenodd" fill="#F0C91E" d="M281.128,413.199c0.184,0.203,0.328,0.337,0.492,0.563
	c-0.541,0.862-0.9,1.91-1.252,3.044c-0.064,0.221-0.154,0.952-0.496,0.934c-0.545-0.032-0.131-1.105-0.016-1.472
	C280.196,415.186,280.712,414.066,281.128,413.199"/>
<path fill-rule="evenodd" clip-rule="evenodd" fill="#F0BF8D" d="M281.933,414.069c-0.439,0.712-0.727,1.591-1.008,2.44
	c-0.141,0.431-0.285,0.874-0.449,1.289l-0.01,0.031l0.832,0.394c0.471,0.253,0.961,0.517,1.469,0.751l0.035,0.018l0.107-0.338
	c0.084-0.271,0.316-0.695,0.377-0.652c0.01,0.007,0.107-0.015,0.092,0.082c-0.064,0.415-0.428,1.608-0.428,2.304
	c0,0.646,0.084,1.288,0.297,1.847c0.396,1.025,1.406,1.693,2.844,2.062c0.059,0.017-0.07,0.027-0.008,0.04
	c-0.752,0.115-1.699-0.226-2.18-0.405l-0.033-0.016l-0.012,0.038c-0.387,1.247-0.973,3.665-0.59,5.832l0.006,0.048l0.043-0.023
	c3.904-1.922,7.668-4.405,11.844-7.817l0.01-0.008l0.002-0.014c0.146-0.758,0.746-1.294,1.275-1.766l0.236-0.216
	c0.51-0.468,1.07-0.9,1.613-1.316c1.186-0.919,2.414-1.867,3.119-3.214l0.035-0.047l-0.287,0.103
	c-1.533,0.607-2.781,0.968-4.628,1.217l-0.948,0.118c-0.377,0.033-0.809,0.041-1.184,0.118l-0.805,0.182
	c-0.564,0.148-1.1,0.263-1.74,0.312c-0.957,0.076-1.938,0.026-2.869-0.214l0.082,0.114c1.035,0.945,2.393,1.301,3.98,1.239
	c1.488-0.055,2.822-0.491,3.916-0.839c0,0,0.02,0.071,0.027,0.068c-0.59,0.282-1.295,0.559-2.078,0.765
	c-0.898,0.235-1.941,0.416-2.949,0.414c-2.17-0.007-3.326-1.156-4.172-2.213c-0.4-0.236-0.848-0.31-1.352-0.411
	c-0.301-0.063-0.584-0.122-0.838-0.201c-1.311-0.422-2.367-1.014-3.623-2.123l-0.029-0.027L281.933,414.069z"/>
<path fill-rule="evenodd" clip-rule="evenodd" fill="#D6484C" d="M311.519,416.625c-3.021-0.095-5.74,0.529-8.246,1.181
	c-2.504,0.652-4.875,1.415-6.791,2.703c1.064-1.368,2.793-2.251,4.652-3.089c2.441-1.098,5.377-2.43,8.34-2.772
	c0.172-0.018,0.664-0.055,0.842,0C311.028,414.866,311.229,415.925,311.519,416.625"/>
<path fill-rule="evenodd" clip-rule="evenodd" fill="#F0BF8D" d="M297.442,433.676c0.297-0.143,0.602-0.292,0.662-0.664
	c0.004-0.032,0.008-0.065,0.008-0.097c0-0.232-0.119-0.481-0.217-0.688l-0.066-0.146c-0.695-1.594-0.701-4.076-0.701-6.275v-0.094
	l-0.008-0.333c-0.004-0.124-0.012-0.248-0.012-0.367c0-0.168,0.01-0.323,0.043-0.45c0.039-0.163,0.334-0.431,0.57-0.647l0.213-0.199
	c0.947-0.947,1.85-1.917,2.721-2.854l1.301-1.396c0.404-0.425,1.154-1.214,1.807-1.468c0.707-0.273,1.586-0.403,2.434-0.531
	l0.67-0.104c1.246-0.201,2.266-0.422,3.615-0.328c-2.328,0.581-4.229,1.326-6.658,2.839c-0.025-0.047-0.021-0.056-0.021-0.056
	c-0.063-0.151-0.127-0.309-0.258-0.402l-0.027-0.021l-0.02,0.024c-0.076,0.079-0.104,0.162-0.104,0.243
	c0,0.104,0.047,0.205,0.086,0.305c0.047,0.107,0.072,0.162,0.076,0.28c0,0.006-0.141,0.286-0.162,0.377
	c-0.045,0.188-0.016,0.258-0.008,0.356c0.008,0.098,0.143,0.27,0.238,0.331c0.1,0.063,0.232,0.064,0.254,0.08
	c-0.002,0.03-0.012,0.148-0.012,0.174c0,0.2,0.074,0.326,0.145,0.446c0,0,0.025,0.041,0.037,0.063
	c-1.164,1.703-2.906,2.606-5.322,2.763l-0.004,0.071c3.301,0.563,5.215-1.58,5.77-2.329c0.646,1.468,1.193,2.552,1.816,3.604
	l0.215,0.324c0.193,0.283,0.414,0.603,0.443,0.822c0.002,0.032,0.002,0.067,0.002,0.104c0,0.254-0.09,0.599-0.174,0.905l-0.102,0.41
	c-0.254,1.257-0.514,2.648-0.795,4.253c-0.41,0.225-0.938,0.191-1.449,0.16c-0.449-0.028-0.912-0.06-1.301,0.082
	c-0.078,0.026-0.15,0.09-0.223,0.153c-0.07,0.059-0.143,0.119-0.209,0.142c-0.246,0.081-0.764,0.127-1.033,0.111
	c-0.988-0.057-2.064,0.045-3.104,0.143c-0.535,0.05-1.037,0.096-1.531,0.123C297.165,433.821,297.304,433.745,297.442,433.676"/>
<path fill-rule="evenodd" clip-rule="evenodd" fill="#F0C91E" d="M311.511,417.213c0.178-0.008,0.471,0.049,0.451,0.313
	c-0.023,0.311-0.703,0.345-1.09,0.434c-2.466,0.562-4.434,1.567-6.341,2.728c-0.13,0.08-0.901,0.589-0.929,0.065
	c-0.012-0.234,0.51-0.521,0.752-0.678c1.443-0.944,3.035-1.732,4.863-2.295C309.931,417.559,310.716,417.241,311.511,417.213"/>
<path fill-rule="evenodd" clip-rule="evenodd" fill="#F0C91E" d="M311.923,418.161c0.203-0.009,0.354-0.019,0.371,0.168
	c0.025,0.329-0.799,0.427-0.945,0.474c-2.279,0.711-4.16,1.496-6,2.591c-0.227,0.136-0.633,0.557-0.975,0.452
	c-0.07-0.02-0.191-0.148-0.193-0.268c-0.006-0.411,1.344-1.009,1.631-1.167c1.191-0.666,2.4-1.295,3.813-1.726
	C310.31,418.475,311.159,418.199,311.923,418.161"/>
<path fill-rule="evenodd" clip-rule="evenodd" fill="#D6484C" d="M302.501,418.307h0.043c-2.928,3.241-6.014,6.392-9.197,9.406
	c-1.58,1.487-3.193,2.991-4.957,4.34c-1.746,1.335-3.617,2.737-6.109,3.132c-0.111-0.923,0.021-1.735,0.295-2.224
	c0.145-0.259,0.762-0.605,1.137-0.841c1.207-0.77,2.551-1.473,3.748-2.18c4.57-2.704,8.086-6.34,11.746-9.999
	c0.313-0.313,0.713-0.815,0.998-0.954C300.843,418.677,301.905,418.573,302.501,418.307"/>
<path fill-rule="evenodd" clip-rule="evenodd" fill="#F0BF8D" d="M311.548,434.812c-0.064-0.012-0.217-0.232-0.445-0.654
	l-0.793-1.459l-0.508-0.938c-0.318-0.584-0.608-1.204-0.889-1.8l-0.701-1.447c-0.361-0.689-0.748-1.307-1.129-1.907
	c-0.553-0.873-1.072-1.701-1.506-2.725l-0.043-0.104l-0.32-0.736l-0.076-0.164c-0.107-0.229-0.234-0.509-0.223-0.618
	c0.016-0.157,0.373-0.369,0.588-0.496l0.074-0.044c2.156-1.29,4.129-2.127,6.035-2.563h0.02h0.018
	c0.125,0.004,0.107,0.002,0.148,0.156l0.029,0.096c0.236,0.748,0.418,1.533,0.596,2.291l0.197,0.843
	c0.323,1.31,0.807,2.619,1.275,3.886c0.361,0.972,0.701,1.891,0.977,2.818c0.16,0.545,0.289,1.075,0.424,1.639l0.258,1.039
	l0.117,0.35c0.07,0.197,0.148,0.4,0.131,0.501c-0.027,0.181-0.434,0.387-0.701,0.521l-0.213,0.113
	c-0.752,0.433-1.314,0.725-2.154,1.018l-0.289,0.118C312.147,434.67,311.739,434.843,311.548,434.812"/>
<path fill-rule="evenodd" clip-rule="evenodd" fill="#D6484C" d="M299.888,419.101c-2.564,2.518-5.211,5.016-7.996,7.407
	c-2.787,2.393-6.127,4.139-9.453,5.929c-0.008-0.74,0.086-1.379,0.295-1.907c2.697-1.141,4.982-2.745,7.295-4.385
	c2.289-1.628,4.609-3.169,6.406-5.272C297.183,419.996,298.767,419.528,299.888,419.101"/>
<path fill-rule="evenodd" clip-rule="evenodd" fill="#D6484C" d="M296.663,424.918c0.016-0.004,0.02,0.008,0.02,0.023
	c0.01,2.039,0.09,4.402,0.545,6.155c0.146,0.55,0.582,1.439,0.432,1.886c-0.211,0.635-1.182,0.574-1.611,1.022
	c-0.287-1.113-0.199-2.489-0.32-3.862c-0.08-0.95-0.154-1.893-0.203-2.93c-0.014-0.312-0.131-0.729-0.088-0.956
	c0.023-0.159,0.418-0.511,0.566-0.658C296.288,425.313,296.454,425.138,296.663,424.918"/>
<path fill-rule="evenodd" clip-rule="evenodd" fill="#D6484C" d="M295.274,426.371c0.02-0.004,0.021,0.009,0.021,0.021
	c0.107,1.857,0.246,4.01,0.387,6.044c0.051,0.703,0.004,1.482,0.25,1.912c0.152,0.259,0.789,0.498,0.795,0.747
	c0.012,0.317-1.137,0.734-1.52,0.728c-0.328-0.007-0.622-0.1-0.932-0.229c-0.205-0.081-0.67-0.275-0.684-0.453
	c-0.014-0.189,0.527-0.588,0.615-0.864c0.033-0.104,0.059-0.252,0.068-0.364c0.074-0.845-0.086-1.986-0.139-3.111
	c-0.023-0.493-0.063-1.034-0.09-1.546c-0.025-0.481-0.146-1.205-0.068-1.567C294.05,427.376,295.114,426.653,295.274,426.371"/>
<path fill-rule="evenodd" clip-rule="evenodd" fill="#D6484C" d="M294.003,433.869c-0.445-0.223-1.076-0.259-1.453-0.544
	c0.033-1.085,0.234-2.322,0.363-3.546c0.041-0.4,0-0.876,0.113-1.181c0.122-0.339,0.568-0.487,0.727-0.774
	C293.927,429.735,294.044,431.815,294.003,433.869"/>
<path fill-rule="evenodd" clip-rule="evenodd" fill="#F0BF8D" d="M292.558,428.997c0,0.812-0.076,2.348-0.248,3.413l-0.072,0.347
	c-0.045,0.188-0.086,0.366-0.086,0.529c0,0.093,0.014,0.18,0.049,0.258c0.115,0.269,0.436,0.306,0.74,0.342
	c0,0,0.207,0.029,0.256,0.036v0.437c-0.064,0.007-1.115,0.1-1.115,0.1c-2.123,0.2-4.523,0.422-6.088-0.301
	C288.119,432.829,290.21,431.185,292.558,428.997"/>
<path fill-rule="evenodd" clip-rule="evenodd" fill="#F0C91E" d="M316.177,433.005c0.121-0.017,0.262,0.018,0.273,0.16
	c0.02,0.194-0.395,0.419-0.5,0.499c-1.119,0.829-2.412,1.457-4.023,1.841c-0.248,0.059-0.68,0.113-0.635-0.204
	c0.027-0.178,0.545-0.275,0.615-0.295c0.684-0.201,1.357-0.417,1.953-0.706c0.885-0.43,1.578-0.901,2.271-1.271
	C316.151,433.021,316.151,433.012,316.177,433.005"/>
<path fill-rule="evenodd" clip-rule="evenodd" fill="#FFFFFF" d="M306.296,433.233c0.018-0.006,0.021,0.009,0.021,0.021
	c0.338,0.378,0.316,1.188,0.318,1.797c0,1.193,0.393,2.438,0.068,3.567c-0.865-1.916-2.066-3.614-3.34-5.044
	C304.38,433.5,305.517,433.545,306.296,433.233"/>
<path fill-rule="evenodd" clip-rule="evenodd" fill="#F0C91E" d="M311.495,436.345c-0.107-0.538,0.791-0.566,1.203-0.703
	c1.442-0.479,2.811-1.293,3.98-1.953c0.113-0.065,0.289-0.024,0.314,0.091c0.057,0.222-0.346,0.448-0.478,0.545
	c-0.599,0.443-1.239,0.785-1.952,1.112C313.616,435.873,312.638,436.326,311.495,436.345"/>
<path fill-rule="evenodd" clip-rule="evenodd" fill="#3C5F9A" d="M306.317,439.89c-3.295-0.254-6.289-0.841-8.996-1.727
	c-0.352-0.114-0.791-0.188-0.979-0.501c1.426-0.081,2.686-0.33,3.545-0.974c0.789,0.33,2.146,0.361,3.271,0.271
	c0.359-0.029,0.758-0.016,0.977-0.229c-1.297,0.01-2.877,0.127-4.045-0.157c0.729-0.62,1.277-1.422,1.5-2.545
	c0.426-0.033,0.986-0.29,1.5-0.205c0.324,0.055,0.814,0.75,1.045,1.045c0.66,0.844,1.15,1.532,1.66,2.523
	C306.177,438.134,306.61,438.864,306.317,439.89"/>
<path fill-rule="evenodd" clip-rule="evenodd" fill="#D6484C" d="M293.481,434.775c-0.041-0.269-0.051-0.571-0.092-0.839
	C294.144,433.816,293.87,434.608,293.481,434.775"/>
<path fill-rule="evenodd" clip-rule="evenodd" fill="#FFFFFF" d="M297.485,434.3c1.203-0.117,2.564-0.25,3.73-0.265
	c-0.197,1.702-1.295,2.762-3.266,3.146c-0.643,0.125-1.348,0.145-2.096,0.163c-0.58,0.018-1.182,0.036-1.775,0.105
	c0.24-0.431,0.547-0.807,0.846-1.164c0,0,0.102-0.124,0.115-0.14c0.77-0.059,1.297-0.262,1.607-0.626
	c0.215-0.252,0.324-0.583,0.324-0.989c0-0.058-0.002-0.118-0.007-0.182C297.013,434.347,297.485,434.3,297.485,434.3"/>
<path fill-rule="evenodd" clip-rule="evenodd" fill="#D6484C" d="M296.64,434.005c0.102,0.125,0.018,0.438,0.043,0.637
	c-0.094,0.002-0.33-0.242-0.406-0.408C296.388,434.146,296.534,434.099,296.64,434.005"/>
<path fill-rule="evenodd" clip-rule="evenodd" fill="#FFFFFF" d="M283.575,435.267c0.443-0.149,0.898-0.306,1.287-0.521
	c0.303,0.457,0.684,0.845,1.055,1.22c0.561,0.564,1.131,1.154,1.441,1.985c-0.363-0.189-0.832-0.131-1.256-0.072l-0.482,0.053
	c-1.572,0.01-2.424-0.734-2.764-2.406C282.901,435.507,283.575,435.267,283.575,435.267"/>
<path fill-rule="evenodd" clip-rule="evenodd" fill="#3C5F9A" d="M283.28,437.505c0.607,0.502,1.65,0.771,2.725,0.658
	c-0.586,0.557-1.654,0.833-2.678,1.021C283.271,438.666,283.278,438.084,283.28,437.505"/>
<path fill-rule="evenodd" clip-rule="evenodd" fill="#3C5F9A" d="M296.069,437.596c-0.152,0.295-0.359,0.532-0.5,0.839
	c-0.332-0.332-1.037-0.294-1.293-0.704C294.659,437.408,295.47,437.612,296.069,437.596"/>
<path fill-rule="evenodd" clip-rule="evenodd" fill="#D6484C" d="M296.14,438.05c3.059,1.145,6.563,1.838,10.27,2.34
	c-0.372,1.979-1,3.695-0.889,6.157c-1.654,0.149-3.105-0.274-4.408-0.729c-1.291-0.447-2.508-0.999-3.656-1.567
	c-2.295-1.134-4.492-2.487-6.248-4.136c0.338-0.003,0.652,0,1.025-0.044c0.287-0.034,0.679-0.21,0.906-0.158
	c0.119,0.025,0.385,0.355,0.521,0.477c1.203,1.063,2.881,1.854,4.43,2.522c1.875,0.806,3.711,1.625,6.002,1.886
	c-2.109-0.426-4.029-1.17-5.842-1.953c-1.777-0.772-3.527-1.676-4.703-3.023C294.786,439.618,295.694,438.973,296.14,438.05
	 M303.433,442.003c-0.072-0.319-0.596-0.299-0.91-0.365c-2.641-0.56-5.256-1.282-7.314-2.361c-0.014,0.002-0.027,0.002-0.025,0.023
	C297.384,440.747,300.46,441.323,303.433,442.003"/>
<path fill-rule="evenodd" clip-rule="evenodd" fill="#3C5F9A" d="M286.366,438.914c-0.029-0.281-0.102-0.52-0.135-0.796
	c0.27-0.036,0.871-0.139,0.932,0.091C287.245,438.521,286.509,438.692,286.366,438.914"/>
<path fill-rule="evenodd" clip-rule="evenodd" fill="#F0BF8D" d="M322.427,438.729c-0.021,0.08-0.092,0.107-0.16,0.138
	c-0.082-0.129-0.23-0.191-0.295-0.341C322.175,438.345,322.247,438.683,322.427,438.729"/>
<path fill-rule="evenodd" clip-rule="evenodd" fill="#D6484C" d="M288.026,440.003c-0.785,0.824-2.293,1.325-3.406,1.977
	c1.338-0.478,2.711-1.119,3.77-1.953c0.732,0.067,1.42,0.092,2.184,0.089c-1.553,1.625-3.631,3.277-5.84,4.364
	c-0.324,0.158-0.986,0.581-1.273,0.271c-0.357-0.387-0.262-1.549-0.293-2.294c-0.053-1.09-0.039-2.044-0.273-2.771
	c1.234-0.218,2.25-0.657,3.18-1.184C286.165,439.561,287.003,439.875,288.026,440.003"/>
<path fill-rule="evenodd" clip-rule="evenodd" fill="#F0BF8D" d="M322.63,439.185c-0.17,0.018-0.203-0.098-0.32-0.134
	C322.45,438.844,322.798,438.839,322.63,439.185"/>
<path fill-rule="evenodd" clip-rule="evenodd" fill="#221714" d="M295.183,439.3c-0.002-0.021,0.012-0.021,0.025-0.023
	c2.059,1.079,4.674,1.802,7.314,2.361c0.314,0.066,0.838,0.046,0.91,0.365C300.46,441.323,297.384,440.747,295.183,439.3"/>
<path fill-rule="evenodd" clip-rule="evenodd" fill="#F0BF8D" d="M322.788,439.753c-0.096,0.055-0.133,0.169-0.248,0.204
	c-0.084-0.13-0.234-0.191-0.299-0.34C322.417,439.41,322.622,439.685,322.788,439.753"/>
<path fill-rule="evenodd" clip-rule="evenodd" fill="#F0BF8D" d="M321.29,439.937c0.174,0.065,0.344,0.139,0.523,0.201
	c-0.064,0.12-0.223,0.145-0.299,0.252c-0.143-0.066-0.26-0.164-0.406-0.228C321.11,440.026,321.204,439.987,321.29,439.937"/>
<path fill-rule="evenodd" clip-rule="evenodd" fill="#3C5F9A" d="M292.776,441.708c-1.014,0.881-2.566,1.22-3.16,2.521
	c-0.037-0.61,0.15-1.21,0.318-1.793c0.17-0.578,0.23-1.223,0.432-1.728c0.094-0.229,0.381-0.376,0.48-0.594
	c0.227-0.044,0.324,0.25,0.453,0.388C291.702,440.944,292.329,441.348,292.776,441.708"/>
<path fill-rule="evenodd" clip-rule="evenodd" fill="#3C5F9A" d="M287.392,443.435c-0.604,1.342-1.078,2.84-1.477,4.408
	c-0.395,1.538-0.84,3.271-0.547,5.11c-0.939-2.117-1.139-4.979-1.408-7.771c2.182-1.091,4.064-2.479,5.84-3.975
	c-0.057,1.448-1.039,3.486,0.023,4.701c-0.113,0.899-0.09,1.629-0.318,2.409c-0.227,0.78-0.828,1.418-0.818,2.272
	c0.008,0.671,0.871,1.3,0.408,2.091c-0.258,0.444-1.658,0.743-2.316,0.862c-0.207,0.036-0.725,0.129-0.908,0
	c-0.432-0.303-0.324-2.068-0.25-2.704c0.219-1.935,0.607-3.439,1.09-5.065C286.946,444.984,287.251,444.239,287.392,443.435"/>
<path fill-rule="evenodd" clip-rule="evenodd" fill="#221714" d="M315.245,442.026c-0.236,0.125-0.387,0.34-0.611,0.478
	c-0.066-0.204-0.286-0.269-0.297-0.478C314.302,441.44,315.188,441.478,315.245,442.026 M314.452,442.026
	c0.084,0.102,0.129,0.246,0.248,0.318c0.106-0.119,0.203-0.251,0.363-0.318C315.022,441.625,314.485,441.603,314.452,442.026"/>
<path fill-rule="evenodd" clip-rule="evenodd" fill="#F0BF8D" d="M315.063,442.026c-0.16,0.067-0.256,0.199-0.363,0.318
	c-0.119-0.072-0.164-0.217-0.248-0.318C314.485,441.603,315.022,441.625,315.063,442.026"/>
<path fill-rule="evenodd" clip-rule="evenodd" fill="#3C5F9A" d="M293.048,441.911c1.738,1.202,3.527,2.306,5.479,3.25
	c1.944,0.944,4.032,1.852,6.743,1.976c0.146,1.349,0.537,2.462,0.867,3.703c0.086,0.34,0.363,0.863,0.316,1.183
	c-0.07,0.453-1.072,0.714-1.57,0.84c-0.646,0.165-1.391,0.395-2.088,0.32c-0.473-0.054-1.152-0.52-1.566-0.797
	c-1.422-0.95-2.6-2.094-3.705-3.341c-1.531-1.727-2.852-3.545-3.611-5.792c-0.184,0.248,0.025,0.571,0.111,0.816
	c0.674,1.925,1.871,3.551,3.045,4.976c1.387,1.685,2.979,3.216,4.999,4.181c-1.591-0.031-3.306,0.267-4.886,0.092
	c-1.162-0.131-2.145-1.026-2.77-1.796c-0.695-0.852-1.172-1.863-1.568-2.976c-0.137,0.23,0.055,0.523,0.135,0.751
	c0.637,1.765,1.484,3.444,3.298,4.021c-2.306-0.083-4.733-0.044-6.772-0.387c0.795-0.779,1.393-1.953,1.477-3.521
	c0.145-0.195,0.508-0.274,0.615-0.521c0.709-1.657,0.002-5.061,0.883-6.589C292.638,442.138,292.872,442.056,293.048,441.911"/>
<path fill-rule="evenodd" clip-rule="evenodd" fill="#FFFFFF" d="M290.763,446.836c-0.373-0.487-0.76-0.994-0.928-1.615
	c-0.049-0.162-0.068-0.312-0.068-0.452c0-0.945,0.932-1.461,1.766-1.923c0.232-0.128,0.449-0.253,0.635-0.375
	c-0.4,1.007-0.479,2.529-0.549,4.006c0,0-0.08,1.314-0.096,1.53C291.325,447.58,291.044,447.2,290.763,446.836"/>
<path fill-rule="evenodd" clip-rule="evenodd" fill="#3C5F9A" d="M289.979,446.205c0.227,0.543,1.094,1.383,1.252,2.024
	c0.182,0.733-0.576,0.928-1.047,1.203c-0.35,0.205-0.678,0.405-0.975,0.567C289.79,449.059,289.995,447.742,289.979,446.205"/>
<path fill-rule="evenodd" clip-rule="evenodd" fill="#FFFFFF" d="M289.479,452.184c0-0.279-0.129-0.535-0.248-0.768
	c-0.111-0.212-0.217-0.415-0.217-0.618v-0.024c0.018-0.434,0.617-0.718,1.148-0.97c0.191-0.092,0.369-0.18,0.508-0.267
	c-0.053,1.263-0.494,2.296-1.244,2.938C289.46,452.375,289.479,452.278,289.479,452.184"/>
<path fill-rule="evenodd" clip-rule="evenodd" fill="#F0BF8D" d="M289.347,453.036c0.764,0.361,1.82,0.444,2.842,0.525
	c0,0,0.678,0.057,0.732,0.063c0.002,0.047,0.006,0.203,0.006,0.203c0.021,1.057,0.047,2.275,0.047,3.482
	c0,0.665-0.008,1.303-0.027,1.93c-2.161,0.232-4.27,0.151-5.797-0.226c-0.084-0.765-0.201-1.491-0.316-2.213
	c-0.145-0.91-0.293-1.853-0.379-2.843C287.503,453.71,288.474,453.401,289.347,453.036"/>
<path fill-rule="evenodd" clip-rule="evenodd" fill="#F0BF8D" d="M305.819,453.065c0.479,1.172,1.027,2.553,1.438,4.138
	c-1.68,0.733-3.77,1.13-6.045,1.144c-0.516-1.005-0.969-2.082-1.4-3.148c0,0-0.518-1.256-0.556-1.348
	C301.499,453.835,304.028,453.754,305.819,453.065"/>
<path fill-rule="evenodd" clip-rule="evenodd" fill="#F0C91E" d="M307.431,457.565c0.176-0.029,0.412-0.036,0.363,0.303
	c-0.037,0.247-0.471,0.359-0.682,0.434c-1.371,0.464-2.785,0.842-4.611,0.931c-0.492,0.021-1.693,0.189-1.682-0.28
	c0.008-0.375,0.623-0.267,0.795-0.272c2.102-0.079,4.215-0.504,5.77-1.091C307.399,457.585,307.403,457.568,307.431,457.565"/>
<path fill-rule="evenodd" clip-rule="evenodd" fill="#F0C91E" d="M307.749,458.513c0.121-0.004,0.277,0.025,0.293,0.19
	c0.047,0.449-1.029,0.729-1.361,0.817c-1.174,0.313-2.295,0.562-3.703,0.659c-0.518,0.033-1.836,0.139-1.934-0.206
	c-0.115-0.415,1.238-0.365,1.637-0.394c1.953-0.133,3.539-0.69,5.021-1.067C307.718,458.509,307.737,458.515,307.749,458.513"/>
<path fill-rule="evenodd" clip-rule="evenodd" fill="#F0C91E" d="M286.718,459.344c0.012-0.002,0.018-0.023,0.043-0.022
	c1.146,0.076,1.969,0.409,3.318,0.409c0.889,0,1.75-0.026,2.682-0.113c0.256-0.023,0.84-0.11,0.605,0.333
	c-0.115,0.225-0.984,0.301-1.342,0.342c-1.618,0.186-3.139,0.073-4.725-0.273c-0.32-0.069-0.77-0.164-0.795-0.407
	C286.487,459.453,286.546,459.393,286.718,459.344"/>
<path fill-rule="evenodd" clip-rule="evenodd" fill="#F0BF8D" d="M307.595,459.524c0.004,0.008,0.1,0.229,0.1,0.229
	c0.125,0.246,0.273,0.542,0.273,0.887c0,0.041,0,0.084-0.004,0.125c-0.033,0.298-0.172,0.493-0.318,0.699l-0.111,0.157l0.113-0.048
	c0.343-0.142,0.631-0.507,0.631-0.98c0-0.049-0.014-0.106-0.021-0.158c0.352,0.52,1.012,1.614,1.012,2.535
	c0,0.427-0.143,0.813-0.518,1.088c-0.24,0.173-0.537,0.28-0.822,0.384c-0.387,0.142-0.787,0.285-1.049,0.598
	c-0.215,0.256-0.412,0.539-0.604,0.813c-0.577,0.821-1.174,1.673-2.262,1.879c0.014,0-0.076,0.014-0.076,0.014
	c-0.032,0.009-0.037,0.011-0.053-0.004l-0.031-0.034l-0.021,0.041c-0.07,0.132-0.195,0.196-0.34,0.266l-0.266,0.155
	c-0.135,0.102-0.25,0.218-0.363,0.333c-0.26,0.266-0.506,0.517-0.953,0.479c-0.342-0.03-0.541-0.292-0.555-0.716
	c0.227-0.089,0.402-0.274,0.57-0.454c0.285-0.308,0.555-0.596,1.063-0.441l0.021,0.005l0.012-0.013
	c0.018-0.016,0.025-0.035,0.025-0.054c0-0.008,0-0.017-0.002-0.023c-0.015-0.045-0.064-0.081-0.109-0.103
	c0.006-0.021,0.013-0.038,0.041-0.059c0.033-0.026,0.076-0.059,0.08-0.126l0.006-0.051l-0.551,0.149
	c-0.275,0.076-0.398,0.229-0.531,0.391l-0.232,0.253l-0.256,0.164c-0.184,0.101-0.371,0.202-0.424,0.391
	c-0.008,0.03-0.012,0.063-0.012,0.097c0,0.089,0.033,0.191,0.094,0.304c-0.305,0.1-0.646,0.06-0.827-0.104
	c-0.087-0.082-0.132-0.191-0.132-0.319c0-0.048,0.007-0.097,0.02-0.148c0.152,0.002,0.262,0.044,0.377,0.09
	c0.096,0.037,0.192,0.075,0.317,0.089l0.019,0.003l0.012-0.014c0.092-0.107,0.098-0.315,0.057-0.46
	c-0.029-0.115-0.088-0.188-0.164-0.213c-0.006,0-0.15,0.012-0.15,0.012s-0.022,0.002-0.043,0.005
	c0.168-0.31,0.473-0.496,0.936-0.561l0.044-0.007l-0.013-0.039c-0.008-0.018-0.012-0.032-0.012-0.046
	c0-0.045,0.033-0.075,0.09-0.122l0.096-0.094l-0.041-0.055l-0.186,0.072c-0.463,0.177-1.035,0.396-1.213,0.915
	c-0.17,0.055-0.277,0.167-0.365,0.272l-0.004,0.008l-0.014,0.195c0,0-0.008,0.184-0.01,0.228c-0.234,0.124-0.527,0.111-0.756-0.036
	c-0.189-0.124-0.291-0.317-0.291-0.541c0-0.013,0.002-0.025,0.002-0.038c0.256,0.043,0.514,0.104,0.693,0.235l0.016,0.013
	l0.02-0.007c0.111-0.04,0.191-0.162,0.219-0.323c0.027-0.182-0.022-0.353-0.127-0.435c-0.053-0.04-0.146-0.064-0.277-0.03
	c0.039-0.152,0.127-0.285,0.271-0.376c0.234-0.142,0.566-0.166,0.865-0.064l0.066,0.022l-0.018-0.063
	c-0.029-0.097-0.109-0.138-0.18-0.175c-0.043-0.021-0.084-0.047-0.111-0.079c0.012-0.057,0.047-0.083,0.111-0.117
	c0.049-0.025,0.098-0.05,0.131-0.101l0.053-0.09l-0.221,0.083c-0.451,0.174-1.01,0.389-1.186,0.892
	c-0.205,0.092-0.434,0.198-0.549,0.419c-0.004,0.025-0.004,0.051-0.004,0.074c0,0.206,0.041,0.364,0.082,0.506
	c-0.287,0.097-0.551,0.08-0.762-0.059c-0.24-0.159-0.395-0.473-0.428-0.837c0.05,0.016,0.107,0.038,0.107,0.038
	c0.289,0.108,0.592,0.221,0.936,0.284l0.025,0.004l0.014-0.022c0.154-0.287,0.051-0.627-0.133-0.779
	c-0.117-0.097-0.252-0.115-0.389-0.064c0.303-0.36,0.848-0.779,1.354-0.438l0.094,0.061l-0.042-0.104
	c-0.048-0.132-0.166-0.189-0.276-0.245c0,0-0.064-0.037-0.096-0.054c0.02-0.077,0.068-0.12,0.133-0.167l0.125-0.115l-0.047-0.052
	c-0.387,0.196-0.777,0.479-1.156,0.757c0,0-0.443,0.313-0.523,0.372c-0.021-0.34-0.141-0.622-0.33-0.764
	c-0.133-0.097-0.293-0.119-0.473-0.084c0.103-0.189,0.332-0.423,0.615-0.53c0.236-0.091,0.471-0.086,0.688,0.018l0.068,0.031
	l-0.02-0.072c-0.02-0.082-0.084-0.117-0.141-0.15c-0.041-0.021-0.07-0.043-0.092-0.073c0.205-0.106,0.533-0.152,0.764-0.14
	l0.035,0.001l0.006-0.032v-0.029c0-0.087-0.071-0.113-0.119-0.128c-0.033-0.01-0.049-0.02-0.057-0.035
	c0.623-1.381,1.699-2.416,3.287-3.168l0.029-0.012l-0.006-0.017l-0.033-0.102c-0.048-0.051-0.133-0.048-0.217-0.048h-0.04
	c0.032-0.14,0.046-0.304,0.056-0.462c0.008-0.146,0.041-0.264,0.072-0.393C303.81,460.566,305.663,460.229,307.595,459.524"/>
<path fill-rule="evenodd" clip-rule="evenodd" fill="#221714" d="M301.876,467.938c-0.207,0.008-0.449,0.115-0.523,0.341
	l-0.004,0.021l0.012,0.014c0.096,0.102,0.26,0.123,0.418,0.146l0.25,0.049l0.02-0.01c0.207-0.189,0.215-0.322,0.184-0.398
	C302.189,467.994,302.052,467.931,301.876,467.938"/>
<path fill-rule="evenodd" clip-rule="evenodd" fill="#F0C91E" d="M286.716,460.226c0.01-0.003,0.037-0.006,0.063,0
	c1,0.176,1.973,0.398,3.34,0.43c0.943,0.023,1.766-0.063,2.682-0.137c0.266-0.019,0.65-0.081,0.615,0.273
	c-0.039,0.338-1.145,0.37-1.607,0.411c-1.309,0.119-2.633,0.043-3.795-0.158c-0.424-0.075-1.485-0.229-1.508-0.503
	C286.491,460.374,286.587,460.258,286.716,460.226"/>
<path fill-rule="evenodd" clip-rule="evenodd" fill="#F0BF8D" d="M286.954,461.512c0.113-0.041,0.242-0.068,0.285-0.204
	c1.727,0.366,3.918,0.466,5.672,0.191c-0.002,0.001-0.006,0.001-0.006-0.006c0,0,0.402,1.334-0.021,1.773l-0.08,0.087l0.117-0.028
	c0.24-0.059,0.414-0.334,0.506-0.508c0.252,0.772,0.348,1.336,0.348,1.739c0,0.522-0.158,0.783-0.338,0.91
	c-0.414,0.292-0.99,0.319-1.596,0.346c-0.363,0.017-0.738,0.039-1.092,0.118c0.008-0.054,0.021-0.153,0.021-0.153
	c0.014-0.069,0.027-0.133,0.027-0.193c0-0.027-0.004-0.051-0.01-0.077l-0.027-0.095l-0.039,0.091
	c-0.248,0.572-1.016,1.856-2.832,1.596c0.012-0.031,0.021-0.072,0.021-0.072c0.016-0.034,0.029-0.071,0.029-0.109
	c0-0.034-0.01-0.07-0.047-0.107l-0.031-0.03l-0.023,0.037c-0.174,0.264-0.402,0.397-0.709,0.43c0.047-0.122,0.105-0.272,0.105-0.42
	c0-0.036-0.004-0.075-0.014-0.114l-0.018-0.059l-0.041,0.045c-0.086,0.084-0.148,0.192-0.215,0.31
	c-0.063,0.114-0.127,0.229-0.219,0.327c-0.477,0.5-1.467,0.711-1.961,0.418c-0.203-0.125-0.309-0.32-0.309-0.583
	c0-0.121,0.025-0.256,0.07-0.403c0.057,0.021,0.293,0.099,0.293,0.099c0.367,0.12,0.748,0.244,1.074,0.411l0.023,0.012l0.02-0.018
	c0.217-0.207,0.246-0.519,0.066-0.794c-0.156-0.246-0.484-0.432-0.85-0.326c0.09-0.209,0.299-0.396,0.564-0.489
	c0.294-0.1,0.59-0.069,0.809,0.091l0.041,0.026l0.014-0.046c0.008-0.021,0.008-0.042,0.008-0.063c0-0.041-0.01-0.082-0.035-0.121
	c-0.045-0.067-0.131-0.114-0.221-0.137c0.094-0.163,0.311-0.231,0.57-0.154l0.08,0.023l-0.041-0.076
	c-0.047-0.085-0.111-0.14-0.191-0.162c-0.168-0.048-0.367,0.063-0.512,0.144l-0.051,0.027c-0.123,0.07-0.289,0.118-0.449,0.162
	c-0.207,0.059-0.42,0.121-0.555,0.229c-0.164,0.131-0.281,0.296-0.395,0.457c-0.135,0.188-0.268,0.364-0.451,0.458
	c0.002-0.023,0.008-0.047,0.008-0.073c0-0.166-0.064-0.303-0.188-0.389c-0.133-0.094-0.314-0.117-0.49-0.067
	c0.316-0.325,0.756-0.65,1.273-0.439l0.039,0.015l0.008-0.039c0.006-0.012,0.008-0.023,0.008-0.035c0-0.089-0.11-0.139-0.199-0.181
	c0,0-0.053-0.027-0.076-0.039c0.004-0.075,0.051-0.106,0.107-0.143c0.055-0.033,0.117-0.067,0.139-0.147l0.021-0.08l-0.469,0.245
	c-0.23,0.116-0.494,0.244-0.721,0.41l-0.75,0.569c-0.156,0.115-0.227,0.275-0.227,0.539c0,0.043,0.006,0.089,0.006,0.137
	c-0.258,0.039-0.492-0.022-0.648-0.172c-0.115-0.113-0.174-0.267-0.174-0.441c0-0.024,0.004-0.05,0.004-0.078
	c0.25,0.076,0.457,0.166,0.631,0.277l0.014,0.01l0.018-0.005c0.201-0.061,0.309-0.367,0.254-0.574
	c-0.045-0.167-0.178-0.247-0.361-0.23c0.061-0.142,0.168-0.263,0.336-0.331c0.254-0.106,0.572-0.09,0.813,0.042l0.045,0.026
	l0.006-0.053c0.002-0.006,0.004-0.013,0.004-0.016c0-0.115-0.154-0.211-0.264-0.272c0.025-0.056,0.074-0.085,0.141-0.113
	l0.131-0.076l-0.029-0.063c-0.541,0.098-1.23,0.313-1.451,0.801c-0.355,0.055-0.584,0.323-0.584,0.687
	c0,0.021,0.004,0.039,0.004,0.06c-0.211,0.009-0.379-0.049-0.49-0.17c-0.089-0.098-0.135-0.234-0.135-0.396
	c0-0.038,0.006-0.079,0.01-0.118c0.061,0.026,0.223,0.102,0.223,0.102l0.225,0.109l0.012-0.004c0.188-0.041,0.332-0.323,0.291-0.495
	c-0.01-0.053-0.057-0.16-0.227-0.151c0.174-0.289,0.537-0.391,0.885-0.443l0.023-0.004l0.008-0.025
	c0.02-0.119,0.109-0.164,0.215-0.22l0.211-0.122l-0.092-0.016c-0.143-0.033-0.313,0.037-0.496,0.202
	c-0.477-0.023-0.703,0.205-0.926,0.428c-0.154,0.155-0.301,0.302-0.527,0.37l-0.016,0.003l-0.004,0.013
	c-0.059,0.102-0.096,0.223-0.111,0.355c-0.236-0.058-0.357-0.251-0.381-0.594c0.158,0.149,0.395,0.178,0.568,0.094
	c0.182-0.086,0.258-0.265,0.193-0.463l-0.01-0.026l-0.028,0.001c-0.071,0.007-0.134,0.023-0.194,0.038
	c0.047-0.018,0.1-0.038,0.1-0.038c0.123-0.178,0.369-0.381,0.65-0.436c0.176-0.032,0.336-0.002,0.473,0.094l0.047,0.033l0.008-0.059
	c0.01-0.073-0.039-0.112-0.072-0.145c-0.033-0.031-0.033-0.033-0.025-0.044c0.139-0.111,0.32-0.169,0.496-0.226
	c0.205-0.065,0.416-0.134,0.568-0.293c0.455-0.474,0.854-0.831,1.424-1.152c0.635-0.354,1.424-0.714,2.506-0.676l0.088,0.002
	l-0.064-0.063c-0.076-0.078-0.199-0.126-0.355-0.152C286.835,461.56,286.89,461.533,286.954,461.512"/>
<path fill-rule="evenodd" clip-rule="evenodd" fill="#F0BF8D" d="M281.052,464.88c-0.035,0.109-0.129,0.158-0.203,0.229
	c-0.123,0-0.215-0.029-0.25-0.112C280.778,464.986,280.864,464.887,281.052,464.88"/>
<path fill-rule="evenodd" clip-rule="evenodd" fill="#F0BF8D" d="M281.733,465.358c-0.043,0.108-0.105,0.196-0.182,0.271
	c-0.104-0.039-0.184-0.104-0.297-0.134C281.345,465.394,281.579,465.248,281.733,465.358"/>
<path fill-rule="evenodd" clip-rule="evenodd" fill="#F0BF8D" d="M282.78,465.835c0.021,0.177-0.055,0.251-0.092,0.364
	c-0.174-0.084-0.348-0.168-0.545-0.227C282.29,465.854,282.61,465.654,282.78,465.835"/>
<path fill-rule="evenodd" clip-rule="evenodd" fill="#F0BF8D" d="M297.456,466.857c-0.396-0.125-0.746-0.295-1.135-0.432
	C296.661,465.929,297.737,466.018,297.456,466.857"/>
<path fill-rule="evenodd" clip-rule="evenodd" fill="#F0BF8D" d="M284.071,466.678c-0.266-0.08-0.514-0.182-0.77-0.272
	C283.515,466.08,284.409,466.042,284.071,466.678"/>
<path fill-rule="evenodd" clip-rule="evenodd" fill="#F0BF8D" d="M285.915,467.04c-0.396-0.135-0.771-0.289-1.182-0.409
	C285.038,466.115,286.151,466.332,285.915,467.04"/>
<path fill-rule="evenodd" clip-rule="evenodd" fill="#F0BF8D" d="M284.163,466.881c-0.008,0.201,0.016,0.481,0,0.612
	c-0.738,0.125-1.039-0.382-1.109-0.997C283.378,466.577,283.806,466.756,284.163,466.881"/>
<path fill-rule="evenodd" clip-rule="evenodd" fill="#F0BF8D" d="M297.384,467.018c-0.129,0.243,0,0.548,0.051,0.795
	c-0.928,0.163-1.758-0.426-1.344-1.316C296.528,466.668,296.983,466.817,297.384,467.018"/>
<path fill-rule="evenodd" clip-rule="evenodd" fill="#F0BF8D" d="M298.544,467.402c-0.271-0.062-0.5-0.162-0.771-0.226
	C297.995,466.893,298.667,466.694,298.544,467.402"/>
<path fill-rule="evenodd" clip-rule="evenodd" fill="#F0BF8D" d="M299.638,467.835c-0.18-0.069-0.359-0.143-0.566-0.182
	C299.212,467.325,299.944,467.291,299.638,467.835"/>
<path fill-rule="evenodd" clip-rule="evenodd" fill="#F0BF8D" d="M300.798,467.767c0.057,0.067,0.098,0.257,0.045,0.363
	c-0.16-0.045-0.289-0.119-0.479-0.135C300.45,467.859,300.601,467.789,300.798,467.767"/>
<path fill-rule="evenodd" clip-rule="evenodd" fill="#F0BF8D" d="M301.569,468.289c0.18-0.014,0.271,0.064,0.451,0.046
	C302.296,467.948,301.624,468.03,301.569,468.289"/>
<path fill-rule="evenodd" clip-rule="evenodd" fill="#F0BF8D" d="M302.021,468.335c-0.18,0.019-0.271-0.06-0.451-0.046
	C301.624,468.03,302.296,467.948,302.021,468.335"/>
<path fill-rule="evenodd" clip-rule="evenodd" fill="#F0BF8D" d="M265.987,403.15c0.406,0.384,1.201-0.279,0.686-0.611
	C266.54,402.841,266.253,402.983,265.987,403.15"/>
<path fill-rule="evenodd" clip-rule="evenodd" fill="#F0BF8D" d="M268.606,398.859l0.018-0.018l-0.01-0.021
	c-0.143-0.325-0.221-0.716-0.305-1.132l-0.197-0.862l-0.145-0.502c-0.152-0.51-0.313-1.036-0.352-1.489
	c-0.031-0.304,0.078-0.598,0.258-0.714c0.131-0.084,0.287-0.076,0.461,0.021c0.355,0.202,0.545,0.938,0.695,1.529l0.354,1.302
	c0.131,0.523,0.256,1.018,0.436,1.377c0.082,0.167,0.199,0.29,0.313,0.411c0.109,0.118,0.207,0.233,0.271,0.376
	c-0.781-0.068-1.764,0.084-2.141,0.592c-0.104,0.141-0.156,0.299-0.156,0.472c0,0.14,0.033,0.286,0.1,0.442
	c0.146,0.349,0.482,0.559,1.018,0.645c-0.172,0.207-0.248,0.471-0.248,0.731c0,0.212,0.047,0.421,0.129,0.591
	c0.182,0.378,0.492,0.581,0.863,0.555l0.006-0.071c-0.33-0.086-0.652-0.425-0.736-0.773c-0.01-0.05-0.018-0.107-0.018-0.167
	c0-0.145,0.049-0.312,0.213-0.462c0.158,0.021,0.316,0.074,0.473,0.126c0.27,0.093,0.549,0.186,0.84,0.12l0.07-0.017l-0.053-0.046
	c-0.139-0.115-0.336-0.166-0.531-0.214c-0.182-0.046-0.365-0.099-0.488-0.201c0.09-0.179,0.242-0.297,0.404-0.417
	c0.238-0.174,0.482-0.354,0.514-0.752l0.002-0.048l-0.047,0.011c-0.133,0.03-0.186,0.131-0.242,0.238
	c-0.059,0.105-0.117,0.216-0.264,0.289c-0.516,0.246-1.264,0.159-1.576-0.188c-0.094-0.107-0.143-0.229-0.143-0.363
	c0-0.112,0.041-0.233,0.107-0.358c0.039,0.188,0.096,0.354,0.158,0.515l0.1,0.275l0.023,0.003c0.373,0.046,0.658-0.063,0.785-0.301
	c0.039-0.076,0.059-0.163,0.059-0.248c0-0.132-0.049-0.267-0.141-0.372c-0.078-0.085-0.176-0.13-0.285-0.16
	c0.711-0.146,1.773-0.31,2.131,0.027c0.523,0.498,0.764,2.367,0.266,3.091c-0.096,0.135-0.273,0.266-0.451,0.391l-0.223,0.167
	l-0.186,0.165c-0.221,0.209-0.43,0.405-0.795,0.419l-0.02,0.001l-0.01,0.016c-0.256,0.448-0.482,0.64-0.857,0.958l-0.066,0.057
	l-0.094,0.08c-0.301,0.263-0.559,0.488-1.152,0.433c-1.311-0.122-2.381-1.57-2.949-2.887l-0.033-0.079
	c-0.178-0.411-0.445-1.034-0.416-1.403c0.014-0.192,0.137-0.401,0.305-0.532c0.094-0.071,0.244-0.151,0.426-0.116
	c0.158,0.028,0.361,0.346,0.475,0.515l0.078,0.116c0.25,0.376,0.559,0.847,0.861,1.152c0.215,0.222,0.426,0.545,0.369,0.788
	c-0.035,0.131-0.146,0.229-0.332,0.29c-0.631,0.206-0.934-0.271-1.232-0.732c-0.174-0.271-0.34-0.525-0.561-0.629l-0.078-0.037
	l0.031,0.082c0.33,0.891,1.045,1.811,1.975,1.475c0.291-0.105,0.453-0.351,0.471-0.711c0.365,0.193,0.74,0.186,1.02-0.033
	c0.191-0.155,0.299-0.382,0.299-0.626c0-0.087-0.016-0.175-0.041-0.265c-0.047-0.159-0.158-0.272-0.262-0.383l-0.152-0.173
	c-0.201-0.27-0.383-0.57-0.559-0.858c0,0-0.334-0.521-0.371-0.584c0.049-0.023,0.17-0.085,0.17-0.085
	c0.283-0.134,0.57-0.271,0.676-0.602l0.014-0.048l-0.051,0.004c-0.168,0.012-0.287,0.112-0.398,0.21
	c-0.133,0.122-0.263,0.233-0.48,0.199c-0.121-0.02-0.393-0.312-0.727-0.779c-0.355-0.508-0.678-1.083-0.992-1.639l-0.164-0.29
	l-0.117-0.191c-0.207-0.322-0.521-0.805-0.402-1.166c0.033-0.094,0.129-0.183,0.254-0.235c0.16-0.063,0.332-0.062,0.471,0.007
	c0.248,0.125,0.527,0.63,0.691,0.932l0.02,0.031c0.291,0.527,0.623,0.982,0.976,1.464l0.39,0.537l0.151,0.24
	c0.175,0.294,0.397,0.661,0.677,0.692C268.349,399.052,268.479,398.993,268.606,398.859"/>
<path fill-rule="evenodd" clip-rule="evenodd" fill="#F0BF8D" d="M268.806,395.414c-0.285,0.005-0.629,0.162-0.813,0.253
	l-0.039,0.023l0.029,0.033c0.068,0.073,0.168,0.102,0.291,0.089c0.211-0.023,0.471-0.182,0.564-0.344l0.031-0.055H268.806z"/>
<path fill-rule="evenodd" clip-rule="evenodd" fill="#F0BF8D" d="M266.011,396.254c-0.281,0.025-0.6,0.219-0.779,0.471l-0.039,0.058
	l0.07-0.002c0.314-0.012,0.643-0.211,0.781-0.473l0.031-0.058L266.011,396.254z"/>
<path fill-rule="evenodd" clip-rule="evenodd" fill="#F0BF8D" d="M269.233,396.822c-0.186,0.024-0.643,0.102-0.863,0.303
	l-0.043,0.044l0.061,0.02c0.303,0.089,0.75-0.068,0.881-0.313l0.033-0.062L269.233,396.822z"/>
<path fill-rule="evenodd" clip-rule="evenodd" fill="#F0BF8D" d="M266.892,397.595c-0.291,0.047-0.598,0.28-0.77,0.489l-0.047,0.058
	l0.074,0.001c0.246,0.006,0.686-0.192,0.783-0.501l0.016-0.058L266.892,397.595z"/>
<path fill-rule="evenodd" clip-rule="evenodd" fill="#F0BF8D" d="M269.759,398.368c-0.354,0.035-0.779,0.195-1.035,0.321
	l-0.07,0.034l0.072,0.032c0.348,0.147,0.914-0.07,1.066-0.335l0.035-0.061L269.759,398.368z"/>
<path fill-rule="evenodd" clip-rule="evenodd" fill="#F0BF8D" d="M266.026,401.732c-0.203,0.067-0.359,0.179-0.512,0.287
	c-0.117,0.085-0.24,0.174-0.379,0.235l-0.109,0.049l0.117,0.019c0.371,0.063,0.814-0.198,0.926-0.546l0.023-0.064L266.026,401.732z"
	/>
<path fill-rule="evenodd" clip-rule="evenodd" fill="#F0BF8D" d="M266.442,402.375c-0.182,0.163-0.436,0.366-0.74,0.52l-0.092,0.044
	l0.1,0.021c0.176,0.039,0.412-0.029,0.584-0.171c0.137-0.114,0.209-0.25,0.207-0.388v-0.076L266.442,402.375z"/>
<path fill-rule="evenodd" clip-rule="evenodd" fill="#F0BF8D" d="M268.169,402.333c-0.279,0.521-0.918,0.239-1.293-0.09
	c-0.285-0.253-0.619-0.75-0.932-1.181c-0.264-0.367-0.742-0.902-0.727-1.364c0.016-0.483,0.641-0.842,1.066-0.568
	c0.174,0.112,0.373,0.511,0.5,0.705c0.344,0.526,0.596,0.894,0.977,1.406C267.974,401.529,268.442,401.83,268.169,402.333
	 M268.013,401.878c-0.156,0.255-0.363,0.459-0.66,0.571C267.708,402.95,268.593,402.195,268.013,401.878 M266.31,401.312
	c0.352-0.016,0.799-0.259,0.791-0.637C266.833,400.868,266.524,401.14,266.31,401.312 M267.126,402.197
	c0.322,0.019,0.676-0.367,0.59-0.68C267.62,401.845,267.341,401.988,267.126,402.197"/>
<path fill-rule="evenodd" clip-rule="evenodd" fill="#D6484C" d="M310.021,414.353c-4.43,0.235-7.375,2.195-10.477,3.611
	c2.666-1.888,5.518-3.586,8.682-4.975c0.229,0.096,0.51,0.143,0.795,0.181C309.403,413.499,309.798,413.938,310.021,414.353"/>
<path fill-rule="evenodd" clip-rule="evenodd" fill="#FFFFFF" d="M285.856,434.537l0.186,0.063c1.777,0.471,4.156,0.314,6.256,0.175
	c0,0,0.865-0.052,0.926-0.057c-0.002,0.027-0.006,0.057-0.006,0.086c0,0.693,0.512,0.885,1.004,1.065
	c0.168,0.064,0.342,0.129,0.492,0.216c-0.215,0.612-1.221,0.877-2.105,1.111l-0.113,0.03c-0.648,0.171-1.391,0.325-2.27,0.476
	l0.004,0.058h0.006c1.223,0,2.605-0.268,3.805-0.73c-0.035,0.092-0.115,0.177-0.211,0.263c-0.141,0.125-0.287,0.255-0.287,0.439
	c0,0.007,0.002,0.016,0.002,0.023c0.02,0.353,0.512,0.473,0.986,0.588c0.289,0.072,0.561,0.14,0.699,0.256
	c-0.758,0.746-2.262,1.192-4.043,1.192l-0.801,0.012c-1.459,0.025-2.965,0.051-3.746-0.646c0.119-0.149,0.321-0.246,0.52-0.34
	c0.289-0.133,0.584-0.273,0.646-0.583c0.01-0.052,0.016-0.104,0.016-0.158c0-0.562-0.594-1.118-1.039-1.533
	c-0.131-0.12-0.236-0.224-0.322-0.316c0.682,0.32,1.754,0.664,3.182,0.624l0.006-0.057l-0.096-0.021
	c-1.762-0.366-3.584-0.75-4.234-2.258C285.476,434.396,285.667,434.466,285.856,434.537"/>
<path fill-rule="evenodd" clip-rule="evenodd" fill="#F0BF8D" d="M314.337,442.026c0.012,0.209,0.23,0.273,0.297,0.478
	c0.225-0.138,0.375-0.353,0.611-0.478C315.188,441.478,314.302,441.44,314.337,442.026"/>
<path fill-rule="evenodd" clip-rule="evenodd" fill="#F0BF8D" d="M315.718,435.194l0.355-0.249c0.24-0.179,0.514-0.383,0.699-0.405
	c0.24-0.027,0.781,0.221,1.104,0.368l0.08,0.037l1.115,0.479c0.234,0.095,0.465,0.284,0.668,0.451l0.256,0.203l0.26,0.176
	c0.367,0.241,0.705,0.479,0.922,0.837c-0.213-0.151-0.443-0.271-0.697-0.387l-0.514-0.254l-0.354-0.234
	c-0.26-0.19-0.508-0.373-0.914-0.361l-0.09,0.003l0.338,0.303c0.252,0.228,0.512,0.462,0.828,0.626l0.391,0.178
	c0.203,0.088,0.412,0.178,0.607,0.298c0.236,0.147,0.432,0.359,0.619,0.562c0.176,0.189,0.361,0.384,0.576,0.528
	c-0.014,0.02-0.025,0.038-0.049,0.055c-0.041,0.028-0.088,0.063-0.096,0.139c0.018,0.067,0.049,0.116,0.084,0.157
	c-0.143-0.09-0.287-0.188-0.436-0.292c-0.33-0.239-0.674-0.483-1.076-0.644l-0.061-0.023c-0.314-0.124-0.639-0.253-0.91-0.449
	l-0.053-0.037c-0.268-0.196-0.635-0.466-0.988-0.236l-0.088,0.057l0.105,0.009c0.35,0.027,0.514,0.188,0.717,0.39l0.102,0.099
	c0.227,0.216,0.525,0.311,0.842,0.411c0.201,0.064,0.412,0.132,0.598,0.231c0.355,0.193,0.652,0.442,0.938,0.682
	c0.211,0.179,0.41,0.344,0.623,0.478c-0.018,0.03-0.037,0.054-0.063,0.078c-0.047,0.042-0.102,0.089-0.107,0.184v0.012l0.006,0.01
	c0.086,0.125,0.201,0.223,0.313,0.313l0.205,0.182l0.021-0.003c0.084-0.027,0.141-0.08,0.191-0.131
	c0.051-0.045,0.1-0.085,0.166-0.107c0.051,0.082,0.082,0.169,0.082,0.255c0,0.08-0.023,0.157-0.063,0.234
	c-0.107,0.198-0.334,0.324-0.57,0.335c0.027-0.089,0.045-0.174,0.045-0.249c0-0.435-0.415-0.638-0.789-0.821l-0.326-0.171
	l-0.41-0.265c-0.25-0.164-0.51-0.333-0.795-0.486c-0.246-0.129-0.521-0.192-0.791-0.252c-0.23-0.053-0.469-0.106-0.689-0.205
	l-0.215-0.113c-0.227-0.134-0.467-0.271-0.727-0.109l-0.08,0.05l0.094,0.015c0.211,0.032,0.373,0.175,0.545,0.324
	c0.109,0.097,0.223,0.195,0.354,0.263c0.129,0.069,0.281,0.093,0.428,0.118l0.305,0.064c0.666,0.222,1.234,0.601,1.742,0.938
	c-0.006,0.042-0.035,0.077-0.076,0.118c-0.047,0.049-0.108,0.111-0.108,0.193c0,0.016,0.001,0.029,0.007,0.044
	c0.027,0.118,0.166,0.174,0.301,0.227c0.1,0.043,0.205,0.084,0.248,0.15l0.021,0.028l0.025-0.017l0.191-0.125
	c0.072-0.056,0.146-0.106,0.242-0.133c0.008,0.043,0.014,0.087,0.014,0.131c0,0.156-0.049,0.311-0.143,0.439
	c-0.107,0.143-0.254,0.227-0.412,0.233c-0.352,0.016-0.629-0.111-0.922-0.242c-0.197-0.091-0.402-0.182-0.635-0.235
	c-0.33-0.072-0.684-0.094-1.096-0.116l-0.322-0.021l-0.393-0.036c-0.253-0.027-0.492-0.053-0.814-0.032
	c-0.748,0.052-1.531-0.111-2.045-0.426c-0.094-0.254-0.199-0.519-0.539-0.551l-0.029-0.004l-0.008,0.028
	c-0.031,0.118,0.041,0.215,0.111,0.312l0.094,0.145c0.045,0.106,0.07,0.244,0.1,0.39c0.043,0.211,0.088,0.448,0.197,0.661
	l0.168,0.284c0.176,0.278,0.324,0.518,0.262,0.918c-0.031,0.2-0.189,0.39-0.387,0.466c-0.178,0.07-0.357,0.041-0.512-0.078
	c-0.34-0.271-0.559-0.727-0.77-1.165l-0.266-0.528c-0.139-0.24-0.338-0.425-0.551-0.618l-0.387-0.388
	c-0.471-0.548-0.826-1.463-0.826-2.339c0-0.312,0.047-0.619,0.146-0.904C313.372,436.322,314.628,435.835,315.718,435.194"/>
<path fill-rule="evenodd" clip-rule="evenodd" fill="#221714" d="M314.7,441.567c-0.195,0.017-0.416,0.146-0.398,0.462
	c0.008,0.126,0.084,0.206,0.154,0.281c0.057,0.059,0.113,0.119,0.143,0.204l0.016,0.043l0.037-0.023
	c0.109-0.064,0.201-0.15,0.291-0.23c0.102-0.094,0.197-0.181,0.32-0.246l0.023-0.012l-0.002-0.022
	C315.249,441.71,314.958,441.546,314.7,441.567 M314.37,441.991c0-0.238,0.17-0.339,0.336-0.354c0.217-0.018,0.461,0.116,0.5,0.375
	c-0.119,0.066-0.219,0.153-0.313,0.238c-0.078,0.07-0.16,0.141-0.25,0.197c-0.035-0.073-0.084-0.134-0.135-0.186
	c-0.07-0.074-0.131-0.138-0.137-0.238C314.37,442.013,314.37,442.001,314.37,441.991"/>
<path fill-rule="evenodd" clip-rule="evenodd" fill="#F0BF8D" d="M297.728,466.993c-0.006,0.054-0.068,0.052-0.088,0.094
	C297.597,467.071,297.677,466.991,297.728,466.993"/>
<path fill="#221714" d="M297.38,399.212v0.057c-1.004-0.34-2.271-0.378-3.182,0.208c-0.717,0.452-1.152,1.209-1.473,1.909
	c0.207-1.078,1.115-2.381,2.326-2.591C295.864,398.608,296.716,398.795,297.38,399.212"/>
<path fill="#221714" d="M286.065,401.082c0.059,0.19,0.209,0.362,0.172,0.532c-0.246-0.229-0.305-0.624-0.57-0.889
	c-0.869-1.021-2.25-1.456-3.553-1.021c-0.096-0.075,0.033-0.17,0.111-0.17C283.739,399.005,285.347,399.704,286.065,401.082"/>
<path fill="#221714" d="M298.229,400.817c-0.02,0.229-0.32,0.494-0.547,0.587c-1.686,0.076-3.711-0.266-4.77,1.343
	c0.229-0.926,1.172-1.608,2.082-1.797C296.071,400.837,297.265,401.404,298.229,400.817"/>
<path fill="#221714" d="M282.036,401.292c1.002-0.153,2.234-0.475,3.027,0.359c0.398,0.339,0.754,0.738,0.868,1.21
	c-0.696-0.946-1.794-1.382-2.968-1.21c-0.342,0.149-0.85,0.149-1.135-0.172c-0.115-0.15-0.301-0.209-0.283-0.417
	C281.735,401.082,281.848,401.271,282.036,401.292"/>
<path fill="#221714" d="M287.05,405.285c0,0.436,0.283,0.832,0.682,1.021c0.623,0.322,1.229-0.47,1.797,0.095
	c-0.189,0.154-0.455,0-0.684,0.038c-0.51,0.116-1.076,0.398-1.605,0.116c-1.059-0.834-0.322-2.31-0.02-3.274
	c0.283-0.642,0.512-1.325,0.512-2.081C288.071,402.675,286.937,403.79,287.05,405.285"/>
<path fill="#221714" d="M294.257,407.97c0,0.095-0.059,0.171-0.152,0.209c-0.301,0.057-0.49-0.379-0.795-0.152
	c-0.473,1.211-0.699,2.592-1.945,3.405c-0.588,0.358-1.439,0.681-2.1,0.246c-0.93-0.852-1.439-1.949-2.311-2.857
	c-0.131-0.112-0.377-0.187-0.511-0.017c-0.112,0.131-0.282,0.188-0.452,0.131c-0.059-0.075-0.018-0.188,0.018-0.245
	c1.135-0.663,1.816,0.832,2.971,0.681c1.439,0.018,2.592-0.623,3.764-1.247c0.246-0.132,0.436-0.418,0.682-0.513
	C293.747,407.629,294.05,407.724,294.257,407.97"/>
<path fill="#FFFFFF" d="M290.511,411.526c-0.699,0.207-1.324-0.116-1.738-0.661c-0.438-0.437-0.605-0.966-0.91-1.457
	c1.74,0.622,3.463-0.171,4.898-0.907C292.554,409.729,291.854,411.148,290.511,411.526"/>
<path fill-rule="evenodd" clip-rule="evenodd" fill="#221714" d="M288.753,392.071c0.809-0.068,1.361,0.482,1.389,1.204
	c0.043,1.395-1.736,1.669-2.295,0.724C287.325,393.116,287.782,392.153,288.753,392.071 M288.687,394.43
	c1.133,0.246,1.477-2.38,0.045-2.199C287.733,392.355,287.733,394.224,288.687,394.43"/>
<path fill-rule="evenodd" clip-rule="evenodd" fill="#FFFFFF" d="M288.731,392.23c1.432-0.181,1.088,2.445-0.045,2.199
	C287.733,394.224,287.733,392.355,288.731,392.23"/>
<path fill-rule="evenodd" clip-rule="evenodd" fill="#221714" d="M288.937,393.275c0.057-0.709-0.656,0.169-0.092,0.247
	c0.487,0.066,0.463-0.939-0.092-0.951c-0.34-0.009-0.566,0.389-0.568,0.725c-0.002,0.668,0.639,1.042,1.252,0.613
	c-0.221,0.218-0.357,0.314-0.658,0.295c-0.918-0.064-1-2.012,0.135-1.793c0.553,0.107,0.678,1.182,0.137,1.316
	c-0.738,0.184-0.775-1.021-0.205-0.932C289.103,392.838,289.14,393.246,288.937,393.275"/>
<path fill-rule="evenodd" clip-rule="evenodd" fill="#221714" d="M330.626,376.646c-0.242-0.195-0.668-0.212-0.795-0.522
	c0.354-0.14,0.688,0.307,1.047,0.387"/>
<path fill="#221714" d="M309.843,396.057c-0.768,0.028-1.291,1.046-1.457,1.98c-0.16,0.91-0.025,2.105,0.896,2.473
	c0.076,0.032,0.166-0.005,0.199-0.081c0.031-0.078-0.004-0.167-0.084-0.198c-0.754-0.302-0.85-1.341-0.711-2.142
	c0.172-0.967,0.658-1.532,1.15-1.552c1.049-0.038,1.545,0.812,1.643,1.79c0.07,0.751-0.082,1.529-0.236,2.259
	c-0.178,0.842-0.424,1.664-0.703,2.477c-0.303,0.888-0.541,1.78-0.711,2.7c-0.162,0.868-0.23,1.765-0.238,2.646
	c-0.006,0.367,0.139,1.724-0.232,2.086c-0.195,0.195-0.5,0.115-0.643,0.088c-0.939-0.339-0.58-1.422-0.832-1.579
	c-0.057-0.034-0.072,0.153-0.074,0.175c-0.021,0.197-0.068,0.384-0.055,0.585c0.012,0.179,0.055,0.356,0.125,0.523
	c0.029,0.07,0.063,0.142,0.104,0.208c0.203,0.32,0.6,0.469,0.807,0.509c0.188,0.037,0.611,0.091,0.859-0.188
	s0.313-0.867,0.268-1.868c-0.049-0.999,0.049-2.394,0.156-3.215c0.029-0.23,0.064-0.458,0.1-0.688
	c0.074-0.46,0.211-0.926,0.354-1.371c0.27-0.841,0.52-1.67,0.758-2.521c0.273-0.984,0.574-2.125,0.5-2.857
	C311.673,397.182,311.106,396.01,309.843,396.057"/>
<path fill="#221714" d="M309.7,396.167c-0.4,1.38,0.414,4.591,0.551,4.948c0.094,0.287-0.703,2.519-1.49,3.238
	c-0.178,0.162-0.326,0.222-0.441,0.175c-0.227-0.091-0.252-0.199-0.26-0.232c-0.07-0.305,0.41-0.834,0.729-1.184
	c0.316-0.349,0.457-0.512,0.438-0.668c-0.027-0.182,0.025-0.574-0.055-0.742c-0.133,0.001-0.574-0.161-0.572-0.151
	c0.033,0.179,0.178,0.316,0.256,0.478c0.072,0.149,0.119,0.304,0.143,0.436c-0.027,0.074-0.299,0.289-0.438,0.446
	c-0.361,0.396-0.803,0.88-0.816,1.306c-0.002,0.049,0.002,0.098,0.016,0.146c0.047,0.197,0.197,0.348,0.445,0.447
	c0.246,0.098,0.521-0.067,0.805-0.344c0.816-0.786,1.65-2.935,1.486-3.359c-0.17-0.446-1.049-3.39-0.699-4.603
	c0.025-0.079,0.176-0.419,0.094-0.441C309.812,396.039,309.722,396.086,309.7,396.167"/>
<path fill-rule="evenodd" clip-rule="evenodd" fill="#221714" d="M289.892,414.396c-1.318-0.087-2.143-0.786-2.479-1.86h-0.068
	c0,0.028-0.039,0.02-0.045,0.044c-0.025,1.433,1.254,2.067,2.748,2.067c0.465,0,0.98-0.072,1.434-0.158
	c0.43-0.084,0.961-0.099,1.158-0.432C291.813,414.146,290.847,414.462,289.892,414.396"/>
<path fill-rule="evenodd" clip-rule="evenodd" fill="#221714" d="M290.3,432.983c0,0-0.264,0.107-0.293,0.119
	c-0.234-0.183-0.625-0.292-0.959-0.268l-0.004,0.069c0.367,0.057,0.576,0.262,0.801,0.479l0.203,0.193l0.023-0.021l0.254-0.22
	c0.232-0.205,0.473-0.42,0.783-0.548l-0.02-0.068C290.788,432.773,290.54,432.88,290.3,432.983"/>
</svg>
