<?xml version="1.0" encoding="utf-8"?>
<!-- Generator: Adobe Illustrator 14.0.0, SVG Export Plug-In . SVG Version: 6.00 Build 43363)  -->
<!DOCTYPE svg PUBLIC "-//W3C//DTD SVG 1.1//EN" "http://www.w3.org/Graphics/SVG/1.1/DTD/svg11.dtd">
<svg version="1.1" id="レイヤー_1" xmlns="http://www.w3.org/2000/svg" xmlns:xlink="http://www.w3.org/1999/xlink" x="0px"
	 y="0px" width="595.28px" height="841.89px" viewBox="0 0 595.28 841.89" enable-background="new 0 0 595.28 841.89"
	 xml:space="preserve">
<path fill="#221714" d="M333.418,407.506c0.154-0.346,0.272-0.947-0.035-1.277c-0.57-0.102,0.068-0.617-0.207-0.941
	c-0.156-0.299-0.485-0.398-0.811-0.398l0.035-0.414c-0.139-0.277-0.414-0.361-0.689-0.379c-0.844,0.066-1.43,0.74-2.17,1.066
	c-0.121,0.104-0.312,0.207-0.449,0.174c0.07-0.189,0.189-0.379,0.138-0.604c-0.05-0.209-0.224-0.344-0.411-0.432
	c-0.654-0.154-1.137,0.412-1.57,0.896c-1.395,0.5-2.81,1.637-3.443,3.031c-0.123-0.119-0.295-0.154-0.448-0.137
	c-0.224,0.051-0.312,0.24-0.416,0.412c-0.086-0.084-0.222-0.049-0.323-0.033c-0.244,0.119-0.365,0.361-0.277,0.619
	c-1.586,0.537-3.168,1.068-4.703,1.705l-3.273,0.641c0.447-1.656,0.534-3.775-0.137-5.361c-0.122-2.582,1.238-4.65,1.449-7.148
	c0.738-4.787-0.449-9.217-3.862-12.506c-0.067-0.07,0-0.139,0.034-0.189c1.102-0.568,2.291-0.913,3.529-1.121
	c3.311-0.498,7.016,1.416,9.822-0.67c1.844-1.723,3.652-3.566,5.754-4.652c0.551-0.432,1.498-0.807,1.447-1.67
	c-0.294-0.793-0.982-1.654-1.791-1.998c-1.258-0.346-2.294,0.48-3.102,1.412c-0.965,1.705-1.793,3.48-3.291,4.961
	c-1.309,1.256-3.635,1.344-5.184,0.551c-0.568-0.395-0.677-1.033-0.621-1.703c-0.035-1.313,1.086-2.397,0.516-3.689
	c-0.516-0.723-1.48-0.861-2.324-0.705c-0.57,0.189-1.016,0.775-1.068,1.379c0.311,1.223,0.637,2.531,0.43,3.895
	c-0.033,0.375-0.463,0.705-0.776,0.861c-1.497,0.686-3.185,1.307-4.96,1.016c-0.24-0.105-0.415-0.348-0.5-0.588
	c-0.258-1.445,0.121-3.031-0.068-4.496c-0.326-0.566-0.912-0.912-1.516-1.018c-0.74-0.1-1.465,0.123-1.965,0.674
	c-0.241,1.258,0.328,2.414,0.484,3.6c-0.051,0.07-0.107,0.07-0.193,0.07c-2.133-1.189-4.389-2.051-6.854-2.449
	c-2.24-0.377-4.701-0.102-6.805,0.295c0.035-0.328,0.156-0.637,0.104-1.016c-0.205-1.656-0.74-3.188-1.465-4.637
	c-0.172-0.256-0.395-0.566-0.758-0.514c-0.773-0.086-1.445,0.344-1.875,0.982c-0.191,0.24-0.141,0.516-0.055,0.791
	c0.553,0.707,1.086,1.447,1.518,2.203c0.532,0.828,0.586,2.002,0.088,2.846c-1.347,0.412-2.672,0.895-3.914,1.584
	c-1.549-0.639-3.064-1.361-4.443-2.428c-1.498-1.793-1.551-4.172-2.635-6.135c-0.502-0.344-1.361-0.43-1.879-0.088
	c-0.344,0.191-0.516,0.537-0.498,0.932c0.602,1.74,2.119,3.104,2.617,4.893c-0.363,0.465-1.139,0.154-1.67,0.275
	c-1.223,0.209-2.379,0.586-3.635,0.725c-3.016,0.345-4.893-2.152-7.012-4.014c-0.588-0.553-1.137-1.188-1.844-1.432
	c-1.361-0.207-2.875-0.119-3.91,0.795c-0.207,0.291-0.275,0.672-0.207,1.049c0.518,0.672,1.326,0.984,2.015,1.412l6.271,3.119
	l2.068,0.879c1.947,0.568,3.754-0.328,5.582-0.637c2.771-0.67,5.045,0.947,7.424,1.758c-2.345,2.238-3.445,5.012-4.201,7.906
	c-0.984,4.047,0.359,8.063,1.805,11.559c0.828,1.879,1.052,3.998,0.949,6.252c0.07,1.381-0.361,2.758,0.018,4.066
	c0.361,0.637,1.016,1.068,1.74,0.967c-1.586,1.238-2.791,2.893-3.307,4.684c-0.053,0.104-0.086,0.225-0.244,0.209
	c-0.223,0.049-0.428,0.273-0.412,0.531c0.363,0.381-0.379,0.328-0.293,0.707c-0.018,0.242,0.154,0.449,0.326,0.568
	c-0.517,1.639-0.773,3.359-1.324,4.979c-1.068,2.74-1.895,5.6-2.672,8.461c-0.068,0.086-0.033,0.291-0.205,0.291
	c-0.258,0.104-0.346,0.396-0.258,0.654c-0.209,0.033-0.416,0.068-0.535,0.242c-0.053,0.154-0.086,0.395,0.07,0.498
	c-0.588,0.416-1.242,0.742-1.914,0.945c-1.102,0.605-2.463,1.553-2.877,2.811c-0.258,0.449-0.998,0.604-0.965,1.223
	c0.518,0.449-0.378,0.396-0.361,0.813c-0.121,0.326,0.07,0.602,0.274,0.824c0.259,0.191,0.519,0.328,0.88,0.279l0.396,0.273
	c0.654,0.223,1.223-0.104,1.773-0.311c0.432-0.088,0.896-0.242,1.328-0.121c0.963-0.242,2.137,0.051,3.066-0.344
	c0.086-0.018,0.24-0.104,0.275,0.051c-0.24,0.586-0.742,1.119-0.518,1.859c0.104,0.26,0.396,0.396,0.637,0.484
	c0.742,0.205,0.93-0.639,1.396-1.018c0.258-0.396,0.273-0.875,0.672-1.205c1.104-0.844,1.634-2.049,1.602-3.395
	c0.032-0.328-0.291-0.723,0.189-0.863c0.123-0.17,0.086-0.445-0.068-0.582l0.275-0.225c0.084-0.209,0.121-0.467-0.035-0.654
	c2.154-3.445,3.584-7.201,5.752-10.631c0.156,1.189,0.381,2.344,0.605,3.48c-0.363,0.363-0.428,0.879-0.449,1.412
	c0.174,1.346-0.24,2.5,0,3.807c0.086,0.242,0.07,0.568,0.363,0.652c-0.205,1.314-0.412,2.623-0.52,3.965
	c-0.273,0.396-0.254,0.898-0.273,1.396c0.293,2.205,1.067,4.254,0.896,6.598c0.033,0.412,0.464,0.137,0.586,0.344
	c0.309,1.912,0.154,4.014,0.328,5.979l0.137,0.326c0.447,0.053,0.93,0.07,1.377,0.158c0.118,1.824,0.621,3.529,0.879,5.287
	l-0.361,0.033c-0.24,0.121-0.361,0.361-0.328,0.639c0.053,0.156,0.172,0.258,0.328,0.311c-0.156,0.139-0.328,0.342-0.275,0.602
	c0,0.154,0.137,0.291,0.275,0.346c-0.086,0.275-0.26,0.516-0.482,0.723c-0.965,0.604-2.031,0.965-2.771,2.014l-0.865,0.295
	c-0.43,0.445-0.98,0.637-1.463,1c-0.205,0.086-0.43,0.102-0.619,0.24c-0.121,0.174-0.121,0.412-0.086,0.619
	c0.033,0.344,0.482,0.313,0.5,0.621c0.154,0.295,0.43,0.43,0.738,0.43c0.242,0.447,0.725,0.623,1.227,0.568
	c0.432,0.502,1.117,0.604,1.721,0.416l0.586,0.361c0.775,0.24,1.584-0.02,2.17-0.502c1.239-0.086,2.877,0.174,3.48-1.273
	c0.861-0.123,1.773-0.123,2.43-0.705c0.463-0.674,0.016-1.465-0.035-2.17c0.051-0.879-0.465-2.02,0.277-2.672
	c0.238-0.258,0-0.57-0.07-0.809c0.119-0.189,0.189-0.432,0.119-0.658c-0.068-0.152-0.189-0.357-0.377-0.395
	c0.137-1.721,0.447-3.375,0.619-5.08l0.104-0.328c0.498,0.016,1.016-0.139,1.514-0.123l0.432,5.395c0,0.086-0.102,0.049-0.137,0.104
	c-0.242,0.119-0.396,0.361-0.361,0.654c0.396,0.293-0.121,0.518-0.02,0.877c0.02,0.277,0.277,0.398,0.502,0.52
	c0.033,0.43-0.139,0.791-0.209,1.17c0.191,1.068-0.549,1.879-0.273,2.912c0.639,0.861,1.842,0.516,2.773,0.723
	c0.518,0.639,1.222,0.93,1.965,1.051c0.412,0.121,0.756-0.238,1.084,0.035c0.518-0.035,0.791,0.498,1.258,0.586
	c0.652,0.203,1.43,0.102,1.859-0.467c0.311,0.053,0.619,0.053,0.912-0.018c0.26-0.086,0.416-0.361,0.519-0.602
	c0.515,0.119,0.946-0.123,1.257-0.518c0.295-0.016,0.533-0.104,0.758-0.26c0.086-0.393,0.518-0.275,0.723-0.531
	c0.172-0.277,0.172-0.639,0.07-0.949c-0.363-0.189-0.793-0.203-1.068-0.586c-0.535-0.051-0.861-0.516-1.396-0.566
	c-0.566-0.57-1.17-1.275-1.861-1.604c-0.637-0.291-1.412-0.275-2.014-0.689c-0.068-0.121-0.396-0.188-0.172-0.361
	c0.086-0.275-0.035-0.568-0.296-0.689c0.157-0.137,0.296-0.361,0.21-0.604c-0.068-0.223-0.311-0.309-0.5-0.359
	c0.463-1.586,0.828-3.205,1.102-4.857c0.293-0.105,0.604-0.137,0.811-0.412c0.947-2.566,1.533-5.309,2.031-8.066
	c0.156,0.037,0.398,0.242,0.502,0c0.533-1.756,0.258-3.84,0.688-5.648c-0.066-0.24-0.328-0.26-0.5-0.361
	c0.02-0.723,0.123-1.43,0.086-2.188c0.656-1.242,0.76-3.135-0.188-4.289c0.619-2.895,0.377-6.273-0.484-8.977
	c0.502-0.605,0.861-1.275,0.982-2.051c0.104-0.465,0.018-1.016,0.068-1.463l1.5-0.586c0.067,0.104,0.174,0.207,0.311,0.189
	c0.291,0.102,0.551-0.121,0.67-0.361h0.467c0.225-0.086,0.275-0.328,0.311-0.537l2.601-1.307c2.653-1.225,5.255-2.533,7.612-4.445
	c0.156-0.291,0.33,0.07,0.537-0.051c0.396,0.033,0.273-0.568,0.723-0.381c0.207-0.068,0.344-0.223,0.432-0.412
	c1.189-0.311,2.514-0.295,3.445-1.24c1.188-1.24,2.807-2.117,3.6-3.633C333.606,408.092,333.658,407.713,333.418,407.506"/>
<path fill="#221714" d="M277.328,373.486c-0.418,0.236-0.664,0.668-0.664,1.17v0.063c0,0.033,0.008,0.066,0.02,0.098
	c0.296,0.859,0.807,1.629,1.296,2.373c0.505,0.758,0.972,1.48,1.239,2.285c-0.139,0.057-0.336,0.061-0.621,0.045
	c-0.24-0.014-0.488-0.027-0.725,0.027c-0.498,0.084-1.006,0.201-1.498,0.314c-0.68,0.16-1.383,0.322-2.098,0.402
	c-2.318,0.266-3.918-1.26-5.611-2.871l-1.145-1.061c0.008,0.008-0.301-0.293-0.301-0.293c-0.494-0.48-1.004-0.979-1.654-1.203
	c-0.02-0.008-0.039-0.012-0.059-0.016c-1.785-0.27-3.23,0.033-4.184,0.877c-0.02,0.016-0.037,0.033-0.053,0.057
	c-0.256,0.361-0.348,0.824-0.262,1.303c0.01,0.051,0.031,0.102,0.064,0.143c0.424,0.553,1,0.871,1.559,1.182l0.545,0.314
	c0.006,0.004,0.021,0.014,0.027,0.016l6.271,3.117c0.006,0.004,0.012,0.006,0.018,0.008l2.066,0.881
	c0.014,0.004,0.027,0.01,0.039,0.012c1.484,0.436,2.871,0.072,4.213-0.277c0.521-0.137,1.016-0.266,1.52-0.352
	c0.008,0,0.016,0,0.022-0.004c1.959-0.477,3.636,0.25,5.409,1.016c0.441,0.191,0.893,0.377,1.346,0.551
	c-2.313,2.408-3.326,5.352-3.938,7.688c-0.242,0.996-0.348,1.988-0.348,2.975c0,3.039,1.014,5.998,2.172,8.795
	c0.633,1.443,0.945,3.131,0.945,5.141c0,0.314-0.008,0.637-0.023,0.971v0.014v0.018c0.004,0.098,0.006,0.197,0.006,0.295
	c0,0.412-0.037,0.83-0.072,1.238c-0.038,0.414-0.074,0.838-0.074,1.262c0,0.447,0.041,0.9,0.172,1.348
	c0.006,0.025,0.016,0.049,0.029,0.072c0.291,0.514,0.734,0.871,1.225,1.039c-1.361,1.23-2.349,2.738-2.811,4.316
	c-0.002,0.006-0.002,0.006-0.006,0.008c-0.389,0.088-0.676,0.447-0.676,0.832c0,0.018,0.002,0.035,0.004,0.053
	c0,0.035,0.012,0.068,0.027,0.104c-0.127,0.082-0.332,0.238-0.332,0.52c0,0.018,0.006,0.041,0.01,0.063
	c-0.002,0.012-0.002,0.021-0.002,0.031c0,0.23,0.104,0.461,0.283,0.648c-0.215,0.711-0.393,1.439-0.559,2.146
	c-0.205,0.865-0.418,1.766-0.704,2.609c-1.091,2.799-1.931,5.732-2.677,8.48c0.006-0.016,0.055-0.104,0.061-0.121
	c0,0-0.068,0.152-0.093,0.203c-0.278,0.127-0.448,0.391-0.468,0.693c-0.164,0.049-0.328,0.133-0.451,0.311
	c-0.018,0.025-0.033,0.053-0.043,0.084c-0.041,0.123-0.063,0.242-0.063,0.352c0,0.047,0.008,0.094,0.016,0.139
	c-0.5,0.318-1.037,0.578-1.576,0.74c-0.021,0.01-0.043,0.018-0.063,0.029c-1.629,0.893-2.641,1.881-3.01,2.939
	c-0.068,0.111-0.203,0.215-0.352,0.326c-0.277,0.211-0.657,0.496-0.657,1.016v0.061c0.005,0.059,0.036,0.119,0.071,0.172
	c-0.152,0.088-0.369,0.24-0.412,0.52c0.002-0.004,0-0.01,0.002-0.014c-0.002,0.006,0,0.01-0.002,0.016
	c-0.006,0.029-0.02,0.053-0.02,0.088v0.012c-0.016,0.068-0.035,0.139-0.035,0.201c0,0.418,0.289,0.734,0.4,0.854
	c0.016,0.016,0.031,0.029,0.047,0.039c0.252,0.188,0.564,0.367,0.982,0.35c0.111,0.076,0.299,0.209,0.299,0.209
	c0.027,0.018,0.055,0.033,0.083,0.043c0.668,0.229,1.241-0.006,1.743-0.211c0,0,0.207-0.082,0.238-0.096
	c0.051-0.01,0.215-0.045,0.215-0.045c0.338-0.078,0.654-0.15,0.924-0.074c0.057,0.016,0.117,0.016,0.173,0
	c0.382-0.092,0.81-0.096,1.265-0.1c0.475-0.002,0.961-0.008,1.424-0.119c-0.164,0.311-0.336,0.672-0.336,1.096
	c0,0.148,0.02,0.305,0.07,0.465c0.002,0.01,0.006,0.018,0.01,0.029c0.156,0.391,0.551,0.57,0.834,0.672
	c0.008,0.004,0.016,0.006,0.023,0.006c0.732,0.205,1.115-0.334,1.371-0.689c0.109-0.152,0.213-0.297,0.326-0.389
	c0.027-0.021,0.051-0.047,0.068-0.076c0.119-0.182,0.193-0.375,0.26-0.545c0.092-0.236,0.17-0.439,0.346-0.584
	c1.113-0.854,1.725-2.105,1.725-3.535c0-0.039,0-0.08-0.002-0.121c0.002-0.016,0.004-0.033,0.004-0.047
	c0-0.129-0.025-0.246-0.049-0.344c-0.01-0.043-0.021-0.098-0.027-0.139c0.01-0.002,0.021-0.01,0.021-0.01
	c0.062-0.021,0.144-0.072,0.181-0.129c0.092-0.129,0.135-0.283,0.135-0.438c0-0.088-0.023-0.172-0.049-0.254
	c0.018-0.018,0.059-0.051,0.059-0.051c0.043-0.033,0.076-0.078,0.098-0.129c0.066-0.158,0.1-0.316,0.1-0.463
	c0-0.111-0.023-0.213-0.061-0.311c1.027-1.662,1.904-3.412,2.75-5.107c0.758-1.514,1.541-3.064,2.424-4.555
	c0.139,0.867,0.303,1.701,0.443,2.424c-0.33,0.428-0.411,0.959-0.426,1.48v0.01c0,0.016,0,0.027,0.002,0.043
	c0.029,0.23,0.041,0.453,0.041,0.676c0,0.355-0.029,0.709-0.061,1.072c-0.031,0.359-0.059,0.727-0.059,1.104
	c0,0.316,0.02,0.641,0.082,0.975c0,0.008,0.012,0.043,0.014,0.049l0.041,0.156c0.035,0.16,0.094,0.389,0.271,0.555
	c-0.189,1.205-0.379,2.443-0.48,3.701c-0.244,0.414-0.266,0.875-0.277,1.322c0,0-0.004,0.162-0.004,0.166
	c0,0.014,0,0.031,0.002,0.043c0.1,0.76,0.258,1.506,0.412,2.229c0.26,1.221,0.506,2.391,0.506,3.637
	c0,0.219-0.008,0.441-0.023,0.666c0,0.01-0.002,0.02-0.002,0.025c0,0.01,0.002,0.02,0.002,0.027
	c0.029,0.348,0.236,0.529,0.611,0.555c0.154,1.047,0.178,2.172,0.197,3.262c0.016,0.828,0.033,1.684,0.105,2.506
	c0.002,0.037,0.009,0.07,0.023,0.102l0.137,0.326c0.049,0.115,0.148,0.193,0.271,0.205l0.475,0.047
	c0.213,0.018,0.426,0.041,0.633,0.07c0.09,1.049,0.291,2.064,0.49,3.045c0.107,0.539,0.217,1.094,0.307,1.646l-0.002,0.004
	c-0.041,0.002-0.08,0.014-0.118,0.031c-0.327,0.164-0.519,0.48-0.519,0.848c0,0.043,0.002,0.086,0.008,0.131
	c0.004,0.021,0.006,0.045,0.014,0.064c0.035,0.104,0.09,0.191,0.16,0.271c-0.086,0.139-0.135,0.287-0.135,0.439
	c0,0.053,0.006,0.107,0.015,0.162c-0.001-0.02-0.005-0.041-0.005-0.064c0,0.18,0.082,0.33,0.191,0.449
	c-0.066,0.121-0.154,0.242-0.271,0.355c-0.063,0.035-0.701,0.398-0.701,0.398c-0.729,0.396-1.477,0.813-2.063,1.594
	c-0.151,0.051-0.771,0.264-0.771,0.264c-0.051,0.016-0.096,0.047-0.133,0.084c-0.229,0.236-0.508,0.398-0.801,0.568
	c-0.189,0.109-0.383,0.223-0.572,0.359c-0.033,0.012-0.17,0.057-0.17,0.057c-0.152,0.043-0.329,0.094-0.497,0.217
	c-0.03,0.021-0.056,0.049-0.075,0.078c-0.113,0.16-0.168,0.354-0.168,0.586c0,0.086,0.008,0.174,0.023,0.268
	c0.035,0.334,0.285,0.488,0.418,0.572c0,0,0.076,0.053,0.086,0.061c0.008,0.035,0.014,0.07,0.031,0.104
	c0.174,0.332,0.482,0.533,0.853,0.586c0.286,0.393,0.743,0.613,1.284,0.6c0.461,0.428,1.111,0.59,1.787,0.428
	c0.148,0.094,0.467,0.289,0.467,0.289c0.025,0.018,0.051,0.027,0.078,0.037c0.783,0.242,1.66,0.055,2.377-0.49
	c0.129-0.006,0.559-0.018,0.559-0.018c1.076-0.023,2.393-0.066,3.023-1.275c0.129-0.018,0.273-0.035,0.273-0.035
	c0.762-0.088,1.547-0.178,2.17-0.732c0.02-0.02,0.037-0.039,0.051-0.059c0.203-0.295,0.27-0.598,0.27-0.898
	c0-0.305-0.068-0.607-0.135-0.891c-0.049-0.209-0.094-0.406-0.107-0.59c0.002-0.037,0.002-0.074,0.002-0.113
	c0-0.26-0.033-0.521-0.066-0.779c-0.037-0.279-0.064-0.52-0.064-0.727c0-0.338,0.072-0.59,0.291-0.785
	c0.008-0.008,0.016-0.014,0.023-0.023c0.146-0.156,0.193-0.322,0.193-0.48c0-0.199-0.078-0.383-0.133-0.51
	c0,0-0.008-0.02-0.014-0.035c0.07-0.16,0.121-0.32,0.121-0.48c0-0.1-0.016-0.193-0.043-0.285c-0.004-0.014-0.008-0.023-0.014-0.035
	c-0.09-0.201-0.201-0.35-0.33-0.447c0.078-0.873,0.195-1.746,0.314-2.592c0.1-0.729,0.203-1.479,0.281-2.234
	c0.004-0.01,0.012-0.039,0.021-0.068c0.188-0.012,0.375-0.031,0.555-0.055c0.139-0.021,0.273-0.037,0.404-0.047
	c0.043,0.547,0.365,4.57,0.391,4.889c-0.305,0.182-0.492,0.49-0.492,0.834c0,0.039,0.003,0.08,0.008,0.121
	c0.012,0.08,0.07,0.17,0.131,0.225c-0.014,0.029-0.027,0.057-0.027,0.057c-0.055,0.105-0.137,0.264-0.137,0.459
	c0,0.043,0.01,0.09,0.018,0.137c0.035,0.354,0.273,0.543,0.492,0.672c-0.014,0.172-0.053,0.342-0.102,0.521l-0.096,0.395
	c-0.004,0.023-0.008,0.039-0.008,0.057c0,0.02,0.006,0.039,0.008,0.063c0.02,0.104,0.027,0.203,0.027,0.303
	c0,0.328-0.088,0.641-0.176,0.967c-0.096,0.35-0.195,0.709-0.195,1.102c0,0.182,0.021,0.369,0.074,0.566
	c0.01,0.043,0.029,0.08,0.055,0.115c0.533,0.723,1.367,0.748,2.102,0.775c0.279,0.008,0.543,0.021,0.783,0.064
	c0.496,0.559,1.16,0.908,2.031,1.057c0.265,0.076,0.506,0.02,0.68-0.021c0.205-0.049,0.238-0.047,0.279-0.01
	c0.068,0.057,0.152,0.084,0.238,0.08c0.16-0.014,0.291,0.082,0.496,0.229c0.184,0.139,0.393,0.293,0.668,0.348
	c0.789,0.24,1.568,0.061,2.059-0.445c0.304,0.031,0.595,0.025,0.865-0.039c0.01-0.002,0.018-0.004,0.027-0.006
	c0.297-0.1,0.482-0.336,0.609-0.563c0.455,0.02,0.879-0.176,1.229-0.57c0.282-0.037,0.543-0.123,0.782-0.289
	c0.067-0.049,0.116-0.121,0.134-0.203c0.01-0.037,0.01-0.047,0.166-0.1c0.145-0.047,0.344-0.113,0.491-0.299
	c0.009-0.008,0.017-0.02,0.022-0.031c0.127-0.201,0.191-0.445,0.191-0.699c0-0.174-0.029-0.354-0.09-0.531
	c-0.029-0.094-0.072-0.152-0.162-0.191l-0.406-0.166c-0.26-0.09-0.424-0.154-0.545-0.318c-0.055-0.078-0.143-0.129-0.238-0.137
	c-0.193-0.02-0.363-0.119-0.559-0.24c-0.201-0.119-0.426-0.248-0.703-0.305c-0.082-0.084-0.234-0.24-0.234-0.24
	c-0.506-0.521-1.027-1.061-1.651-1.355c-0.3-0.139-0.616-0.211-0.921-0.283c-0.377-0.086-0.734-0.172-1.025-0.369
	c-0.02-0.018-0.035-0.035-0.055-0.051c0.02-0.076,0.035-0.15,0.035-0.227c0-0.205-0.074-0.396-0.199-0.553
	c0.07-0.131,0.111-0.27,0.111-0.41c0-0.086-0.014-0.176-0.045-0.26c-0.074-0.234-0.246-0.367-0.412-0.451
	c0.395-1.395,0.73-2.871,0.992-4.396c0.25-0.074,0.559-0.17,0.783-0.471c0.02-0.025,0.035-0.055,0.047-0.086
	c0.953-2.578,1.537-5.334,1.979-7.74c0.082,0.014,0.172,0.016,0.266-0.021c0.088-0.033,0.207-0.111,0.281-0.285
	c0.006-0.01,0.01-0.023,0.014-0.033c0.297-0.979,0.354-2.051,0.408-3.084c0.045-0.873,0.092-1.775,0.287-2.588
	c0.006-0.025,0.008-0.049,0.008-0.076c0-0.033-0.006-0.064-0.013-0.092c-0.082-0.297-0.31-0.412-0.476-0.48
	c0.012-0.232,0.031-0.578,0.031-0.578c0.025-0.346,0.051-0.701,0.051-1.072c0-0.086-0.004-0.174-0.008-0.262
	c0.311-0.619,0.504-1.398,0.504-2.186c0-0.801-0.209-1.6-0.674-2.238c0.219-1.072,0.328-2.221,0.328-3.389
	c0-1.846-0.273-3.734-0.799-5.449c0.514-0.66,0.83-1.334,0.945-2.057c0.049-0.232,0.061-0.471,0.061-0.705
	c0-0.074,0-0.146-0.002-0.223c0-0.068-0.003-0.139-0.003-0.205c0-0.057,0.007-0.105,0.009-0.16c0.254-0.1,0.832-0.326,1.092-0.426
	c0.117,0.09,0.25,0.139,0.391,0.131c0.35,0.07,0.658-0.105,0.854-0.359h0.285c0.041,0,0.08-0.01,0.119-0.023
	c0.32-0.121,0.436-0.404,0.488-0.623c0.258-0.129,2.455-1.234,2.455-1.234c2.398-1.105,5.176-2.459,7.674-4.482
	c0,0,0-0.004,0.002-0.004c0.096,0.041,0.234,0.076,0.396,0.02c0.316-0.021,0.469-0.264,0.537-0.375c0,0,0.006-0.012,0.014-0.02
	c0.064,0.02,0.144,0.025,0.205,0.006c0.225-0.074,0.404-0.229,0.539-0.434c0.25-0.063,0.5-0.113,0.77-0.162
	c0.949-0.178,1.932-0.361,2.699-1.143c0.408-0.424,0.881-0.816,1.336-1.195c0.873-0.727,1.779-1.477,2.32-2.52
	c0.014-0.021,0.024-0.047,0.031-0.072c0.043-0.178,0.064-0.338,0.064-0.482c0-0.207-0.049-0.383-0.137-0.527
	c0.068-0.197,0.121-0.414,0.121-0.639c0-0.293-0.08-0.582-0.287-0.801c-0.031-0.033-0.08-0.059-0.129-0.078
	c0.006-0.02,0.012-0.045,0.012-0.045c0.031-0.104,0.074-0.24,0.074-0.387c0-0.131-0.037-0.27-0.137-0.398
	c-0.15-0.258-0.396-0.432-0.719-0.504c0.002-0.029,0.008-0.084,0.008-0.084v-0.029c0-0.055-0.012-0.105-0.035-0.152
	c-0.119-0.236-0.384-0.527-0.968-0.563c-0.017,0-0.032,0-0.048,0.002c-0.621,0.049-1.096,0.365-1.557,0.668
	c-0.189,0.129-0.373,0.24-0.559,0.34c-0.003-0.037-0.003-0.072-0.012-0.113c-0.07-0.285-0.275-0.512-0.602-0.66
	c-0.02-0.01-0.041-0.018-0.061-0.021c-0.824-0.193-1.391,0.432-1.844,0.943c-1.432,0.537-2.719,1.637-3.395,2.875
	c-0.107-0.025-0.219-0.049-0.338-0.033c-0.012,0.002-0.023,0.002-0.035,0.006c-0.246,0.055-0.391,0.205-0.494,0.35
	c-0.08-0.002-0.148,0.01-0.199,0.02l-0.026,0.006c-0.032,0.004-0.067,0.014-0.097,0.029c-0.287,0.143-0.453,0.402-0.48,0.686
	c-1.473,0.498-2.99,1.014-4.445,1.615c-0.049,0.012-2.014,0.395-2.734,0.535c0.145-0.672,0.24-1.438,0.24-2.223
	c0-0.945-0.139-1.912-0.488-2.768c-0.002-0.09-0.004-0.18-0.004-0.268c0-1.264,0.352-2.402,0.721-3.598
	c0.314-1.014,0.639-2.061,0.732-3.193c0.143-0.936,0.215-1.846,0.215-2.734c0-3.84-1.352-7.189-3.961-9.813
	c0.93-0.445,1.967-0.768,3.174-0.971c1.199-0.178,2.498-0.023,3.755,0.127c2.142,0.254,4.354,0.518,6.207-0.857
	c0.013-0.008,0.021-0.016,0.028-0.025l0.715-0.672c1.563-1.477,3.175-3.004,4.966-3.928c0.013-0.008,0.04-0.023,0.052-0.031
	l0.375-0.26c0.529-0.348,1.256-0.826,1.201-1.697c0-0.031-0.008-0.064-0.021-0.096c-0.295-0.801-1.02-1.785-1.975-2.188
	c-0.012-0.008-0.025-0.012-0.041-0.018c-1.716-0.471-3.016,1.025-3.441,1.518c-0.016,0.016-0.027,0.031-0.039,0.053l-0.5,0.904
	c-0.754,1.375-1.533,2.799-2.735,3.986c-1.228,1.176-3.425,1.176-4.772,0.5c-0.322-0.232-0.475-0.586-0.475-1.125
	c0-0.086,0.006-0.172,0.012-0.266v-0.025v-0.063c0-0.457,0.16-0.895,0.328-1.359c0.174-0.482,0.352-0.975,0.352-1.502
	c0-0.289-0.053-0.588-0.189-0.9c-0.01-0.02-0.021-0.041-0.033-0.059c-0.527-0.736-1.52-1.051-2.66-0.842
	c-0.016,0.004-0.031,0.006-0.045,0.012c-0.688,0.229-1.232,0.93-1.297,1.666c-0.004,0.037,0,0.076,0.008,0.111
	c0.307,1.209,0.625,2.459,0.426,3.762c-0.002,0.008-0.002,0.014-0.002,0.021c-0.018,0.176-0.271,0.43-0.592,0.592
	c-1.451,0.664-3.031,1.246-4.701,0.988c-0.115-0.059-0.223-0.188-0.285-0.352c-0.063-0.365-0.084-0.736-0.084-1.119
	c0-0.371,0.02-0.752,0.041-1.145c0.018-0.385,0.039-0.781,0.039-1.174c0-0.338-0.014-0.674-0.059-1.008
	c-0.006-0.045-0.02-0.086-0.043-0.125c-0.354-0.621-0.992-1.051-1.75-1.18c-0.887-0.123-1.707,0.16-2.266,0.777
	c-0.041,0.045-0.07,0.1-0.08,0.162c-0.047,0.236-0.066,0.473-0.066,0.703c0,0.643,0.151,1.256,0.301,1.854
	c0.059,0.23,0.111,0.453,0.156,0.674c-2.181-1.164-4.334-1.918-6.574-2.277c-1.789-0.303-3.91-0.227-6.449,0.217
	c0.023-0.131,0.045-0.266,0.045-0.416c0-0.076-0.006-0.154-0.018-0.236c-0.195-1.564-0.685-3.117-1.496-4.74
	c-0.006-0.012-0.014-0.025-0.022-0.035c-0.157-0.236-0.478-0.719-1.036-0.668c-0.814-0.074-1.613,0.342-2.143,1.117
	c-0.15,0.195-0.199,0.402-0.199,0.588c0,0.205,0.057,0.389,0.092,0.508c0.014,0.037,0.031,0.074,0.057,0.105
	c0.652,0.834,1.125,1.521,1.488,2.164c0.006,0.006,0.008,0.01,0.012,0.016c0.252,0.393,0.381,0.865,0.381,1.33
	c0,0.373-0.086,0.736-0.25,1.057c-1.516,0.471-2.668,0.939-3.688,1.488c-1.318-0.547-2.824-1.246-4.197-2.303
	c-0.814-0.986-1.172-2.154-1.553-3.389c-0.273-0.893-0.555-1.814-1.021-2.662c-0.027-0.045-0.063-0.086-0.105-0.115
	C279.006,373.199,277.996,373.055,277.328,373.486 M277.66,374.068c0.008-0.004,0.016-0.01,0.023-0.016
	c0.355-0.236,1.01-0.209,1.439,0.047c0.408,0.768,0.664,1.588,0.93,2.457c0.386,1.256,0.783,2.555,1.703,3.654
	c0.016,0.018,0.031,0.033,0.049,0.047c1.492,1.156,3.123,1.9,4.523,2.475c0.094,0.041,0.201,0.033,0.289-0.016
	c1.047-0.58,2.234-1.063,3.848-1.559c0.08-0.021,0.148-0.076,0.191-0.148c0.555-0.938,0.516-2.25-0.094-3.197
	c0.004,0.008,0.006,0.012,0.008,0.018c-0.371-0.654-0.85-1.354-1.498-2.188c-0.031-0.113-0.05-0.199-0.05-0.262
	c0-0.08,0.022-0.129,0.058-0.176c0.004-0.004,0.012-0.012,0.016-0.02c0.402-0.596,0.971-0.9,1.561-0.836
	c0.027,0.006,0.059,0.004,0.084,0c0.123-0.018,0.234,0.076,0.42,0.352c0.771,1.549,1.237,3.023,1.424,4.508
	c0.006,0.051,0.01,0.102,0.01,0.148c0,0.152-0.03,0.297-0.057,0.447l-0.059,0.344c-0.002,0.018-0.004,0.035-0.004,0.053
	c0,0.088,0.037,0.17,0.104,0.23c0.078,0.078,0.189,0.102,0.297,0.082c2.676-0.506,4.861-0.6,6.686-0.293
	c2.297,0.369,4.503,1.156,6.75,2.408c0.049,0.029,0.105,0.043,0.16,0.043c0.107,0,0.307,0,0.461-0.203
	c0.043-0.057,0.066-0.129,0.066-0.201c0-0.014,0-0.029-0.002-0.043c-0.055-0.416-0.156-0.83-0.258-1.227
	c-0.143-0.576-0.281-1.129-0.281-1.689c0-0.158,0.02-0.32,0.045-0.479c0.404-0.4,0.979-0.588,1.598-0.502
	c0.523,0.09,0.969,0.385,1.232,0.803c0.031,0.277,0.049,0.559,0.049,0.846c0,0.371-0.021,0.75-0.041,1.143
	c-0.02,0.387-0.041,0.779-0.041,1.174c0,0.428,0.027,0.857,0.099,1.275c0.005,0.02,0.011,0.037,0.017,0.053
	c0.131,0.367,0.381,0.65,0.682,0.781c0.027,0.012,0.052,0.02,0.078,0.023c1.877,0.309,3.658-0.354,5.156-1.043
	c0.442-0.219,0.924-0.629,0.969-1.133c0.045-0.309,0.066-0.613,0.066-0.916c0-1.07-0.25-2.09-0.486-3.02
	c0.055-0.457,0.398-0.898,0.816-1.045c0.352-0.061,1.395-0.168,1.938,0.551c0.084,0.201,0.121,0.398,0.121,0.598
	c0,0.412-0.147,0.82-0.311,1.271c-0.18,0.5-0.367,1.014-0.367,1.588v0.061c-0.006,0.096-0.011,0.189-0.011,0.281
	c0,0.779,0.255,1.336,0.774,1.699c0.014,0.008,0.025,0.016,0.041,0.023c1.58,0.809,4.098,0.803,5.568-0.607
	c1.275-1.26,2.08-2.725,2.854-4.141c0,0,0.445-0.807,0.479-0.865c0.975-1.111,1.838-1.523,2.721-1.289
	c0.633,0.281,1.27,0.988,1.562,1.746c0,0.422-0.358,0.691-0.899,1.047c0,0-0.334,0.232-0.387,0.27
	c-1.863,0.967-3.508,2.52-5.098,4.025c0,0-0.658,0.619-0.693,0.65c-1.637,1.209-3.617,0.973-5.717,0.721
	c-1.299-0.156-2.645-0.314-3.939-0.119c-1.395,0.234-2.582,0.607-3.635,1.152c-0.048,0.023-0.096,0.07-0.127,0.113l-0.008,0.012
	c-0.227,0.313-0.045,0.539,0.016,0.6c3.223,3.107,4.521,7.332,3.766,12.219c0,0.008-0.004,0.016-0.004,0.023
	c-0.086,1.063-0.399,2.072-0.703,3.053c-0.4,1.295-0.814,2.633-0.742,4.141c0,0.039,0.01,0.076,0.023,0.115
	c0.682,1.607,0.512,3.707,0.123,5.139c-0.029,0.113,0,0.23,0.08,0.316c0.078,0.084,0.194,0.123,0.309,0.1l3.271-0.637
	c0.023-0.004,0.047-0.012,0.068-0.02c1.502-0.625,3.089-1.162,4.625-1.68l0.055-0.016c0.084-0.029,0.154-0.09,0.193-0.17
	c0.023-0.047,0.035-0.098,0.035-0.15c0-0.035-0.006-0.07-0.016-0.107c-0.01-0.02-0.013-0.037-0.013-0.057
	c0-0.064,0.043-0.105,0.089-0.135c0.018-0.002,0.025-0.002,0.035-0.006c0.064,0.041,0.137,0.063,0.213,0.055
	c0.102-0.016,0.193-0.074,0.247-0.164l0.034-0.061c0.08-0.133,0.111-0.178,0.158-0.191c0.041-0.002,0.104,0.004,0.145,0.045
	c0.076,0.076,0.188,0.111,0.297,0.09c0.105-0.02,0.198-0.09,0.244-0.189c0.559-1.227,1.834-2.348,3.252-2.857
	c0.053-0.02,0.102-0.049,0.137-0.092l0.041-0.043c0.445-0.504,0.774-0.826,1.168-0.754c0.076,0.037,0.176,0.1,0.197,0.188
	c0.002,0.012,0.002,0.023,0.002,0.033c0,0.057-0.029,0.133-0.074,0.24l-0.055,0.135c-0.016,0.041-0.023,0.08-0.023,0.121
	c0,0.053,0.014,0.104,0.037,0.152c0.043,0.086,0.125,0.145,0.219,0.168c0.304,0.076,0.597-0.123,0.715-0.217
	c0.277-0.129,0.529-0.291,0.773-0.453c0.399-0.266,0.779-0.516,1.217-0.557c0.193,0.016,0.291,0.068,0.342,0.125
	c-0.01,0.119-0.027,0.299-0.027,0.299v0.031c0,0.08,0.033,0.162,0.09,0.227c0.063,0.066,0.152,0.107,0.246,0.107
	c0.182,0,0.418,0.037,0.514,0.217c0.01,0.018,0.023,0.037,0.033,0.051c0,0.002,0.002,0.002,0.002,0.004
	c0,0.041-0.029,0.127-0.045,0.182c-0.031,0.098-0.068,0.217-0.068,0.34c0,0.09,0.021,0.184,0.074,0.273
	c0.061,0.1,0.164,0.164,0.285,0.213c0.051,0.076,0.08,0.178,0.08,0.299c0,0.182-0.052,0.391-0.129,0.568
	c-0.02,0.045-0.029,0.09-0.029,0.137c0,0.096,0.039,0.189,0.117,0.256c0.039,0.031,0.061,0.104,0.061,0.201
	c0,0.078-0.018,0.178-0.041,0.285c-0.484,0.904-1.287,1.57-2.135,2.277c-0.471,0.391-0.957,0.793-1.389,1.244
	c-0.619,0.629-1.455,0.783-2.339,0.951c-0.313,0.055-0.636,0.115-0.95,0.195c-0.098,0.027-0.178,0.096-0.221,0.188
	c-0.041,0.092-0.1,0.15-0.164,0.191c-0.389-0.074-0.581,0.234-0.646,0.346c0,0-0.027,0.045-0.043,0.064
	c-0.023,0-0.049,0.012-0.072,0.016c-0.016-0.004-0.033-0.012-0.033-0.012c-0.361-0.168-0.566-0.01-0.674,0.145
	c-2.43,1.959-5.145,3.285-7.504,4.373c-0.01,0.006-2.613,1.313-2.613,1.313c-0.094,0.049-0.16,0.139-0.18,0.244
	c-0.01,0.072-0.037,0.207-0.078,0.256h-0.367c-0.127,0-0.242,0.072-0.299,0.186c-0.041,0.08-0.155,0.232-0.26,0.195
	c-0.035-0.012-0.072-0.016-0.109-0.018c-0.006-0.008-0.016-0.016-0.031-0.039c-0.089-0.133-0.255-0.186-0.404-0.129l-1.496,0.586
	c-0.117,0.045-0.199,0.152-0.213,0.273c-0.017,0.141-0.02,0.287-0.02,0.434c0,0.072,0,0.143,0.003,0.211v0.211
	c0,0.201-0.009,0.4-0.046,0.574c-0.002,0.008-0.002,0.014-0.002,0.021c-0.105,0.654-0.402,1.273-0.912,1.887
	c-0.049,0.063-0.076,0.137-0.076,0.215c0,0.035,0.004,0.068,0.016,0.104c0.539,1.691,0.814,3.578,0.814,5.41
	c0,1.172-0.111,2.324-0.34,3.391c-0.006,0.023-0.008,0.047-0.008,0.072c0,0.074,0.025,0.15,0.076,0.211
	c0.439,0.537,0.623,1.242,0.623,1.953c0,0.707-0.182,1.42-0.473,1.969c-0.025,0.047-0.039,0.102-0.039,0.156v0.016
	c0.006,0.104,0.008,0.207,0.008,0.309c0,0.348-0.023,0.691-0.047,1.025l-0.045,0.828v0.027c0,0.123,0.047,0.213,0.162,0.27
	l0.211,0.098c0.033,0.014,0.077,0.033,0.107,0.047c-0.182,0.83-0.23,1.707-0.277,2.557c-0.049,0.975-0.105,1.896-0.337,2.748
	c-0.054-0.02-0.146-0.055-0.146-0.055c-0.094-0.033-0.176-0.018-0.262,0.031c-0.086,0.051-0.125,0.141-0.145,0.238
	c-0.441,2.443-1.025,5.293-1.992,7.939c-0.092,0.105-0.215,0.154-0.426,0.217l-0.205,0.063c-0.119,0.039-0.197,0.137-0.219,0.262
	c-0.281,1.682-0.646,3.303-1.094,4.818c-0.01,0.031-0.014,0.063-0.014,0.096c0,0.057,0.014,0.111,0.042,0.162
	c0.044,0.08,0.118,0.137,0.206,0.16c0.203,0.057,0.258,0.104,0.268,0.137c0.004,0.016,0.008,0.031,0.008,0.049
	c0,0.096-0.096,0.184-0.117,0.205c-0.073,0.064-0.114,0.156-0.114,0.25c0,0.018,0,0.033,0.003,0.051
	c0.018,0.109,0.088,0.207,0.193,0.254c0.078,0.037,0.127,0.119,0.127,0.209c0,0.002-0.002,0.008-0.004,0.014
	c-0.082,0.1-0.102,0.199-0.102,0.273v0.014c0.006,0.225,0.182,0.344,0.275,0.408l0.047,0.033l-0.027-0.037
	c0.02,0.029,0.07,0.09,0.1,0.109c0.4,0.275,0.846,0.379,1.275,0.48c0.283,0.066,0.553,0.127,0.789,0.236
	c0.508,0.242,0.988,0.736,1.451,1.215l0.313,0.318c0.055,0.055,0.125,0.09,0.203,0.098c0.19,0.018,0.363,0.119,0.559,0.236
	c0.199,0.121,0.426,0.25,0.703,0.309c0.234,0.25,0.523,0.363,0.764,0.445c0,0,0.09,0.039,0.176,0.072
	c0.012,0.061,0.033,0.125,0.033,0.182c0,0.123-0.029,0.232-0.08,0.322c-0.031,0.027-0.094,0.049-0.166,0.074
	c-0.164,0.055-0.408,0.152-0.541,0.42c-0.156,0.1-0.32,0.154-0.518,0.166c-0.098,0.004-0.188,0.053-0.248,0.129
	c-0.268,0.344-0.575,0.475-0.914,0.395c-0.158-0.035-0.32,0.045-0.387,0.195c-0.1,0.234-0.203,0.373-0.309,0.412
	c-0.229,0.053-0.48,0.057-0.758,0.01c-0.124-0.02-0.249,0.029-0.322,0.129c-0.369,0.486-1.035,0.492-1.492,0.346
	c-0.012-0.002-0.025-0.006-0.039-0.008c-0.127-0.023-0.254-0.119-0.402-0.227c-0.215-0.16-0.477-0.352-0.834-0.363
	c-0.271-0.146-0.547-0.098-0.736-0.053c-0.148,0.037-0.244,0.057-0.336,0.029c-0.014-0.004-0.027-0.008-0.039-0.01
	c-0.779-0.127-1.355-0.432-1.76-0.93c-0.049-0.061-0.113-0.1-0.188-0.115c-0.32-0.074-0.662-0.084-0.992-0.096
	c-0.639-0.02-1.193-0.041-1.537-0.449c-0.027-0.113-0.043-0.227-0.043-0.334c0-0.303,0.08-0.6,0.168-0.926
	c0.095-0.344,0.199-0.727,0.199-1.146c0-0.105-0.012-0.217-0.027-0.33c0.012-0.053,0.074-0.307,0.074-0.307
	c0.063-0.232,0.135-0.49,0.135-0.781c0-0.045-0.002-0.09-0.006-0.137c-0.01-0.113-0.074-0.215-0.176-0.268l-0.041-0.021
	c-0.168-0.094-0.279-0.156-0.283-0.225c-0.002-0.023-0.006-0.049-0.014-0.068v-0.01c0-0.025,0.035-0.094,0.063-0.145
	c0.041-0.078,0.119-0.229,0.119-0.402c0-0.117-0.037-0.246-0.143-0.369c0.025-0.125,0.119-0.191,0.17-0.217
	c0.006-0.002,0.018-0.012,0.033-0.027c0.258-0.09,0.289-0.305,0.289-0.375c0-0.01,0-0.018-0.002-0.027l-0.43-5.391
	c-0.016-0.172-0.154-0.305-0.325-0.311c-0.276-0.008-0.548,0.029-0.812,0.064c-0.248,0.033-0.48,0.064-0.703,0.057
	c-0.148-0.004-0.283,0.092-0.33,0.234l-0.104,0.326c-0.009,0.021-0.01,0.045-0.014,0.068c-0.076,0.752-0.18,1.512-0.283,2.246
	c-0.13,0.924-0.26,1.877-0.338,2.842c-0.014,0.162,0.115,0.314,0.271,0.355h-0.002c0,0,0.055,0.029,0.125,0.182
	c0.006,0.023,0.01,0.047,0.01,0.072c0,0.09-0.033,0.191-0.096,0.289c-0.035,0.059-0.058,0.115-0.058,0.176
	c0,0.031,0.007,0.064,0.021,0.1l0.082,0.215c0.057,0.135,0.078,0.199,0.078,0.234c0,0.018-0.006,0.027-0.015,0.037
	c0.009-0.008,0.017-0.018,0.026-0.025c-0.412,0.363-0.52,0.824-0.52,1.295c0,0.271,0.034,0.545,0.068,0.807
	c0.033,0.246,0.063,0.48,0.063,0.693c0,0.037,0,0.072-0.002,0.109c-0.002,0.006-0.002,0.012-0.002,0.021
	c0,0.004,0.002,0.014,0.002,0.023c0.016,0.234,0.07,0.473,0.125,0.699c0.061,0.266,0.117,0.51,0.117,0.734
	c0,0.174-0.041,0.336-0.133,0.486c-0.463,0.389-1.094,0.465-1.764,0.545l-0.453,0.055c-0.119,0.014-0.217,0.09-0.262,0.203
	c-0.418,1-1.439,1.021-2.52,1.043l-0.676,0.025c-0.074,0.002-0.133,0.029-0.191,0.076c-0.549,0.455-1.234,0.619-1.828,0.443
	c-0.086-0.053-0.537-0.33-0.537-0.33c-0.084-0.053-0.184-0.064-0.275-0.035c-0.42,0.131-0.998,0.117-1.369-0.314
	c-0.072-0.084-0.18-0.127-0.289-0.115c-0.195,0.021-0.668,0.023-0.893-0.393c-0.059-0.109-0.172-0.176-0.297-0.176
	c-0.203,0-0.348-0.084-0.436-0.246c-0.066-0.232-0.254-0.357-0.365-0.428c-0.037-0.023-0.094-0.059-0.105-0.076
	c0,0-0.002-0.018-0.002-0.02c-0.01-0.064-0.016-0.121-0.016-0.172c0-0.063,0.01-0.111,0.025-0.152
	c0.066-0.035,0.143-0.061,0.23-0.086l0.264-0.088c0.035-0.012,0.043-0.02,0.072-0.041c0.174-0.129,0.359-0.236,0.555-0.35
	c0.299-0.174,0.605-0.355,0.883-0.623c0.111-0.037,0.794-0.271,0.794-0.271c0.069-0.023,0.128-0.066,0.168-0.123
	c0.509-0.719,1.19-1.092,1.911-1.486l0.766-0.436c0.025-0.014,0.033-0.023,0.053-0.039c0.283-0.264,0.473-0.559,0.572-0.873
	c0.01-0.031,0.016-0.066,0.016-0.098c0-0.139-0.084-0.264-0.217-0.313c-0.029-0.012-0.053-0.037-0.061-0.049
	c-0.002-0.021-0.004-0.047-0.004-0.051c-0.002-0.008-0.004-0.016-0.004-0.025c0-0.072,0.059-0.158,0.172-0.262
	c0.074-0.063,0.113-0.156,0.113-0.248c0-0.023-0.004-0.049-0.008-0.07c-0.023-0.119-0.109-0.213-0.225-0.252
	c-0.07-0.021-0.09-0.051-0.102-0.074v-0.008c0-0.076,0.033-0.162,0.121-0.219c0.103-0.01,0.27-0.027,0.27-0.027
	c0.092-0.006,0.176-0.055,0.234-0.123c0.045-0.061,0.07-0.135,0.07-0.209c0-0.018-0.002-0.033-0.004-0.049
	c-0.102-0.686-0.24-1.369-0.373-2.033c-0.211-1.045-0.43-2.129-0.502-3.229c-0.01-0.152-0.123-0.279-0.271-0.309
	c-0.313-0.059-0.635-0.088-0.947-0.115c0,0-0.133-0.012-0.264-0.025c-0.018-0.043-0.027-0.064-0.037-0.09
	c-0.066-0.785-0.082-1.613-0.098-2.412c-0.023-1.176-0.045-2.395-0.23-3.539c-0.006-0.043-0.021-0.08-0.041-0.115
	c-0.143-0.248-0.411-0.254-0.537-0.262c0.012-0.197,0.021-0.4,0.021-0.596c0-1.332-0.264-2.578-0.521-3.789
	c-0.146-0.701-0.301-1.428-0.398-2.15c0.002-0.043,0.004-0.129,0.004-0.129c0.012-0.4,0.02-0.781,0.211-1.057
	c0.035-0.049,0.053-0.105,0.059-0.164c0.102-1.309,0.307-2.613,0.506-3.877l0.008-0.059c0.002-0.016,0.004-0.027,0.004-0.043
	c0-0.141-0.107-0.279-0.24-0.33l-0.01-0.006c-0.023-0.021-0.053-0.143-0.066-0.209c0,0-0.034-0.119-0.049-0.182
	c-0.055-0.287-0.074-0.568-0.074-0.85c0-0.346,0.029-0.691,0.059-1.049c0.033-0.365,0.064-0.74,0.064-1.129
	c0-0.229-0.016-0.467-0.045-0.709c0.018-0.518,0.084-0.918,0.35-1.184c0.064-0.063,0.098-0.148,0.098-0.236
	c0-0.021-0.002-0.043-0.006-0.064c-0.248-1.268-0.451-2.328-0.6-3.459c-0.018-0.141-0.123-0.254-0.26-0.283
	c-0.139-0.033-0.281,0.027-0.355,0.146c-1.109,1.754-2.041,3.613-2.938,5.414c-0.867,1.738-1.764,3.533-2.816,5.217
	c-0.033,0.055-0.053,0.117-0.053,0.18c0,0.076,0.027,0.15,0.076,0.211c0.023,0.029,0.031,0.068,0.031,0.107
	c0,0.049-0.01,0.094-0.021,0.137c-0.079,0.064-0.204,0.164-0.204,0.164c-0.075,0.059-0.12,0.154-0.122,0.252v0.008
	c0,0.096,0.04,0.188,0.111,0.25c0.02,0.018,0.031,0.055,0.031,0.09c-0.26,0.137-0.336,0.355-0.336,0.551
	c0,0.123,0.027,0.238,0.043,0.311c0.018,0.066,0.033,0.145,0.033,0.191v0.018c-0.002,0.012-0.004,0.021-0.004,0.035
	c0,0.002,0,0.006,0.002,0.006v0.117c0,1.232-0.509,2.266-1.471,3.004c-0.322,0.266-0.445,0.586-0.555,0.871
	c-0.059,0.145-0.111,0.285-0.19,0.404c-0.147,0.139-0.269,0.297-0.386,0.455c-0.282,0.396-0.396,0.498-0.633,0.438
	c-0.234-0.084-0.375-0.18-0.422-0.277c-0.021-0.086-0.037-0.172-0.037-0.254c0-0.303,0.148-0.58,0.314-0.889l0.234-0.475
	c0.02-0.039,0.027-0.076,0.027-0.115c0-0.025-0.004-0.055-0.012-0.084c-0.027-0.129-0.1-0.234-0.205-0.295
	c-0.175-0.1-0.355-0.047-0.439-0.021l-0.027,0.01c-0.012,0.002-0.051,0.014-0.063,0.018c-0.461,0.199-1.012,0.203-1.592,0.207
	c-0.451,0.002-0.92,0.008-1.363,0.109c-0.397-0.078-0.791,0-1.141,0.082l-0.232,0.047c-0.018,0.006-0.033,0.008-0.051,0.018
	l-0.277,0.107c-0.422,0.172-0.821,0.33-1.242,0.201c-0.08-0.055-0.342-0.236-0.342-0.236c-0.068-0.049-0.155-0.068-0.238-0.059
	c-0.23,0.033-0.402-0.049-0.609-0.197c-0.152-0.174-0.201-0.285-0.201-0.367c0-0.035,0.008-0.063,0.018-0.09s0.014-0.059,0.016-0.09
	c0.027-0.021,0.092-0.063,0.135-0.086c0.144-0.082,0.365-0.207,0.391-0.467c0.002-0.018,0.002-0.029,0.002-0.047
	c0-0.148-0.072-0.266-0.146-0.355c0.033-0.127,0.147-0.232,0.377-0.406c0.186-0.139,0.396-0.297,0.529-0.529
	c0.012-0.02,0.02-0.041,0.029-0.064c0.297-0.906,1.207-1.785,2.699-2.609c0.679-0.211,1.357-0.549,1.965-0.975
	c0.088-0.064,0.143-0.168,0.143-0.275v-0.004c-0.002-0.09-0.047-0.174-0.113-0.234c-0.002-0.004-0.002-0.008-0.002-0.016
	c0-0.014,0.01-0.045,0.014-0.068c0.055-0.043,0.16-0.066,0.285-0.086c0.096-0.018,0.182-0.074,0.232-0.16
	c0.03-0.053,0.047-0.113,0.047-0.172c0-0.035-0.004-0.072-0.017-0.105c-0.009-0.025-0.015-0.059-0.015-0.092
	c0-0.057,0.02-0.111,0.07-0.137c0.143-0.031,0.295-0.133,0.369-0.408l0.01-0.037l-0.025,0.041c0.016-0.025,0.053-0.088,0.061-0.121
	c0.739-2.73,1.576-5.643,2.66-8.426c0.303-0.891,0.518-1.803,0.729-2.688c0.18-0.766,0.367-1.557,0.605-2.311
	c0.01-0.033,0.016-0.068,0.016-0.102c0-0.107-0.053-0.211-0.146-0.275s-0.185-0.17-0.185-0.26v-0.008
	c0-0.01,0.002-0.018,0.002-0.025c0-0.002-0.002-0.004-0.002-0.006c0.029-0.02,0.06-0.041,0.06-0.041
	c0.114-0.07,0.302-0.188,0.332-0.42c0.003-0.02,0.003-0.039,0.003-0.061c0-0.084-0.033-0.17-0.08-0.254
	c0.021-0.059,0.074-0.115,0.131-0.129c0.289-0.025,0.412-0.268,0.453-0.355l0.018-0.031c0.006-0.018,0.016-0.039,0.021-0.059
	c0.482-1.678,1.615-3.283,3.191-4.512c0.082-0.064,0.127-0.164,0.127-0.266c0-0.043-0.008-0.09-0.027-0.131
	c-0.059-0.141-0.203-0.221-0.355-0.201c-0.631,0.092-1.119-0.33-1.377-0.768c-0.1-0.363-0.137-0.732-0.137-1.117
	c0-0.391,0.035-0.793,0.072-1.205c0.037-0.424,0.076-0.857,0.076-1.295c0-0.104-0.002-0.207-0.01-0.313
	c0.018-0.338,0.025-0.666,0.025-0.986c0-2.105-0.33-3.881-1-5.404c-1.127-2.721-2.117-5.605-2.117-8.535
	c0-0.934,0.102-1.871,0.328-2.809c0.657-2.514,1.662-5.404,4.107-7.744c0.066-0.063,0.104-0.15,0.104-0.24
	c0-0.025,0-0.049-0.008-0.072c-0.025-0.115-0.107-0.207-0.219-0.248c-0.59-0.199-1.193-0.459-1.775-0.711
	c-1.799-0.777-3.656-1.58-5.834-1.053c-0.521,0.09-1.05,0.227-1.553,0.359c-1.309,0.34-2.541,0.664-3.846,0.285
	c-0.049-0.021-2.016-0.857-2.033-0.865c-0.018-0.01-6.243-3.102-6.254-3.109c-0.043-0.023-0.555-0.32-0.555-0.32
	c-0.496-0.273-0.959-0.537-1.295-0.939c-0.006-0.049-0.015-0.096-0.015-0.143c0-0.203,0.058-0.389,0.159-0.543
	c1-0.85,2.477-0.85,3.563-0.688c0.498,0.178,0.928,0.596,1.383,1.039l0.32,0.309c0.008,0.008,1.129,1.051,1.129,1.051
	c1.734,1.646,3.523,3.352,6.148,3.053c0.755-0.084,1.48-0.254,2.18-0.416c0.48-0.113,0.979-0.229,1.473-0.313
	c0.164-0.037,0.355-0.023,0.561-0.014c0.436,0.023,0.979,0.053,1.318-0.385c0.047-0.061,0.072-0.133,0.072-0.207
	c0-0.029-0.006-0.059-0.015-0.09c-0.276-0.996-0.847-1.857-1.399-2.689c-0.479-0.727-0.932-1.414-1.205-2.178
	C277.338,374.387,277.451,374.182,277.66,374.068 M283.586,409.229v0.016V409.229z M325.248,413.725
	c-0.027,0.008-0.061,0.006-0.082,0.02C325.195,413.729,325.227,413.725,325.248,413.725 M285.059,414.607
	c-0.018,0.002-0.033,0.004-0.049,0.004C285.025,414.609,285.043,414.609,285.059,414.607 M280.42,420.408v-0.025V420.408z
	 M282.443,436.734c0.025,0.029,0.043,0.064,0.057,0.1C282.479,436.801,282.469,436.764,282.443,436.734 M282.166,437.574
	c0.037,0.031,0.063,0.074,0.084,0.119C282.221,437.652,282.203,437.605,282.166,437.574 M282.156,439.27v0.002v0.035V439.27z
	 M274.781,442.516c-0.031-0.01-0.063-0.006-0.094-0.014C274.719,442.502,274.752,442.506,274.781,442.516 M288.426,431.168
	c0.002,0.014,0.002,0.029,0.002,0.041v0.002C288.426,431.197,288.428,431.182,288.426,431.168 M288.893,447.617h0.004v0.014
	c0,0.006-0.004,0.004-0.004,0.02V447.617z M285.762,465.385c-0.014,0.008-0.027,0.018-0.041,0.027
	C285.738,465.398,285.75,465.393,285.762,465.385 M311.287,437.896v0.016V437.896z M298.693,454.682h0.012H298.693z
	 M298.369,464.287c0,0,0,0.01-0.002,0.018C298.369,464.297,298.369,464.291,298.369,464.287 M300.303,459.473
	c0.002,0.002,0.002,0.016,0.002,0.018c-0.039,0.023-0.07,0.045-0.07,0.045C300.24,459.533,300.271,459.502,300.303,459.473
	 M300.758,462.885c0.004,0.023,0.008,0.043,0.008,0.061v0.01C300.76,462.93,300.762,462.908,300.758,462.885 M306.088,467.348
	c0.037,0.012,0.07,0.031,0.101,0.057C306.156,467.377,306.121,467.367,306.088,467.348 M323.928,407.918
	c0.041,0.016,0.08,0.041,0.113,0.072C324.008,407.959,323.965,407.943,323.928,407.918 M323.057,408.191
	c0.045,0.016,0.086,0.039,0.121,0.074C323.139,408.229,323.098,408.213,323.057,408.191 M322.705,408.742
	c0.016,0.014,0.033,0.021,0.049,0.033C322.738,408.768,322.723,408.758,322.705,408.742 M318.076,381.34L318.076,381.34v0.008
	V381.34z M277.311,373.496c0.006-0.002,0.012-0.006,0.018-0.01l0.008-0.004C277.328,373.486,277.32,373.492,277.311,373.496
	 M288.539,374.813c0.004-0.006,0.008-0.008,0.012-0.016c0.002-0.002,0.002-0.002,0.004-0.006
	C288.549,374.797,288.545,374.805,288.539,374.813 M277.195,381.443h0.002c0.008-0.002,0.014-0.002,0.023-0.004
	C277.211,381.441,277.203,381.441,277.195,381.443 M316.299,382.25v0.018c0-0.008,0-0.014,0.002-0.02
	C316.301,382.25,316.299,382.25,316.299,382.25 M316.008,398.957c-0.002,0.006-0.002,0.014-0.004,0.021
	c0.002-0.008,0.004-0.016,0.004-0.025V398.957z M333.445,405.092c0.008,0.012,0.02,0.023,0.025,0.033
	c-0.01-0.02-0.023-0.037-0.037-0.059C333.438,405.074,333.438,405.084,333.445,405.092 M311.592,422.658
	c-0.002,0.006-0.002,0.008-0.002,0.012c0.002-0.006,0.004-0.014,0.004-0.021C311.594,422.65,311.592,422.656,311.592,422.658
	 M299.811,461.346c-0.004-0.02-0.004-0.035-0.008-0.053c0-0.006-0.002-0.01-0.004-0.018
	C299.801,461.299,299.807,461.322,299.811,461.346 M284.887,466.6c-0.002-0.006-0.002-0.012-0.002-0.018
	c0-0.004-0.002-0.004-0.002-0.006C284.883,466.582,284.885,466.592,284.887,466.6 M304.836,467.957
	c-0.014-0.002-0.025-0.006-0.037-0.008c-0.002,0-0.004,0-0.004-0.002C304.809,467.953,304.822,467.955,304.836,467.957
	 M307.168,468.578c-0.002-0.002-0.004-0.004-0.008-0.004c-0.01-0.004-0.02-0.004-0.031-0.006
	C307.145,468.57,307.156,468.574,307.168,468.578"/>
<path fill="#221714" d="M279.377,373.861c1.084,1.963,1.137,4.342,2.635,6.135c1.379,1.066,2.895,1.789,4.443,2.429
	c1.242-0.69,2.568-1.173,3.914-1.585c0.498-0.844,0.446-2.018-0.088-2.846c-0.432-0.756-0.965-1.496-1.518-2.203
	c-0.086-0.275-0.137-0.551,0.055-0.791c0.43-0.639,1.102-1.068,1.875-0.982c0.363-0.053,0.586,0.258,0.758,0.516
	c0.725,1.447,1.26,2.979,1.465,4.635c0.053,0.379-0.068,0.688-0.104,1.016c2.104-0.396,4.564-0.672,6.805-0.293
	c2.465,0.396,4.721,1.258,6.854,2.447c0.086,0,0.143,0,0.193-0.07c-0.156-1.186-0.724-2.342-0.484-3.6
	c0.5-0.551,1.225-0.773,1.965-0.674c0.604,0.105,1.189,0.451,1.516,1.018c0.189,1.465-0.189,3.051,0.068,4.496
	c0.087,0.24,0.26,0.482,0.5,0.588c1.775,0.291,3.463-0.33,4.962-1.016c0.312-0.155,0.741-0.486,0.774-0.861
	c0.207-1.363-0.119-2.672-0.43-3.895c0.053-0.604,0.498-1.189,1.068-1.379c0.844-0.156,1.809-0.018,2.324,0.705
	c0.57,1.293-0.551,2.377-0.516,3.689c-0.056,0.67,0.053,1.309,0.621,1.703c1.549,0.793,3.875,0.705,5.184-0.551
	c1.498-1.48,2.326-3.256,3.291-4.961c0.809-0.932,1.844-1.758,3.102-1.412c0.809,0.344,1.497,1.205,1.791,1.998
	c0.051,0.863-0.896,1.238-1.447,1.67c-2.102,1.086-3.91,2.93-5.754,4.652c-2.807,2.086-6.512,0.172-9.822,0.67
	c-1.238,0.209-2.428,0.553-3.529,1.121c-0.032,0.051-0.102,0.119-0.032,0.189c3.411,3.289,4.599,7.719,3.86,12.506
	c-0.211,2.499-1.569,4.566-1.449,7.148c0.672,1.586,0.584,3.705,0.137,5.361l3.273-0.641c1.535-0.637,3.117-1.168,4.703-1.707
	c-0.088-0.256,0.033-0.498,0.277-0.617c0.102-0.016,0.239-0.051,0.324,0.033c0.104-0.17,0.191-0.361,0.415-0.412
	c0.155-0.018,0.325,0.018,0.448,0.137c0.636-1.395,2.049-2.531,3.443-3.031c0.434-0.484,0.916-1.051,1.57-0.896
	c0.188,0.088,0.361,0.223,0.413,0.432c0.05,0.225-0.069,0.414-0.14,0.604c0.14,0.033,0.328-0.07,0.449-0.174
	c0.74-0.326,1.326-1,2.17-1.066c0.275,0.018,0.551,0.102,0.689,0.379l-0.035,0.414c0.326,0,0.654,0.1,0.811,0.398
	c0.275,0.324-0.363,0.84,0.207,0.945c0.309,0.326,0.189,0.928,0.035,1.273c0.24,0.207,0.188,0.586,0.119,0.863
	c-0.793,1.516-2.412,2.393-3.6,3.633c-0.932,0.945-2.256,0.93-3.445,1.24c-0.088,0.189-0.225,0.344-0.432,0.412
	c-0.449-0.188-0.326,0.414-0.723,0.381c-0.207,0.119-0.381-0.24-0.537,0.051c-2.357,1.912-4.959,3.221-7.61,4.445l-2.603,1.307
	c-0.035,0.209-0.086,0.451-0.311,0.537h-0.467c-0.119,0.24-0.379,0.463-0.67,0.361c-0.137,0.018-0.242-0.086-0.311-0.189l-1.5,0.586
	c-0.051,0.447,0.035,0.998-0.068,1.463c-0.121,0.775-0.48,1.445-0.982,2.051c0.861,2.703,1.104,6.082,0.484,8.977
	c0.947,1.154,0.844,3.047,0.188,4.289c0.037,0.758-0.066,1.465-0.084,2.188c0.17,0.102,0.432,0.121,0.498,0.361
	c-0.43,1.809-0.154,3.893-0.688,5.648c-0.104,0.242-0.346,0.037-0.502,0c-0.498,2.758-1.084,5.5-2.031,8.066
	c-0.207,0.275-0.518,0.307-0.811,0.412c-0.273,1.652-0.639,3.271-1.102,4.857c0.189,0.051,0.432,0.137,0.5,0.359
	c0.086,0.242-0.053,0.467-0.209,0.604c0.26,0.121,0.381,0.414,0.295,0.689c-0.225,0.174,0.104,0.24,0.172,0.361
	c0.602,0.414,1.377,0.398,2.014,0.689c0.691,0.328,1.295,1.033,1.863,1.604c0.533,0.051,0.859,0.516,1.395,0.566
	c0.273,0.383,0.705,0.396,1.068,0.586c0.102,0.311,0.102,0.672-0.07,0.949c-0.205,0.256-0.637,0.139-0.725,0.531
	c-0.223,0.156-0.461,0.244-0.756,0.26c-0.311,0.395-0.742,0.637-1.256,0.518c-0.104,0.24-0.26,0.516-0.52,0.602
	c-0.293,0.07-0.602,0.07-0.912,0.018c-0.43,0.568-1.207,0.67-1.859,0.467c-0.467-0.088-0.74-0.621-1.258-0.586
	c-0.327-0.273-0.672,0.086-1.084-0.035c-0.742-0.121-1.447-0.412-1.965-1.051c-0.932-0.207-2.135,0.139-2.773-0.723
	c-0.275-1.033,0.465-1.844,0.273-2.912c0.07-0.379,0.242-0.74,0.209-1.17c-0.225-0.121-0.482-0.242-0.502-0.52
	c-0.102-0.359,0.416-0.584,0.02-0.877c-0.035-0.293,0.12-0.535,0.361-0.654c0.035-0.055,0.137-0.018,0.137-0.104l-0.432-5.395
	c-0.498-0.016-1.016,0.139-1.514,0.123l-0.104,0.329c-0.172,1.704-0.482,3.358-0.619,5.079c0.188,0.037,0.309,0.242,0.377,0.395
	c0.07,0.227,0,0.469-0.119,0.658c0.07,0.238,0.309,0.551,0.07,0.809c-0.742,0.652-0.227,1.793-0.277,2.672
	c0.051,0.705,0.498,1.496,0.035,2.17c-0.656,0.582-1.568,0.582-2.43,0.705c-0.604,1.447-2.24,1.188-3.48,1.273
	c-0.586,0.482-1.395,0.742-2.17,0.502l-0.586-0.361c-0.604,0.188-1.289,0.086-1.721-0.416c-0.502,0.055-0.984-0.121-1.227-0.568
	c-0.308,0-0.584-0.135-0.738-0.43c-0.018-0.309-0.467-0.277-0.5-0.621c-0.035-0.207-0.035-0.445,0.086-0.619
	c0.189-0.139,0.414-0.154,0.619-0.24c0.482-0.363,1.035-0.555,1.463-1l0.865-0.295c0.74-1.049,1.807-1.41,2.772-2.014
	c0.222-0.207,0.396-0.447,0.481-0.723c-0.139-0.055-0.275-0.191-0.275-0.346c-0.053-0.26,0.119-0.463,0.275-0.602
	c-0.156-0.053-0.275-0.153-0.328-0.311c-0.033-0.277,0.088-0.518,0.328-0.639l0.361-0.033c-0.258-1.758-0.759-3.463-0.879-5.287
	c-0.447-0.088-0.93-0.105-1.377-0.158l-0.137-0.326c-0.174-1.965-0.02-4.066-0.328-5.979c-0.121-0.207-0.553,0.068-0.586-0.344
	c0.173-2.344-0.604-4.393-0.896-6.598c0.02-0.498,0-1,0.273-1.396c0.107-1.342,0.314-2.65,0.52-3.965
	c-0.293-0.084-0.277-0.41-0.363-0.652c-0.24-1.307,0.174-2.461,0-3.807c0.021-0.533,0.086-1.049,0.449-1.412
	c-0.225-1.137-0.449-2.291-0.605-3.48c-2.168,3.43-3.598,7.186-5.752,10.631c0.156,0.188,0.119,0.445,0.035,0.654l-0.275,0.225
	c0.154,0.137,0.189,0.412,0.068,0.582c-0.48,0.142-0.155,0.535-0.189,0.865c0.034,1.344-0.498,2.549-1.602,3.393
	c-0.396,0.33-0.414,0.809-0.672,1.205c-0.467,0.379-0.654,1.223-1.396,1.018c-0.24-0.088-0.533-0.225-0.637-0.484
	c-0.225-0.74,0.273-1.273,0.518-1.859c-0.035-0.154-0.189-0.068-0.275-0.051c-0.93,0.395-2.104,0.102-3.066,0.344
	c-0.432-0.121-0.896,0.033-1.328,0.121c-0.551,0.207-1.119,0.533-1.773,0.311l-0.396-0.273c-0.361,0.049-0.621-0.088-0.88-0.279
	c-0.204-0.223-0.396-0.498-0.274-0.824c-0.016-0.416,0.879-0.363,0.361-0.813c-0.033-0.619,0.707-0.773,0.965-1.223
	c0.414-1.258,1.775-2.205,2.877-2.811c0.672-0.203,1.326-0.529,1.914-0.945c-0.156-0.104-0.121-0.344-0.07-0.498
	c0.119-0.174,0.326-0.209,0.535-0.242c-0.088-0.258,0-0.551,0.258-0.654c0.172,0,0.137-0.205,0.205-0.291
	c0.777-2.861,1.604-5.721,2.672-8.461c0.551-1.619,0.81-3.34,1.324-4.979c-0.172-0.119-0.344-0.326-0.326-0.568
	c-0.086-0.379,0.656-0.326,0.293-0.707c-0.016-0.258,0.189-0.482,0.412-0.531c0.158,0.016,0.191-0.105,0.244-0.209
	c0.516-1.791,1.721-3.445,3.307-4.684c-0.725,0.102-1.379-0.33-1.74-0.967c-0.379-1.309,0.053-2.686-0.018-4.066
	c0.104-2.254-0.121-4.373-0.949-6.252c-1.445-3.496-2.789-7.512-1.805-11.559c0.756-2.895,1.858-5.668,4.201-7.906
	c-2.379-0.811-4.652-2.428-7.424-1.758c-1.828,0.309-3.635,1.205-5.582,0.637l-2.068-0.879l-6.269-3.119
	c-0.69-0.428-1.499-0.74-2.017-1.412c-0.067-0.377,0-0.758,0.207-1.049c1.035-0.914,2.549-1.002,3.91-0.795
	c0.707,0.244,1.256,0.879,1.844,1.432c2.119,1.861,3.996,4.359,7.012,4.014c1.256-0.139,2.412-0.516,3.635-0.725
	c0.531-0.121,1.307,0.189,1.67-0.275c-0.498-1.789-2.016-3.152-2.617-4.893c-0.018-0.395,0.154-0.74,0.498-0.932
	C278.016,373.432,278.875,373.518,279.377,373.861"/>
<path fill="#C06221" d="M279.205,374.311c0.654,1.309,1.102,2.67,1.568,4.047c-0.105,0.121-0.432-0.051-0.416,0.225
	c0.156,0.188,0.465-0.07,0.551,0.139c0.416,2.066,2.688,2.566,4.205,3.463c0.049,0.258-0.5,0.566-0.119,0.74l0.359-0.604
	c1.189,0.379,2.328,1,3.688,0.844c0.465-0.277,1.066-0.637,1.24-1.188c0.121-0.104,0.412,0.033,0.379-0.207
	c-0.053-0.086-0.154-0.086-0.242-0.086l0.604-1.828c0.172-0.068,0.5,0.07,0.5-0.205c-0.121-0.139-0.309-0.018-0.465-0.053
	c0.018-0.895-0.432-1.586-0.844-2.309l0.584-0.535c0.018-0.064-0.018-0.117-0.068-0.154c-0.24,0.07-0.43,0.277-0.639,0.449
	c-0.324-0.412-0.688-0.912-0.945-1.393c-0.02-0.518,0.568-0.898,0.999-1.086c0.241-0.07,0.464-0.07,0.706,0
	c0.775,0.945,1.137,2.119,1.516,3.271c-0.26,0.053-0.553-0.121-0.722,0.068c0.103,0.26,0.479,0.156,0.755,0.174
	c0.533,1.031,0.018,2.188-0.326,3.115c-0.223,0.07-0.535-0.359-0.638,0c0.138,0.156,0.329,0.174,0.5,0.26
	c-0.155,0.533-0.397,1.068-0.69,1.584c-0.203-0.035-0.447-0.24-0.652-0.068c0.052,0.242,0.379,0.172,0.552,0.293l-0.726,1.189
	c0.055,0.188,0.226-0.156,0.275,0.086c0.016,0.291-0.24,0.516-0.465,0.672c-0.189,0.172-0.568,0.086-0.654,0.326
	c0.5,0.018,1.033-0.207,1.293-0.672c0.174-0.258,0.223-0.584,0.223-0.879c0.054-0.154,0.174-0.018,0.258-0.031
	c0.156,0.428-0.135,0.842-0.326,1.203c-0.549,0.725-1.377,0.861-2.258,0.826c-0.773-0.102-1.551-0.309-2.014-1.031
	c-0.033-0.156-0.137-0.361,0-0.5c-0.02,0.326,0.31,0.586,0.568,0.723c0.018,0,0.051,0.016,0.066-0.018
	c-0.102-0.137-0.359-0.275-0.309-0.498c0.088,0,0.309,0.154,0.361-0.068c-0.102-0.295-0.445-0.361-0.688-0.52
	c-0.02-0.154,0.275-0.361,0.068-0.516c-0.26-0.018-0.137,0.516-0.43,0.326c-1.293-0.619-2.619-1.205-4-1.668
	c0-0.227,0.295-0.518,0.143-0.742c-0.277,0.068-0.244,0.43-0.396,0.639c-1.5-0.502-3.121-1.154-4.826-0.656
	c-0.07-0.172,0.068-0.516-0.208-0.516c-0.118,0.139-0.05,0.379-0.032,0.551c-1.67,0.326-3.359,0.982-5.15,0.602l-1.965-0.723
	l0.242-0.707l-0.105-0.088c-0.225,0.139-0.258,0.434-0.361,0.658c-2.031-0.846-4.029-1.881-5.943-3.033
	c0.225-0.191,0.639-0.26,0.758-0.553c-0.223-0.119-0.447,0.139-0.672,0.207l-0.344,0.189c-0.566-0.396-1.24-0.705-1.621-1.344
	c0.105-0.705,0.898-0.945,1.467-1.135c2.014-0.551,3.443,0.945,4.787,2.273c-0.137,0.328-0.531,0.447-0.723,0.705
	c-0.016,0.049,0.053,0.104,0.086,0.104c0.327-0.068,0.621-0.344,0.826-0.639c1.639,1.449,3.24,3,5.514,2.932l1.051-0.121
	c0.223,0.223-0.258,0.604,0.156,0.637c0.154-0.189,0.119-0.482,0.119-0.688c1.26-0.225,2.465-0.639,3.842-0.605
	c0.121,0.207,0.104,0.57,0.381,0.605c0.137-0.174-0.053-0.381-0.105-0.588c0.311,0,0.654-0.051,0.811-0.361
	c-0.121-0.982-0.844-1.723-1.311-2.566c0.139-0.141,0.398-0.207,0.398-0.43c-0.209-0.189-0.381,0.205-0.553,0.205
	c-0.447-0.775-1.052-1.498-1.256-2.375c0.066-0.275,0.311-0.502,0.568-0.588C278.377,373.947,278.963,373.861,279.205,374.311"/>
<path fill="#FFFFFF" d="M279.533,375.008c-0.105-0.234-0.215-0.465-0.328-0.697c-0.242-0.448-0.828-0.363-1.24-0.242
	c-0.258,0.086-0.502,0.313-0.568,0.588c0.064,0.279,0.172,0.545,0.303,0.805C277.699,375.461,278.334,373.684,279.533,375.008"/>
<path fill="#FFFFFF" d="M266.686,376.469c-0.951-0.758-2.01-1.258-3.313-0.9c-0.567,0.189-1.36,0.43-1.466,1.135
	c0.381,0.639,1.055,0.947,1.621,1.344l0.344-0.189c0.225-0.068,0.449-0.326,0.672-0.207c-0.119,0.293-0.533,0.361-0.758,0.553
	c0.156,0.094,0.313,0.186,0.469,0.279C264.254,378.482,261.497,375.748,266.686,376.469"/>
<path fill="#221714" d="M263.527,378.047l0.344-0.189c0.225-0.068,0.449-0.326,0.672-0.207c-0.119,0.292-0.533,0.361-0.758,0.553
	L263.527,378.047z"/>
<path fill="#FFFFFF" d="M291.342,375.285c-0.146-0.248-0.307-0.49-0.492-0.715c-0.242-0.07-0.465-0.07-0.707,0
	c-0.43,0.188-1.018,0.568-0.998,1.086c0.104,0.191,0.225,0.389,0.352,0.578C289.496,376.234,289.521,374.801,291.342,375.285"/>
<path fill="#C06221" d="M331.471,377.479c0.17,0.293,0.377,0.621,0.291,1c-0.912,1.291-2.41,1.742-3.549,2.791
	c-0.154-0.139-0.223-0.465-0.48-0.43c-0.123,0.223,0.188,0.379,0.275,0.566l-1.584,1.465l-0.533-0.551
	c-0.072-0.016-0.141,0-0.193,0.07c0.07,0.276,0.378,0.412,0.52,0.672c-1.328,1.564-3.117,2.117-5.17,2.033
	c-0.052-0.156,0.105-0.313-0.033-0.432c-0.088-0.037-0.139,0.035-0.189,0.086l-0.018,0.324l-3.154-0.256
	c-0.016-0.223,0.295-0.549,0.055-0.723c-0.191,0-0.123,0.205-0.209,0.291l-0.104,0.414c-1.17-0.068-2.412,0-3.479,0.295
	c0.016-0.107,0.066-0.262-0.053-0.346c-0.273-0.035-0.122,0.309-0.225,0.43l-2.393,0.656c-1.311-1.156-2.602-2.242-4.049-3.068
	l-0.309-1.377c0.119-0.104,0.412-0.068,0.377-0.291c-0.139-0.174-0.275,0.031-0.43,0.014c-0.104-0.723-0.279-1.463-0.172-2.205
	c0.326-0.447,0.997-0.379,1.533-0.326c0.395,0.102,0.791,0.311,1.018,0.689c0.326,0.861,0.119,1.947,0.084,2.877
	c-0.275,0.035-0.586-0.053-0.811,0.07c-0.018,0.066,0.018,0.119,0.068,0.172h0.742c0.051,0.738,0.067,1.568,0.775,1.979
	c0.412,0.207,0.982,0.258,1.462,0.139c0.226,0,0.382,0.465,0.587,0.225c0.034-0.172-0.156-0.172-0.223-0.293
	c0.896-0.258,1.791-0.568,2.705-0.795c0.068,0.174,0.119,0.363,0.258,0.484c0.326-0.121-0.036-0.381-0.016-0.568
	c0.551-0.189,1.324-0.377,1.428-1.084c0.139-0.105,0.604,0.135,0.498-0.209c-0.104-0.119-0.291-0.049-0.448-0.066
	c0.157-1.311-0.257-2.482-0.343-3.756c0.016-0.346,0.136-0.637,0.396-0.881c0.518-0.379,1.273-0.24,1.811,0.053
	c0.207,0.154,0.48,0.363,0.465,0.654c0,1.035-0.432,1.896-0.502,2.912c-0.188,0-0.412-0.275-0.551-0.07
	c0.07,0.227,0.346,0.242,0.535,0.313c0,0.809,0.274,1.531,0.877,2.066c-0.068,0.189-0.24,0.359-0.17,0.584
	c0.067,0.035,0.102,0.035,0.17,0l0.207-0.447c1.102,0.482,2.565,0.344,3.654-0.051c0.207,0.086,0.344,0.412,0.566,0.309
	c0.121-0.172-0.189-0.293-0.275-0.414c1.293-0.498,2.24-1.806,2.963-2.926c0.174-0.035,0.344,0.293,0.518,0.068
	c0.018-0.225-0.242-0.174-0.362-0.311c0.896-1.361,1.636-3.342,3.446-3.773C330.471,376.463,331.057,376.877,331.471,377.479"/>
<path fill="#FFFFFF" d="M331.203,379.115c0.203-0.189,0.393-0.4,0.559-0.637c0.087-0.379-0.12-0.707-0.291-1
	c-0.413-0.602-1-1.016-1.74-0.947c-0.789,0.189-1.371,0.668-1.855,1.264C327.875,377.795,331.066,377,331.203,379.115"/>
<path fill="#FFFFFF" d="M318.619,378.803c0.021-0.174,0.035-0.348,0.035-0.531c0.016-0.291-0.258-0.5-0.465-0.654
	c-0.537-0.293-1.293-0.432-1.811-0.053c-0.26,0.244-0.381,0.535-0.396,0.881c0.012,0.178,0.032,0.352,0.053,0.527
	C316.035,378.973,316.847,377.377,318.619,378.803"/>
<path fill="#FFFFFF" d="M309.379,380.061c-0.021-0.277-0.072-0.543-0.164-0.789c-0.227-0.379-0.623-0.588-1.018-0.689
	c-0.535-0.053-1.207-0.121-1.533,0.326c-0.047,0.32-0.039,0.639-0.01,0.959C306.654,379.867,308.375,378.525,309.379,380.061"/>
<path fill="#F0BF8D" d="M312.607,388.195c1.965,2.359,2.809,5.184,2.754,8.387c-0.033,2.914-0.844,5.498-1.43,8.166
	c-0.342,1.104,0.225,2.033,0.311,3.068c0.311,2.979-0.826,5.668-3.221,7.477c-1.344,0.947-2.758,1.757-4.428,1.912
	c-2.205,1.43-5.479,0.895-7.959,0.447c-3.082-0.396-5.923-1.412-8.596-2.791c-1.068-0.723-2.309-1.551-2.963-2.721
	c-0.447-0.035-0.225,0.498-0.482,0.689c-0.465,0.566-1.05,0.912-1.773,0.895c-0.586-0.139-1.139-0.689-1.258-1.277
	c0.053-2.031,0.119-4.098-0.033-6.096c-0.295-1.945-1.311-3.584-1.5-5.582c-0.139-1.586-0.346-3.496,0.793-4.703
	c0.5-0.467,1.359-0.551,1.963-0.258c1.259,0.5,2.05,1.809,2.104,3.117c-0.016,1.43-0.088,2.947-1.379,3.773
	c-0.328,0.156-0.795,0.068-1.121-0.033c-0.086,0.033-0.139,0.154-0.051,0.203c0.172,0.123,0.396,0.141,0.604,0.156v0.793
	c0.326,0.621,1.119,1.053,1.119,1.76c-0.121,0.152-0.395,0.273-0.551,0.102c-0.861-0.896-1.311-2.016-1.553-3.188
	c0.328-1.467,0.742-2.908,0.605-4.549c0.6,0.242,0.774,0.914,0.912,1.467c0.086,0.654,0.069,1.396-0.361,1.877
	c-0.119,0.207-0.551,0.154-0.414,0.482c0.139,0.172,0.295-0.035,0.432-0.07c0.877-0.654,0.791-1.98,0.516-2.895
	c-0.205-0.568-0.586-1.412-1.326-1.43c-0.654-0.033-1.223,0.346-1.518,0.914c-0.98,2.119,0.295,4.289,0.744,6.305
	c0.635,1.793,0.738,3.826,0.703,5.875c0,0.639-0.102,1.377,0.518,1.706c0.363,0.12,0.758,0,1.069-0.157
	c0.601-0.395,0.638-1.134,0.481-1.773l-0.035-0.051c-0.293,0.344-0.068,0.965-0.446,1.309c-0.206,0.207-0.464,0.311-0.761,0.293
	c-0.188-0.016-0.342-0.207-0.395-0.379c-0.189-1.551,0-3.152-0.344-4.635c-0.484-2.48-1.74-4.701-1.551-7.406
	c0.121-0.588,0.414-1.293,1.066-1.447c0.193,0,0.432-0.121,0.553,0.016c0.119,1.654-0.326,3.17-0.74,4.65
	c0.307,1.293,0.775,2.654,1.965,3.465c0.223,0.086,0.445-0.018,0.602-0.189c0.189-0.156,0.223-0.432,0.137-0.653
	c-0.223-0.569-0.789-1.054-1.17-1.5c0.086-0.446,0.326-0.913,0.791-1.05c0.845-0.707,1.002-1.74,1.189-2.758
	c0.258-1.861-0.551-3.566-2.135-4.494c-0.621-0.328-1.498-0.348-2.102,0c-1.6,0.975-1.59,3.027-1.322,4.734
	c0.031,0.189,0.063,0.373,0.098,0.553c-0.93-2.86-1.498-6.617-0.568-9.735c0.793-2.634,1.826-5.218,4.049-7.181l1.238,0.533
	c-0.154,0.139-0.273,0.5-0.084,0.707c0.672,1.049,1.896,1.377,3.119,1.205c0.842-0.104,1.686-0.584,2.064-1.412
	c0.121-0.328,0.382-0.793,0.055-1.103l-0.225-0.208c0.359-0.965,0.791-1.91,1.291-2.822
	C300.426,378.703,307.645,382.078,312.607,388.195"/>
<path fill="#F0BF8D" d="M290.193,381.373c-0.205,0.654-0.705,1.344-1.375,1.602c-0.621,0.051-1.174-0.156-1.725-0.326
	C288.008,382.115,289.109,381.701,290.193,381.373"/>
<path fill="#221714" d="M300.35,394.021c0.021,0.086,0.01,0.172-0.074,0.195c-1.734-0.887-4.146-1.588-5.946-0.344
	c-1.683,1.408-2.675,3.34-2.866,5.389c0.01-2.176,0.801-4.281,2.475-5.845c1.535-1.054,3.783-0.737,5.383-0.069
	C299.661,393.549,300.086,393.711,300.35,394.021"/>
<path fill="#221714" d="M313.982,394.502c0.641,0.998,0.945,2.283,0.869,3.57c-0.145-1.838-0.969-3.719-2.855-4.328
	c-0.84-0.289-1.82-0.012-2.645,0.234c0.858-0.662,2.317-0.813,3.348-0.453C313.182,393.674,313.701,394.059,313.982,394.502"/>
<path fill="#221714" d="M306.385,394.084c0.152,0.465,0.102,1.088-0.242,1.449c-0.293,0.414-0.811,0.43-1.26,0.344
	c-0.273-0.104-0.549-0.328-0.705-0.604c-0.139-0.293-0.188-0.758-0.033-1.085c0.168-0.38,0.586-0.706,1.016-0.739
	C305.66,393.43,306.158,393.604,306.385,394.084"/>
<path fill="#FFFFFF" d="M306.021,394.066c0.225,0.467,0.174,1.086-0.189,1.482c-0.189,0.207-0.447,0.328-0.723,0.207
	c-0.5-0.258-0.623-0.791-0.604-1.309c0.018-0.293,0.156-0.568,0.396-0.725C305.281,393.482,305.816,393.619,306.021,394.066"/>
<path fill="#221714" d="M305.816,394.033c0.172,0.242,0.152,0.621,0,0.863c-0.105,0.241-0.398,0.205-0.57,0.135
	c-0.205-0.117-0.311-0.342-0.225-0.568c0.053-0.119,0.156-0.291,0.311-0.291c0.121,0.033,0.242,0.104,0.275,0.223
	c0.018,0.104-0.019,0.174-0.088,0.227h-0.066c0.018-0.053,0.05-0.088,0.033-0.158c-0.051-0.068-0.119-0.102-0.223-0.084
	c-0.154,0.084-0.068,0.223-0.068,0.361c0.068,0.119,0.24,0.258,0.361,0.139c0.189-0.139,0.26-0.363,0.189-0.568
	c-0.053-0.156-0.189-0.295-0.346-0.363c-0.291-0.084-0.482,0.207-0.602,0.414c-0.104,0.273-0.035,0.604,0.104,0.844
	c0.154,0.189,0.361,0.311,0.584,0.258l0.467-0.154c-0.172,0.154-0.364,0.26-0.586,0.24c-0.258-0.033-0.533-0.172-0.637-0.43
	c-0.139-0.293-0.158-0.689,0.018-0.965c0.102-0.154,0.257-0.311,0.43-0.346C305.436,393.758,305.625,393.879,305.816,394.033"/>
<path fill="#F0BF8D" d="M332.162,404.559c0.022,0.064,0.039,0.119,0.039,0.164c0,0.029-0.008,0.059-0.019,0.082
	c-0.041,0.086-0.157,0.123-0.28,0.162c-0.141,0.043-0.285,0.088-0.357,0.213c-0.186,0.201-0.416,0.324-0.656,0.455
	c-0.258,0.139-0.52,0.279-0.736,0.521c0.012-0.006-1.018,0.428-1.078,0.455c-0.24-0.057-0.482-0.221-0.609-0.412
	c0.302-0.297,0.65-0.523,0.967-0.633c0.039,0.127,0.096,0.297,0.227,0.398l0.014,0.012l0.015-0.006
	c0.056-0.02,0.112-0.045,0.118-0.09c0-0.004,0.002-0.006,0.002-0.009c0-0.024-0.014-0.043-0.041-0.065
	c-0.07-0.051-0.09-0.133-0.09-0.221c0-0.051,0.006-0.105,0.014-0.158c0,0,0-0.01,0.002-0.021c0.027-0.014,0.738-0.414,0.807-0.451
	c0.037,0.182,0.094,0.428,0.275,0.463l0.049,0.01l-0.052-0.25c-0.024-0.092-0.048-0.188-0.048-0.283
	c0-0.043,0.005-0.084,0.018-0.125C331.391,404.264,331.867,404.193,332.162,404.559"/>
<path fill="#F0BF8D" d="M324.314,409.008c0.004-0.859,0.4-1.711,1.184-2.514c0.361-0.279,0.768-0.475,1.16-0.666
	c0.254-0.121,0.514-0.246,0.761-0.398c0.345-0.414,0.737-0.736,1.118-0.91c0.119,0.016,0.297,0.068,0.385,0.24
	c0.002,0.01,0.002,0.021,0.002,0.033c0,0.496-0.314,0.965-0.773,1.15c-0.186,0.02-0.322-0.09-0.465-0.203l-0.277-0.188l-0.002,0.057
	c-0.002,0.016-0.004,0.035-0.004,0.051c0,0.254,0.236,0.342,0.43,0.412c0.139,0.053,0.27,0.098,0.299,0.193
	c0.004,0.014,0.006,0.029,0.006,0.045c0,0.074-0.047,0.172-0.139,0.297c0,0-0.01,0.008-0.018,0.016
	c-0.146-0.033-0.283-0.107-0.418-0.182c-0.154-0.084-0.314-0.172-0.482-0.189l-0.072-0.01l0.043,0.061
	c0.166,0.227,0.411,0.355,0.652,0.479c0,0,0.229,0.129,0.256,0.143c0.012,0.088,0.016,0.178,0.016,0.266
	c0,0.857-0.51,1.701-1.363,2.199c-0.115,0.092-0.262,0.113-0.406,0.135c-0.148,0.021-0.305,0.045-0.424,0.146l-0.028,0.021
	l0.026,0.027c0.158,0.158,0.479,0.117,0.721,0.06c1.08-0.431,1.832-1.562,1.832-2.757c-0.031-0.053-0.041-0.104-0.041-0.156
	c0-0.092,0.037-0.182,0.078-0.273c0,0,0.006-0.018,0.014-0.035c0.539,0.307,0.829,0.855,1.107,1.389
	c0.129,0.248,0.263,0.506,0.42,0.732c0.23,0.494,0.475,1.094,0.512,1.758v0.012l0.098,0.102l0.023-0.023
	c0.117-0.107,0.16-0.211,0.16-0.316c0-0.133-0.068-0.266-0.137-0.393c-0.07-0.129-0.141-0.264-0.141-0.404
	c0-0.043,0.008-0.086,0.021-0.129c0.02-0.014,0.131-0.082,0.131-0.082c0.148-0.098,0.289-0.184,0.453-0.193
	c0.025,0.271,0.119,0.48,0.297,0.639l0.014,0.016l0.02-0.008c0.063-0.025,0.096-0.057,0.107-0.098
	c0.002-0.008,0.004-0.014,0.004-0.023c0-0.051-0.039-0.098-0.08-0.152c-0.041-0.049-0.086-0.103-0.086-0.152
	c0-0.01,0.004-0.016,0.004-0.023c-0.004-0.033-0.006-0.064-0.006-0.092c0-0.268,0.227-0.371,0.465-0.48
	c0.092-0.041,0.174-0.084,0.248-0.131c0.012,0.037,0.026,0.094,0.026,0.094c0.05,0.186,0.103,0.396,0.312,0.459l0.063,0.018
	l-0.074-0.197c-0.072-0.182-0.154-0.387-0.055-0.58c0.189-0.301,0.49-0.498,0.711-0.605c0.184-0.045,0.324,0.121,0.387,0.273
	c0.029,0.404-0.283,0.76-0.596,1.051c-1.258,1.183-2.365,2.156-3.479,3.064c-0.967,0.57-1.98,0.784-3.008,0.635
	C325.592,411.504,324.957,410.27,324.314,409.008"/>
<path fill="#F0BF8D" d="M331.672,406.523c0.049-0.104-0.012-0.205-0.072-0.303l-0.079-0.168c-0.171-0.326,0.132-0.541,0.378-0.715
	l0.038-0.027c0.265-0.217,0.709-0.217,0.972-0.004c0.069,0.111,0.105,0.248,0.105,0.383c0,0.094-0.02,0.182-0.055,0.258
	c-0.436,0.092-0.861,0.406-1.303,0.963c-0.205,0.07-0.391,0.189-0.568,0.305c-0.252,0.164-0.485,0.314-0.775,0.344
	c-0.012,0.004-0.449,0.209-0.544,0.252c-0.294-0.238-0.462-0.555-0.503-0.939c0.046-0.018,0.814-0.332,0.873-0.355
	c0.068,0.266,0.176,0.553,0.434,0.725l0.025,0.016l0.02-0.02c0.092-0.107,0.008-0.189-0.055-0.248
	c-0.061-0.059-0.096-0.096-0.078-0.145l0.004-0.014l-0.008-0.014c-0.08-0.131-0.105-0.242-0.082-0.344
	c0.047-0.182,0.256-0.305,0.455-0.418c0.113-0.066,0.219-0.129,0.293-0.197c-0.008,0.004,0.049-0.016,0.088-0.029
	c0.016,0.277,0.159,0.545,0.387,0.705l0.031,0.021L331.672,406.523z"/>
<path fill="#F0BF8D" d="M332.328,407.67l0.008-0.018l-0.117-0.111c-0.117-0.111-0.254-0.24-0.219-0.408
	c0.104-0.342,0.482-0.639,0.791-0.77c0.252-0.047,0.477,0.063,0.594,0.291c0.007,0.035,0.007,0.068,0.007,0.104
	c0,0.197-0.065,0.412-0.183,0.592c-0.506-0.08-0.883,0.361-1.186,0.719l-0.061,0.07c-0.188,0.049-0.363,0.176-0.532,0.295
	c-0.239,0.172-0.464,0.332-0.755,0.332c-0.012,0.002-0.258,0.133-0.318,0.164c-0.027-0.035-0.134-0.17-0.134-0.17
	c-0.157-0.184-0.302-0.359-0.319-0.584c0.205-0.137,0.51-0.314,0.86-0.391c0.079,0.191,0.226,0.518,0.5,0.629l0.034,0.014
	l0.012-0.029c0.045-0.105-0.033-0.188-0.107-0.27c-0.057-0.061-0.115-0.125-0.115-0.193v-0.01l-0.004-0.008
	c-0.045-0.063-0.061-0.119-0.049-0.17c0.025-0.111,0.174-0.195,0.318-0.275c0.096-0.059,0.189-0.107,0.245-0.17
	c0.046-0.029,0.093-0.041,0.128-0.031c0.064,0.016,0.107,0.1,0.154,0.186c0.061,0.115,0.129,0.246,0.27,0.287
	C332.215,407.744,332.301,407.744,332.328,407.67"/>
<path fill="#221714" d="M328.66,408.504c0.209-0.24,0.397-0.551,0.639-0.773c-0.172,0.463-1.018,0.945-0.412,1.514
	c0.326,0.641,1.205,1.105,1.018,1.896c0.066-0.965-1.191-1.43-1.313-2.323c-0.551,0.791-1.016,1.772-1.016,2.875
	c-0.019,0.017-0.051,0.05-0.086,0.034c-0.051-1.152,0.481-2.118,1.067-3.051c-0.034-0.326-0.155-0.654-0.069-0.963
	C328.645,407.885,328.543,408.264,328.66,408.504"/>
<path fill="#F0C91E" d="M323.941,409.021l2.188,4.1c0,0.104-0.053,0.207-0.152,0.258l-0.158-0.016l-2.584-4.737
	c-0.016-0.122,0.018-0.241,0.139-0.292C323.734,408.35,323.787,408.779,323.941,409.021"/>
<path fill="#F0C91E" d="M325.457,413.484c0,0.119-0.068,0.275-0.207,0.275l-0.137-0.035l-2.549-4.738
	c-0.053-0.137,0.068-0.24,0.154-0.293l0.189,0.053L325.457,413.484z"/>
<path fill="#F0BF8D" d="M315.963,411.691c0.522-0.092,1.063-0.186,1.578-0.33c1.584-0.732,3.305-1.254,4.967-1.754
	c0,0,0.021-0.006,0.039-0.014c0.025,0.047,2.07,3.891,2.094,3.934c-1.527,1.379-3.332,2.344-5.078,3.273l-0.477,0.254
	c-0.938,0.375-1.855,0.869-2.744,1.344c-0.565,0.301-1.094,0.57-1.676,0.85c-0.301-1.676-0.73-3.637-1.52-5.344
	c0.508-0.711,0.811-1.248,1.033-1.824C314.756,411.898,315.369,411.793,315.963,411.691"/>
<path fill="#F0BF8D" d="M287.529,413.705c0,0.004,0.098,0.049,0.109,0.055c3.605,3.023,8.161,3.941,12.146,4.441
	c1.869,0.623,3.058,0.664,4.982,0.17c-2.451,2.258-6.783,0.744-8.066,0.217l-0.021-0.01l-0.014,0.016
	c-0.027,0.029-0.039,0.076-0.027,0.119c0.012,0.037,0.038,0.063,0.076,0.072c2.012,0.766,5.373,2.037,7.9,0.479
	c-0.219,0.803-0.369,1.643-0.512,2.457c-0.195,1.104-0.396,2.246-0.775,3.299c-4.213,2.656-9.143,3.727-14.248,4.672
	c-0.28-0.99-0.449-2.051-0.612-3.078c0,0-0.168-1.01-0.169-1.031c0.09-0.154,0.156-0.328,0.221-0.498
	c0.133-0.348,0.27-0.709,0.605-0.91c0.18-0.102,0.191-0.271,0.205-0.426c0.013-0.176,0.029-0.326,0.266-0.371
	c0.898,1.43,2.436,2.088,3.572,2.387c0.759,0.174,1.555,0.193,2.186,0.051l0.063-0.014l-0.162-0.135h-0.012
	c-2.248-0.096-4.082-1.063-5.16-2.725c-0.207-0.424-0.303-0.863-0.285-1.344v-0.012l-0.098-0.1l-0.024,0.016
	c-0.157,0.109-0.226,0.275-0.288,0.436c0,0-0.029,0.055-0.049,0.1c-2.434-1.557-4.75-2.541-7.079-3.012
	C282.759,416.754,284.884,414.135,287.529,413.705"/>
<path fill="#F0C91E" d="M314.313,419.564c-0.035,0.207,0.104,0.568-0.191,0.584c-0.139,0.018-0.201-0.111-0.236-0.213
	c-0.275-1.861-0.672-3.652-1.412-5.289l0.391-0.438C313.67,415.838,314.068,417.666,314.313,419.564"/>
<path fill="#F0C91E" d="M313.52,420.082c-0.035,0.137,0,0.311-0.172,0.342c-0.189,0.07-0.307-0.127-0.342-0.264
	c-0.275-1.67-0.584-3.326-1.223-4.842l0.428-0.422C312.949,416.48,313.365,418.238,313.52,420.082"/>
<path fill="#F0BF8D" d="M308.891,434.719c0.328-0.211,0.699-0.449,0.783-0.848c0-0.012,0.002-0.023,0.002-0.033
	c0-0.387-0.168-0.695-0.332-0.996c-0.129-0.238-0.262-0.482-0.307-0.758c-0.684-1.84-1.08-3.834-1.465-5.762l-0.344-1.682
	c-0.023-0.113-0.031-0.225-0.031-0.334c0-0.401,0.133-0.777,0.273-1.172c0.106-0.295,0.213-0.598,0.258-0.912
	c0.225-0.605,0.324-1.283,0.416-1.938c0.184-1.236,0.371-2.516,1.433-3.402c0.327-0.334,0.692-0.547,1.079-0.77
	c0.283-0.168,0.525-0.314,0.799-0.539c0.512,1.236,0.872,2.688,1.133,4.564c-0.439,0.193-0.843,0.369-1.338,0.457
	c-0.014-0.049-0.143-0.494-0.143-0.494c-0.114-0.428-0.232-0.871-0.545-1.23l-0.01-0.012h-0.121l0.008,0.037
	c0.025,0.23,0.092,0.451,0.16,0.686c0.066,0.219,0.133,0.441,0.166,0.674c0.281,1.838-0.072,3.195-1.041,4.037
	c-0.563,0.533-1.303,0.701-2.016,0.861l-0.182,0.043l0.175,0.17h0.013c0.684-0.043,1.473-0.135,2.184-0.457
	c0.5,1.465,0.738,3.178,0.738,5.34c0,0.256-0.002,0.518-0.01,0.787c0-0.002-0.035,0.291-0.035,0.291
	c-0.137,1.148-0.279,2.336-0.736,3.365c-0.199,0.41-0.615,0.504-1.02,0.594c0,0-0.049,0.012-0.082,0.02
	c-0.023-0.074-0.037-0.166-0.047-0.258c0,0-0.023-0.152-0.029-0.188C308.705,434.842,308.891,434.719,308.891,434.719"/>
<path fill="#D6484C" d="M303.994,424.49l0.447-1.686c0.775-1.791,1.688-3.516,2.6-5.236c0.604-0.139,1.26-0.297,1.828-0.553
	C307.248,419.461,305.869,422.098,303.994,424.49"/>
<path fill="#D6484C" d="M304.699,421.596c0.205-1.152,0.449-2.324,0.758-3.443l0.793-0.361L304.699,421.596z"/>
<path fill="#D6484C" d="M301.91,430.453c-3.326,2.188-7.047,3.461-10.906,4.391c-0.775,0.105-1.568,0.26-2.377,0.225l-0.104-0.189
	c-0.154-0.672-0.137-1.496,0.068-2.135l0.156-0.123c5.426-0.998,10.785-2.221,15.193-5.666c2.154-1.895,2.809-4.461,3.48-6.977
	l0.5-0.844C307.371,423.459,306.025,427.953,301.91,430.453"/>
<path fill="#F0C91E" d="M289.488,422.682c0.086,0.088,0.086,0.26,0.018,0.344c-0.07,0.156-0.295,0.088-0.396,0.053
	c-2.393-1.463-4.875-2.686-7.664-3.186c-0.176-0.105-0.139-0.277-0.07-0.416c0.262-0.275,0.797-0.061,1.137,0
	C285.014,420.117,287.354,421.166,289.488,422.682"/>
<path fill="#F0C91E" d="M288.764,423.336c0.156,0.139,0.346,0.313,0.207,0.52c-0.152,0.189-0.396,0.102-0.566,0.018
	c-2.207-1.568-4.723-2.395-7.254-3.154c-0.086-0.086-0.157-0.172-0.139-0.309c0,0,0.006-0.174,0.225-0.172
	C283.811,420.83,286.475,421.77,288.764,423.336"/>
<path fill="#D6484C" d="M303.494,426.955c-4.428,3.033-9.477,4.564-14.885,5.219c-0.205-0.24-0.104-0.688-0.086-1.018
	c0.035-0.291-0.018-0.688,0.311-0.809c4.515-0.756,8.855-1.913,12.852-3.893c2.289-0.932,3.928-3.342,5.08-5.375
	C306.164,423.234,305.406,425.385,303.494,426.955"/>
<path fill="#F0BF8D" d="M277.566,434.502c0.479-2.27,1.26-4.461,2.012-6.578c0.316-0.898,0.646-1.828,0.949-2.75
	c0.162-0.541,0.289-1.104,0.408-1.648c0.176-0.785,0.334-1.535,0.625-2.295c1.979,0.555,4.523,1.4,6.729,3.057
	c-0.709,2.08-1.879,3.934-3.039,5.781l-0.164,0.262c-0.809,2.113-1.977,4.113-3.102,6.049c0,0-0.205,0.352-0.229,0.393
	c-1.536-0.424-2.95-1.072-4.204-1.928C277.551,434.811,277.566,434.502,277.566,434.502"/>
<path fill="#D6484C" d="M309.299,433.674c-0.053,0.689-0.863,0.811-1.258,1.238l-0.344-1.449l-1.24-7.043
	c-0.293-0.584,0.207-1.016,0.362-1.498C307.438,427.902,308.197,430.865,309.299,433.674"/>
<path fill="#D6484C" d="M307.352,432.896c0.432,0.984,0.053,2.396,1.223,2.98c0.035,0.363-0.414,0.553-0.672,0.725
	c-0.619,0.361-1.346,0.018-1.861-0.361c0.07-0.381,0.415-0.621,0.482-0.998l-0.016-0.984c-0.412-2.254-0.756-4.529-0.932-6.873
	l0.639-1.172L307.352,432.896z"/>
<path fill="#D6484C" d="M306.268,434.912c-0.381-0.189-0.861-0.172-1.189-0.463c0-1.965-0.518-3.756-0.518-5.686l0.725-0.965
	C305.68,430.143,305.836,432.57,306.268,434.912"/>
<path fill="#F0BF8D" d="M302.703,430.547c0.002-0.002,0.4-0.334,0.4-0.334c0.361-0.297,0.729-0.605,1.041-0.969
	c0.293,1.49,0.428,3.117,0.52,4.523c-0.242,0.049-0.49,0.105-0.69,0.266c-0.032-0.01-1.056-0.355-1.056-0.355l-0.025,0.059
	c0.279,0.148,0.656,0.451,0.956,0.768l0.019,0.02l0.022-0.012c0.116-0.069,0.22-0.168,0.315-0.26
	c0.146-0.137,0.285-0.264,0.467-0.313c0.016,0.053,0.023,0.109,0.023,0.168c0,0.072-0.006,0.145-0.012,0.213
	c-0.006,0.07-0.014,0.143-0.014,0.209c0,0.197,0.054,0.369,0.314,0.432c0.002,0,0.537,0.1,0.65,0.119
	c0.005,0.039,0.039,0.365,0.046,0.424c-2.522,0.086-5-0.205-7.397-0.486l-2.279-0.258c0,0-1.428-0.221-1.867-0.289
	C297.191,433.451,300.143,432.377,302.703,430.547"/>
<path fill="#FFFFFF" d="M310.59,437.705c-0.414,0.947-1.412,1.068-2.307,1.135c-0.533-0.1-1.223-0.225-1.74,0.053
	c0.207-0.828,0.98-1.6,1.721-2.152c0.26-0.207,0.654-0.414,0.568-0.844c0.244-0.587,1.086-0.277,1.414-0.914
	c0.207-0.26,0.344-0.533,0.414-0.844C311.314,435.154,311.09,436.688,310.59,437.705"/>
<path fill="#FFFFFF" d="M297.738,435.344l2.207,2.996c-2.465-0.189-5.617,0.295-6.789-2.342l-0.397-1.154
	c0.313-0.137,0.709-0.207,1.071-0.121L297.738,435.344z"/>
<path fill="#F0C91E" d="M277.205,435.016c1.482,0.934,3.016,1.74,4.721,2.137c0.07,0.086,0.053,0.152,0.018,0.258l-0.172,0.123
	c-1.793-0.398-3.5-1.068-4.912-2.309C276.879,435.053,277.031,434.932,277.205,435.016"/>
<polygon fill="#D6484C" points="308.215,435.205 308.403,434.998 308.488,435.449 "/>
<path fill="#3C5F9A" d="M293.865,437.379c-1.482,0.359-3.359,0.463-4.721-0.277c-0.121,0.016-0.053,0.173-0.035,0.24
	c1.43,0.809,3.463,0.809,5.012,0.26c1.033,0.637,2.189,0.963,3.498,0.895l0.07,0.068l-0.174,0.189
	c-2.307,0.811-4.703,1.398-7.234,1.639c-0.707,0.016-1.412,0.051-1.895-0.449c0.119-1.465,0.275-2.91,0.566-4.307
	c1.035-0.104,2.033-0.326,3-0.584C292.641,435.758,292.97,436.74,293.865,437.379"/>
<path fill="#D6484C" d="M306.25,435.225c-0.018,0.205-0.121,0.359-0.242,0.516l-0.139-0.688
	C306.008,435.068,306.18,435.068,306.25,435.225"/>
<path fill="#FFFFFF" d="M305.732,435.859c-0.086,0.5,0.363,0.76,0.725,0.932l0.518,0.191c-0.795,0.377-1.725,0.48-2.568,0.705
	l0.035,0.051c1.016-0.016,1.963-0.188,2.842-0.551c-0.395,0.672-1.291,1.221-1.051,2.066c0.312,0.361,0.742,0.447,1.086,0.76
	c-0.586,0.652-1.533,0.604-2.395,0.652c-2.205,0.088-4.428,0.105-6.133-1.051c-0.018-0.051-0.053-0.104-0.035-0.172
	c0.533-0.275,1.258-0.205,1.67-0.756c-0.016-0.349-0.379-0.52-0.548-0.795c1.204,0.416,2.495,0.672,3.804,0.76v-0.037
	c-1.377-0.276-2.771-0.498-3.994-1.102c-0.621-0.639-1.016-1.412-1.502-2.135C300.703,435.549,303.166,435.877,305.732,435.859"/>
<path fill="#F0C91E" d="M276.654,435.654c1.6,1.016,3.289,1.859,5.117,2.324c0.051,0.086,0.066,0.189,0.018,0.295l-0.121,0.066
	c-1.912-0.412-3.721-1.119-5.291-2.395C276.223,435.793,276.432,435.5,276.654,435.654"/>
<path fill="#F0BF8D" d="M273.488,437.91c0.475-0.318,0.965-0.646,1.52-0.797c0.516-0.289,0.984-0.484,1.486-0.615
	c1.512,1.01,3.088,1.697,4.82,2.111c0.105,0.285,0.153,0.578,0.153,0.867c0,0.822-0.372,1.619-0.741,2.207l-0.287,0.295
	c-0.461,0.467-0.938,0.953-1.057,1.564c-0.152,0.117-0.275,0.311-0.393,0.5c-0.162,0.256-0.328,0.518-0.557,0.57
	c-0.127,0.023-0.262-0.014-0.418-0.113c-0.464-0.443-0.188-0.926,0.084-1.395c0.094-0.16,0.182-0.313,0.238-0.465
	c0.064-0.488,0.186-0.867,0.377-1.162l0.01-0.016l-0.008-0.018c-0.049-0.096-0.131-0.061-0.178-0.037l-0.064,0.021l-0.018,0.008
	c-0.15,0.152-0.289,0.293-0.33,0.502c-0.561,0.42-1.293,0.408-2.002,0.395c-0.48-0.006-0.98-0.014-1.426,0.111
	c-0.563-0.074-1.063,0.105-1.549,0.275c-0.42,0.152-0.857,0.307-1.336,0.291c-0.178-0.045-0.33-0.266-0.385-0.459
	c0,0,0.004-0.23,0.004-0.285c0.1,0.008,0.217,0.107,0.313,0.191l0.068,0.059l0.02-0.016c0.059-0.043,0.143-0.08,0.236-0.113
	c0.158-0.066,0.324-0.135,0.363-0.258c0.006-0.018,0.01-0.037,0.01-0.057c0-0.047-0.019-0.098-0.051-0.15
	c-0.004-0.004-0.076-0.074-0.115-0.115c0.619-0.523,1.383-0.879,2.473-1.146c0.016-0.008,0.119-0.107,0.119-0.107
	c0.205-0.191,0.418-0.396,0.686-0.424h0.012l0.104-0.104l-0.025-0.021c-0.133-0.111-0.361-0.084-0.518-0.023
	c-0.383,0.203-0.797,0.34-1.195,0.473c-0.566,0.188-1.148,0.381-1.654,0.756c-0.139,0.146-0.361,0.256-0.574,0.359
	c-0.381,0.186-0.771,0.377-0.771,0.793c0,0.09,0.021,0.189,0.061,0.299c-0.217-0.021-0.483-0.109-0.633-0.408
	c-0.017-0.043-0.023-0.092-0.023-0.146c0-0.084,0.025-0.17,0.078-0.244c0.047,0.031,0.369,0.223,0.369,0.223l0.15-0.127
	c0.15-0.119,0.322-0.258,0.377-0.439l0.006-0.014c0,0-0.115-0.141-0.146-0.18c0.451-0.416,0.967-0.758,1.464-1.086l0.196-0.131
	c0.557-0.16,1.195-0.398,1.645-0.938c0.053-0.037,0.137-0.045,0.223-0.059c0.102-0.01,0.209-0.021,0.291-0.092l0.023-0.021
	l-0.02-0.023c-0.131-0.17-0.402-0.102-0.549-0.063c-0.453,0.355-0.943,0.563-1.416,0.762l-0.469,0.203
	c-0.004,0-0.643,0.436-1.039,0.707c0.021-0.031,0.045-0.061,0.045-0.096c0-0.002-0.002-0.006-0.002-0.008
	c-0.004-0.059-0.047-0.107-0.129-0.154c0,0-0.018-0.012-0.033-0.025c0.057-0.049,1.192-1.074,1.192-1.074
	c0.19-0.113,0.399-0.209,0.599-0.303c0.465-0.215,0.942-0.438,1.316-0.908c-0.014,0.01,0.021,0,0.021,0
	c0.047-0.012,0.104-0.027,0.139-0.092c0.012-0.037,0.002-0.074-0.027-0.102c-0.031-0.031-0.076-0.041-0.117-0.027
	c-0.303,0.018-0.549,0.203-0.787,0.381c-0.162,0.123-0.332,0.252-0.523,0.324c-0.393,0.137-0.717,0.314-0.996,0.531
	c0.18-0.352,0.629-0.688,0.891-0.871C273.104,438.162,273.488,437.91,273.488,437.91"/>
<path fill="#3C5F9A" d="M310.471,440.08c-0.879-0.258-1.793-0.465-2.568-1c0.93-0.016,1.964-0.031,2.688-0.672L310.471,440.08z"/>
<path fill="#3C5F9A" d="M299.703,438.688c-0.361,0.311-0.879,0.271-1.223,0.619l-0.498-0.811c0.566-0.018,1.238-0.156,1.721,0.119
	V438.688z"/>
<path fill="#D6484C" d="M298.895,440.135c0.535,0.293,1.119,0.482,1.74,0.602l-0.172,0.018c-2.379,2.258-5.339,3.236-8.234,4.307
	c-0.707,0.205-1.432,0.414-2.172,0.551c1.033,0.018,1.947-0.412,2.895-0.672c2.395-0.861,4.771-1.793,6.906-3.293
	c0.328-0.238,0.691-0.584,0.934-0.857c0.635,0.102,1.292,0.205,1.979,0.205c-1.551,1.516-3.412,2.516-5.219,3.582
	c-2.566,1.344-5.201,2.551-8.217,2.809c-0.57-0.533-0.311-1.43-0.5-2.135c-0.139-0.725-0.293-1.465-0.293-2.205
	c0.5-0.242,1.033,0,1.602-0.119c2.738-0.449,5.375-1.174,7.856-2.207l0.757-0.498c-2.773,1.289-5.824,2.064-8.957,2.549
	c-0.416-0.035-0.861,0-1.205-0.225c-0.396-0.535-0.449-1.225-0.432-1.896c1,0.467,2.359,0.172,3.43,0
	c2.135-0.463,4.287-0.912,6.285-1.723C298.135,439.357,298.412,439.821,298.895,440.135"/>
<path fill="#3C5F9A" d="M307.541,439.789c-0.258-0.262-0.688-0.346-0.775-0.725c0.26-0.154,0.619-0.139,0.914-0.066L307.541,439.789
	z"/>
<path fill="#D6484C" d="M310.971,440.531c-0.432,1.566-0.021,3.459-0.691,4.926c-0.258,0.258-0.584,0.018-0.842-0.035
	c-2.137-1.188-4.256-2.496-6.047-4.41l2.152-0.121c1.152,0.861,2.414,1.447,3.721,1.947c-0.689-0.447-1.566-0.791-2.342-1.223
	l-1.054-0.725c0.655-0.102,1.414-0.242,1.812-0.861l0.156-0.652C308.816,439.91,309.832,440.393,310.971,440.531"/>
<path fill="#F0BF8D" d="M271.365,440.461c-0.033,0.139-0.172,0.205-0.258,0.328l-0.138-0.07
	C271.055,440.633,271.211,440.307,271.365,440.461"/>
<path fill="#F0BF8D" d="M271.004,440.961c0,0.068-0.156,0.137-0.242,0.154c-0.069-0.086-0.069-0.189,0-0.295L271.004,440.961z"/>
<path fill="#3C5F9A" d="M302.564,446.68c0.018,1.516-0.346,2.928-1.035,4.188c-0.447,0.942,0.775,1.392,0.381,2.392
	c-0.244,0.533-0.879,0.533-1.414,0.602l-2.602,0.125c2.018-0.691,2.74-2.877,3.359-4.621l-0.104-0.066
	c-0.637,1.912-2.084,4.393-4.342,4.719c-1.599,0.053-3.221,0.018-4.805-0.031c3.084-1.502,5.734-4.723,7.338-7.648
	c0.395-0.709,0.689-1.484,0.877-2.275l-0.154,0.016c-0.93,2.706-2.721,5.031-4.941,7.184c-1.225,1.102-2.449,2.137-3.895,2.67
	c-0.449-0.018-0.879-0.033-1.293-0.154c-0.291-1.879-0.258-3.926-0.361-5.893c3.186-0.379,5.979-1.791,8.682-3.375
	c1.62-1.018,3.324-2,4.67-3.48C302.803,442.909,301.305,444.871,302.564,446.68"/>
<path fill="#3C5F9A" d="M305.078,442.838c-0.896,0.672-2.152,1.018-2.688,2.17c0.068-1.344,0.619-2.48,0.93-3.721
	C303.873,441.84,304.475,442.373,305.078,442.838"/>
<path fill="#F0BF8D" d="M271.125,441.58l-0.293,0.293l-0.225-0.172C270.762,441.666,270.934,441.32,271.125,441.58"/>
<path fill="#F0BF8D" d="M272.244,442.047c-0.189,0.137-0.465,0.395-0.672,0.068c0.104-0.105,0.377-0.207,0.568-0.207
	L272.244,442.047z"/>
<path fill="#3C5F9A" d="M309.797,445.975c-0.273,1.963-0.756,3.838-1.24,5.719c-0.256-2.672-1.066-5.119-2.014-7.492l-0.035,0.238
	c0.965,2.945,2.185,6.184,1.309,9.51c-0.172,0.227-0.445,0.24-0.708,0.258c-1.532-0.158-3.083-0.221-4.544-0.551l-0.156-0.154
	c0.896-0.898,1.256-2.104,1.344-3.395c1.033-0.379,0.705-1.621,0.912-2.48c0.121-1.533-0.018-3.188,0.568-4.514l0.085-0.068
	C306.766,444.148,308.248,445.131,309.797,445.975"/>
<path fill="#FFFFFF" d="M305.01,443.217c-0.793,1.672-0.449,3.805-0.725,5.686c-0.447-1.051-1.464-1.881-1.74-2.996
	C302.321,444.424,304.045,443.818,305.01,443.217"/>
<path fill="#221714" d="M278.945,443.836c0.068,0.26-0.207,0.381-0.293,0.588l-0.566-0.484c0.048-0.17,0.205-0.379,0.393-0.447
	C278.688,443.51,278.875,443.648,278.945,443.836"/>
<path fill="#F0BF8D" d="M278.824,443.871c0.035,0.174-0.137,0.244-0.207,0.363l-0.379-0.311
	C278.291,443.613,278.756,443.527,278.824,443.871"/>
<path fill="#3C5F9A" d="M303.924,448.85c0.102,0.189,0.102,0.482,0,0.674c-0.604,0.465-1.275,0.791-1.912,1.205
	c0.689-1.07,0.707-2.43,0.758-3.738L303.924,448.85z"/>
<path fill="#FFFFFF" d="M302.117,453.295c0.221-0.553-0.088-1.154-0.346-1.637c-0.02-0.688,0.811-0.949,1.273-1.225l0.432-0.205
	C303.424,451.416,303.064,452.52,302.117,453.295"/>
<path fill="#F0BF8D" d="M301.031,454.125c0.375-0.07,0.762-0.143,1.086-0.379c0.361,0.277,0.832,0.332,1.285,0.385l0.533,0.076
	c0,0,0.002-0.018,0.006-0.031c-0.002,0.014-0.006,0.031-0.006,0.031s2.867,0.383,2.932,0.391c-0.219,1.521-0.584,3.01-0.938,4.449
	c0,0-0.094,0.387-0.102,0.42c-1.564,0.361-3.229,0.445-4.699,0.24c-0.193-1.883-0.344-3.687-0.459-5.508
	C300.715,454.189,301.031,454.125,301.031,454.125"/>
<path fill="#F0BF8D" d="M298.168,454.447c-0.09,1.199-0.242,2.395-0.391,3.553c0,0-0.215,1.748-0.223,1.795
	c-1.488,0.305-3.293,0.283-5.369-0.068c-0.006-0.043-0.102-0.602-0.102-0.602c-0.254-1.49-0.516-3.035-0.58-4.643
	C293.897,454.537,296.141,454.525,298.168,454.447"/>
<path fill="#F0C91E" d="M306.471,459.875c0.104,0.432-0.41,0.379-0.617,0.518c-1.447,0.396-3.188,0.5-4.738,0.24
	c-0.223-0.066-0.533-0.084-0.652-0.361c0-0.123,0.066-0.275,0.205-0.311c1.791,0.311,3.773,0.139,5.479-0.24
	C306.284,459.688,306.422,459.738,306.471,459.875"/>
<path fill="#F0C91E" d="M297.895,460.115c0.088,0.02,0.207,0.086,0.225,0.191c0.051,0.207-0.137,0.311-0.293,0.361
	c-1.998,0.361-4.377,0.414-6.289-0.227c-0.119-0.049-0.137-0.24-0.066-0.342l0.172-0.121
	C293.641,460.307,295.879,460.441,297.895,460.115"/>
<path fill="#F0C91E" d="M306.594,460.842c0.035,0.273-0.275,0.342-0.447,0.41c-1.516,0.482-3.323,0.502-4.979,0.344
	c-0.258-0.1-0.586-0.065-0.777-0.324c-0.049-0.189,0.088-0.361,0.26-0.379c1.809,0.326,3.895,0.205,5.617-0.26
	C306.404,460.633,306.557,460.703,306.594,460.842"/>
<path fill="#F0C91E" d="M297.982,461.063c0.152,0.053,0.188,0.262,0.137,0.416c-0.654,0.326-1.465,0.293-2.205,0.379
	c-1.533,0.086-3.049-0.053-4.393-0.5c-0.07-0.068-0.07-0.225,0-0.313l0.154-0.102C293.691,461.252,295.914,461.393,297.982,461.063"
	/>
<path fill="#F0BF8D" d="M306.367,461.51c0.018,0.01,0.305,0.137,0.414,0.188c-0.043,0.012-0.082,0.025-0.082,0.025
	c-0.105,0.025-0.213,0.053-0.285,0.148l-0.045,0.059l0.076-0.008c0.819-0.092,1.49,0.215,2.137,0.508l0.566,0.25
	c0.582,0.412,1.073,0.838,1.506,1.303c0.014,0.004,0.215,0.059,0.215,0.059c0.219,0.053,0.424,0.102,0.574,0.268
	c-0.018,0.031-0.133,0.215-0.133,0.215l0.105-0.055c0.314-0.164,0.719-0.008,0.979,0.221c0.043,0.08,0.104,0.131,0.172,0.172
	c-0.068,0.006-0.136,0.029-0.191,0.092l-0.008,0.008v0.014c0,0.205,0.17,0.316,0.32,0.414l0.047,0.029h0.012
	c0.146,0,0.267-0.08,0.383-0.156c0,0,0.014-0.01,0.025-0.018c-0.018,0.201-0.053,0.477-0.268,0.561
	c-0.045,0.023-0.092,0.02-0.141,0.02c0,0-0.012,0-0.024-0.002c-0.003-0.316-0.21-0.449-0.427-0.586
	c-0.17-0.104-0.34-0.213-0.436-0.414l-0.004-0.01l-0.009-0.006c-0.134-0.072-0.291-0.104-0.437-0.135
	c-0.205-0.041-0.418-0.082-0.572-0.238l-0.008-0.008l-0.039-0.002c-0.033-0.006-0.084-0.01-0.107,0.035l-0.012,0.021l0.016,0.016
	c0.043,0.049,0.105,0.082,0.166,0.115c0.096,0.051,0.186,0.1,0.205,0.213l0.004,0.023l0.049,0.008
	c0.326,0.045,0.688,0.109,0.877,0.43c-0.109-0.004-0.258-0.004-0.275,0.17c-0.037,0.199,0.105,0.344,0.254,0.475l0.014,0.014
	c0,0,0.45-0.199,0.527-0.23v0.008c0,0.244-0.09,0.541-0.344,0.654c-0.006,0-0.123,0.021-0.123,0.021
	c-0.063,0.016-0.121,0.027-0.18,0c-0.006-0.398-0.131-0.621-0.385-0.68c-0.146-0.039-0.25-0.16-0.359-0.287
	c-0.123-0.145-0.252-0.293-0.451-0.334c-0.119-0.012-0.23-0.07-0.338-0.127c-0.154-0.082-0.315-0.164-0.488-0.111l-0.059,0.018
	c0,0,0.236,0.188,0.279,0.225c-0.039,0.039-0.318,0.34-0.318,0.34l0.117-0.037c0.211-0.066,0.732-0.188,1.053,0.111
	c0,0.004,0.049,0.086,0.049,0.086c0.023,0.035,0.045,0.072,0.052,0.113c-0.151-0.016-0.298,0.061-0.364,0.195
	c-0.037,0.211,0.023,0.475,0.236,0.611l0.014,0.008c0,0,0.631-0.271,0.698-0.301c0.011,0.035,0.017,0.072,0.017,0.107
	c0,0.217-0.135,0.426-0.365,0.543c-0.195,0.139-0.442,0.102-0.611,0.02c-0.012-0.033-0.016-0.068-0.016-0.111
	c0-0.031,0-0.064,0.002-0.1c0-0.035,0.002-0.068,0.002-0.104c0-0.061-0.004-0.117-0.021-0.172c-0.123-0.188-0.291-0.242-0.453-0.297
	c0,0-0.076-0.023-0.09-0.031c-0.193-0.342-0.488-0.49-0.773-0.629c-0.209-0.105-0.43-0.213-0.602-0.396l-0.008-0.008l-0.027-0.004
	c-0.025-0.004-0.082-0.012-0.104,0.037l-0.01,0.02c0,0,0.219,0.23,0.262,0.281c-0.137,0.061-0.275,0.17-0.338,0.283l0.047,0.043
	c0.336-0.227,0.73-0.041,1.076,0.127l0.029,0.012c0,0.004,0.146,0.164,0.146,0.164s0.055,0.053,0.105,0.107
	c-0.162-0.053-0.326-0.057-0.459-0.004c-0.248,0.172-0.262,0.463-0.172,0.68c0.004,0.08,0.037,0.143,0.094,0.176
	c0.098,0.059,0.238,0.012,0.31-0.02c-0.001,0,0.575-0.219,0.75-0.289c-0.005,0.039-0.015,0.076-0.015,0.076
	c-0.053,0.234-0.11,0.477-0.303,0.658c-0.16,0.121-0.395,0.17-0.719,0.146c-0.078-0.002-0.131-0.021-0.162-0.057
	c-0.035-0.039-0.045-0.098-0.045-0.166c0-0.035,0.002-0.07,0.006-0.109c0.002-0.039,0.006-0.082,0.006-0.121
	c0-0.092-0.014-0.176-0.076-0.242c-0.111-0.199-0.313-0.328-0.504-0.459c0,0-0.104-0.068-0.115-0.076
	c-0.172-0.477-0.578-0.68-0.975-0.871c-0.174-0.086-0.359-0.178-0.512-0.287c-0.166-0.055-0.348-0.027-0.486,0.068l-0.012,0.01
	v0.104l0.033-0.002c0.212-0.016,0.424-0.006,0.553,0.15c-0.01,0.004-0.02,0.012-0.02,0.012c-0.107,0.066-0.24,0.15-0.258,0.283
	l-0.002,0.021l0.018,0.012c0.074,0.045,0.168,0,0.258-0.037l0.111-0.047c0.449-0.031,0.842,0.197,1.018,0.584
	c-0.23-0.055-0.494-0.025-0.664,0.08c-0.254,0.164-0.289,0.416-0.322,0.66c0,0.01,0.004,0.059,0.004,0.059
	c0.016,0.094,0.029,0.201,0.129,0.268l0.012,0.01c0,0,1.436-0.43,1.486-0.445c0.041,0.07,0.058,0.16,0.058,0.258
	c0,0.104-0.017,0.209-0.05,0.293c-0.162,0.373-0.561,0.6-0.986,0.566c-0.652-0.115-1.416-0.557-1.641-1.289l-0.008-0.021h-0.096
	c0,0,0.059,0.457,0.066,0.541c-0.254-0.082-0.543-0.174-0.637-0.449l-0.014-0.043l-0.037,0.027c-0.043,0.029-0.06,0.068-0.06,0.107
	c0,0.047,0.024,0.096,0.043,0.139c0,0,0.022,0.063,0.03,0.096c-0.887,0.174-1.807-0.221-2.412-1.041
	c-0.051-0.049-0.068-0.121-0.086-0.186c-0.029-0.102-0.059-0.205-0.174-0.242l-0.021-0.004l-0.012,0.018
	c-0.045,0.057-0.057,0.133-0.057,0.211c0,0.051,0.006,0.1,0.012,0.139c-0.041,0.002-0.119,0.004-0.119,0.004
	c-0.602,0.016-1.348,0.041-1.881-0.242c-0.155-0.195-0.209-0.418-0.209-0.65c0-0.283,0.078-0.582,0.154-0.857
	c0,0,0.043-0.166,0.059-0.234c0.027,0.021,0.053,0.041,0.053,0.041c0.063,0.057,0.127,0.113,0.215,0.127l0.07,0.01l-0.035-0.059
	c-0.174-0.281-0.291-0.662-0.291-1.031c0-0.23,0.045-0.453,0.152-0.645l0.391-0.535l-0.053-0.012c-0.09-0.014-0.199,0.018-0.281,0.1
	v-0.203C302.898,462.109,304.811,461.979,306.367,461.51"/>
<path fill="#F0BF8D" d="M291.828,461.809c1.615,0.436,3.75,0.514,5.725,0.205v0.473c-0.086-0.08-0.17-0.145-0.298-0.145h-0.019
	l-0.037,0.072l0.018,0.016c0.299,0.3,0.461,0.705,0.461,1.115c0,0.174-0.029,0.352-0.09,0.523c-0.002,0-0.271,0.459-0.271,0.459
	l-0.014,0.023l0.02,0.016c0.092,0.076,0.166,0.016,0.221-0.031l0.076-0.053c0,0,0.004-0.002,0.006-0.002
	c0.005,0.016,0.01,0.033,0.01,0.033c0.111,0.361,0.23,0.76,0.23,1.156c0,0.143-0.014,0.291-0.053,0.435
	c-0.438,0.388-1.041,0.526-1.627,0.659c0,0-0.4,0.098-0.477,0.115c0.008-0.068,0.041-0.135,0.076-0.199
	c0.041-0.075,0.082-0.152,0.082-0.232c0-0.037-0.008-0.072-0.028-0.111l-0.013-0.022l-0.027,0.009
	c-0.309,0.113-0.428,0.463-0.521,0.741l-0.029,0.089c-0.41,0.588-1.057,0.854-2.025,0.822c0.012-0.025,0.025-0.053,0.025-0.053
	c0.029-0.053,0.063-0.111,0.063-0.191v-0.041l-0.041,0.01c-0.113,0.031-0.219,0.105-0.328,0.18c-0.131,0.09-0.268,0.176-0.424,0.201
	c0.014-0.045,0.03-0.096,0.03-0.096c0.036-0.1,0.071-0.197,0.071-0.301c0-0.063-0.016-0.129-0.055-0.195l-0.027-0.049l-0.029,0.051
	c-0.297,0.576-0.74,0.967-1.217,1.068c-0.42,0.109-1.189,0.223-1.623-0.23c-0.137-0.148-0.17-0.352-0.17-0.564
	c0-0.053,0-0.105,0.004-0.158c0.484-0.059,0.932,0,1.23,0.154l0.018,0.011l0.016-0.013c0.213-0.172,0.323-0.355,0.34-0.557
	c0-0.189-0.17-0.27-0.305-0.336l-0.057-0.025c0,0-0.256,0-0.34-0.004c0.094-0.186,0.313-0.297,0.543-0.387
	c0.223-0.074,0.463-0.021,0.695,0.033l0.24,0.053l-0.021-0.056c-0.053-0.146-0.209-0.188-0.363-0.231c0,0-0.045-0.014-0.09-0.031
	c0.127-0.033,0.265-0.049,0.404-0.055l0.344-0.025l-0.064-0.049c-0.279-0.244-0.793-0.135-1.051-0.008
	c-0.313,0.094-0.557,0.303-0.813,0.524l-0.379,0.306l-0.059,0.035c-0.238,0.135-0.508,0.287-0.574,0.572
	c-0.039,0.078-0.053,0.16-0.053,0.246c0,0.105,0.021,0.211,0.043,0.316c0,0,0.012,0.072,0.02,0.111
	c-0.318,0.105-0.74,0.07-1.014-0.094c-0.24-0.141-0.299-0.393-0.355-0.639c0,0-0.01-0.047-0.019-0.08
	c0.276-0.049,0.575-0.012,0.896,0.125l0.016,0.004l0.014-0.008c0.174-0.1,0.332-0.277,0.332-0.492c0-0.047-0.007-0.1-0.023-0.148
	c-0.09-0.119-0.229-0.18-0.395-0.18c0.242-0.275,0.75-0.42,0.973-0.467l0.063-0.016l-0.047-0.043
	c-0.117-0.096-0.256-0.105-0.396-0.098l0.021-0.021c0.043-0.035,0.092-0.072,0.092-0.146v-0.021l-0.012-0.002l-0.098-0.045
	c-0.082,0-0.158,0.08-0.225,0.148l-0.031,0.033c-0.23,0.264-0.494,0.465-0.75,0.66c-0.26,0.199-0.531,0.406-0.75,0.668l-0.008,0.008
	c0,0-0.016,0.381-0.018,0.433c-0.252,0.038-0.506-0.06-0.684-0.267c-0.078-0.072-0.096-0.174-0.096-0.283
	c0-0.037,0.004-0.074,0.004-0.115c0,0-0.004-0.117-0.004-0.184c0.053,0.025,0.133,0.066,0.133,0.066
	c0.17,0.092,0.346,0.188,0.549,0.119c0.133-0.127,0.258-0.27,0.258-0.453c0-0.05-0.01-0.104-0.027-0.158l-0.006-0.012
	c0,0-0.117-0.064-0.164-0.088c0.182-0.242,0.449-0.326,0.73-0.391l0.051-0.012c0,0-0.063-0.08-0.082-0.104
	c0.023-0.023,0.092-0.088,0.092-0.088l0.16-0.141l-0.09,0.004c-0.148,0-0.275,0.072-0.4,0.141c-0.131,0.074-0.256,0.143-0.406,0.135
	h-0.021l-0.01,0.02c-0.104,0.23-0.326,0.34-0.545,0.445c-0.264,0.129-0.533,0.26-0.533,0.615c0,0.047,0.01,0.1,0.02,0.156
	c-0.201-0.014-0.436-0.123-0.52-0.355c-0.059-0.072-0.068-0.177-0.068-0.277c0-0.018,0.002-0.035,0.002-0.053
	c0.119,0.107,0.27,0.229,0.418,0.211c0.074-0.008,0.141-0.047,0.197-0.125c0.088-0.064,0.137-0.17,0.137-0.295
	c0-0.051-0.01-0.109-0.031-0.164c-0.043-0.049-0.091-0.07-0.135-0.086c0.197-0.184,0.416-0.287,0.676-0.301h0.012l0.025-0.027
	l0.078-0.117l-0.023-0.002c0,0-0.014-0.01-0.025-0.021c0.014-0.008,0.029-0.018,0.029-0.018c0.039-0.02,0.09-0.045,0.09-0.107
	v-0.047l-0.295,0.096c-0.336,0.098-0.715,0.211-0.928,0.578c-0.01,0.004-0.143,0.041-0.143,0.041c-0.012,0-0.025,0.006-0.037,0.008
	c0.014-0.011,0.285-0.252,0.285-0.252c0.215-0.211,0.42-0.408,0.77-0.375l0.02,0.004l0.01-0.016
	c0.336-0.428,0.801-0.572,1.248-0.706c0.299-0.097,0.609-0.192,0.881-0.372l0.029-0.02l-0.021-0.027
	c-0.055-0.07-0.152-0.064-0.238-0.063h-0.037c0.514-0.57,1.164-0.9,1.797-1.213c0.4-0.203,0.814-0.408,1.195-0.676l0.031-0.021
	l-0.027-0.027c-0.076-0.074-0.195-0.057-0.307-0.014C291.586,462.217,291.809,461.84,291.828,461.809 M285.484,466.25
	c0-0.033,0.008-0.061,0.014-0.09c0.051,0.027,0.107,0.039,0.17,0.035c-0.063,0.039-0.113,0.096-0.139,0.182
	c0,0.004-0.004,0.027-0.006,0.053C285.498,466.369,285.484,466.311,285.484,466.25"/>
<path fill="#F0BF8D" d="M312.934,465.127c-0.051,0.191-0.326,0.088-0.377-0.102L312.934,465.127z"/>
<path fill="#F0BF8D" d="M312.277,465.592c0.021,0.07-0.154,0.107-0.238,0.156c-0.088-0.066-0.191-0.189-0.139-0.291
	C312.039,465.457,312.176,465.51,312.277,465.592"/>
<path fill="#F0BF8D" d="M311.4,466.059l-0.465,0.26c-0.086-0.104-0.189-0.295-0.051-0.412
	C311.089,465.854,311.246,465.975,311.4,466.059"/>
<path fill="#F0BF8D" d="M286.389,466.197c0.102,0.137-0.053,0.26-0.156,0.311c-0.119,0.016-0.189-0.051-0.275-0.123
	C286.061,466.268,286.232,466.197,286.389,466.197"/>
<path fill="#F0BF8D" d="M310.176,466.508l-0.738,0.275c-0.07-0.104-0.07-0.311,0-0.43
	C309.678,466.164,309.971,466.404,310.176,466.508"/>
<path fill="#F0BF8D" d="M308.574,466.783l-1.119,0.361c-0.121-0.121,0-0.291,0.035-0.43c0.102-0.121,0.223-0.174,0.346-0.225
	C308.127,466.473,308.367,466.576,308.574,466.783"/>
<path fill="#F0BF8D" d="M287.455,466.576c0.018,0.139-0.018,0.291-0.156,0.395l-0.426-0.152
	C286.975,466.68,287.232,466.523,287.455,466.576"/>
<path fill="#F0BF8D" d="M288.852,467.145c-0.174,0.223-0.482-0.033-0.76,0.053C288.213,467.039,288.92,466.594,288.852,467.145"/>
<path fill="#F0BF8D" d="M290.885,467.197c-0.088,0.654-0.691,0.018-1.104,0.154C290.074,467.127,290.574,466.904,290.885,467.197"/>
<path fill="#221714" d="M300.809,401.395c0.191,0.291,0.256,0.652,0.379,0.979c-0.326-0.6-0.705-1.379-1.41-1.824
	c-0.916-0.584-2.172-0.604-3.188-0.24c0.738-0.67,2.17-0.67,3.047-0.191C300.119,400.393,300.533,400.91,300.809,401.395"/>
<path fill="#221714" d="M311.695,400.705c-0.982-0.242-2.137-0.104-2.963,0.479c-0.518,0.36-0.844,0.896-1.084,1.415l-0.051,0.033
	c0.205-0.965,1.15-1.91,2.135-2.152c0.637-0.139,1.428-0.154,1.963,0.189V400.705z"/>
<path fill="#221714" d="M300.465,401.633c0.377,0.5,0.584,1.119,0.535,1.793h-0.055c-0.051-0.793-0.498-1.568-1.238-1.93
	c-0.465-0.227-0.947-0.396-1.498-0.381c0.43,0.279,0.895,0.793,0.91,1.381c0,0.207-0.016,0.412-0.068,0.604
	c-0.205-0.053-0.518-0.141-0.707,0.014c0.055,0.244,0.328,0.277,0.484,0.434c-0.381,0.516-1,0.809-1.637,0.637
	c0.361,0.414,0.947,0.586,1.533,0.568c0.793,0,1.345-0.621,1.912-1.104c-0.432,0.742-1.188,1.189-1.998,1.242
	c-1,0-1.93-0.568-2.395-1.465c-0.275-0.588-0.189-1.379,0.189-1.881l0.395-0.342c-0.43-0.068-0.945-0.018-1.238-0.311
	c1.43,0.156,2.936-0.785,4.219,0.156C300.215,401.344,300.332,401.506,300.465,401.633"/>
<path fill="#FFFFFF" d="M300.637,403.648c-0.568,0.482-1.119,1.104-1.912,1.104c-0.586,0.018-1.172-0.154-1.533-0.568
	c0.636,0.172,1.256-0.121,1.636-0.637c-0.155-0.156-0.429-0.189-0.483-0.434c0.188-0.154,0.502-0.066,0.707-0.014
	c0.053-0.191,0.067-0.396,0.067-0.604c-0.015-0.588-0.479-1.102-0.909-1.381c0.551-0.016,1.032,0.154,1.498,0.383
	c0.691,0.336,1.127,1.033,1.225,1.768C300.932,403.266,300.764,403.551,300.637,403.648"/>
<path fill="#221714" d="M312.316,401.428c-0.086,0.258-0.707,0.051-0.465,0.48c0.273,0.863-0.018,1.795-0.691,2.414
	c-0.533,0.465-1.17,0.794-1.893,0.604c-0.654-0.174-1.344-0.813-1.5-1.484c-0.051-0.842,0.432-1.619,1.137-2.102
	C309.921,400.549,311.23,401.27,312.316,401.428"/>
<path fill="#FFFFFF" d="M311.402,401.633c0.293,0.621,0.414,1.467,0.07,2.102c-0.449,0.656-1.121,1.174-1.914,1.018l-0.568-0.224
	c0.361-0.067,0.813-0.276,1.086-0.655c-0.172-0.154-0.414-0.225-0.518-0.432c0.207-0.172,0.553-0.068,0.742,0
	c0.154-0.375,0.016-0.793-0.139-1.135c-0.207-0.313-0.533-0.639-0.895-0.688C309.816,401.238,310.783,401.307,311.402,401.633"/>
<path fill="#FFFFFF" d="M298,402.34c0.053,0.242-0.068,0.482-0.309,0.553c-0.24,0.049-0.465-0.055-0.568-0.26
	c-0.068-0.223,0-0.482,0.223-0.586C297.586,401.961,297.932,402.047,298,402.34"/>
<path fill="#221714" d="M306.992,407.285c-0.137,0.205-0.291,0.482-0.553,0.533c-0.738,0.191-1.343-0.344-2.064-0.172h-0.018
	c0.535-0.689,1.291,0.295,1.912-0.223c1.016-0.775,0.309-2.154,0.105-3.086c-0.295-0.533-0.416-1.225-0.26-1.877
	C306.096,404.199,307.527,405.51,306.992,407.285"/>
<path fill="#FFFFFF" d="M309.078,402.736c0.068,0.205-0.035,0.447-0.225,0.553c-0.207,0.053-0.414-0.055-0.5-0.26
	c-0.018-0.191,0-0.447,0.225-0.533C308.801,402.391,309.008,402.582,309.078,402.736"/>
<path fill="#221714" d="M301.844,409.781c0.945,0.896,2.186,1.588,3.531,1.154c0.635-0.291,1.223-1.014,2.014-0.584
	c0.035,0.066,0.139,0.154,0.07,0.258c-0.379,0.242-0.674-0.568-1.052-0.053c-0.655,0.689-1.584,0.844-2.532,0.725
	c-0.758-0.207-1.43-0.689-2.049-1.24c-0.328-0.016-0.656,0.533-0.896,0.104C301.102,409.836,301.498,409.73,301.844,409.781"/>
<path fill="#221714" d="M306.477,414.313c-0.242,0.826-1.119,1.242-1.912,1.309c-1.086,0.105-2.17-0.051-3.154-0.359
	c0-0.07-0.1-0.086-0.049-0.156c1.084,0.189,2.357,0.566,3.51,0.189c0.727-0.189,1.381-0.896,1.588-1.619
	c0.053-0.051,0.119-0.035,0.139,0.018L306.477,414.313z"/>
</svg>
